<svg id="svg" version="1.1" xmlns="http://www.w3.org/2000/svg" xmlns:xlink="http://www.w3.org/1999/xlink" width="400" height="400" viewBox="0, 0, 400,400"><g id="svgg"><path id="path0" d="M131.554 54.979 C 131.456 55.078,129.761 55.347,127.787 55.578 C 123.062 56.131,118.530 56.971,117.000 57.578 C 116.560 57.752,114.940 58.288,113.400 58.768 C 109.918 59.854,110.007 59.817,104.234 62.570 C 90.109 69.306,77.698 81.367,70.862 95.000 C 69.196 98.324,66.414 106.209,65.288 110.800 C 62.355 122.762,62.097 132.338,64.401 143.800 C 64.623 144.900,64.914 146.456,65.049 147.257 C 65.320 148.867,66.378 149.600,68.435 149.600 C 73.290 149.600,78.000 155.979,78.000 162.555 C 78.000 165.599,81.099 169.697,84.764 171.500 L 87.000 172.600 116.085 172.715 L 145.169 172.830 146.777 171.815 C 147.661 171.257,148.660 170.800,148.997 170.800 C 149.335 170.800,149.923 170.641,150.305 170.447 C 151.528 169.825,162.171 165.702,169.200 163.128 C 171.402 162.321,172.243 161.995,174.300 161.146 C 174.905 160.897,175.850 160.516,176.400 160.300 C 176.950 160.084,177.713 159.748,178.095 159.553 C 178.477 159.359,179.152 159.200,179.595 159.200 C 180.038 159.200,180.400 159.059,180.400 158.887 C 180.400 158.715,181.255 158.325,182.300 158.020 C 183.345 157.715,184.470 157.337,184.800 157.179 C 185.130 157.022,185.895 156.692,186.500 156.447 C 187.105 156.201,188.095 155.796,188.700 155.546 C 189.305 155.297,190.160 154.954,190.600 154.783 C 194.947 153.100,197.548 152.120,200.610 151.009 C 207.508 148.507,208.295 148.077,208.543 146.668 C 208.666 145.971,208.962 144.410,209.201 143.200 C 212.950 124.232,209.136 103.890,198.903 88.277 C 196.469 84.563,189.868 76.412,189.275 76.389 C 189.124 76.383,188.261 75.708,187.357 74.889 C 178.958 67.274,169.714 61.791,160.200 58.781 C 158.660 58.294,157.040 57.757,156.600 57.589 C 155.852 57.304,153.442 56.781,149.200 55.985 C 143.963 55.003,132.201 54.332,131.554 54.979 M231.200 313.889 C 222.614 314.335,204.943 316.420,196.400 317.995 C 195.190 318.218,193.210 318.578,192.000 318.796 C 190.790 319.013,189.080 319.353,188.200 319.552 C 186.688 319.894,180.220 321.273,176.500 322.047 C 175.565 322.241,173.945 322.579,172.900 322.798 C 170.125 323.380,163.905 324.496,159.400 325.221 C 155.132 325.907,147.036 326.878,139.000 327.668 C 136.348 327.928,119.544 328.165,96.700 328.263 C 65.867 328.396,58.800 328.524,58.800 328.949 C 58.800 329.237,60.335 331.060,62.212 333.001 C 64.088 334.941,65.556 336.725,65.473 336.965 C 65.323 337.396,69.399 341.600,69.967 341.600 C 70.129 341.600,71.688 342.940,73.431 344.579 C 78.356 349.208,78.490 349.328,80.400 350.806 C 81.390 351.573,82.290 352.290,82.400 352.400 C 82.510 352.510,83.140 352.975,83.800 353.432 C 88.410 356.630,89.423 357.357,89.600 357.593 C 89.710 357.740,90.565 358.284,91.500 358.803 C 92.435 359.323,93.200 359.894,93.200 360.074 C 93.200 360.253,93.470 360.400,93.800 360.400 C 94.130 360.400,94.400 360.536,94.400 360.702 C 94.400 360.869,94.985 361.264,95.700 361.580 C 96.415 361.897,97.349 362.480,97.775 362.878 C 98.202 363.275,98.787 363.600,99.075 363.600 C 99.364 363.600,99.600 363.780,99.600 364.000 C 99.600 364.220,99.881 364.400,100.224 364.400 C 100.567 364.400,100.736 364.580,100.600 364.800 C 100.464 365.020,100.636 365.200,100.982 365.200 C 101.657 365.200,103.046 365.905,103.887 366.674 C 104.172 366.934,104.764 367.262,105.202 367.401 C 105.641 367.540,106.000 367.822,106.000 368.027 C 106.000 368.232,106.360 368.400,106.800 368.400 C 107.240 368.400,107.600 368.544,107.600 368.720 C 107.600 368.895,108.230 369.267,109.000 369.546 C 109.770 369.824,110.400 370.220,110.400 370.426 C 110.400 370.632,110.625 370.803,110.900 370.807 C 111.175 370.812,112.637 371.442,114.148 372.207 C 115.660 372.973,117.240 373.600,117.661 373.600 C 118.081 373.600,118.528 373.869,118.654 374.198 C 118.949 374.966,119.600 374.573,119.600 373.626 C 119.600 373.047,120.027 372.849,121.700 372.653 C 122.855 372.518,124.790 372.240,126.000 372.036 C 127.210 371.831,129.370 371.477,130.800 371.249 C 135.196 370.549,138.103 370.055,140.400 369.618 C 141.610 369.388,143.590 369.033,144.800 368.829 C 157.242 366.735,180.681 360.433,189.400 356.837 C 189.840 356.656,190.650 356.319,191.200 356.090 C 202.485 351.378,225.247 343.200,227.076 343.200 C 227.370 343.200,227.923 343.038,228.305 342.839 C 228.687 342.640,229.765 342.280,230.700 342.039 C 234.320 341.104,235.837 340.696,236.800 340.396 C 237.350 340.225,238.880 339.867,240.200 339.600 C 241.520 339.333,243.050 338.973,243.600 338.800 C 245.281 338.271,255.227 336.349,260.000 335.630 C 261.650 335.382,263.990 335.013,265.200 334.809 C 280.642 332.218,305.776 331.551,326.600 333.182 C 329.460 333.406,332.922 333.675,334.293 333.779 L 336.787 333.969 339.231 331.570 C 342.434 328.425,342.521 328.506,333.549 326.261 C 329.287 325.194,324.540 323.986,323.000 323.576 C 317.897 322.217,308.710 320.077,304.200 319.197 C 289.311 316.290,279.055 314.984,263.400 313.998 C 257.842 313.649,237.178 313.579,231.200 313.889 M325.661 344.655 C 324.925 345.425,324.418 346.151,324.534 346.268 C 324.745 346.479,327.600 343.821,327.600 343.413 C 327.600 342.908,326.909 343.350,325.661 344.655 M307.400 346.840 C 298.900 347.213,290.669 347.997,282.800 349.183 C 281.370 349.399,279.030 349.751,277.600 349.966 C 276.170 350.181,274.100 350.531,273.000 350.743 C 271.900 350.955,270.010 351.309,268.800 351.529 C 262.611 352.655,251.380 355.446,244.600 357.543 C 243.280 357.951,241.390 358.508,240.400 358.781 C 239.410 359.054,238.287 359.440,237.905 359.639 C 237.523 359.838,236.936 360.000,236.600 360.000 C 236.264 360.000,235.677 360.171,235.295 360.381 C 234.913 360.591,233.430 361.143,232.000 361.607 C 230.570 362.072,228.995 362.621,228.500 362.826 C 226.873 363.502,225.851 363.905,221.400 365.628 C 218.980 366.564,215.380 368.039,213.400 368.905 C 209.791 370.485,207.747 371.443,196.600 376.782 C 193.300 378.363,190.240 379.805,189.800 379.987 C 188.053 380.711,186.097 381.560,183.988 382.511 C 181.798 383.499,172.390 387.050,169.500 387.979 C 166.871 388.825,167.823 389.845,171.600 390.229 C 172.370 390.307,173.450 390.504,174.000 390.666 C 175.332 391.060,176.118 391.115,185.100 391.439 C 189.335 391.593,192.800 391.871,192.800 392.059 C 192.800 392.247,196.040 392.400,200.000 392.400 C 203.960 392.400,207.200 392.246,207.200 392.057 C 207.200 391.781,216.043 391.288,223.600 391.142 C 224.370 391.128,225.284 390.965,225.630 390.781 C 225.977 390.597,227.147 390.346,228.230 390.223 C 229.314 390.100,231.280 389.825,232.600 389.613 C 236.033 389.060,238.168 388.631,244.500 387.221 C 245.435 387.013,246.740 386.730,247.400 386.591 C 248.060 386.453,248.960 386.198,249.400 386.025 C 251.323 385.269,253.135 384.800,254.128 384.800 C 254.718 384.800,255.200 384.620,255.200 384.400 C 255.200 384.180,255.639 384.000,256.176 384.000 C 256.713 384.000,257.264 383.820,257.400 383.600 C 257.536 383.380,258.187 383.200,258.847 383.200 C 259.545 383.200,259.944 383.033,259.800 382.800 C 259.656 382.567,260.055 382.400,260.753 382.400 C 261.413 382.400,262.064 382.220,262.200 382.000 C 262.336 381.780,262.887 381.600,263.424 381.600 C 263.961 381.600,264.400 381.420,264.400 381.200 C 264.400 380.980,264.940 380.800,265.600 380.800 C 266.260 380.800,266.800 380.620,266.800 380.400 C 266.800 380.180,267.250 380.000,267.800 380.000 C 268.350 380.000,268.800 379.820,268.800 379.600 C 268.800 379.380,269.250 379.200,269.800 379.200 C 270.350 379.200,270.800 379.020,270.800 378.800 C 270.800 378.580,271.250 378.400,271.800 378.400 C 272.350 378.400,272.800 378.220,272.800 378.000 C 272.800 377.780,273.261 377.600,273.824 377.600 C 274.404 377.600,274.740 377.427,274.600 377.200 C 274.456 376.967,274.863 376.800,275.576 376.800 C 276.249 376.800,276.800 376.620,276.800 376.400 C 276.800 376.180,277.160 376.000,277.600 376.000 C 278.040 376.000,278.400 375.820,278.400 375.600 C 278.400 375.380,278.760 375.200,279.200 375.200 C 279.640 375.200,280.000 374.999,280.000 374.753 C 280.000 374.507,280.351 374.398,280.781 374.511 C 281.210 374.623,281.615 374.599,281.681 374.458 C 281.792 374.218,283.072 373.566,287.600 371.444 C 288.590 370.980,289.490 370.496,289.600 370.368 C 289.710 370.240,290.385 369.881,291.100 369.570 C 291.815 369.259,292.400 368.869,292.400 368.702 C 292.400 368.536,292.760 368.400,293.200 368.400 C 293.640 368.400,294.000 368.220,294.000 368.000 C 294.000 367.780,294.236 367.600,294.525 367.600 C 294.813 367.600,295.436 367.240,295.908 366.800 C 296.380 366.360,297.044 366.000,297.383 366.000 C 297.722 366.000,298.000 365.841,298.000 365.647 C 298.000 365.452,298.315 365.193,298.700 365.071 C 299.654 364.769,301.667 363.532,302.399 362.797 C 302.730 362.466,303.540 361.926,304.200 361.597 C 304.860 361.269,305.749 360.685,306.175 360.300 C 306.602 359.915,307.110 359.600,307.304 359.600 C 307.498 359.600,307.908 359.375,308.215 359.100 C 309.294 358.132,309.818 357.767,311.697 356.674 C 312.740 356.067,314.037 355.127,314.579 354.585 C 315.120 354.043,315.770 353.600,316.021 353.600 C 316.273 353.600,316.956 353.097,317.540 352.481 C 318.123 351.866,318.977 351.101,319.437 350.781 C 321.138 349.600,324.000 347.064,324.000 346.737 C 324.000 346.357,317.491 346.397,307.400 346.840 M120.000 374.800 C 120.000 375.020,120.236 375.200,120.525 375.200 C 120.814 375.200,121.795 375.560,122.706 376.000 C 124.597 376.914,124.800 376.953,124.800 376.400 C 124.800 376.180,124.440 376.000,124.000 376.000 C 123.560 376.000,123.200 375.820,123.200 375.600 C 123.200 375.380,122.840 375.200,122.400 375.200 C 121.960 375.200,121.600 375.020,121.600 374.800 C 121.600 374.580,121.240 374.400,120.800 374.400 C 120.360 374.400,120.000 374.580,120.000 374.800 M125.400 377.200 C 125.536 377.420,125.907 377.600,126.224 377.600 C 126.541 377.600,126.800 377.420,126.800 377.200 C 126.800 376.980,126.429 376.800,125.976 376.800 C 125.523 376.800,125.264 376.980,125.400 377.200 M127.028 377.954 C 126.908 378.149,127.257 378.394,127.805 378.499 C 128.471 378.626,128.800 378.509,128.800 378.145 C 128.800 377.544,127.376 377.391,127.028 377.954 M129.520 378.880 C 129.893 379.253,130.107 379.253,130.480 378.880 C 130.853 378.507,130.747 378.400,130.000 378.400 C 129.253 378.400,129.147 378.507,129.520 378.880 M131.000 379.600 C 130.864 379.820,131.113 380.000,131.553 380.000 C 131.993 380.000,132.464 379.820,132.600 379.600 C 132.736 379.380,132.487 379.200,132.047 379.200 C 131.607 379.200,131.136 379.380,131.000 379.600 M133.400 380.400 C 133.536 380.620,133.896 380.800,134.200 380.800 C 134.504 380.800,134.864 380.620,135.000 380.400 C 135.141 380.172,134.796 380.000,134.200 380.000 C 133.604 380.000,133.259 380.172,133.400 380.400 M135.200 381.200 C 134.732 381.502,134.843 381.589,135.700 381.594 C 136.305 381.597,136.800 381.420,136.800 381.200 C 136.800 380.694,135.983 380.694,135.200 381.200 M137.800 382.000 C 137.936 382.220,138.397 382.400,138.824 382.400 C 139.251 382.400,139.600 382.220,139.600 382.000 C 139.600 381.780,139.139 381.600,138.576 381.600 C 137.996 381.600,137.660 381.773,137.800 382.000 M140.400 382.800 C 140.400 383.020,140.670 383.200,141.000 383.200 C 141.330 383.200,141.600 383.020,141.600 382.800 C 141.600 382.580,141.330 382.400,141.000 382.400 C 140.670 382.400,140.400 382.580,140.400 382.800 M142.400 383.600 C 142.400 383.820,142.850 384.000,143.400 384.000 C 143.950 384.000,144.400 383.820,144.400 383.600 C 144.400 383.380,143.950 383.200,143.400 383.200 C 142.850 383.200,142.400 383.380,142.400 383.600 M145.000 384.400 C 144.855 384.634,145.270 384.800,146.000 384.800 C 146.730 384.800,147.145 384.634,147.000 384.400 C 146.864 384.180,146.414 384.000,146.000 384.000 C 145.586 384.000,145.136 384.180,145.000 384.400 M148.139 385.254 C 148.668 385.561,149.002 385.558,149.319 385.241 C 149.640 384.920,149.441 384.803,148.580 384.812 C 147.546 384.823,147.491 384.877,148.139 385.254 M150.544 385.877 C 151.001 386.334,152.400 386.425,152.400 385.997 C 152.400 385.779,151.920 385.600,151.333 385.600 C 150.747 385.600,150.391 385.725,150.544 385.877 M153.968 386.838 C 154.609 387.094,155.075 387.085,155.348 386.812 C 155.631 386.529,155.327 386.408,154.380 386.425 C 153.083 386.449,153.058 386.474,153.968 386.838 M157.018 387.171 C 156.737 387.625,158.233 388.151,158.803 387.798 C 159.029 387.659,159.109 387.377,158.983 387.172 C 158.685 386.691,157.315 386.690,157.018 387.171 M161.084 387.850 C 160.549 388.384,160.803 388.600,162.015 388.643 C 162.740 388.669,163.170 388.508,163.083 388.243 C 162.911 387.721,161.492 387.441,161.084 387.850 M165.000 388.800 C 164.860 389.027,165.196 389.200,165.776 389.200 C 166.339 389.200,166.800 389.020,166.800 388.800 C 166.800 388.580,166.451 388.400,166.024 388.400 C 165.597 388.400,165.136 388.580,165.000 388.800 " stroke="none" fill="#fbd6a0" fill-rule="evenodd"></path><path id="path1" d="M192.800 7.944 C 192.800 8.133,189.335 8.407,185.100 8.552 C 180.865 8.698,176.770 8.899,176.000 9.001 C 175.230 9.102,173.250 9.373,171.600 9.603 C 169.950 9.834,167.700 10.124,166.600 10.248 C 165.500 10.372,164.429 10.637,164.220 10.837 C 164.011 11.037,163.077 11.200,162.144 11.200 C 161.211 11.200,160.336 11.380,160.200 11.600 C 160.064 11.820,159.243 12.000,158.376 12.000 C 157.509 12.000,156.800 12.180,156.800 12.400 C 156.800 12.620,156.080 12.800,155.200 12.800 C 154.320 12.800,153.600 12.980,153.600 13.200 C 153.600 13.420,152.880 13.600,152.000 13.600 C 151.120 13.600,150.400 13.780,150.400 14.000 C 150.400 14.220,149.860 14.400,149.200 14.400 C 148.540 14.400,148.000 14.580,148.000 14.800 C 148.000 15.020,147.460 15.200,146.800 15.200 C 146.140 15.200,145.600 15.380,145.600 15.600 C 145.600 15.820,145.161 16.000,144.624 16.000 C 144.087 16.000,143.536 16.180,143.400 16.400 C 143.264 16.620,142.634 16.800,142.000 16.800 C 141.366 16.800,140.736 16.980,140.600 17.200 C 140.464 17.420,139.924 17.600,139.400 17.600 C 138.876 17.600,138.336 17.780,138.200 18.000 C 138.064 18.220,137.603 18.400,137.176 18.400 C 136.749 18.400,136.400 18.580,136.400 18.800 C 136.400 19.020,135.860 19.200,135.200 19.200 C 134.540 19.200,134.000 19.380,134.000 19.600 C 134.000 19.820,133.460 20.000,132.800 20.000 C 132.140 20.000,131.600 20.180,131.600 20.400 C 131.600 20.620,131.251 20.800,130.824 20.800 C 130.397 20.800,129.936 20.980,129.800 21.200 C 129.664 21.420,129.113 21.600,128.576 21.600 C 128.039 21.600,127.600 21.760,127.600 21.956 C 127.600 22.152,126.790 22.551,125.800 22.843 C 124.810 23.135,124.000 23.515,124.000 23.687 C 124.000 23.859,123.640 24.000,123.200 24.000 C 122.760 24.000,122.400 24.180,122.400 24.400 C 122.400 24.620,122.040 24.800,121.600 24.800 C 121.160 24.800,120.800 24.991,120.800 25.224 C 120.800 25.457,120.622 25.537,120.405 25.403 C 120.187 25.268,119.152 25.557,118.105 26.044 C 117.057 26.530,116.110 26.949,116.000 26.974 C 114.657 27.278,108.745 30.673,108.467 31.300 C 108.393 31.465,107.988 31.600,107.567 31.600 C 107.145 31.600,106.800 31.780,106.800 32.000 C 106.800 32.220,106.440 32.400,106.000 32.400 C 105.560 32.400,105.200 32.580,105.200 32.800 C 105.200 33.020,104.922 33.200,104.583 33.200 C 104.244 33.200,103.580 33.560,103.108 34.000 C 102.636 34.440,102.013 34.800,101.725 34.800 C 101.436 34.800,101.200 34.980,101.200 35.200 C 101.200 35.420,100.840 35.600,100.400 35.600 C 99.960 35.600,99.600 35.780,99.600 36.000 C 99.600 36.220,99.364 36.400,99.075 36.400 C 98.787 36.400,98.202 36.715,97.775 37.100 C 97.349 37.485,96.505 38.055,95.900 38.368 C 95.295 38.680,94.800 39.085,94.800 39.268 C 94.800 39.450,94.530 39.600,94.200 39.600 C 93.870 39.600,93.600 39.780,93.600 40.000 C 93.600 40.220,93.319 40.400,92.976 40.400 C 92.633 40.400,92.464 40.580,92.600 40.800 C 92.736 41.020,92.559 41.200,92.207 41.200 C 91.855 41.200,91.180 41.560,90.708 42.000 C 90.236 42.440,89.613 42.800,89.325 42.800 C 89.036 42.800,88.800 42.991,88.800 43.224 C 88.800 43.457,88.653 43.556,88.473 43.445 C 88.293 43.334,87.893 43.593,87.585 44.021 C 87.276 44.450,86.838 44.801,86.612 44.802 C 86.385 44.803,85.625 45.343,84.922 46.002 C 84.219 46.661,83.480 47.200,83.281 47.200 C 83.082 47.200,82.397 47.697,81.759 48.304 C 81.122 48.912,79.970 49.850,79.200 50.389 C 78.430 50.928,77.323 51.871,76.740 52.485 C 76.156 53.098,75.563 53.600,75.420 53.600 C 75.278 53.600,73.910 54.869,72.381 56.420 C 70.851 57.970,69.600 59.164,69.600 59.072 C 69.600 58.833,66.630 61.452,64.238 63.800 C 62.063 65.935,58.800 69.600,59.074 69.600 C 59.165 69.600,57.970 70.851,56.420 72.381 C 54.869 73.910,53.600 75.259,53.600 75.379 C 53.600 75.498,52.700 76.515,51.600 77.639 C 50.500 78.762,49.600 79.861,49.600 80.080 C 49.600 80.299,49.060 80.983,48.400 81.600 C 47.740 82.217,47.200 82.900,47.200 83.118 C 47.200 83.337,46.705 84.046,46.100 84.694 C 45.495 85.343,44.745 86.352,44.432 86.937 C 44.120 87.521,43.705 88.000,43.509 88.000 C 43.313 88.000,43.264 88.180,43.400 88.400 C 43.536 88.620,43.457 88.800,43.224 88.800 C 42.991 88.800,42.800 89.036,42.800 89.325 C 42.800 89.613,42.440 90.236,42.000 90.708 C 41.560 91.180,41.200 91.855,41.200 92.207 C 41.200 92.559,41.047 92.753,40.860 92.637 C 40.673 92.522,40.270 92.916,39.963 93.514 C 39.656 94.111,39.089 94.891,38.703 95.247 C 38.316 95.603,38.000 96.148,38.000 96.459 C 38.000 96.769,37.640 97.283,37.200 97.600 C 36.760 97.917,36.400 98.497,36.400 98.888 C 36.400 99.280,36.220 99.600,36.000 99.600 C 35.780 99.600,35.600 99.920,35.600 100.312 C 35.600 100.703,35.240 101.283,34.800 101.600 C 34.360 101.917,34.000 102.497,34.000 102.888 C 34.000 103.280,33.820 103.600,33.600 103.600 C 33.380 103.600,33.200 103.960,33.200 104.400 C 33.200 104.840,33.020 105.200,32.800 105.200 C 32.580 105.200,32.400 105.436,32.400 105.725 C 32.400 106.013,32.040 106.636,31.600 107.108 C 31.160 107.580,30.800 108.229,30.800 108.550 C 30.800 108.871,30.659 109.193,30.487 109.267 C 30.214 109.383,26.248 117.072,26.189 117.600 C 26.177 117.710,25.859 118.376,25.483 119.080 C 25.107 119.784,24.800 120.819,24.800 121.380 C 24.800 121.941,24.620 122.400,24.400 122.400 C 24.180 122.400,24.000 122.760,24.000 123.200 C 24.000 123.640,23.820 124.000,23.600 124.000 C 23.380 124.000,23.200 124.360,23.200 124.800 C 23.200 125.240,23.020 125.600,22.800 125.600 C 22.580 125.600,22.400 126.050,22.400 126.600 C 22.400 127.150,22.220 127.600,22.000 127.600 C 21.780 127.600,21.600 127.960,21.600 128.400 C 21.600 128.840,21.420 129.200,21.200 129.200 C 20.980 129.200,20.800 129.740,20.800 130.400 C 20.800 131.060,20.620 131.600,20.400 131.600 C 20.180 131.600,20.000 131.949,20.000 132.376 C 20.000 132.803,19.820 133.264,19.600 133.400 C 19.380 133.536,19.200 134.087,19.200 134.624 C 19.200 135.161,19.020 135.600,18.800 135.600 C 18.580 135.600,18.400 136.140,18.400 136.800 C 18.400 137.460,18.220 138.000,18.000 138.000 C 17.780 138.000,17.600 138.540,17.600 139.200 C 17.600 139.860,17.420 140.400,17.200 140.400 C 16.980 140.400,16.800 140.940,16.800 141.600 C 16.800 142.260,16.620 142.800,16.400 142.800 C 16.180 142.800,16.000 143.340,16.000 144.000 C 16.000 144.660,15.820 145.200,15.600 145.200 C 15.380 145.200,15.200 145.830,15.200 146.600 C 15.200 147.370,15.020 148.000,14.800 148.000 C 14.580 148.000,14.400 148.720,14.400 149.600 C 14.400 150.480,14.220 151.200,14.000 151.200 C 13.780 151.200,13.600 151.920,13.600 152.800 C 13.600 153.680,13.420 154.400,13.200 154.400 C 12.980 154.400,12.800 155.120,12.800 156.000 C 12.800 156.880,12.655 157.600,12.478 157.600 C 12.301 157.600,12.112 158.365,12.057 159.300 C 12.002 160.235,11.787 161.171,11.579 161.380 C 11.370 161.589,11.200 162.523,11.200 163.456 C 11.200 164.389,11.020 165.264,10.800 165.400 C 10.580 165.536,10.400 166.591,10.400 167.744 C 10.400 168.897,10.184 170.056,9.920 170.320 C 8.331 171.909,19.704 172.526,23.565 171.060 C 28.111 169.334,31.200 164.656,31.200 159.498 C 31.200 155.687,34.271 151.283,38.157 149.525 C 40.111 148.640,40.732 148.591,52.400 148.400 C 62.971 148.227,64.582 148.120,64.463 147.600 C 64.304 146.900,63.726 143.928,63.142 140.800 C 62.496 137.339,62.252 123.035,62.784 119.800 C 63.609 114.784,64.146 112.339,65.595 107.000 C 66.964 101.957,70.614 93.822,73.256 89.922 C 74.105 88.669,74.800 87.546,74.800 87.427 C 74.800 87.307,75.060 86.892,75.378 86.505 C 75.695 86.117,76.820 84.635,77.878 83.211 C 83.210 76.028,92.796 67.950,101.200 63.559 C 102.630 62.811,103.860 62.065,103.933 61.900 C 104.007 61.735,104.324 61.600,104.639 61.600 C 104.953 61.600,105.523 61.443,105.905 61.250 C 108.966 59.708,110.169 59.200,110.758 59.200 C 111.133 59.200,111.611 59.051,111.820 58.870 C 112.029 58.688,113.010 58.307,114.000 58.024 C 114.990 57.741,116.160 57.363,116.600 57.185 C 117.744 56.721,121.747 55.893,126.600 55.117 C 130.373 54.513,143.035 54.524,147.000 55.135 C 148.760 55.406,150.920 55.730,151.800 55.855 C 152.680 55.980,153.571 56.244,153.780 56.441 C 153.989 56.638,154.743 56.800,155.456 56.800 C 156.169 56.800,156.864 56.980,157.000 57.200 C 157.136 57.420,157.676 57.600,158.200 57.600 C 158.724 57.600,159.264 57.780,159.400 58.000 C 159.536 58.220,160.076 58.400,160.600 58.400 C 161.124 58.400,161.664 58.580,161.800 58.800 C 161.936 59.020,162.380 59.200,162.786 59.200 C 163.192 59.200,164.216 59.539,165.062 59.954 C 165.908 60.369,167.860 61.307,169.400 62.039 C 175.255 64.821,182.969 70.022,187.101 73.973 C 189.171 75.953,188.927 75.954,191.085 73.964 C 192.061 73.065,193.701 71.940,194.730 71.464 L 196.600 70.600 250.000 70.600 L 303.400 70.600 305.249 71.455 C 314.631 75.793,314.832 87.928,305.600 92.666 L 303.400 93.795 285.000 94.000 C 264.361 94.231,265.202 94.113,261.762 97.269 C 259.437 99.403,258.358 101.742,257.997 105.434 C 257.656 108.913,256.258 112.087,254.183 114.093 C 251.053 117.117,252.096 116.987,230.046 117.111 L 210.292 117.222 210.644 119.511 C 211.675 126.215,210.759 141.396,208.976 147.146 C 208.622 148.288,209.026 148.225,213.200 146.492 C 213.750 146.263,215.640 145.532,217.400 144.867 C 219.160 144.202,222.670 142.854,225.200 141.872 C 227.730 140.890,231.330 139.514,233.200 138.814 C 235.070 138.114,236.960 137.392,237.400 137.208 C 237.840 137.025,240.630 135.941,243.600 134.800 C 246.570 133.659,249.360 132.579,249.800 132.400 C 250.240 132.221,252.580 131.321,255.000 130.400 C 257.420 129.479,259.760 128.578,260.200 128.399 C 262.265 127.558,268.809 125.029,270.600 124.381 C 271.700 123.983,273.860 123.180,275.400 122.596 C 286.701 118.314,291.661 119.270,304.329 128.174 C 307.480 130.388,311.530 133.234,313.329 134.498 C 315.128 135.762,318.940 138.368,321.800 140.290 C 324.660 142.212,327.090 143.887,327.200 144.013 C 327.310 144.140,328.930 145.299,330.800 146.590 C 332.670 147.881,335.614 149.942,337.342 151.169 C 339.070 152.396,340.870 153.669,341.342 153.998 C 341.814 154.328,344.090 155.936,346.400 157.573 C 348.710 159.209,352.310 161.719,354.400 163.150 C 356.490 164.580,358.290 165.865,358.400 166.005 C 358.510 166.145,359.770 167.044,361.200 168.001 C 371.011 174.573,383.550 186.957,389.951 196.398 C 390.948 197.869,391.534 198.388,392.200 198.388 C 392.430 198.388,392.413 198.263,392.160 198.094 C 391.867 197.898,391.638 194.059,391.477 186.638 C 391.328 179.744,391.075 175.315,390.818 175.058 C 390.588 174.828,390.400 173.517,390.400 172.144 C 390.400 170.771,390.220 169.536,390.000 169.400 C 389.780 169.264,389.600 168.209,389.600 167.056 C 389.600 165.903,389.437 164.789,389.239 164.580 C 389.040 164.371,388.781 163.390,388.662 162.400 C 388.544 161.410,388.247 159.610,388.003 158.400 C 387.759 157.190,387.459 155.524,387.337 154.697 C 387.215 153.871,386.955 153.095,386.758 152.974 C 386.561 152.852,386.400 152.144,386.400 151.400 C 386.400 150.656,386.220 149.936,386.000 149.800 C 385.780 149.664,385.600 149.023,385.600 148.376 C 385.600 147.729,385.420 147.200,385.200 147.200 C 384.980 147.200,384.800 146.570,384.800 145.800 C 384.800 145.030,384.620 144.400,384.400 144.400 C 384.180 144.400,384.000 143.860,384.000 143.200 C 384.000 142.540,383.820 142.000,383.600 142.000 C 383.380 142.000,383.200 141.460,383.200 140.800 C 383.200 140.140,383.020 139.600,382.800 139.600 C 382.580 139.600,382.400 139.161,382.400 138.624 C 382.400 138.087,382.220 137.536,382.000 137.400 C 381.780 137.264,381.600 136.803,381.600 136.376 C 381.600 135.949,381.420 135.600,381.200 135.600 C 380.980 135.600,380.800 135.060,380.800 134.400 C 380.800 133.740,380.620 133.200,380.400 133.200 C 380.180 133.200,380.000 132.840,380.000 132.400 C 380.000 131.960,379.820 131.600,379.600 131.600 C 379.380 131.600,379.200 131.150,379.200 130.600 C 379.200 130.050,379.020 129.600,378.800 129.600 C 378.580 129.600,378.400 129.150,378.400 128.600 C 378.400 128.050,378.220 127.600,378.000 127.600 C 377.780 127.600,377.600 127.240,377.600 126.800 C 377.600 126.360,377.420 126.000,377.200 126.000 C 376.980 126.000,376.800 125.730,376.800 125.400 C 376.800 125.070,376.620 124.800,376.400 124.800 C 376.180 124.800,376.000 124.451,376.000 124.024 C 376.000 123.597,375.820 123.136,375.600 123.000 C 375.380 122.864,375.200 122.383,375.200 121.931 C 375.200 121.084,373.235 117.105,372.700 116.867 C 372.535 116.793,372.400 116.388,372.400 115.967 C 372.400 115.545,372.220 115.200,372.000 115.200 C 371.780 115.200,371.600 114.840,371.600 114.400 C 371.600 113.960,371.454 113.600,371.275 113.600 C 371.096 113.600,370.702 112.970,370.400 112.200 C 370.098 111.430,369.704 110.800,369.525 110.800 C 369.346 110.800,369.200 110.564,369.200 110.275 C 369.200 109.987,368.840 109.364,368.400 108.892 C 367.960 108.420,367.600 107.838,367.600 107.600 C 367.600 107.362,367.240 106.780,366.800 106.308 C 366.360 105.836,366.000 105.213,366.000 104.925 C 366.000 104.636,365.820 104.400,365.600 104.400 C 365.380 104.400,365.200 104.080,365.200 103.688 C 365.200 103.297,364.840 102.717,364.400 102.400 C 363.960 102.083,363.600 101.543,363.600 101.200 C 363.600 100.857,363.240 100.317,362.800 100.000 C 362.360 99.683,362.000 99.143,362.000 98.800 C 362.000 98.457,361.640 97.917,361.200 97.600 C 360.760 97.283,360.400 96.743,360.400 96.400 C 360.400 96.057,360.040 95.517,359.600 95.200 C 359.160 94.883,358.800 94.385,358.800 94.094 C 358.800 93.802,358.350 93.114,357.800 92.564 C 357.250 92.014,356.800 91.419,356.800 91.241 C 356.800 91.064,356.260 90.354,355.600 89.663 C 354.940 88.972,354.400 88.208,354.400 87.964 C 354.400 87.720,353.860 87.017,353.200 86.400 C 352.540 85.783,352.000 85.103,352.000 84.888 C 352.000 84.673,351.324 83.800,350.498 82.948 C 349.672 82.097,348.549 80.770,348.003 80.000 C 347.457 79.230,346.288 77.858,345.405 76.952 C 344.522 76.045,343.080 74.440,342.200 73.384 C 339.769 70.469,325.910 56.800,325.385 56.800 C 325.255 56.800,324.305 55.940,323.274 54.889 C 322.243 53.838,320.770 52.534,320.000 51.991 C 319.230 51.448,317.903 50.328,317.052 49.502 C 316.200 48.676,315.327 48.000,315.112 48.000 C 314.897 48.000,314.217 47.460,313.600 46.800 C 312.983 46.140,312.257 45.600,311.986 45.600 C 311.716 45.600,311.203 45.279,310.847 44.886 C 309.989 43.940,306.189 41.200,305.735 41.200 C 305.538 41.200,305.117 40.840,304.800 40.400 C 304.483 39.960,303.943 39.600,303.600 39.600 C 303.257 39.600,302.717 39.240,302.400 38.800 C 302.083 38.360,301.543 38.000,301.200 38.000 C 300.857 38.000,300.317 37.640,300.000 37.200 C 299.683 36.760,299.143 36.400,298.800 36.400 C 298.457 36.400,297.917 36.040,297.600 35.600 C 297.283 35.160,296.786 34.800,296.495 34.800 C 296.204 34.800,295.580 34.440,295.108 34.000 C 294.636 33.560,294.013 33.200,293.725 33.200 C 293.436 33.200,293.200 33.020,293.200 32.800 C 293.200 32.580,292.922 32.400,292.583 32.400 C 292.244 32.400,291.606 32.064,291.166 31.654 C 290.725 31.243,289.518 30.478,288.482 29.954 C 287.447 29.429,286.540 28.865,286.467 28.700 C 286.393 28.535,286.003 28.400,285.600 28.400 C 285.197 28.400,284.807 28.261,284.733 28.091 C 284.530 27.618,278.971 24.800,278.242 24.800 C 277.889 24.800,277.600 24.620,277.600 24.400 C 277.600 24.180,277.276 24.000,276.880 24.000 C 275.986 24.000,274.007 23.106,274.003 22.700 C 274.001 22.535,273.640 22.400,273.200 22.400 C 272.760 22.400,272.400 22.220,272.400 22.000 C 272.400 21.780,272.051 21.600,271.624 21.600 C 271.197 21.600,270.736 21.420,270.600 21.200 C 270.464 20.980,269.913 20.800,269.376 20.800 C 268.839 20.800,268.400 20.620,268.400 20.400 C 268.400 20.180,268.040 20.000,267.600 20.000 C 267.160 20.000,266.800 19.820,266.800 19.600 C 266.800 19.380,266.260 19.200,265.600 19.200 C 264.940 19.200,264.400 19.020,264.400 18.800 C 264.400 18.580,264.040 18.400,263.600 18.400 C 263.160 18.400,262.800 18.220,262.800 18.000 C 262.800 17.780,262.260 17.600,261.600 17.600 C 260.940 17.600,260.400 17.420,260.400 17.200 C 260.400 16.980,259.860 16.800,259.200 16.800 C 258.540 16.800,258.000 16.620,258.000 16.400 C 258.000 16.180,257.561 16.000,257.024 16.000 C 256.487 16.000,255.936 15.820,255.800 15.600 C 255.664 15.380,255.034 15.200,254.400 15.200 C 253.766 15.200,253.136 15.020,253.000 14.800 C 252.864 14.580,252.223 14.400,251.576 14.400 C 250.929 14.400,250.400 14.220,250.400 14.000 C 250.400 13.780,249.781 13.600,249.024 13.600 C 248.267 13.600,247.536 13.420,247.400 13.200 C 247.264 12.980,246.443 12.800,245.576 12.800 C 244.709 12.800,244.000 12.620,244.000 12.400 C 244.000 12.180,243.201 12.000,242.224 12.000 C 241.247 12.000,240.336 11.820,240.200 11.600 C 240.064 11.380,239.164 11.200,238.200 11.200 C 237.236 11.200,236.336 11.020,236.200 10.800 C 236.064 10.580,234.984 10.400,233.800 10.400 C 232.616 10.400,231.536 10.220,231.400 10.000 C 231.264 9.780,230.004 9.600,228.600 9.600 C 227.196 9.600,225.934 9.417,225.795 9.192 C 225.657 8.968,224.881 8.797,224.072 8.811 C 219.900 8.887,208.000 8.246,208.000 7.946 C 208.000 7.756,204.580 7.600,200.400 7.600 C 196.220 7.600,192.800 7.755,192.800 7.944 " stroke="none" fill="#e04c2c" fill-rule="evenodd"></path><path id="path2" d="M203.400 149.858 C 200.980 150.824,197.290 152.256,195.200 153.040 C 193.110 153.825,190.950 154.656,190.400 154.887 C 189.850 155.118,189.040 155.439,188.600 155.600 C 187.609 155.963,185.601 156.797,184.800 157.179 C 184.470 157.337,183.345 157.715,182.300 158.020 C 181.255 158.325,180.400 158.715,180.400 158.887 C 180.400 159.059,180.038 159.200,179.595 159.200 C 179.152 159.200,178.477 159.359,178.095 159.553 C 177.713 159.748,176.950 160.084,176.400 160.300 C 174.836 160.915,173.488 161.457,172.400 161.907 C 171.850 162.135,170.410 162.685,169.200 163.128 C 162.171 165.702,151.528 169.825,150.305 170.447 C 149.923 170.641,149.343 170.800,149.015 170.800 C 148.687 170.800,147.830 171.159,147.110 171.599 C 145.556 172.546,146.623 172.749,148.338 171.833 C 148.922 171.521,151.290 170.546,153.600 169.666 C 155.910 168.787,160.140 167.167,163.000 166.067 C 165.860 164.966,170.450 163.230,173.200 162.208 C 175.950 161.186,178.560 160.206,179.000 160.029 C 179.440 159.852,180.250 159.527,180.800 159.307 C 181.350 159.087,182.250 158.721,182.800 158.493 C 183.350 158.265,184.880 157.683,186.200 157.200 C 187.520 156.717,189.005 156.160,189.500 155.961 C 189.995 155.762,190.850 155.420,191.400 155.200 C 191.950 154.980,192.805 154.637,193.300 154.438 C 193.795 154.239,195.730 153.499,197.600 152.793 C 199.470 152.087,201.720 151.203,202.600 150.827 C 203.480 150.452,204.968 149.902,205.906 149.606 C 206.844 149.310,207.811 148.828,208.055 148.534 C 208.672 147.790,208.370 147.876,203.400 149.858 M144.200 221.686 C 142.000 221.883,139.300 222.326,138.200 222.671 C 137.100 223.016,135.480 223.443,134.600 223.619 C 133.720 223.795,132.280 224.150,131.400 224.407 C 130.520 224.664,129.213 224.968,128.496 225.081 C 127.779 225.195,127.094 225.449,126.973 225.644 C 126.852 225.840,126.324 226.000,125.800 226.000 C 125.276 226.000,124.736 226.180,124.600 226.400 C 124.464 226.620,123.834 226.800,123.200 226.800 C 122.566 226.800,121.936 226.980,121.800 227.200 C 121.664 227.420,121.124 227.600,120.600 227.600 C 120.076 227.600,119.536 227.780,119.400 228.000 C 119.264 228.220,118.634 228.400,118.000 228.400 C 117.366 228.400,116.736 228.580,116.600 228.800 C 116.464 229.020,115.924 229.200,115.400 229.200 C 114.876 229.200,114.336 229.380,114.200 229.600 C 114.064 229.820,113.434 230.000,112.800 230.000 C 112.166 230.000,111.536 230.180,111.400 230.400 C 111.264 230.620,110.634 230.800,110.000 230.800 C 109.366 230.800,108.736 230.980,108.600 231.200 C 108.464 231.420,107.924 231.600,107.400 231.600 C 106.876 231.600,106.336 231.780,106.200 232.000 C 106.064 232.220,105.511 232.400,104.971 232.400 C 104.431 232.400,103.677 232.562,103.295 232.761 C 102.913 232.960,101.790 233.344,100.800 233.615 C 97.748 234.451,96.233 234.898,95.400 235.210 C 94.960 235.374,93.790 235.730,92.800 236.001 C 91.810 236.271,90.550 236.637,90.000 236.814 C 88.686 237.237,79.447 239.903,77.400 240.450 C 76.520 240.685,75.487 241.040,75.105 241.239 C 74.723 241.438,73.969 241.600,73.429 241.600 C 72.889 241.600,72.336 241.780,72.200 242.000 C 72.064 242.220,71.524 242.400,71.000 242.400 C 70.476 242.400,69.936 242.580,69.800 242.800 C 69.664 243.020,69.034 243.200,68.400 243.200 C 67.766 243.200,67.136 243.380,67.000 243.600 C 66.864 243.820,66.234 244.000,65.600 244.000 C 64.966 244.000,64.336 244.180,64.200 244.400 C 64.064 244.620,63.524 244.800,63.000 244.800 C 62.476 244.800,61.936 244.980,61.800 245.200 C 61.664 245.420,61.034 245.600,60.400 245.600 C 59.766 245.600,59.136 245.780,59.000 246.000 C 58.864 246.220,58.223 246.400,57.576 246.400 C 56.929 246.400,56.400 246.580,56.400 246.800 C 56.400 247.020,55.871 247.200,55.224 247.200 C 54.577 247.200,53.936 247.380,53.800 247.600 C 53.664 247.820,53.111 248.000,52.571 248.000 C 52.031 248.000,51.277 248.162,50.895 248.361 C 50.513 248.560,49.390 248.944,48.400 249.215 C 45.233 250.083,43.820 250.503,43.000 250.822 C 42.560 250.993,41.750 251.250,41.200 251.394 C 39.152 251.927,37.637 252.368,31.012 254.359 C 27.279 255.482,23.992 256.400,23.707 256.400 C 23.422 256.400,22.877 256.568,22.495 256.773 C 22.113 256.979,20.945 257.378,19.900 257.661 C 18.855 257.943,18.000 258.391,18.000 258.655 C 18.000 258.919,17.891 259.419,17.757 259.767 C 17.603 260.168,17.731 260.400,18.105 260.400 C 18.555 260.400,18.652 260.770,18.515 261.956 C 18.414 262.836,18.523 263.629,18.768 263.780 C 19.005 263.927,19.200 264.487,19.200 265.024 C 19.200 265.561,19.380 266.000,19.600 266.000 C 19.820 266.000,20.000 266.439,20.000 266.976 C 20.000 267.513,20.180 268.064,20.400 268.200 C 20.620 268.336,20.800 268.887,20.800 269.424 C 20.800 269.961,20.941 270.400,21.113 270.400 C 21.451 270.400,22.636 273.987,22.477 274.530 C 22.424 274.711,22.565 274.745,22.790 274.606 C 23.019 274.464,23.200 274.716,23.200 275.176 C 23.200 275.629,23.380 276.000,23.600 276.000 C 23.820 276.000,24.000 276.360,24.000 276.800 C 24.000 277.240,24.180 277.600,24.400 277.600 C 24.620 277.600,24.800 278.129,24.800 278.776 C 24.800 279.423,24.983 280.066,25.207 280.204 C 25.430 280.342,25.521 280.604,25.409 280.786 C 25.296 280.967,25.460 281.214,25.771 281.334 C 26.122 281.468,26.254 281.872,26.118 282.393 C 25.968 282.964,26.069 283.196,26.431 283.117 C 26.939 283.005,27.037 283.209,27.150 284.624 C 27.177 284.967,27.395 285.127,27.633 284.980 C 27.897 284.816,28.015 285.007,27.937 285.471 C 27.866 285.888,28.218 286.751,28.719 287.388 C 29.220 288.025,29.535 288.792,29.419 289.094 C 29.304 289.395,29.387 289.532,29.605 289.397 C 29.822 289.263,30.000 289.361,30.000 289.615 C 30.000 289.869,30.400 290.639,30.889 291.325 C 31.378 292.012,31.819 292.847,31.868 293.180 C 31.916 293.513,32.147 293.849,32.381 293.927 C 32.614 294.005,32.703 294.233,32.579 294.434 C 32.455 294.635,32.543 294.800,32.776 294.800 C 33.009 294.800,33.200 295.048,33.200 295.351 C 33.200 295.654,33.468 296.124,33.796 296.396 C 34.123 296.668,34.293 297.050,34.172 297.245 C 34.051 297.440,34.124 297.600,34.332 297.600 C 34.541 297.600,35.112 298.452,35.602 299.493 C 36.091 300.534,36.831 301.680,37.246 302.040 C 37.661 302.399,38.000 302.973,38.000 303.314 C 38.000 303.654,38.135 303.993,38.300 304.067 C 38.734 304.260,41.200 307.862,41.200 308.303 C 41.200 308.508,41.566 309.008,42.014 309.413 C 42.462 309.818,42.734 310.395,42.619 310.696 C 42.503 310.996,42.587 311.132,42.805 310.997 C 43.022 310.863,43.200 311.011,43.200 311.327 C 43.200 311.643,43.468 312.124,43.796 312.396 C 44.123 312.668,44.275 313.078,44.134 313.307 C 43.992 313.536,44.052 313.615,44.267 313.482 C 44.746 313.186,46.109 314.700,45.806 315.191 C 45.685 315.386,45.798 315.675,46.055 315.834 C 46.348 316.015,46.416 315.950,46.238 315.662 C 45.494 314.458,46.424 315.393,47.446 316.876 C 48.081 317.797,48.960 318.932,49.400 319.397 C 50.708 320.781,52.008 322.400,51.811 322.400 C 51.710 322.400,52.116 322.925,52.713 323.566 C 55.097 326.124,56.000 327.231,56.000 327.593 C 56.000 327.801,56.360 328.165,56.800 328.400 C 57.240 328.635,57.600 329.015,57.600 329.243 C 57.600 329.729,57.649 329.785,61.773 333.976 C 63.518 335.749,65.093 337.200,65.273 337.200 C 66.056 337.200,65.393 336.291,62.200 332.988 C 60.330 331.054,58.800 329.237,58.800 328.949 C 58.800 328.524,65.867 328.396,96.700 328.263 C 119.544 328.165,136.348 327.928,139.000 327.668 C 146.992 326.883,155.087 325.913,159.400 325.223 C 164.220 324.452,169.859 323.440,172.900 322.800 C 173.945 322.580,175.565 322.241,176.500 322.047 C 180.220 321.273,186.688 319.894,188.200 319.552 C 189.080 319.353,190.790 319.013,192.000 318.796 C 193.210 318.578,195.190 318.218,196.400 317.995 C 228.736 312.034,269.374 312.242,300.800 318.530 C 301.350 318.640,302.880 318.940,304.200 319.198 C 308.686 320.071,317.882 322.213,323.000 323.576 C 324.540 323.986,329.287 325.194,333.549 326.261 C 342.521 328.506,342.434 328.425,339.231 331.570 L 336.787 333.969 334.293 333.779 C 332.922 333.675,329.460 333.406,326.600 333.182 C 305.776 331.551,280.642 332.218,265.200 334.809 C 263.990 335.013,261.650 335.382,260.000 335.630 C 255.227 336.349,245.281 338.271,243.600 338.800 C 243.050 338.973,241.520 339.333,240.200 339.600 C 238.880 339.867,237.350 340.225,236.800 340.396 C 235.837 340.696,234.320 341.104,230.700 342.039 C 229.765 342.280,228.687 342.640,228.305 342.839 C 227.923 343.038,227.370 343.200,227.076 343.200 C 226.423 343.200,214.822 346.996,209.600 348.918 C 205.404 350.463,192.297 355.592,189.500 356.783 C 181.405 360.232,157.327 366.721,144.800 368.829 C 143.590 369.033,141.610 369.388,140.400 369.618 C 138.103 370.055,135.196 370.549,130.800 371.249 C 129.370 371.477,127.210 371.831,126.000 372.036 C 124.790 372.240,122.872 372.517,121.738 372.650 C 119.988 372.856,119.649 373.034,119.497 373.824 C 119.337 374.662,119.435 374.733,120.460 374.528 C 121.173 374.385,121.600 374.469,121.600 374.750 C 121.600 374.998,121.960 375.200,122.400 375.200 C 122.840 375.200,123.200 375.380,123.200 375.600 C 123.200 375.820,123.560 376.000,124.000 376.000 C 124.533 376.000,124.800 376.267,124.800 376.800 C 124.800 377.240,124.991 377.600,125.224 377.600 C 125.457 377.600,125.536 377.420,125.400 377.200 C 125.264 376.980,125.523 376.800,125.976 376.800 C 126.429 376.800,126.800 377.045,126.800 377.345 C 126.800 377.710,127.129 377.826,127.800 377.698 C 128.612 377.543,128.800 377.666,128.800 378.353 C 128.800 378.819,128.991 379.200,129.224 379.200 C 129.457 379.200,129.536 379.020,129.400 378.800 C 129.264 378.580,129.523 378.400,129.976 378.400 C 130.429 378.400,130.755 378.623,130.700 378.896 C 130.635 379.220,130.995 379.346,131.745 379.261 C 132.492 379.176,132.797 379.282,132.621 379.565 C 132.447 379.847,132.854 380.000,133.776 380.000 C 134.702 380.000,135.165 380.175,135.100 380.500 C 135.038 380.809,135.345 380.952,135.900 380.875 C 136.395 380.806,136.800 380.941,136.800 381.175 C 136.800 381.409,137.430 381.600,138.200 381.600 C 139.333 381.600,139.600 381.752,139.600 382.400 C 139.600 382.840,139.780 383.200,140.000 383.200 C 140.220 383.200,140.400 383.020,140.400 382.800 C 140.400 382.044,141.478 382.401,141.912 383.300 C 142.151 383.795,142.358 383.975,142.373 383.700 C 142.410 383.020,144.262 383.063,144.526 383.751 C 144.657 384.094,145.112 384.229,145.733 384.111 C 146.458 383.972,146.852 384.149,147.179 384.760 C 147.426 385.222,147.847 385.597,148.114 385.594 C 148.419 385.590,148.377 385.444,148.000 385.200 C 147.534 384.899,147.651 384.811,148.524 384.806 C 149.172 384.803,149.543 384.969,149.400 385.200 C 149.251 385.442,149.796 385.600,150.776 385.600 C 151.669 385.600,152.400 385.780,152.400 386.000 C 152.400 386.220,153.131 386.400,154.024 386.400 C 155.066 386.400,155.553 386.552,155.385 386.824 C 155.212 387.104,155.712 387.206,156.862 387.124 C 157.818 387.056,158.634 387.158,158.675 387.351 C 158.831 388.084,160.578 388.687,160.920 388.126 C 161.355 387.411,162.771 387.460,163.055 388.200 C 163.182 388.530,163.536 388.800,163.843 388.800 C 164.149 388.800,164.400 388.980,164.400 389.200 C 164.400 389.420,165.210 389.600,166.200 389.600 C 167.490 389.600,168.000 389.439,168.000 389.031 C 168.000 388.718,168.675 388.245,169.500 387.979 C 172.390 387.050,181.798 383.499,183.988 382.511 C 186.097 381.560,188.053 380.711,189.800 379.987 C 190.240 379.805,193.300 378.363,196.600 376.782 C 213.424 368.724,213.800 368.559,226.600 363.616 C 227.040 363.446,227.850 363.115,228.400 362.880 C 228.950 362.645,230.570 362.072,232.000 361.607 C 233.430 361.143,234.913 360.591,235.295 360.381 C 235.677 360.171,236.264 360.000,236.600 360.000 C 236.936 360.000,237.523 359.838,237.905 359.639 C 238.287 359.440,239.410 359.054,240.400 358.781 C 241.390 358.508,243.280 357.951,244.600 357.543 C 249.880 355.910,255.721 354.394,262.000 353.027 C 272.803 350.676,273.869 350.483,285.298 348.817 C 287.756 348.459,291.664 348.037,300.000 347.230 C 306.861 346.565,324.000 346.223,324.000 346.751 C 324.000 346.998,324.199 347.200,324.443 347.200 C 324.686 347.200,324.779 346.922,324.648 346.581 C 324.499 346.192,324.954 345.419,325.877 344.496 C 326.756 343.617,327.408 343.224,327.505 343.515 C 327.594 343.782,327.832 344.000,328.033 344.000 C 328.584 344.000,328.474 342.897,327.900 342.665 C 327.625 342.554,327.985 342.449,328.700 342.432 C 329.723 342.407,330.000 342.229,330.000 341.600 C 330.000 341.089,330.267 340.800,330.739 340.800 C 331.773 340.800,333.200 339.464,333.200 338.496 C 333.200 338.050,333.515 337.566,333.900 337.419 C 334.461 337.205,334.501 337.252,334.100 337.656 C 333.825 337.933,333.600 338.310,333.600 338.494 C 333.600 338.678,335.355 337.014,337.500 334.796 C 342.329 329.802,342.400 329.722,342.400 329.244 C 342.400 329.029,342.760 328.740,343.200 328.600 C 343.640 328.460,344.000 328.082,344.000 327.760 C 344.000 327.142,346.596 324.329,346.893 324.626 C 346.988 324.721,347.316 324.304,347.622 323.699 C 347.928 323.095,348.858 321.911,349.689 321.069 C 350.520 320.227,351.200 319.433,351.200 319.305 C 351.200 319.040,355.480 313.282,356.279 312.471 C 356.566 312.181,356.800 311.789,356.800 311.600 C 356.800 311.411,357.115 310.942,357.500 310.557 C 357.885 310.172,358.200 309.715,358.200 309.542 C 358.200 309.368,358.470 308.903,358.800 308.507 C 359.130 308.112,359.655 307.296,359.968 306.694 C 360.280 306.092,360.685 305.600,360.868 305.600 C 361.050 305.600,361.200 305.358,361.200 305.062 C 361.200 304.766,361.560 304.198,362.000 303.800 C 362.440 303.402,362.800 302.916,362.800 302.721 C 362.800 302.526,363.160 301.980,363.600 301.508 C 364.040 301.036,364.400 300.323,364.400 299.925 C 364.400 299.526,364.546 299.200,364.725 299.200 C 364.904 299.200,365.298 298.570,365.600 297.800 C 365.902 297.030,366.260 296.400,366.396 296.400 C 366.532 296.400,367.083 295.503,367.621 294.406 C 368.160 293.310,368.735 292.410,368.900 292.406 C 369.065 292.403,369.200 292.029,369.200 291.576 C 369.200 291.123,369.380 290.864,369.600 291.000 C 369.820 291.136,370.000 291.025,370.000 290.754 C 370.000 290.247,373.162 283.559,373.572 283.200 C 373.697 283.090,373.857 282.730,373.927 282.400 C 373.997 282.070,374.312 281.277,374.627 280.639 C 374.942 280.000,375.200 279.235,375.200 278.939 C 375.200 278.642,375.380 278.400,375.600 278.400 C 375.820 278.400,376.000 278.057,376.000 277.638 C 376.000 277.219,376.386 276.094,376.857 275.138 C 377.328 274.182,377.889 272.950,378.103 272.400 C 378.318 271.850,378.652 271.087,378.847 270.705 C 379.041 270.323,379.203 269.603,379.206 269.105 C 379.211 268.374,379.287 268.315,379.600 268.800 C 379.895 269.257,379.989 269.095,379.994 268.124 C 379.997 267.422,380.180 266.736,380.400 266.600 C 380.620 266.464,380.800 265.913,380.800 265.376 C 380.800 264.839,380.980 264.400,381.200 264.400 C 381.420 264.400,381.600 263.860,381.600 263.200 C 381.600 262.540,381.780 262.000,382.000 262.000 C 382.220 262.000,382.400 261.460,382.400 260.800 C 382.400 260.140,382.580 259.600,382.800 259.600 C 383.020 259.600,383.200 259.240,383.200 258.800 C 383.200 258.006,382.933 258.000,347.869 258.000 C 307.781 258.000,304.241 257.814,294.200 255.177 C 292.440 254.715,290.370 254.179,289.600 253.987 C 288.830 253.794,287.480 253.457,286.600 253.237 C 285.720 253.017,284.280 252.657,283.400 252.437 C 282.520 252.217,281.080 251.857,280.200 251.637 C 279.320 251.417,277.880 251.057,277.000 250.837 C 276.120 250.617,274.680 250.257,273.800 250.037 C 272.920 249.817,271.480 249.457,270.600 249.237 C 269.720 249.017,268.280 248.657,267.400 248.437 C 266.520 248.217,265.035 247.848,264.100 247.618 C 263.165 247.388,261.680 247.020,260.800 246.800 C 259.920 246.580,258.525 246.236,257.700 246.036 C 256.875 245.835,252.870 244.835,248.800 243.813 C 244.730 242.791,238.790 241.330,235.600 240.565 C 229.776 239.169,228.527 238.861,225.200 238.000 C 224.210 237.744,222.725 237.369,221.900 237.167 C 221.075 236.965,219.680 236.620,218.800 236.400 C 217.920 236.180,216.525 235.835,215.700 235.633 C 214.875 235.431,213.390 235.056,212.400 234.800 C 210.508 234.310,208.468 233.797,205.800 233.140 C 204.920 232.923,203.660 232.599,203.000 232.419 C 202.340 232.239,200.990 231.895,200.000 231.655 C 192.511 229.840,166.722 223.505,165.600 223.206 C 163.198 222.566,151.116 221.167,149.000 221.284 C 148.560 221.309,146.400 221.490,144.200 221.686 M182.841 245.308 C 188.104 248.824,185.001 256.723,178.690 255.876 C 175.089 255.393,172.789 250.699,174.556 247.437 C 176.138 244.516,180.122 243.492,182.841 245.308 M214.041 276.508 C 219.463 280.130,215.709 288.983,209.536 287.134 C 203.080 285.199,204.332 275.608,211.041 275.601 C 212.083 275.601,213.178 275.931,214.041 276.508 M238.158 284.900 C 242.619 288.787,238.927 296.258,233.170 294.993 C 231.364 294.597,229.280 292.584,228.790 290.763 C 227.316 285.290,233.887 281.177,238.158 284.900 M70.000 341.900 C 70.000 342.069,70.360 342.432,70.800 342.707 C 71.240 342.982,71.600 343.069,71.600 342.900 C 71.600 342.731,71.240 342.368,70.800 342.093 C 70.360 341.818,70.000 341.731,70.000 341.900 M117.200 374.000 C 117.988 374.509,118.915 374.509,118.600 374.000 C 118.464 373.780,117.958 373.603,117.476 373.606 C 116.764 373.611,116.712 373.685,117.200 374.000 M166.800 388.800 C 166.800 389.020,166.339 389.200,165.776 389.200 C 165.196 389.200,164.860 389.027,165.000 388.800 C 165.136 388.580,165.597 388.400,166.024 388.400 C 166.451 388.400,166.800 388.580,166.800 388.800 " stroke="none" fill="#fcc554" fill-rule="evenodd"></path><path id="path3" d="M280.200 120.863 C 278.776 121.337,275.166 122.654,273.200 123.416 C 272.430 123.714,269.370 124.882,266.400 126.010 C 263.430 127.138,260.640 128.211,260.200 128.393 C 259.760 128.576,257.420 129.479,255.000 130.400 C 252.580 131.321,250.240 132.221,249.800 132.400 C 249.360 132.579,246.570 133.659,243.600 134.800 C 240.630 135.941,237.840 137.025,237.400 137.208 C 236.960 137.392,235.070 138.114,233.200 138.814 C 231.330 139.514,227.730 140.890,225.200 141.872 C 222.670 142.854,219.160 144.202,217.400 144.867 C 215.640 145.532,213.795 146.239,213.300 146.438 C 212.805 146.637,211.995 146.954,211.500 147.143 C 211.005 147.331,209.400 148.051,207.934 148.743 C 206.468 149.434,205.071 150.000,204.830 150.000 C 204.589 150.000,203.628 150.340,202.696 150.755 C 201.763 151.170,199.470 152.087,197.600 152.793 C 192.834 154.592,191.848 154.976,189.600 155.907 C 189.050 156.135,187.520 156.717,186.200 157.200 C 184.880 157.683,183.395 158.240,182.900 158.439 C 182.405 158.638,181.550 158.980,181.000 159.200 C 180.450 159.420,179.595 159.769,179.100 159.975 C 178.605 160.182,175.950 161.186,173.200 162.208 C 170.450 163.230,165.860 164.966,163.000 166.067 C 160.140 167.167,155.910 168.789,153.600 169.671 C 147.005 172.190,147.257 171.987,149.430 173.034 C 158.505 177.408,158.678 189.686,149.729 194.220 L 147.400 195.400 78.000 195.500 L 8.600 195.599 8.490 205.100 C 8.429 210.325,8.571 216.670,8.805 219.200 C 9.551 227.267,9.851 229.835,10.091 230.223 C 10.219 230.431,10.373 231.411,10.433 232.401 C 10.492 233.390,10.670 234.380,10.828 234.600 C 10.985 234.820,11.218 235.810,11.344 236.800 C 11.857 240.809,12.101 242.015,12.442 242.226 C 12.639 242.348,12.800 243.146,12.800 244.000 C 12.800 244.854,12.960 245.652,13.156 245.773 C 13.351 245.894,13.627 246.669,13.767 247.496 C 14.385 251.124,14.508 251.619,14.844 251.827 C 15.040 251.948,15.200 252.667,15.200 253.424 C 15.200 254.181,15.380 254.800,15.600 254.800 C 15.820 254.800,16.000 255.239,16.000 255.776 C 16.000 256.313,16.180 256.864,16.400 257.000 C 16.620 257.136,16.800 257.777,16.800 258.424 C 16.800 259.203,17.003 259.600,17.400 259.600 C 17.730 259.600,18.000 259.279,18.000 258.887 C 18.000 258.376,18.537 258.030,19.900 257.661 C 20.945 257.378,22.113 256.979,22.495 256.773 C 22.877 256.568,23.422 256.400,23.707 256.400 C 23.992 256.400,27.279 255.482,31.012 254.359 C 37.637 252.368,39.152 251.927,41.200 251.394 C 41.750 251.250,42.560 250.989,43.000 250.812 C 43.440 250.636,44.610 250.266,45.600 249.992 C 49.628 248.873,50.229 248.687,50.895 248.351 C 51.277 248.158,52.031 248.000,52.571 248.000 C 53.111 248.000,53.664 247.820,53.800 247.600 C 53.936 247.380,54.577 247.200,55.224 247.200 C 55.871 247.200,56.400 247.020,56.400 246.800 C 56.400 246.580,56.929 246.400,57.576 246.400 C 58.223 246.400,58.864 246.220,59.000 246.000 C 59.136 245.780,59.766 245.600,60.400 245.600 C 61.034 245.600,61.664 245.420,61.800 245.200 C 61.936 244.980,62.476 244.800,63.000 244.800 C 63.524 244.800,64.064 244.620,64.200 244.400 C 64.336 244.180,64.966 244.000,65.600 244.000 C 66.234 244.000,66.864 243.820,67.000 243.600 C 67.136 243.380,67.766 243.200,68.400 243.200 C 69.034 243.200,69.664 243.020,69.800 242.800 C 69.936 242.580,70.476 242.400,71.000 242.400 C 71.524 242.400,72.064 242.220,72.200 242.000 C 72.336 241.780,72.889 241.600,73.429 241.600 C 73.969 241.600,74.723 241.438,75.105 241.239 C 75.487 241.040,76.520 240.685,77.400 240.450 C 79.447 239.903,88.686 237.237,90.000 236.814 C 90.550 236.637,91.810 236.271,92.800 236.001 C 93.790 235.730,94.960 235.370,95.400 235.200 C 95.840 235.030,97.010 234.666,98.000 234.392 C 102.028 233.273,102.629 233.087,103.295 232.751 C 103.677 232.558,104.431 232.400,104.971 232.400 C 105.511 232.400,106.064 232.220,106.200 232.000 C 106.336 231.780,106.876 231.600,107.400 231.600 C 107.924 231.600,108.464 231.420,108.600 231.200 C 108.736 230.980,109.366 230.800,110.000 230.800 C 110.634 230.800,111.264 230.620,111.400 230.400 C 111.536 230.180,112.166 230.000,112.800 230.000 C 113.434 230.000,114.064 229.820,114.200 229.600 C 114.336 229.380,114.876 229.200,115.400 229.200 C 115.924 229.200,116.464 229.020,116.600 228.800 C 116.736 228.580,117.366 228.400,118.000 228.400 C 118.634 228.400,119.264 228.220,119.400 228.000 C 119.536 227.780,120.076 227.600,120.600 227.600 C 121.124 227.600,121.664 227.420,121.800 227.200 C 121.936 226.980,122.566 226.800,123.200 226.800 C 123.834 226.800,124.464 226.620,124.600 226.400 C 124.736 226.180,125.276 226.000,125.800 226.000 C 126.324 226.000,126.852 225.840,126.973 225.644 C 127.094 225.449,127.779 225.195,128.496 225.081 C 129.213 224.968,130.520 224.664,131.400 224.407 C 132.280 224.150,133.720 223.795,134.600 223.619 C 135.480 223.443,137.100 223.021,138.200 222.683 C 143.695 220.992,158.343 221.272,165.600 223.206 C 166.722 223.505,192.511 229.840,200.000 231.655 C 200.990 231.895,202.340 232.239,203.000 232.419 C 203.660 232.599,204.920 232.923,205.800 233.140 C 206.680 233.357,208.120 233.714,209.000 233.934 C 209.880 234.154,211.320 234.514,212.200 234.734 C 213.080 234.954,214.565 235.329,215.500 235.567 C 216.435 235.805,217.875 236.165,218.700 236.367 C 221.505 237.053,224.938 237.919,228.300 238.788 C 229.125 239.001,232.410 239.801,235.600 240.565 C 238.790 241.330,244.730 242.791,248.800 243.813 C 252.870 244.835,256.875 245.835,257.700 246.036 C 258.525 246.236,259.920 246.580,260.800 246.800 C 261.680 247.020,263.120 247.380,264.000 247.600 C 264.880 247.820,266.275 248.172,267.100 248.382 C 267.925 248.592,269.410 248.960,270.400 249.200 C 271.390 249.440,272.920 249.817,273.800 250.037 C 274.680 250.257,276.120 250.617,277.000 250.837 C 277.880 251.057,279.275 251.408,280.100 251.618 C 280.925 251.828,282.320 252.180,283.200 252.400 C 284.080 252.620,285.520 252.980,286.400 253.200 C 287.280 253.420,288.675 253.766,289.500 253.968 C 290.325 254.171,292.440 254.715,294.200 255.177 C 304.217 257.808,307.761 257.993,348.391 258.010 L 384.182 258.025 386.166 256.513 C 388.718 254.567,391.600 251.807,391.600 251.307 C 391.600 251.094,392.095 250.394,392.700 249.752 C 393.305 249.111,394.055 248.094,394.368 247.493 C 394.680 246.892,395.085 246.400,395.268 246.400 C 395.450 246.400,395.600 246.040,395.600 245.600 C 395.600 245.160,395.780 244.800,396.000 244.800 C 396.220 244.800,396.400 244.440,396.400 244.000 C 396.400 243.560,396.580 243.200,396.800 243.200 C 397.020 243.200,397.200 242.840,397.200 242.400 C 397.200 241.960,397.380 241.600,397.600 241.600 C 397.820 241.600,398.000 241.240,398.000 240.800 C 398.000 240.360,398.180 240.000,398.400 240.000 C 398.620 240.000,398.800 239.496,398.800 238.880 C 398.800 238.264,399.025 237.535,399.300 237.260 C 399.676 236.884,399.800 234.017,399.800 225.713 C 399.800 217.232,399.684 214.628,399.300 214.500 C 399.025 214.408,398.800 213.819,398.800 213.190 C 398.800 212.562,398.620 211.936,398.400 211.800 C 398.180 211.664,398.000 211.124,398.000 210.600 C 398.000 210.076,397.820 209.536,397.600 209.400 C 397.380 209.264,397.200 208.803,397.200 208.376 C 397.200 207.949,397.020 207.600,396.800 207.600 C 396.580 207.600,396.400 207.240,396.400 206.800 C 396.400 206.360,396.220 206.000,396.000 206.000 C 395.780 206.000,395.600 205.640,395.600 205.200 C 395.600 204.760,395.420 204.400,395.200 204.400 C 394.980 204.400,394.800 204.040,394.800 203.600 C 394.800 203.160,394.620 202.800,394.400 202.800 C 394.180 202.800,394.000 202.440,394.000 202.000 C 394.000 201.560,393.820 201.200,393.600 201.200 C 393.380 201.200,393.200 200.840,393.200 200.400 C 393.200 199.960,393.020 199.600,392.800 199.600 C 392.580 199.600,392.400 199.342,392.400 199.027 C 392.400 198.712,392.085 198.352,391.700 198.228 C 391.315 198.103,390.550 197.326,390.000 196.501 C 383.844 187.261,371.044 174.595,361.200 168.001 C 359.770 167.044,358.510 166.145,358.400 166.005 C 358.290 165.865,356.490 164.580,354.400 163.150 C 352.310 161.719,348.710 159.209,346.400 157.573 C 344.090 155.936,341.814 154.328,341.342 153.998 C 340.870 153.669,338.980 152.334,337.142 151.031 C 335.304 149.728,332.360 147.668,330.600 146.452 C 328.840 145.237,327.310 144.140,327.200 144.013 C 327.090 143.887,324.660 142.212,321.800 140.290 C 318.940 138.368,315.128 135.762,313.329 134.498 C 311.530 133.234,307.480 130.388,304.329 128.174 C 294.439 121.223,292.407 120.381,285.634 120.432 C 283.305 120.449,280.860 120.643,280.200 120.863 M176.513 245.325 C 174.575 246.642,173.848 248.277,174.088 250.775 C 174.753 257.692,184.768 257.624,185.471 250.697 C 185.953 245.958,180.442 242.653,176.513 245.325 M17.600 261.233 C 17.600 261.692,17.809 261.997,18.065 261.912 C 18.744 261.685,18.829 260.400,18.165 260.400 C 17.854 260.400,17.600 260.775,17.600 261.233 M208.200 276.344 C 203.691 279.130,204.495 285.623,209.536 287.134 C 214.138 288.512,218.381 283.151,216.124 278.808 C 214.604 275.884,210.839 274.714,208.200 276.344 M230.701 284.821 C 227.906 287.125,227.849 291.131,230.576 293.525 C 234.926 297.345,241.286 293.484,240.009 287.800 C 239.114 283.812,233.936 282.155,230.701 284.821 M38.813 305.056 C 38.831 305.544,39.957 306.976,40.161 306.771 C 40.255 306.677,39.987 306.175,39.566 305.656 C 39.145 305.136,38.806 304.866,38.813 305.056 M45.600 314.546 C 45.600 315.239,47.493 317.863,47.765 317.548 C 47.835 317.466,47.377 316.698,46.746 315.841 C 46.116 314.983,45.600 314.400,45.600 314.546 M48.811 319.000 C 48.799 319.492,50.739 321.794,50.971 321.562 C 51.063 321.470,50.617 320.766,49.980 319.997 C 49.343 319.229,48.817 318.780,48.811 319.000 " stroke="none" fill="#f49404" fill-rule="evenodd"></path><path id="path4" d="M129.505 54.628 C 129.347 54.787,127.998 55.062,126.509 55.240 C 122.761 55.689,117.971 56.629,116.600 57.185 C 116.160 57.363,114.990 57.741,114.000 58.024 C 113.010 58.307,112.029 58.688,111.820 58.870 C 111.611 59.051,111.133 59.200,110.758 59.200 C 110.169 59.200,108.966 59.708,105.905 61.250 C 105.523 61.443,104.953 61.600,104.639 61.600 C 104.324 61.600,104.007 61.735,103.933 61.900 C 103.860 62.065,102.630 62.811,101.200 63.559 C 92.796 67.950,83.210 76.028,77.878 83.211 C 76.820 84.635,75.695 86.117,75.378 86.505 C 75.060 86.892,74.800 87.307,74.800 87.427 C 74.800 87.546,74.105 88.669,73.256 89.922 C 70.614 93.822,66.964 101.957,65.595 107.000 C 64.146 112.339,63.609 114.784,62.784 119.800 C 62.252 123.035,62.496 137.339,63.142 140.800 C 63.726 143.928,64.304 146.900,64.463 147.600 C 64.582 148.120,62.971 148.227,52.400 148.400 C 40.732 148.591,40.111 148.640,38.157 149.525 C 34.271 151.283,31.200 155.687,31.200 159.498 C 31.200 163.074,29.462 167.004,26.980 169.038 C 24.023 171.461,22.642 171.769,14.700 171.784 C 10.795 171.792,7.600 171.933,7.600 172.099 C 7.600 172.265,7.240 172.400,6.800 172.400 C 6.360 172.400,6.000 172.580,6.000 172.800 C 6.000 173.020,5.722 173.200,5.382 173.200 C 4.649 173.200,2.800 174.954,2.800 175.648 C 2.800 175.915,2.689 176.022,2.552 175.886 C 2.258 175.591,1.200 176.571,1.200 177.138 C 1.200 177.355,0.975 177.608,0.700 177.700 C 0.331 177.823,0.200 179.385,0.200 183.679 L 0.200 189.492 1.425 190.646 C 2.098 191.281,2.767 192.115,2.912 192.500 C 3.057 192.885,3.411 193.200,3.699 193.200 C 3.987 193.200,4.483 193.560,4.800 194.000 C 5.117 194.440,5.697 194.800,6.088 194.800 C 6.480 194.800,6.800 194.979,6.800 195.197 C 6.800 195.458,30.820 195.560,77.100 195.497 L 147.400 195.400 149.600 194.243 C 157.140 190.277,158.602 181.792,152.836 175.463 C 150.239 172.614,152.226 172.772,117.879 172.681 L 87.000 172.600 84.764 171.500 C 81.099 169.697,78.000 165.599,78.000 162.555 C 78.000 155.979,73.290 149.600,68.435 149.600 C 65.848 149.600,65.327 149.008,64.611 145.252 C 58.507 113.262,69.958 84.669,95.834 67.284 C 100.604 64.080,108.244 60.376,113.400 58.768 C 114.940 58.288,116.560 57.752,117.000 57.578 C 117.440 57.403,118.340 57.146,119.000 57.005 C 130.611 54.540,140.073 54.247,149.600 56.059 C 153.748 56.847,155.801 57.298,156.600 57.597 C 157.040 57.761,158.660 58.294,160.200 58.781 C 169.714 61.791,178.958 67.274,187.357 74.889 C 188.261 75.708,189.124 76.383,189.275 76.389 C 189.868 76.412,196.469 84.563,198.903 88.277 C 209.208 104.000,212.989 124.314,209.199 143.600 C 208.393 147.700,208.308 148.865,208.964 146.800 C 211.019 140.333,211.790 126.978,210.573 118.911 L 210.318 117.222 230.059 117.111 C 252.094 116.987,251.053 117.117,254.183 114.093 C 256.258 112.087,257.656 108.913,257.997 105.434 C 258.358 101.742,259.437 99.403,261.762 97.269 C 265.202 94.113,264.361 94.231,285.000 94.000 L 303.400 93.795 305.600 92.666 C 314.832 87.928,314.631 75.793,305.249 71.455 L 303.400 70.600 250.000 70.600 L 196.600 70.600 194.730 71.464 C 193.701 71.940,192.061 73.065,191.085 73.964 C 188.927 75.954,189.171 75.953,187.101 73.973 C 182.969 70.022,175.255 64.821,169.400 62.039 C 167.860 61.307,165.908 60.369,165.062 59.954 C 164.216 59.539,163.192 59.200,162.786 59.200 C 162.380 59.200,161.936 59.020,161.800 58.800 C 161.664 58.580,161.124 58.400,160.600 58.400 C 160.076 58.400,159.536 58.220,159.400 58.000 C 159.264 57.780,158.724 57.600,158.200 57.600 C 157.676 57.600,157.136 57.420,157.000 57.200 C 156.864 56.980,156.169 56.800,155.456 56.800 C 154.743 56.800,153.989 56.638,153.780 56.441 C 153.571 56.244,152.590 55.969,151.600 55.831 C 150.610 55.693,148.630 55.393,147.200 55.165 C 144.021 54.657,129.905 54.229,129.505 54.628 " stroke="none" fill="#fb9569" fill-rule="evenodd"></path></g></svg>