<svg id="svg" version="1.1" xmlns="http://www.w3.org/2000/svg" xmlns:xlink="http://www.w3.org/1999/xlink" width="400" height="400" viewBox="0, 0, 400,400"><g id="svgg"><path id="path0" d="M301.810 112.670 C 300.312 113.093,298.552 114.611,295.397 118.200 C 293.656 120.180,291.953 122.070,291.613 122.400 C 291.272 122.730,289.826 124.350,288.397 126.000 C 286.969 127.650,285.711 129.090,285.600 129.200 C 285.490 129.310,283.961 131.020,282.202 133.000 C 280.443 134.980,278.913 136.690,278.802 136.800 C 278.691 136.910,277.250 138.530,275.600 140.400 C 273.950 142.270,272.038 144.430,271.351 145.200 C 270.663 145.970,268.428 148.490,266.384 150.800 C 264.339 153.110,261.373 156.440,259.792 158.200 C 258.211 159.960,256.036 162.400,254.958 163.621 C 252.721 166.159,247.598 171.922,247.000 172.573 C 246.780 172.812,245.897 173.817,245.038 174.804 C 244.179 175.792,242.268 177.950,240.791 179.600 C 238.362 182.315,236.647 184.247,228.031 193.968 C 226.584 195.601,224.410 198.038,223.200 199.384 C 221.990 200.729,219.740 203.249,218.200 204.984 C 216.660 206.718,215.220 208.331,215.000 208.569 C 214.780 208.806,212.710 211.158,210.400 213.794 C 208.090 216.431,205.840 218.963,205.400 219.421 C 204.960 219.879,202.080 223.108,199.000 226.597 C 195.920 230.085,193.040 233.320,192.600 233.785 C 192.160 234.250,190.633 235.974,189.208 237.615 C 187.782 239.257,186.521 240.690,186.407 240.800 C 186.105 241.089,177.089 251.232,176.185 252.300 C 175.138 253.536,175.147 253.539,171.429 250.500 C 169.612 249.015,167.529 247.350,166.800 246.800 C 166.070 246.250,165.277 245.617,165.037 245.394 C 164.796 245.171,163.790 244.364,162.800 243.600 C 161.810 242.836,160.759 241.981,160.465 241.700 C 160.171 241.418,159.271 240.697,158.465 240.096 C 157.659 239.496,156.910 238.912,156.800 238.798 C 156.690 238.684,153.026 235.740,148.658 232.256 C 144.290 228.771,140.420 225.678,140.058 225.382 C 139.696 225.086,136.430 222.476,132.800 219.582 C 129.170 216.688,125.407 213.663,124.437 212.860 C 123.468 212.057,122.298 211.137,121.837 210.816 C 121.377 210.495,120.759 209.998,120.465 209.710 C 120.171 209.423,119.271 208.696,118.465 208.094 C 117.659 207.492,116.800 206.820,116.556 206.600 C 116.311 206.380,115.417 205.660,114.569 205.000 C 113.721 204.340,110.290 201.600,106.944 198.910 C 97.410 191.247,94.159 190.473,90.273 194.945 C 86.752 198.996,87.916 203.540,93.616 207.994 C 94.597 208.761,95.670 209.607,96.000 209.872 C 98.613 211.978,109.747 220.844,110.979 221.800 C 111.829 222.460,113.079 223.450,113.757 224.000 C 114.435 224.550,115.322 225.270,115.728 225.600 C 116.135 225.930,116.857 226.535,117.334 226.945 C 117.810 227.355,118.830 228.164,119.600 228.743 C 120.370 229.322,121.090 229.887,121.200 229.999 C 121.310 230.110,122.660 231.201,124.200 232.423 C 129.775 236.845,137.405 242.971,137.600 243.183 C 137.710 243.302,138.610 244.028,139.600 244.794 C 140.590 245.561,141.670 246.407,142.000 246.672 C 142.330 246.938,145.570 249.523,149.200 252.415 C 152.830 255.308,156.161 257.973,156.601 258.337 C 157.042 258.702,158.212 259.625,159.201 260.390 C 160.191 261.154,161.090 261.880,161.200 262.002 C 162.126 263.035,171.675 270.302,172.853 270.871 C 176.697 272.728,179.800 271.452,184.505 266.077 C 186.371 263.945,188.416 261.657,189.049 260.994 C 189.682 260.330,190.718 259.160,191.351 258.394 C 191.984 257.627,193.334 256.086,194.351 254.969 C 195.368 253.852,197.460 251.526,199.000 249.800 C 200.540 248.075,201.980 246.464,202.200 246.222 C 202.420 245.979,203.770 244.435,205.200 242.791 C 206.630 241.146,208.160 239.422,208.600 238.959 C 209.040 238.497,210.480 236.883,211.800 235.375 C 214.288 232.530,217.105 229.338,217.800 228.576 C 218.020 228.335,219.460 226.717,221.000 224.980 C 222.540 223.244,224.535 221.008,225.434 220.012 C 226.333 219.015,227.593 217.592,228.234 216.848 C 228.875 216.105,229.850 215.003,230.400 214.400 C 230.950 213.798,231.940 212.692,232.600 211.945 C 236.873 207.103,241.100 202.348,243.002 200.244 C 243.223 200.000,244.753 198.274,246.402 196.410 C 250.032 192.305,249.539 192.857,253.231 188.762 C 254.897 186.913,256.967 184.592,257.831 183.604 C 258.694 182.617,259.580 181.610,259.800 181.367 C 260.885 180.169,265.887 174.542,269.193 170.800 C 271.234 168.490,274.119 165.250,275.604 163.600 C 277.088 161.950,279.000 159.790,279.852 158.800 C 280.703 157.810,281.670 156.730,282.000 156.400 C 282.330 156.070,283.858 154.360,285.396 152.600 C 286.935 150.840,288.288 149.310,288.404 149.200 C 288.520 149.090,289.782 147.658,291.208 146.018 C 292.633 144.378,294.340 142.466,295.000 141.770 C 295.660 141.074,298.519 137.865,301.353 134.639 C 304.187 131.412,307.250 127.984,308.160 127.021 C 314.689 120.109,310.332 110.263,301.810 112.670 " stroke="none" fill="#fafbfb" fill-rule="evenodd"></path><path id="path1" d="M178.300 0.275 C 176.375 0.361,174.800 0.604,174.800 0.816 C 174.800 1.027,173.461 1.200,171.824 1.200 C 170.187 1.200,168.736 1.380,168.600 1.600 C 168.464 1.820,167.463 2.000,166.376 2.000 C 165.289 2.000,164.400 2.180,164.400 2.400 C 164.400 2.620,163.410 2.800,162.200 2.800 C 160.990 2.800,160.000 2.980,160.000 3.200 C 160.000 3.420,159.201 3.600,158.224 3.600 C 157.247 3.600,156.336 3.780,156.200 4.000 C 156.064 4.220,155.243 4.400,154.376 4.400 C 153.509 4.400,152.800 4.580,152.800 4.800 C 152.800 5.020,152.080 5.200,151.200 5.200 C 150.320 5.200,149.600 5.380,149.600 5.600 C 149.600 5.820,148.880 6.000,148.000 6.000 C 147.120 6.000,146.400 6.180,146.400 6.400 C 146.400 6.620,145.860 6.800,145.200 6.800 C 144.540 6.800,144.000 6.980,144.000 7.200 C 144.000 7.420,143.370 7.600,142.600 7.600 C 141.830 7.600,141.200 7.780,141.200 8.000 C 141.200 8.220,140.705 8.408,140.100 8.418 C 139.495 8.427,138.280 8.709,137.400 9.043 C 136.520 9.377,135.530 9.697,135.200 9.754 C 134.870 9.810,134.240 9.996,133.800 10.166 C 133.360 10.336,132.460 10.656,131.800 10.878 C 130.335 11.370,128.833 11.975,127.905 12.447 C 127.523 12.641,126.848 12.800,126.405 12.800 C 125.962 12.800,125.600 12.980,125.600 13.200 C 125.600 13.420,125.240 13.600,124.800 13.600 C 124.360 13.600,124.000 13.780,124.000 14.000 C 124.000 14.220,123.561 14.400,123.024 14.400 C 122.487 14.400,121.936 14.580,121.800 14.800 C 121.664 15.020,121.203 15.200,120.776 15.200 C 120.349 15.200,120.000 15.380,120.000 15.600 C 120.000 15.820,119.640 16.000,119.200 16.000 C 118.760 16.000,118.400 16.180,118.400 16.400 C 118.400 16.620,118.128 16.800,117.795 16.800 C 117.207 16.800,116.782 16.967,114.905 17.938 C 114.413 18.192,113.738 18.400,113.405 18.400 C 113.072 18.400,112.800 18.580,112.800 18.800 C 112.800 19.020,112.440 19.200,112.000 19.200 C 111.560 19.200,111.200 19.346,111.200 19.525 C 111.200 19.704,110.570 20.098,109.800 20.400 C 109.030 20.702,108.400 21.096,108.400 21.275 C 108.400 21.454,108.040 21.600,107.600 21.600 C 107.160 21.600,106.800 21.780,106.800 22.000 C 106.800 22.220,106.440 22.400,106.000 22.400 C 105.560 22.400,105.200 22.580,105.200 22.800 C 105.200 23.020,104.880 23.200,104.488 23.200 C 104.097 23.200,103.517 23.560,103.200 24.000 C 102.883 24.440,102.387 24.800,102.098 24.800 C 101.396 24.800,97.435 26.809,97.267 27.251 C 97.193 27.443,96.956 27.600,96.739 27.600 C 96.522 27.600,95.559 28.140,94.600 28.800 C 93.641 29.460,92.703 30.000,92.516 30.000 C 92.329 30.000,91.917 30.360,91.600 30.800 C 91.283 31.240,90.743 31.600,90.400 31.600 C 90.057 31.600,89.517 31.960,89.200 32.400 C 88.883 32.840,88.343 33.200,88.000 33.200 C 87.657 33.200,87.117 33.560,86.800 34.000 C 86.483 34.440,85.991 34.800,85.708 34.800 C 85.425 34.800,84.628 35.340,83.937 36.000 C 83.246 36.660,82.478 37.200,82.229 37.200 C 81.980 37.200,81.517 37.560,81.200 38.000 C 80.883 38.440,80.375 38.800,80.072 38.800 C 79.769 38.800,79.017 39.340,78.400 40.000 C 77.783 40.660,77.164 41.200,77.023 41.200 C 76.752 41.200,76.352 41.514,74.349 43.300 C 73.671 43.905,72.959 44.400,72.768 44.400 C 72.577 44.400,71.651 45.167,70.711 46.105 C 69.770 47.043,68.370 48.255,67.600 48.799 C 65.893 50.004,58.400 57.487,58.400 57.987 C 58.400 58.185,58.040 58.460,57.600 58.600 C 57.160 58.740,56.800 59.142,56.800 59.494 C 56.800 59.845,56.694 60.027,56.564 59.897 C 56.276 59.609,50.182 65.653,48.802 67.595 C 48.257 68.362,46.953 69.865,45.905 70.935 C 44.857 72.005,44.000 73.133,44.000 73.441 C 44.000 73.748,43.809 74.000,43.576 74.000 C 43.343 74.000,43.264 74.180,43.400 74.400 C 43.536 74.620,43.379 74.800,43.051 74.800 C 42.722 74.800,42.340 75.160,42.200 75.600 C 42.060 76.040,41.778 76.400,41.573 76.400 C 41.368 76.400,41.200 76.598,41.200 76.840 C 41.200 77.081,40.660 77.783,40.000 78.400 C 39.340 79.017,38.800 79.769,38.800 80.072 C 38.800 80.375,38.440 80.883,38.000 81.200 C 37.560 81.517,37.200 82.007,37.200 82.288 C 37.200 82.570,37.020 82.800,36.800 82.800 C 36.580 82.800,36.400 83.030,36.400 83.312 C 36.400 83.593,36.040 84.083,35.600 84.400 C 35.160 84.717,34.800 85.257,34.800 85.600 C 34.800 85.943,34.440 86.483,34.000 86.800 C 33.560 87.117,33.200 87.657,33.200 88.000 C 33.200 88.343,32.840 88.883,32.400 89.200 C 31.960 89.517,31.600 90.057,31.600 90.400 C 31.600 90.743,31.240 91.283,30.800 91.600 C 30.360 91.917,30.000 92.329,30.000 92.516 C 30.000 92.703,29.460 93.641,28.800 94.600 C 28.140 95.559,27.600 96.522,27.600 96.739 C 27.600 96.956,27.443 97.193,27.251 97.267 C 26.809 97.435,24.800 101.396,24.800 102.098 C 24.800 102.387,24.440 102.883,24.000 103.200 C 23.560 103.517,23.200 104.097,23.200 104.488 C 23.200 104.880,23.020 105.200,22.800 105.200 C 22.580 105.200,22.400 105.560,22.400 106.000 C 22.400 106.440,22.220 106.800,22.000 106.800 C 21.780 106.800,21.600 107.160,21.600 107.600 C 21.600 108.040,21.454 108.400,21.275 108.400 C 21.096 108.400,20.702 109.030,20.400 109.800 C 20.098 110.570,19.704 111.200,19.525 111.200 C 19.346 111.200,19.200 111.560,19.200 112.000 C 19.200 112.440,19.020 112.800,18.800 112.800 C 18.580 112.800,18.400 113.065,18.400 113.388 C 18.400 113.711,18.040 114.617,17.600 115.400 C 17.160 116.183,16.800 117.179,16.800 117.612 C 16.800 118.045,16.620 118.400,16.400 118.400 C 16.180 118.400,16.000 118.760,16.000 119.200 C 16.000 119.640,15.820 120.000,15.600 120.000 C 15.380 120.000,15.200 120.360,15.200 120.800 C 15.200 121.240,15.020 121.600,14.800 121.600 C 14.580 121.600,14.400 122.140,14.400 122.800 C 14.400 123.460,14.220 124.000,14.000 124.000 C 13.780 124.000,13.600 124.360,13.600 124.800 C 13.600 125.240,13.420 125.600,13.200 125.600 C 12.980 125.600,12.800 125.962,12.800 126.405 C 12.800 126.848,12.641 127.523,12.447 127.905 C 12.252 128.287,11.871 129.140,11.600 129.800 C 11.329 130.460,10.948 131.313,10.753 131.695 C 10.559 132.077,10.400 132.741,10.400 133.171 C 10.400 133.601,10.231 134.057,10.025 134.184 C 9.819 134.312,9.655 134.727,9.660 135.108 C 9.665 135.489,9.392 136.520,9.052 137.400 C 8.713 138.280,8.427 139.495,8.418 140.100 C 8.408 140.705,8.220 141.200,8.000 141.200 C 7.780 141.200,7.600 141.830,7.600 142.600 C 7.600 143.370,7.420 144.000,7.200 144.000 C 6.980 144.000,6.800 144.540,6.800 145.200 C 6.800 145.860,6.620 146.400,6.400 146.400 C 6.180 146.400,6.000 147.120,6.000 148.000 C 6.000 148.880,5.820 149.600,5.600 149.600 C 5.380 149.600,5.200 150.320,5.200 151.200 C 5.200 152.080,5.020 152.800,4.800 152.800 C 4.580 152.800,4.400 153.509,4.400 154.376 C 4.400 155.243,4.220 156.064,4.000 156.200 C 3.780 156.336,3.600 157.247,3.600 158.224 C 3.600 159.201,3.420 160.000,3.200 160.000 C 2.980 160.000,2.800 160.900,2.800 162.000 C 2.800 163.100,2.620 164.000,2.400 164.000 C 2.178 164.000,2.000 165.059,2.000 166.376 C 2.000 167.683,1.820 168.864,1.600 169.000 C 1.380 169.136,1.200 170.371,1.200 171.744 C 1.200 173.207,0.993 174.447,0.700 174.740 C 0.311 175.129,0.200 180.743,0.200 200.087 C 0.200 219.608,0.307 224.969,0.700 225.100 C 1.035 225.212,1.200 226.171,1.200 228.010 C 1.200 229.518,1.380 230.864,1.600 231.000 C 1.820 231.136,2.000 232.317,2.000 233.624 C 2.000 234.941,2.178 236.000,2.400 236.000 C 2.620 236.000,2.800 236.900,2.800 238.000 C 2.800 239.100,2.980 240.000,3.200 240.000 C 3.420 240.000,3.600 240.799,3.600 241.776 C 3.600 242.753,3.780 243.664,4.000 243.800 C 4.220 243.936,4.400 244.757,4.400 245.624 C 4.400 246.491,4.580 247.200,4.800 247.200 C 5.020 247.200,5.200 247.920,5.200 248.800 C 5.200 249.680,5.380 250.400,5.600 250.400 C 5.820 250.400,6.000 251.120,6.000 252.000 C 6.000 252.880,6.180 253.600,6.400 253.600 C 6.620 253.600,6.800 254.140,6.800 254.800 C 6.800 255.460,6.980 256.000,7.200 256.000 C 7.420 256.000,7.600 256.630,7.600 257.400 C 7.600 258.170,7.780 258.800,8.000 258.800 C 8.220 258.800,8.400 259.340,8.400 260.000 C 8.400 260.660,8.574 261.200,8.787 261.200 C 9.001 261.200,9.078 261.454,8.959 261.764 C 8.839 262.074,9.000 262.839,9.316 263.464 C 9.632 264.089,9.815 264.809,9.724 265.063 C 9.633 265.318,9.747 265.644,9.979 265.787 C 10.210 265.930,10.400 266.399,10.400 266.829 C 10.400 267.259,10.559 267.923,10.753 268.305 C 10.948 268.687,11.329 269.540,11.600 270.200 C 11.871 270.860,12.252 271.713,12.447 272.095 C 12.641 272.477,12.800 273.152,12.800 273.595 C 12.800 274.038,12.980 274.400,13.200 274.400 C 13.420 274.400,13.600 274.760,13.600 275.200 C 13.600 275.640,13.780 276.000,14.000 276.000 C 14.220 276.000,14.400 276.540,14.400 277.200 C 14.400 277.860,14.580 278.400,14.800 278.400 C 15.020 278.400,15.200 278.760,15.200 279.200 C 15.200 279.640,15.380 280.000,15.600 280.000 C 15.820 280.000,16.000 280.360,16.000 280.800 C 16.000 281.240,16.180 281.600,16.400 281.600 C 16.620 281.600,16.800 281.872,16.800 282.205 C 16.800 282.538,16.980 283.168,17.200 283.605 C 17.420 284.042,17.780 284.758,18.000 285.195 C 18.220 285.632,18.400 286.262,18.400 286.595 C 18.400 286.928,18.535 287.201,18.700 287.201 C 18.865 287.202,19.450 288.192,20.000 289.400 C 20.550 290.608,21.135 291.598,21.300 291.599 C 21.465 291.599,21.600 291.960,21.600 292.400 C 21.600 292.840,21.780 293.200,22.000 293.200 C 22.220 293.200,22.400 293.560,22.400 294.000 C 22.400 294.440,22.580 294.800,22.800 294.800 C 23.020 294.800,23.200 295.036,23.200 295.325 C 23.200 295.613,23.560 296.236,24.000 296.708 C 24.440 297.180,24.800 297.761,24.800 297.999 C 24.800 298.727,26.392 301.600,26.796 301.600 C 27.004 301.600,27.071 301.870,26.945 302.200 C 26.818 302.530,26.914 302.800,27.157 302.800 C 27.401 302.800,27.600 302.993,27.600 303.228 C 27.600 303.463,28.140 304.441,28.800 305.400 C 29.460 306.359,30.000 307.297,30.000 307.484 C 30.000 307.671,30.360 308.083,30.800 308.400 C 31.240 308.717,31.600 309.257,31.600 309.600 C 31.600 309.943,31.960 310.483,32.400 310.800 C 32.840 311.117,33.200 311.657,33.200 312.000 C 33.200 312.343,33.560 312.883,34.000 313.200 C 34.440 313.517,34.800 314.057,34.800 314.400 C 34.800 314.743,35.160 315.283,35.600 315.600 C 36.040 315.917,36.400 316.407,36.400 316.688 C 36.400 316.970,36.580 317.200,36.800 317.200 C 37.020 317.200,37.200 317.430,37.200 317.712 C 37.200 317.993,37.560 318.483,38.000 318.800 C 38.440 319.117,38.800 319.625,38.800 319.928 C 38.800 320.231,39.340 320.983,40.000 321.600 C 40.660 322.217,41.200 322.836,41.200 322.977 C 41.200 323.264,41.469 323.610,43.199 325.542 C 43.859 326.281,44.400 327.041,44.400 327.232 C 44.400 327.423,45.167 328.349,46.105 329.289 C 47.043 330.230,48.255 331.630,48.799 332.400 C 50.004 334.107,57.487 341.600,57.987 341.600 C 58.185 341.600,58.460 341.960,58.600 342.400 C 58.740 342.840,59.142 343.200,59.494 343.200 C 59.845 343.200,60.027 343.306,59.897 343.436 C 59.608 343.725,65.662 349.826,67.600 351.198 C 68.370 351.743,69.770 352.957,70.711 353.895 C 71.651 354.833,72.574 355.600,72.760 355.600 C 72.947 355.600,73.787 356.230,74.628 357.000 C 75.469 357.770,76.295 358.400,76.465 358.400 C 76.635 358.400,77.403 359.030,78.173 359.800 C 78.943 360.570,79.810 361.200,80.098 361.200 C 80.387 361.200,80.883 361.560,81.200 362.000 C 81.517 362.440,81.980 362.800,82.229 362.800 C 82.478 362.800,83.246 363.340,83.937 364.000 C 84.628 364.660,85.425 365.200,85.708 365.200 C 85.991 365.200,86.483 365.560,86.800 366.000 C 87.117 366.440,87.657 366.800,88.000 366.800 C 88.343 366.800,88.883 367.160,89.200 367.600 C 89.517 368.040,90.057 368.400,90.400 368.400 C 90.743 368.400,91.283 368.760,91.600 369.200 C 91.917 369.640,92.329 370.000,92.516 370.000 C 92.703 370.000,93.641 370.540,94.600 371.200 C 95.559 371.860,96.537 372.400,96.772 372.400 C 97.007 372.400,97.200 372.580,97.200 372.800 C 97.200 373.020,97.397 373.200,97.638 373.200 C 97.879 373.200,98.565 373.548,99.163 373.973 C 99.760 374.399,100.772 374.878,101.411 375.039 C 102.050 375.199,102.928 375.661,103.362 376.065 C 103.796 376.469,104.387 376.800,104.675 376.800 C 104.964 376.800,105.200 376.980,105.200 377.200 C 105.200 377.420,105.560 377.600,106.000 377.600 C 106.440 377.600,106.800 377.780,106.800 378.000 C 106.800 378.220,107.160 378.400,107.600 378.400 C 108.040 378.400,108.400 378.580,108.400 378.800 C 108.400 379.020,108.745 379.200,109.167 379.200 C 109.588 379.200,109.993 379.335,110.067 379.500 C 110.140 379.665,111.100 380.225,112.200 380.744 C 113.300 381.263,114.513 381.848,114.895 382.044 C 115.277 382.240,115.862 382.400,116.195 382.400 C 116.528 382.400,116.800 382.580,116.800 382.800 C 116.800 383.020,117.160 383.200,117.600 383.200 C 118.040 383.200,118.400 383.380,118.400 383.600 C 118.400 383.820,118.760 384.000,119.200 384.000 C 119.640 384.000,120.000 384.180,120.000 384.400 C 120.000 384.620,120.349 384.800,120.776 384.800 C 121.203 384.800,121.664 384.980,121.800 385.200 C 121.936 385.420,122.487 385.600,123.024 385.600 C 123.561 385.600,124.000 385.780,124.000 386.000 C 124.000 386.220,124.360 386.400,124.800 386.400 C 125.240 386.400,125.600 386.580,125.600 386.800 C 125.600 387.020,125.962 387.200,126.405 387.200 C 126.848 387.200,127.523 387.359,127.905 387.553 C 128.840 388.029,130.307 388.618,132.000 389.200 C 132.770 389.464,133.760 389.823,134.200 389.997 C 136.018 390.715,139.355 391.600,140.246 391.600 C 140.771 391.600,141.200 391.780,141.200 392.000 C 141.200 392.220,141.830 392.400,142.600 392.400 C 143.370 392.400,144.000 392.580,144.000 392.800 C 144.000 393.020,144.529 393.200,145.176 393.200 C 145.823 393.200,146.464 393.380,146.600 393.600 C 146.736 393.820,147.467 394.000,148.224 394.000 C 148.981 394.000,149.600 394.180,149.600 394.400 C 149.600 394.620,150.320 394.800,151.200 394.800 C 152.080 394.800,152.800 394.980,152.800 395.200 C 152.800 395.420,153.509 395.600,154.376 395.600 C 155.243 395.600,156.064 395.780,156.200 396.000 C 156.336 396.220,157.247 396.400,158.224 396.400 C 159.201 396.400,160.000 396.580,160.000 396.800 C 160.000 397.020,160.990 397.200,162.200 397.200 C 163.410 397.200,164.400 397.380,164.400 397.600 C 164.400 397.820,165.379 398.000,166.576 398.000 C 167.773 398.000,168.864 398.180,169.000 398.400 C 169.136 398.620,170.482 398.800,171.990 398.800 C 173.829 398.800,174.788 398.965,174.900 399.300 C 175.144 400.032,224.856 400.032,225.100 399.300 C 225.212 398.965,226.171 398.800,228.010 398.800 C 229.518 398.800,230.864 398.620,231.000 398.400 C 231.136 398.180,232.216 398.000,233.400 398.000 C 234.584 398.000,235.664 397.820,235.800 397.600 C 235.936 397.380,236.937 397.200,238.024 397.200 C 239.111 397.200,240.000 397.020,240.000 396.800 C 240.000 396.580,240.709 396.400,241.576 396.400 C 242.443 396.400,243.264 396.220,243.400 396.000 C 243.536 395.780,244.447 395.600,245.424 395.600 C 246.401 395.600,247.200 395.420,247.200 395.200 C 247.200 394.980,247.920 394.800,248.800 394.800 C 249.680 394.800,250.400 394.620,250.400 394.400 C 250.400 394.180,251.019 394.000,251.776 394.000 C 252.533 394.000,253.264 393.820,253.400 393.600 C 253.536 393.380,254.177 393.200,254.824 393.200 C 255.471 393.200,256.000 393.020,256.000 392.800 C 256.000 392.580,256.630 392.400,257.400 392.400 C 258.170 392.400,258.800 392.241,258.800 392.046 C 258.800 391.851,259.787 391.569,260.994 391.418 C 262.200 391.267,263.291 390.977,263.417 390.772 C 263.544 390.567,264.076 390.400,264.600 390.400 C 265.124 390.400,265.664 390.220,265.800 390.000 C 265.936 389.780,266.399 389.600,266.829 389.600 C 267.259 389.600,267.923 389.441,268.305 389.247 C 268.687 389.052,269.540 388.671,270.200 388.400 C 270.860 388.129,271.713 387.748,272.095 387.553 C 272.477 387.359,273.152 387.200,273.595 387.200 C 274.038 387.200,274.400 387.020,274.400 386.800 C 274.400 386.580,274.760 386.400,275.200 386.400 C 275.640 386.400,276.000 386.220,276.000 386.000 C 276.000 385.780,276.540 385.600,277.200 385.600 C 277.860 385.600,278.400 385.420,278.400 385.200 C 278.400 384.980,278.760 384.800,279.200 384.800 C 279.640 384.800,280.000 384.620,280.000 384.400 C 280.000 384.180,280.360 384.000,280.800 384.000 C 281.240 384.000,281.600 383.820,281.600 383.600 C 281.600 383.380,281.872 383.200,282.205 383.200 C 282.793 383.200,283.218 383.033,285.095 382.062 C 285.587 381.808,286.262 381.600,286.595 381.600 C 286.928 381.600,287.201 381.465,287.201 381.300 C 287.202 381.135,288.192 380.550,289.400 380.000 C 290.608 379.450,291.598 378.865,291.599 378.700 C 291.599 378.535,291.960 378.400,292.400 378.400 C 292.840 378.400,293.200 378.220,293.200 378.000 C 293.200 377.780,293.560 377.600,294.000 377.600 C 294.440 377.600,294.800 377.420,294.800 377.200 C 294.800 376.980,295.036 376.800,295.325 376.800 C 295.613 376.800,296.236 376.440,296.708 376.000 C 297.180 375.560,297.775 375.200,298.029 375.200 C 298.611 375.200,302.553 373.105,302.733 372.700 C 302.807 372.535,303.044 372.400,303.261 372.400 C 303.478 372.400,304.441 371.860,305.400 371.200 C 306.359 370.540,307.297 370.000,307.484 370.000 C 307.671 370.000,308.083 369.640,308.400 369.200 C 308.717 368.760,309.257 368.400,309.600 368.400 C 309.943 368.400,310.483 368.040,310.800 367.600 C 311.117 367.160,311.657 366.800,312.000 366.800 C 312.343 366.800,312.883 366.440,313.200 366.000 C 313.517 365.560,314.057 365.200,314.400 365.200 C 314.743 365.200,315.283 364.840,315.600 364.400 C 315.917 363.960,316.407 363.600,316.688 363.600 C 316.970 363.600,317.200 363.420,317.200 363.200 C 317.200 362.980,317.430 362.800,317.712 362.800 C 317.993 362.800,318.483 362.440,318.800 362.000 C 319.117 361.560,319.625 361.200,319.928 361.200 C 320.231 361.200,320.983 360.660,321.600 360.000 C 322.217 359.340,322.874 358.800,323.061 358.800 C 323.247 358.800,324.188 358.080,325.151 357.200 C 326.113 356.320,327.054 355.600,327.240 355.600 C 327.426 355.600,328.349 354.833,329.289 353.895 C 330.230 352.957,331.630 351.745,332.400 351.201 C 333.170 350.658,335.561 348.410,337.713 346.207 C 342.418 341.389,341.389 342.418,346.207 337.713 C 348.410 335.561,350.658 333.170,351.201 332.400 C 351.745 331.630,352.957 330.230,353.895 329.289 C 354.833 328.349,355.600 327.426,355.600 327.240 C 355.600 327.054,356.320 326.113,357.200 325.151 C 358.080 324.188,358.800 323.247,358.800 323.061 C 358.800 322.874,359.340 322.217,360.000 321.600 C 360.660 320.983,361.200 320.231,361.200 319.928 C 361.200 319.625,361.560 319.117,362.000 318.800 C 362.440 318.483,362.800 317.993,362.800 317.712 C 362.800 317.430,362.980 317.200,363.200 317.200 C 363.420 317.200,363.600 316.970,363.600 316.688 C 363.600 316.407,363.960 315.917,364.400 315.600 C 364.840 315.283,365.200 314.743,365.200 314.400 C 365.200 314.057,365.560 313.517,366.000 313.200 C 366.440 312.883,366.800 312.343,366.800 312.000 C 366.800 311.657,367.160 311.117,367.600 310.800 C 368.040 310.483,368.400 309.943,368.400 309.600 C 368.400 309.257,368.760 308.717,369.200 308.400 C 369.640 308.083,370.000 307.671,370.000 307.484 C 370.000 307.297,370.540 306.359,371.200 305.400 C 371.860 304.441,372.400 303.463,372.400 303.228 C 372.400 302.993,372.580 302.800,372.800 302.800 C 373.020 302.800,373.200 302.440,373.200 302.000 C 373.200 301.560,373.347 301.200,373.526 301.200 C 373.874 301.200,375.200 298.642,375.200 297.970 C 375.200 297.748,375.560 297.180,376.000 296.708 C 376.440 296.236,376.800 295.613,376.800 295.325 C 376.800 295.036,376.980 294.800,377.200 294.800 C 377.420 294.800,377.600 294.440,377.600 294.000 C 377.600 293.560,377.780 293.200,378.000 293.200 C 378.220 293.200,378.400 292.840,378.400 292.400 C 378.400 291.960,378.535 291.599,378.700 291.599 C 378.865 291.598,379.450 290.608,380.000 289.400 C 380.550 288.192,381.135 287.202,381.300 287.201 C 381.465 287.201,381.600 286.928,381.600 286.595 C 381.600 286.262,381.780 285.632,382.000 285.195 C 382.220 284.758,382.580 284.042,382.800 283.605 C 383.020 283.168,383.200 282.538,383.200 282.205 C 383.200 281.872,383.380 281.600,383.600 281.600 C 383.820 281.600,384.000 281.240,384.000 280.800 C 384.000 280.360,384.180 280.000,384.400 280.000 C 384.620 280.000,384.800 279.651,384.800 279.224 C 384.800 278.797,384.980 278.336,385.200 278.200 C 385.420 278.064,385.600 277.513,385.600 276.976 C 385.600 276.439,385.780 276.000,386.000 276.000 C 386.220 276.000,386.400 275.640,386.400 275.200 C 386.400 274.760,386.580 274.400,386.800 274.400 C 387.020 274.400,387.200 274.038,387.200 273.595 C 387.200 273.152,387.359 272.477,387.553 272.095 C 387.748 271.713,388.129 270.860,388.400 270.200 C 388.671 269.540,389.052 268.687,389.247 268.305 C 389.441 267.923,389.600 267.259,389.600 266.829 C 389.600 266.399,389.780 265.936,390.000 265.800 C 390.220 265.664,390.400 265.124,390.400 264.600 C 390.400 264.076,390.567 263.544,390.772 263.417 C 390.977 263.291,391.267 262.200,391.418 260.994 C 391.569 259.787,391.851 258.800,392.046 258.800 C 392.241 258.800,392.400 258.170,392.400 257.400 C 392.400 256.630,392.580 256.000,392.800 256.000 C 393.020 256.000,393.200 255.471,393.200 254.824 C 393.200 254.177,393.380 253.536,393.600 253.400 C 393.820 253.264,394.000 252.533,394.000 251.776 C 394.000 251.019,394.180 250.400,394.400 250.400 C 394.620 250.400,394.800 249.680,394.800 248.800 C 394.800 247.920,394.980 247.200,395.200 247.200 C 395.420 247.200,395.600 246.491,395.600 245.624 C 395.600 244.757,395.780 243.936,396.000 243.800 C 396.220 243.664,396.400 242.753,396.400 241.776 C 396.400 240.799,396.580 240.000,396.800 240.000 C 397.020 240.000,397.200 239.111,397.200 238.024 C 397.200 236.937,397.380 235.936,397.600 235.800 C 397.820 235.664,398.000 234.584,398.000 233.400 C 398.000 232.216,398.180 231.136,398.400 231.000 C 398.620 230.864,398.800 229.518,398.800 228.010 C 398.800 226.171,398.965 225.212,399.300 225.100 C 399.693 224.969,399.800 219.591,399.800 200.000 C 399.800 180.409,399.693 175.031,399.300 174.900 C 398.965 174.788,398.800 173.829,398.800 171.990 C 398.800 170.482,398.620 169.136,398.400 169.000 C 398.180 168.864,398.000 167.784,398.000 166.600 C 398.000 165.416,397.820 164.336,397.600 164.200 C 397.380 164.064,397.200 163.063,397.200 161.976 C 397.200 160.889,397.020 160.000,396.800 160.000 C 396.580 160.000,396.400 159.201,396.400 158.224 C 396.400 157.247,396.220 156.336,396.000 156.200 C 395.780 156.064,395.600 155.243,395.600 154.376 C 395.600 153.509,395.420 152.800,395.200 152.800 C 394.980 152.800,394.800 152.080,394.800 151.200 C 394.800 150.320,394.620 149.600,394.400 149.600 C 394.180 149.600,394.000 148.981,394.000 148.224 C 394.000 147.467,393.820 146.736,393.600 146.600 C 393.380 146.464,393.200 145.823,393.200 145.176 C 393.200 144.529,393.020 144.000,392.800 144.000 C 392.580 144.000,392.400 143.370,392.400 142.600 C 392.400 141.830,392.241 141.200,392.046 141.200 C 391.851 141.200,391.569 140.213,391.418 139.006 C 391.267 137.800,390.977 136.709,390.772 136.583 C 390.567 136.456,390.400 135.924,390.400 135.400 C 390.400 134.876,390.220 134.336,390.000 134.200 C 389.780 134.064,389.600 133.601,389.600 133.171 C 389.600 132.741,389.441 132.077,389.247 131.695 C 389.052 131.313,388.671 130.460,388.400 129.800 C 388.129 129.140,387.748 128.287,387.553 127.905 C 387.359 127.523,387.200 126.848,387.200 126.405 C 387.200 125.962,387.020 125.600,386.800 125.600 C 386.580 125.600,386.400 125.240,386.400 124.800 C 386.400 124.360,386.220 124.000,386.000 124.000 C 385.780 124.000,385.600 123.460,385.600 122.800 C 385.600 122.140,385.420 121.600,385.200 121.600 C 384.980 121.600,384.800 121.240,384.800 120.800 C 384.800 120.360,384.620 120.000,384.400 120.000 C 384.180 120.000,384.000 119.640,384.000 119.200 C 384.000 118.760,383.820 118.400,383.600 118.400 C 383.380 118.400,383.200 118.040,383.200 117.600 C 383.200 117.160,383.020 116.800,382.800 116.800 C 382.580 116.800,382.400 116.361,382.400 115.824 C 382.400 115.287,382.220 114.736,382.000 114.600 C 381.780 114.464,381.600 114.003,381.600 113.576 C 381.600 113.149,381.420 112.800,381.200 112.800 C 380.980 112.800,380.800 112.440,380.800 112.000 C 380.800 111.560,380.654 111.200,380.475 111.200 C 380.296 111.200,379.902 110.570,379.600 109.800 C 379.298 109.030,378.904 108.400,378.725 108.400 C 378.546 108.400,378.400 108.040,378.400 107.600 C 378.400 107.160,378.220 106.800,378.000 106.800 C 377.780 106.800,377.600 106.440,377.600 106.000 C 377.600 105.560,377.420 105.200,377.200 105.200 C 376.980 105.200,376.800 104.964,376.800 104.675 C 376.800 104.387,376.440 103.764,376.000 103.292 C 375.560 102.820,375.200 102.219,375.200 101.957 C 375.200 101.251,373.085 97.200,372.716 97.200 C 372.542 97.200,372.400 97.007,372.400 96.772 C 372.400 96.537,371.860 95.559,371.200 94.600 C 370.540 93.641,370.000 92.703,370.000 92.516 C 370.000 92.329,369.640 91.917,369.200 91.600 C 368.760 91.283,368.400 90.743,368.400 90.400 C 368.400 90.057,368.040 89.517,367.600 89.200 C 367.160 88.883,366.800 88.343,366.800 88.000 C 366.800 87.657,366.440 87.117,366.000 86.800 C 365.560 86.483,365.200 85.943,365.200 85.600 C 365.200 85.257,364.840 84.717,364.400 84.400 C 363.960 84.083,363.600 83.620,363.600 83.371 C 363.600 83.122,363.060 82.354,362.400 81.663 C 361.740 80.972,361.200 80.208,361.200 79.964 C 361.200 79.720,360.660 79.017,360.000 78.400 C 359.340 77.783,358.800 77.126,358.800 76.939 C 358.800 76.753,358.080 75.812,357.200 74.849 C 356.320 73.887,355.600 72.946,355.600 72.760 C 355.600 72.574,354.833 71.651,353.895 70.711 C 352.957 69.770,351.745 68.370,351.201 67.600 C 350.658 66.830,348.410 64.439,346.207 62.287 C 341.389 57.582,342.418 58.611,337.713 53.793 C 335.561 51.590,333.172 49.342,332.405 48.799 C 331.638 48.255,330.135 46.953,329.065 45.905 C 327.995 44.857,326.949 44.000,326.741 44.000 C 326.534 44.000,325.930 43.595,325.401 43.100 C 323.937 41.731,323.260 41.200,322.977 41.200 C 322.836 41.200,322.217 40.660,321.600 40.000 C 320.983 39.340,320.280 38.800,320.036 38.800 C 319.792 38.800,319.028 38.260,318.337 37.600 C 317.646 36.940,316.878 36.400,316.629 36.400 C 316.380 36.400,315.917 36.040,315.600 35.600 C 315.283 35.160,314.743 34.800,314.400 34.800 C 314.057 34.800,313.517 34.440,313.200 34.000 C 312.883 33.560,312.343 33.200,312.000 33.200 C 311.657 33.200,311.117 32.840,310.800 32.400 C 310.483 31.960,309.943 31.600,309.600 31.600 C 309.257 31.600,308.717 31.240,308.400 30.800 C 308.083 30.360,307.671 30.000,307.484 30.000 C 307.297 30.000,306.359 29.460,305.400 28.800 C 304.441 28.140,303.478 27.600,303.261 27.600 C 303.044 27.600,302.807 27.465,302.733 27.300 C 302.553 26.895,298.611 24.800,298.029 24.800 C 297.775 24.800,297.180 24.440,296.708 24.000 C 296.236 23.560,295.613 23.200,295.325 23.200 C 295.036 23.200,294.800 23.020,294.800 22.800 C 294.800 22.580,294.440 22.400,294.000 22.400 C 293.560 22.400,293.200 22.220,293.200 22.000 C 293.200 21.780,292.840 21.600,292.400 21.600 C 291.960 21.600,291.600 21.454,291.600 21.275 C 291.600 21.096,290.970 20.702,290.200 20.400 C 289.430 20.098,288.800 19.704,288.800 19.525 C 288.800 19.346,288.440 19.200,288.000 19.200 C 287.560 19.200,287.200 19.020,287.200 18.800 C 287.200 18.580,286.928 18.400,286.595 18.400 C 286.007 18.400,285.582 18.233,283.705 17.262 C 283.213 17.008,282.538 16.800,282.205 16.800 C 281.872 16.800,281.600 16.620,281.600 16.400 C 281.600 16.180,281.240 16.000,280.800 16.000 C 280.360 16.000,280.000 15.820,280.000 15.600 C 280.000 15.380,279.640 15.200,279.200 15.200 C 278.760 15.200,278.400 15.020,278.400 14.800 C 278.400 14.580,277.860 14.400,277.200 14.400 C 276.540 14.400,276.000 14.220,276.000 14.000 C 276.000 13.780,275.640 13.600,275.200 13.600 C 274.760 13.600,274.400 13.420,274.400 13.200 C 274.400 12.980,274.038 12.800,273.595 12.800 C 273.152 12.800,272.477 12.641,272.095 12.447 C 271.713 12.252,270.860 11.871,270.200 11.600 C 269.540 11.329,268.687 10.948,268.305 10.753 C 267.923 10.559,267.259 10.400,266.829 10.400 C 266.399 10.400,265.930 10.210,265.787 9.979 C 265.644 9.747,265.318 9.633,265.063 9.724 C 264.809 9.815,264.089 9.632,263.464 9.316 C 262.839 9.000,262.074 8.839,261.764 8.959 C 261.454 9.078,261.200 9.001,261.200 8.787 C 261.200 8.574,260.660 8.400,260.000 8.400 C 259.340 8.400,258.800 8.220,258.800 8.000 C 258.800 7.780,258.170 7.600,257.400 7.600 C 256.630 7.600,256.000 7.420,256.000 7.200 C 256.000 6.980,255.460 6.800,254.800 6.800 C 254.140 6.800,253.600 6.620,253.600 6.400 C 253.600 6.180,252.880 6.000,252.000 6.000 C 251.120 6.000,250.400 5.820,250.400 5.600 C 250.400 5.380,249.680 5.200,248.800 5.200 C 247.920 5.200,247.200 5.020,247.200 4.800 C 247.200 4.580,246.491 4.400,245.624 4.400 C 244.757 4.400,243.936 4.220,243.800 4.000 C 243.664 3.780,242.753 3.600,241.776 3.600 C 240.799 3.600,240.000 3.420,240.000 3.200 C 240.000 2.980,239.100 2.800,238.000 2.800 C 236.900 2.800,236.000 2.620,236.000 2.400 C 236.000 2.178,234.941 2.000,233.624 2.000 C 232.317 2.000,231.136 1.820,231.000 1.600 C 230.864 1.380,229.518 1.200,228.010 1.200 C 226.193 1.200,225.211 1.034,225.103 0.708 C 224.941 0.222,187.291 -0.126,178.300 0.275 M307.285 112.178 C 308.046 112.495,309.192 113.260,309.834 113.878 C 312.033 115.994,313.661 121.020,312.400 121.800 C 312.180 121.936,312.000 122.487,312.000 123.024 C 312.000 123.561,311.820 124.000,311.600 124.000 C 311.380 124.000,311.200 124.204,311.200 124.453 C 311.200 124.702,310.884 125.197,310.498 125.553 C 310.112 125.909,309.147 127.010,308.353 128.000 C 307.559 128.990,306.390 130.359,305.755 131.042 C 305.120 131.726,303.520 133.515,302.200 135.019 C 300.880 136.523,298.968 138.664,297.951 139.777 C 296.934 140.890,295.584 142.429,294.951 143.197 C 294.318 143.965,293.260 145.152,292.600 145.836 C 291.940 146.519,289.060 149.748,286.200 153.012 C 283.340 156.276,280.280 159.682,279.400 160.581 C 278.520 161.479,277.322 162.841,276.738 163.607 C 276.153 164.373,275.073 165.638,274.338 166.417 C 273.602 167.197,271.921 169.087,270.601 170.617 C 269.282 172.148,267.572 174.030,266.801 174.800 C 266.031 175.570,264.926 176.830,264.347 177.600 C 263.768 178.370,262.328 179.999,261.147 181.219 C 259.966 182.440,258.550 184.001,258.000 184.688 C 256.737 186.266,248.998 194.990,247.400 196.638 C 246.740 197.318,245.840 198.332,245.400 198.891 C 244.960 199.449,243.700 200.890,242.600 202.091 C 241.500 203.293,239.676 205.339,238.546 206.638 C 237.416 207.937,235.976 209.550,235.346 210.221 C 234.716 210.893,233.210 212.603,232.000 214.021 C 230.790 215.439,229.260 217.165,228.600 217.857 C 227.940 218.549,226.554 220.079,225.520 221.258 C 224.486 222.436,223.226 223.856,222.720 224.413 C 222.214 224.970,220.630 226.770,219.200 228.413 C 217.770 230.055,216.240 231.773,215.800 232.229 C 215.360 232.685,214.460 233.691,213.800 234.465 C 212.662 235.798,208.564 240.402,206.400 242.777 C 205.850 243.381,204.410 245.027,203.200 246.434 C 201.990 247.841,200.174 249.894,199.165 250.996 C 198.156 252.098,196.806 253.614,196.165 254.365 C 195.524 255.116,194.280 256.469,193.400 257.371 C 192.520 258.273,190.991 259.999,190.002 261.206 C 189.013 262.412,188.023 263.600,187.802 263.844 C 187.581 264.088,186.150 265.676,184.622 267.373 C 179.285 273.299,174.315 274.224,169.786 270.135 C 169.338 269.731,168.168 268.772,167.186 268.006 C 164.541 265.940,163.985 265.482,163.050 264.591 C 162.582 264.147,161.570 263.345,160.800 262.810 C 160.030 262.275,159.130 261.551,158.800 261.200 C 158.470 260.849,157.570 260.129,156.800 259.600 C 156.030 259.071,155.310 258.525,155.200 258.387 C 155.090 258.249,152.660 256.303,149.800 254.063 C 146.940 251.823,144.148 249.586,143.596 249.091 C 143.043 248.596,141.963 247.751,141.196 247.214 C 140.428 246.677,139.530 245.959,139.200 245.619 C 138.869 245.279,137.789 244.372,136.800 243.606 C 135.810 242.839,134.730 241.989,134.400 241.718 C 134.070 241.447,132.630 240.303,131.200 239.175 C 129.770 238.047,128.239 236.827,127.799 236.462 C 127.358 236.098,126.188 235.175,125.199 234.410 C 124.209 233.646,123.310 232.921,123.200 232.800 C 123.090 232.679,122.190 231.957,121.200 231.195 C 120.210 230.434,119.204 229.629,118.963 229.406 C 118.723 229.183,117.927 228.550,117.194 228.000 C 116.461 227.450,115.451 226.595,114.949 226.100 C 114.447 225.605,113.914 225.200,113.765 225.200 C 113.616 225.200,113.203 224.876,112.847 224.481 C 112.491 224.086,111.570 223.323,110.800 222.787 C 110.030 222.250,109.040 221.513,108.600 221.148 C 108.160 220.784,105.820 218.894,103.400 216.949 C 100.980 215.005,98.662 213.140,98.250 212.807 C 97.837 212.473,97.080 211.795,96.568 211.300 C 96.056 210.805,95.448 210.400,95.218 210.400 C 94.988 210.400,94.800 210.220,94.800 210.000 C 94.800 209.780,94.612 209.600,94.382 209.600 C 94.152 209.600,93.544 209.195,93.031 208.700 C 92.518 208.205,91.356 207.174,90.449 206.409 C 89.542 205.644,88.800 204.789,88.800 204.509 C 88.800 204.229,88.640 204.000,88.445 204.000 C 88.015 204.000,87.529 201.911,87.516 200.000 C 87.467 192.833,95.860 188.945,101.594 193.479 C 104.115 195.472,111.555 201.406,112.201 201.939 C 112.642 202.303,113.811 203.230,114.800 204.000 C 116.652 205.443,117.547 206.162,118.780 207.200 C 119.173 207.530,120.081 208.250,120.800 208.800 C 121.519 209.350,122.488 210.135,122.953 210.545 C 123.419 210.955,124.426 211.765,125.192 212.345 C 125.958 212.925,126.948 213.696,127.392 214.059 C 127.836 214.421,130.630 216.661,133.600 219.037 C 136.570 221.412,139.090 223.464,139.200 223.597 C 139.310 223.730,140.030 224.271,140.800 224.800 C 141.570 225.329,142.470 226.048,142.800 226.398 C 143.130 226.747,145.290 228.491,147.600 230.274 C 149.910 232.056,152.190 233.849,152.666 234.257 C 154.078 235.468,154.900 236.133,156.800 237.606 C 157.789 238.372,158.869 239.279,159.200 239.619 C 159.530 239.959,160.430 240.671,161.200 241.200 C 161.970 241.729,162.870 242.449,163.200 242.800 C 163.530 243.151,164.430 243.871,165.200 244.400 C 165.970 244.929,166.690 245.464,166.800 245.589 C 166.910 245.714,168.440 246.946,170.200 248.327 C 171.960 249.707,173.717 251.098,174.105 251.418 C 175.084 252.227,175.242 252.171,176.600 250.549 C 178.034 248.835,181.084 245.391,182.200 244.224 C 182.640 243.764,183.659 242.580,184.464 241.594 C 185.269 240.607,186.799 238.876,187.864 237.748 C 188.929 236.619,190.160 235.245,190.600 234.694 C 191.040 234.144,192.300 232.710,193.400 231.509 C 194.500 230.307,196.324 228.261,197.454 226.962 C 198.584 225.663,200.024 224.054,200.654 223.386 C 201.284 222.718,202.642 221.188,203.672 219.986 C 204.701 218.784,206.231 217.056,207.072 216.146 C 207.912 215.237,209.680 213.274,211.000 211.785 C 212.320 210.296,213.580 208.880,213.800 208.638 C 214.020 208.397,214.813 207.480,215.561 206.600 C 217.765 204.010,222.075 199.218,223.800 197.439 C 224.680 196.531,226.210 194.803,227.200 193.598 C 228.190 192.394,229.540 190.849,230.200 190.165 C 230.860 189.482,231.832 188.400,232.359 187.761 C 232.887 187.123,234.518 185.250,235.984 183.600 C 237.450 181.950,239.179 179.986,239.825 179.235 C 240.471 178.484,241.720 177.132,242.600 176.230 C 243.480 175.328,244.716 173.962,245.346 173.195 C 247.277 170.844,254.106 163.155,255.800 161.424 C 256.680 160.525,258.207 158.801,259.193 157.594 C 260.179 156.388,261.259 155.130,261.593 154.800 C 261.927 154.470,263.213 153.030,264.452 151.600 C 265.691 150.170,267.491 148.156,268.452 147.124 C 269.413 146.092,270.830 144.480,271.600 143.541 C 272.370 142.602,273.720 141.097,274.600 140.197 C 275.480 139.298,277.185 137.400,278.390 135.981 C 279.594 134.561,280.675 133.310,280.793 133.200 C 280.911 133.090,282.265 131.562,283.804 129.805 C 285.342 128.048,287.237 125.978,288.016 125.205 C 288.795 124.432,289.703 123.408,290.034 122.928 C 290.365 122.449,291.912 120.649,293.471 118.928 C 295.030 117.208,296.776 115.236,297.350 114.546 C 299.523 111.935,304.096 110.845,307.285 112.178 " stroke="none" fill="#24ac8b" fill-rule="evenodd"></path><path id="path2" d="M301.400 112.398 C 299.750 112.911,291.200 121.433,291.200 122.565 C 291.200 122.930,291.489 122.629,295.390 118.200 C 299.752 113.249,300.742 112.606,304.000 112.612 C 307.091 112.617,309.507 113.954,310.605 116.266 C 310.970 117.035,311.364 117.570,311.480 117.454 C 311.902 117.032,309.865 114.322,308.394 113.349 C 306.711 112.235,303.383 111.783,301.400 112.398 M311.720 120.000 C 311.720 121.210,311.795 121.705,311.887 121.100 C 311.978 120.495,311.978 119.505,311.887 118.900 C 311.795 118.295,311.720 118.790,311.720 120.000 M310.944 123.043 C 310.793 123.459,310.301 124.340,309.851 125.000 C 309.177 125.987,309.157 126.099,309.742 125.629 C 310.592 124.946,311.749 122.816,311.439 122.506 C 311.318 122.385,311.095 122.626,310.944 123.043 M284.143 130.300 C 280.663 134.205,277.255 138.030,276.570 138.800 C 275.884 139.570,274.351 141.286,273.162 142.614 C 271.973 143.941,269.830 146.358,268.400 147.983 C 266.970 149.608,265.059 151.762,264.154 152.769 C 262.095 155.060,236.808 183.542,233.237 187.591 C 231.787 189.237,229.719 191.532,228.642 192.691 C 227.565 193.851,226.813 194.800,226.970 194.800 C 227.265 194.800,228.033 193.972,234.386 186.800 C 236.433 184.490,239.315 181.250,240.791 179.600 C 242.268 177.950,244.179 175.792,245.038 174.804 C 245.897 173.817,246.780 172.812,247.000 172.573 C 247.598 171.922,252.721 166.159,254.958 163.621 C 256.036 162.400,258.211 159.960,259.792 158.200 C 261.373 156.440,264.339 153.110,266.384 150.800 C 268.428 148.490,270.663 145.970,271.351 145.200 C 272.038 144.430,273.950 142.270,275.600 140.400 C 277.250 138.530,278.691 136.910,278.802 136.800 C 278.913 136.690,280.443 134.980,282.202 133.000 C 283.961 131.020,285.490 129.310,285.600 129.200 C 286.618 128.185,290.835 123.200,290.676 123.200 C 290.563 123.200,287.623 126.395,284.143 130.300 M307.800 127.355 C 304.438 130.917,295.852 140.800,296.120 140.800 C 296.402 140.800,308.903 126.767,308.743 126.630 C 308.664 126.562,308.240 126.889,307.800 127.355 M294.600 142.141 C 294.160 142.632,292.633 144.376,291.208 146.017 C 289.782 147.658,288.520 149.090,288.404 149.200 C 287.524 150.033,282.746 155.600,282.911 155.600 C 283.026 155.600,286.021 152.360,289.567 148.400 C 293.113 144.440,295.876 141.211,295.707 141.224 C 295.538 141.238,295.040 141.650,294.600 142.141 M281.400 156.968 C 280.960 157.492,279.818 158.839,278.863 159.960 C 276.236 163.045,277.103 162.403,280.161 159.000 C 281.643 157.350,282.709 156.003,282.528 156.008 C 282.348 156.012,281.840 156.444,281.400 156.968 M274.754 164.542 C 271.136 168.576,265.470 175.016,264.673 176.000 C 263.660 177.250,266.906 173.930,268.800 171.778 C 269.570 170.904,271.709 168.520,273.554 166.482 C 275.399 164.443,276.839 162.710,276.754 162.629 C 276.669 162.549,275.769 163.410,274.754 164.542 M262.793 177.976 C 261.381 179.695,254.419 187.499,251.723 190.385 C 250.801 191.372,250.121 192.254,250.211 192.345 C 250.302 192.435,251.146 191.637,252.088 190.572 C 253.030 189.507,256.028 186.146,258.751 183.102 C 261.474 180.059,263.631 177.498,263.545 177.411 C 263.458 177.324,263.120 177.579,262.793 177.976 M94.900 192.287 C 95.505 192.378,96.495 192.378,97.100 192.287 C 97.705 192.195,97.210 192.120,96.000 192.120 C 94.790 192.120,94.295 192.195,94.900 192.287 M92.048 193.084 C 90.592 193.801,88.390 196.515,88.416 197.560 C 88.425 197.912,88.778 197.507,89.201 196.659 C 90.005 195.048,91.861 193.201,92.676 193.200 C 92.938 193.200,93.264 193.020,93.400 192.800 C 93.721 192.280,93.650 192.295,92.048 193.084 M98.400 192.610 C 98.400 192.725,98.805 192.974,99.300 193.163 C 99.795 193.351,103.087 195.822,106.616 198.653 C 110.146 201.484,113.726 204.340,114.572 205.000 C 115.419 205.660,116.311 206.380,116.556 206.600 C 116.800 206.820,117.659 207.492,118.465 208.094 C 119.271 208.696,120.171 209.423,120.465 209.710 C 120.759 209.998,121.377 210.495,121.837 210.816 C 122.298 211.137,123.468 212.056,124.437 212.858 C 127.017 214.992,138.898 224.460,139.600 224.941 C 142.615 227.011,118.640 207.535,110.571 201.360 C 108.903 200.084,108.024 199.378,105.843 197.568 C 101.476 193.943,98.400 191.894,98.400 192.610 M247.842 194.726 C 246.985 195.756,245.005 198.021,243.442 199.758 C 241.879 201.494,240.420 203.115,240.200 203.360 C 239.980 203.604,238.450 205.333,236.800 207.202 C 235.150 209.071,233.710 210.693,233.600 210.806 C 233.490 210.920,232.872 211.640,232.226 212.406 C 230.819 214.077,234.802 210.059,236.801 207.790 C 240.576 203.508,248.244 194.875,249.139 193.900 C 249.695 193.295,249.981 192.811,249.775 192.826 C 249.569 192.840,248.699 193.695,247.842 194.726 M223.338 198.700 C 221.612 200.625,220.110 202.290,219.999 202.400 C 219.889 202.510,217.909 204.760,215.599 207.400 C 213.290 210.039,211.220 212.395,211.000 212.634 C 210.780 212.874,209.250 214.577,207.600 216.420 C 205.950 218.263,203.627 220.858,202.438 222.186 C 201.249 223.514,199.719 225.234,199.038 226.009 C 198.357 226.784,196.388 228.989,194.662 230.909 C 192.937 232.829,191.656 234.400,191.815 234.400 C 191.975 234.400,192.397 234.065,192.753 233.655 C 194.879 231.206,204.733 220.116,205.400 219.421 C 205.840 218.963,208.090 216.431,210.400 213.794 C 212.710 211.158,214.780 208.806,215.000 208.569 C 215.220 208.331,216.660 206.714,218.200 204.975 C 219.740 203.235,221.900 200.819,223.000 199.606 C 226.347 195.915,226.949 195.200,226.707 195.200 C 226.580 195.200,225.063 196.775,223.338 198.700 M88.109 200.000 C 88.109 200.990,88.187 201.395,88.282 200.900 C 88.378 200.405,88.378 199.595,88.282 199.100 C 88.187 198.605,88.109 199.010,88.109 200.000 M88.400 202.716 C 88.400 203.296,90.764 206.400,91.206 206.400 C 91.427 206.400,91.065 205.833,90.403 205.141 C 89.742 204.448,89.200 203.649,89.200 203.364 C 89.200 203.080,89.020 202.736,88.800 202.600 C 88.580 202.464,88.400 202.516,88.400 202.716 M92.411 207.461 C 92.955 207.825,93.895 208.579,94.500 209.136 C 95.105 209.694,95.594 209.981,95.588 209.775 C 95.574 209.348,92.305 206.800,91.772 206.800 C 91.579 206.800,91.867 207.098,92.411 207.461 M96.981 210.959 C 98.127 212.022,123.595 232.481,124.588 233.136 C 126.149 234.166,122.411 230.881,119.592 228.745 C 118.826 228.165,117.810 227.355,117.334 226.945 C 116.857 226.535,116.135 225.930,115.728 225.600 C 115.322 225.270,114.435 224.550,113.757 224.000 C 113.079 223.450,111.828 222.460,110.976 221.800 C 110.124 221.140,106.631 218.366,103.214 215.635 C 97.160 210.798,95.315 209.414,96.981 210.959 M229.729 215.104 C 229.250 215.707,228.530 216.560,228.129 217.000 C 227.728 217.440,226.050 219.326,224.400 221.190 C 222.750 223.055,221.220 224.781,221.000 225.025 C 216.734 229.764,214.684 232.088,213.609 233.400 C 211.507 235.967,216.184 231.011,220.800 225.780 C 223.110 223.163,225.985 219.936,227.189 218.610 C 231.144 214.255,231.353 214.000,230.975 214.004 C 230.769 214.006,230.208 214.501,229.729 215.104 M140.420 225.493 C 140.431 225.662,143.165 227.960,146.496 230.600 C 149.827 233.240,153.419 236.090,154.477 236.934 C 155.534 237.778,156.399 238.318,156.397 238.134 C 156.396 237.950,155.800 237.395,155.073 236.900 C 154.346 236.406,153.403 235.684,152.976 235.297 C 152.549 234.910,151.390 233.969,150.400 233.207 C 149.410 232.444,148.510 231.717,148.400 231.589 C 147.780 230.872,140.403 225.236,140.420 225.493 M126.631 234.656 C 128.275 236.185,129.731 237.400,131.910 239.063 C 132.906 239.824,134.477 241.065,135.402 241.823 C 136.326 242.580,137.213 243.200,137.372 243.200 C 137.666 243.200,130.483 237.308,127.199 234.856 C 125.713 233.746,125.614 233.711,126.631 234.656 M183.418 243.600 C 179.102 248.440,175.300 252.400,174.969 252.400 C 174.499 252.400,165.526 245.521,161.500 242.075 C 161.115 241.746,160.801 241.639,160.803 241.838 C 160.804 242.037,161.389 242.601,162.103 243.091 C 162.816 243.582,163.871 244.392,164.447 244.891 C 165.022 245.391,166.086 246.250,166.810 246.800 C 167.534 247.350,169.612 249.015,171.429 250.500 C 175.147 253.539,175.139 253.536,176.182 252.300 C 176.599 251.805,178.470 249.690,180.338 247.600 C 190.644 236.069,191.749 234.800,191.474 234.800 C 191.359 234.800,187.734 238.760,183.418 243.600 M210.913 236.330 C 210.425 236.948,209.525 237.984,208.913 238.633 C 206.316 241.384,202.800 245.492,202.800 245.775 C 202.800 245.944,203.565 245.211,204.500 244.146 C 206.314 242.080,209.411 238.631,211.365 236.500 C 212.020 235.785,212.387 235.202,212.178 235.204 C 211.970 235.206,211.401 235.713,210.913 236.330 M156.825 238.666 C 156.838 238.850,157.665 239.595,158.663 240.323 C 159.660 241.051,160.366 241.469,160.232 241.252 C 159.834 240.608,156.798 238.304,156.825 238.666 M139.600 245.130 C 140.589 246.012,141.476 246.657,141.570 246.563 C 141.750 246.384,141.010 245.749,139.000 244.356 C 138.340 243.899,138.610 244.247,139.600 245.130 M201.942 246.322 C 201.812 246.662,199.079 249.775,194.351 254.969 C 193.334 256.086,191.984 257.627,191.351 258.394 C 190.718 259.160,189.682 260.330,189.049 260.994 C 188.416 261.657,186.371 263.945,184.505 266.077 C 179.090 272.263,175.135 273.232,170.548 269.494 C 166.623 266.295,165.600 265.542,165.603 265.852 C 165.604 266.043,166.200 266.605,166.927 267.100 C 167.654 267.594,168.632 268.357,169.101 268.794 C 174.262 273.601,178.658 273.167,183.837 267.339 C 185.357 265.629,187.590 263.131,188.800 261.788 C 190.010 260.444,192.263 257.917,193.807 256.172 C 195.350 254.428,197.943 251.513,199.568 249.695 C 201.194 247.877,202.424 246.291,202.303 246.170 C 202.182 246.049,202.020 246.117,201.942 246.322 M142.000 246.909 C 142.000 247.023,145.555 249.957,149.900 253.429 C 154.245 256.901,158.565 260.362,159.500 261.119 C 160.435 261.877,161.196 262.340,161.191 262.148 C 161.187 261.957,160.512 261.320,159.691 260.733 C 158.871 260.146,157.660 259.221,157.000 258.677 C 155.807 257.694,143.455 247.820,142.500 247.086 C 142.225 246.875,142.000 246.795,142.000 246.909 M161.721 262.671 C 161.880 262.930,162.767 263.740,163.690 264.471 C 164.614 265.202,165.239 265.588,165.079 265.329 C 164.920 265.070,164.033 264.260,163.110 263.529 C 162.186 262.798,161.561 262.412,161.721 262.671 " stroke="none" fill="#a5dccc" fill-rule="evenodd"></path><path id="path3" d="M298.522 113.500 C 297.227 114.642,294.193 118.000,294.457 118.000 C 294.540 118.000,295.839 116.740,297.344 115.200 C 300.196 112.281,300.653 111.621,298.522 113.500 M312.200 120.000 C 312.200 121.058,312.335 121.840,312.500 121.738 C 312.884 121.501,312.880 119.145,312.494 118.538 C 312.332 118.284,312.200 118.942,312.200 120.000 M291.654 120.834 C 290.913 121.695,290.463 122.385,290.654 122.366 C 290.844 122.348,291.606 121.628,292.346 120.766 C 293.087 119.905,293.537 119.215,293.346 119.234 C 293.156 119.252,292.394 119.972,291.654 120.834 M286.835 126.340 C 286.525 126.703,285.719 127.630,285.044 128.400 C 284.309 129.239,284.608 129.044,285.789 127.914 C 286.874 126.877,287.680 125.950,287.581 125.854 C 287.481 125.759,287.146 125.978,286.835 126.340 M306.854 129.269 C 306.113 130.111,305.663 130.787,305.854 130.771 C 306.257 130.738,308.578 128.027,308.352 127.855 C 308.268 127.791,307.594 128.427,306.854 129.269 M282.378 131.500 L 281.000 133.000 282.500 131.622 C 283.896 130.338,284.184 130.000,283.878 130.000 C 283.812 130.000,283.137 130.675,282.378 131.500 M303.200 133.400 C 302.454 134.170,302.013 134.787,302.222 134.771 C 302.582 134.744,305.054 132.000,304.718 132.000 C 304.629 132.000,303.946 132.630,303.200 133.400 M279.000 135.200 C 278.368 135.860,278.019 136.390,278.225 136.378 C 278.578 136.357,280.639 134.000,280.305 134.000 C 280.220 134.000,279.632 134.540,279.000 135.200 M300.406 136.594 C 299.663 137.361,299.132 138.050,299.227 138.125 C 299.322 138.200,300.006 137.573,300.746 136.731 C 302.429 134.818,302.212 134.731,300.406 136.594 M297.375 140.100 L 296.200 141.400 297.500 140.225 C 298.215 139.579,298.800 138.994,298.800 138.925 C 298.800 138.616,298.470 138.888,297.375 140.100 M273.633 141.115 C 273.321 141.492,272.705 142.205,272.263 142.700 C 271.822 143.195,271.627 143.585,271.830 143.566 C 272.309 143.522,275.004 140.395,274.546 140.415 C 274.356 140.424,273.945 140.739,273.633 141.115 M293.654 144.034 C 292.451 145.433,292.162 146.364,293.329 145.082 C 295.296 142.920,295.694 142.404,295.370 142.434 C 295.166 142.452,294.394 143.172,293.654 144.034 M288.949 149.482 C 287.657 150.957,286.806 152.037,287.059 151.883 C 287.624 151.539,291.753 146.800,291.488 146.800 C 291.384 146.800,290.241 148.007,288.949 149.482 M267.200 148.420 C 266.870 148.823,265.637 150.244,264.460 151.577 C 263.284 152.910,262.412 154.000,262.524 154.000 C 262.846 154.000,268.133 147.999,267.957 147.833 C 267.871 147.752,267.530 148.016,267.200 148.420 M284.622 154.375 L 283.044 156.200 284.803 154.514 C 285.770 153.586,286.480 152.765,286.380 152.688 C 286.281 152.612,285.490 153.371,284.622 154.375 M260.070 156.422 C 259.558 157.070,259.288 157.590,259.470 157.578 C 259.651 157.566,260.219 157.026,260.730 156.378 C 261.242 155.730,261.512 155.210,261.330 155.222 C 261.149 155.234,260.581 155.774,260.070 156.422 M281.254 158.034 C 280.513 158.895,280.063 159.585,280.254 159.566 C 280.444 159.548,281.206 158.828,281.946 157.966 C 282.687 157.105,283.137 156.415,282.946 156.434 C 282.756 156.452,281.994 157.172,281.254 158.034 M254.835 162.340 C 254.525 162.703,253.725 163.585,253.057 164.300 C 252.389 165.015,252.013 165.583,252.222 165.562 C 252.680 165.517,255.784 162.048,255.559 161.833 C 255.472 161.749,255.146 161.978,254.835 162.340 M274.854 165.234 C 274.113 166.095,273.663 166.785,273.854 166.766 C 274.044 166.748,274.806 166.028,275.546 165.166 C 276.287 164.305,276.737 163.615,276.546 163.634 C 276.356 163.652,275.594 164.372,274.854 165.234 M248.866 169.096 C 247.322 170.799,246.135 172.269,246.229 172.363 C 246.323 172.456,246.450 172.458,246.511 172.367 C 246.573 172.275,247.849 170.805,249.347 169.100 C 250.846 167.395,251.982 166.000,251.872 166.000 C 251.763 166.000,250.409 167.393,248.866 169.096 M269.867 170.969 C 268.400 172.601,267.200 174.054,267.200 174.197 C 267.200 174.515,267.571 174.129,270.551 170.700 C 271.842 169.215,272.816 168.000,272.716 168.000 C 272.617 168.000,271.335 169.336,269.867 170.969 M241.633 177.115 C 241.321 177.492,240.705 178.205,240.263 178.700 C 239.822 179.195,239.627 179.585,239.830 179.566 C 240.309 179.522,243.004 176.395,242.546 176.415 C 242.356 176.424,241.945 176.739,241.633 177.115 M262.454 179.234 C 261.713 180.095,261.263 180.785,261.454 180.766 C 261.644 180.748,262.406 180.028,263.146 179.166 C 263.887 178.305,264.337 177.615,264.146 177.634 C 263.956 177.652,263.194 178.372,262.454 179.234 M238.598 180.572 C 238.379 180.886,237.056 182.416,235.659 183.972 C 234.261 185.527,233.197 186.800,233.294 186.800 C 233.391 186.800,234.863 185.270,236.565 183.400 C 238.268 181.530,239.511 180.000,239.328 180.000 C 239.145 180.000,238.817 180.257,238.598 180.572 M256.018 186.534 L 254.637 188.200 256.318 186.619 C 257.243 185.749,258.000 184.984,258.000 184.919 C 258.000 184.459,257.194 185.116,256.018 186.534 M231.832 188.313 L 231.064 189.400 232.132 188.430 C 233.254 187.411,233.393 187.192,232.900 187.213 C 232.735 187.219,232.254 187.714,231.832 188.313 M250.886 192.300 C 249.337 194.005,248.145 195.475,248.235 195.567 C 248.326 195.658,248.453 195.658,248.518 195.567 C 248.583 195.475,249.865 194.005,251.367 192.300 C 252.869 190.595,254.009 189.200,253.899 189.200 C 253.790 189.200,252.434 190.595,250.886 192.300 M229.233 191.140 C 228.921 191.503,228.305 192.205,227.863 192.700 C 227.422 193.195,227.227 193.587,227.430 193.571 C 227.865 193.537,230.175 190.839,229.952 190.626 C 229.868 190.546,229.545 190.778,229.233 191.140 M94.800 191.600 C 94.364 191.882,94.692 191.988,96.000 191.988 C 97.308 191.988,97.636 191.882,97.200 191.600 C 96.870 191.387,96.330 191.212,96.000 191.212 C 95.670 191.212,95.130 191.387,94.800 191.600 M101.740 193.903 C 101.896 194.156,102.591 194.767,103.284 195.260 C 103.977 195.754,104.417 195.950,104.260 195.697 C 104.104 195.444,103.409 194.833,102.716 194.340 C 102.023 193.846,101.583 193.650,101.740 193.903 M104.816 196.273 C 104.831 196.599,108.400 199.374,108.400 199.061 C 108.400 198.970,107.590 198.233,106.600 197.421 C 105.610 196.610,104.807 196.093,104.816 196.273 M87.443 198.633 C 87.115 199.487,87.147 200.897,87.506 201.461 C 87.668 201.714,87.813 201.039,87.829 199.961 C 87.861 197.836,87.812 197.669,87.443 198.633 M221.626 199.722 L 220.651 201.000 221.926 199.825 C 223.251 198.603,223.403 198.385,222.900 198.422 C 222.735 198.434,222.162 199.019,221.626 199.722 M108.833 199.714 C 108.925 199.777,109.855 200.509,110.900 201.341 C 111.945 202.173,112.793 202.707,112.784 202.527 C 112.767 202.167,109.404 199.600,108.950 199.600 C 108.794 199.600,108.742 199.651,108.833 199.714 M242.818 201.334 L 241.437 203.000 243.118 201.419 C 244.043 200.549,244.800 199.784,244.800 199.719 C 244.800 199.259,243.994 199.916,242.818 201.334 M219.799 201.715 C 219.578 201.982,218.273 203.476,216.899 205.034 C 215.524 206.593,214.400 207.995,214.400 208.148 C 214.400 208.302,214.973 207.747,215.674 206.914 C 216.375 206.081,217.854 204.455,218.960 203.300 C 220.067 202.145,220.799 201.207,220.586 201.215 C 220.374 201.224,220.019 201.449,219.799 201.715 M113.200 202.939 C 113.200 203.030,114.010 203.767,115.000 204.579 C 115.990 205.390,116.793 205.907,116.784 205.727 C 116.769 205.401,113.200 202.626,113.200 202.939 M237.700 206.999 C 234.873 210.323,234.311 211.371,236.900 208.491 C 237.835 207.451,238.690 206.508,238.800 206.397 C 239.965 205.212,240.866 204.006,240.570 204.030 C 240.366 204.047,239.075 205.383,237.700 206.999 M121.200 209.500 C 121.200 209.669,121.560 210.032,122.000 210.307 C 122.440 210.582,122.800 210.669,122.800 210.500 C 122.800 210.331,122.440 209.968,122.000 209.693 C 121.560 209.418,121.200 209.331,121.200 209.500 M231.415 214.200 C 230.160 215.630,229.243 216.800,229.378 216.800 C 229.616 216.800,230.706 215.621,232.983 212.900 C 234.956 210.542,233.744 211.548,231.415 214.200 M125.200 212.700 C 125.200 212.869,125.560 213.232,126.000 213.507 C 126.440 213.782,126.800 213.869,126.800 213.700 C 126.800 213.531,126.440 213.168,126.000 212.893 C 125.560 212.618,125.200 212.531,125.200 212.700 M209.226 213.722 L 208.251 215.000 209.526 213.825 C 210.851 212.603,211.003 212.385,210.500 212.422 C 210.335 212.434,209.762 213.019,209.226 213.722 M99.600 213.703 C 99.600 213.812,101.355 215.308,103.500 217.027 C 105.645 218.746,107.715 220.416,108.100 220.738 C 108.485 221.060,108.800 221.226,108.800 221.107 C 108.800 220.988,107.495 219.845,105.900 218.568 C 104.305 217.291,102.235 215.629,101.300 214.875 C 100.365 214.121,99.600 213.593,99.600 213.703 M127.200 214.140 C 127.200 214.320,130.932 217.354,133.400 219.180 C 134.333 219.870,134.288 219.785,133.200 218.800 C 131.354 217.129,127.200 213.903,127.200 214.140 M206.096 217.125 C 205.599 217.716,204.457 219.055,203.559 220.100 C 200.979 223.101,201.985 222.312,204.961 219.000 C 206.443 217.350,207.509 216.011,207.328 216.025 C 207.148 216.039,206.593 216.534,206.096 217.125 M226.200 220.000 C 225.568 220.660,225.187 221.200,225.354 221.200 C 225.671 221.200,226.223 220.677,227.149 219.498 C 228.021 218.390,227.458 218.687,226.200 220.000 M223.775 222.900 L 222.600 224.200 223.900 223.025 C 224.615 222.379,225.200 221.794,225.200 221.725 C 225.200 221.416,224.870 221.688,223.775 222.900 M200.384 223.433 C 200.375 223.635,199.213 225.053,197.801 226.584 C 196.390 228.116,195.310 229.443,195.401 229.535 C 195.493 229.626,196.070 229.094,196.684 228.352 C 197.298 227.611,198.501 226.234,199.358 225.294 C 200.216 224.353,200.801 223.467,200.658 223.325 C 200.516 223.183,200.393 223.232,200.384 223.433 M140.800 225.100 C 140.800 225.269,141.160 225.632,141.600 225.907 C 142.040 226.182,142.400 226.269,142.400 226.100 C 142.400 225.931,142.040 225.568,141.600 225.293 C 141.160 225.018,140.800 224.931,140.800 225.100 M218.678 228.469 C 217.181 230.191,216.101 231.588,216.278 231.573 C 216.670 231.540,221.773 225.625,221.555 225.457 C 221.470 225.392,220.175 226.748,218.678 228.469 M119.216 229.473 C 119.231 229.799,122.800 232.574,122.800 232.261 C 122.800 232.170,121.990 231.433,121.000 230.621 C 120.010 229.810,119.207 229.293,119.216 229.473 M148.800 231.308 C 148.800 231.400,149.700 232.234,150.800 233.161 C 151.900 234.089,152.792 234.702,152.783 234.524 C 152.766 234.198,148.800 230.996,148.800 231.308 M192.200 232.800 C 191.568 233.460,191.219 233.990,191.425 233.978 C 191.778 233.957,193.839 231.600,193.505 231.600 C 193.420 231.600,192.832 232.140,192.200 232.800 M124.918 234.200 C 125.927 234.970,126.879 235.600,127.034 235.600 C 127.188 235.600,126.490 234.970,125.482 234.200 C 124.473 233.430,123.521 232.800,123.366 232.800 C 123.212 232.800,123.910 233.430,124.918 234.200 M213.800 234.000 C 213.168 234.660,212.819 235.190,213.025 235.178 C 213.378 235.157,215.439 232.800,215.105 232.800 C 215.020 232.800,214.432 233.340,213.800 234.000 M211.375 236.900 L 210.200 238.200 211.500 237.025 C 212.215 236.379,212.800 235.794,212.800 235.725 C 212.800 235.416,212.470 235.688,211.375 236.900 M128.918 237.400 C 129.927 238.170,130.879 238.800,131.034 238.800 C 131.188 238.800,130.490 238.170,129.482 237.400 C 128.473 236.630,127.521 236.000,127.366 236.000 C 127.212 236.000,127.910 236.630,128.918 237.400 M186.084 239.600 C 184.160 241.841,183.117 243.200,183.322 243.200 C 183.421 243.200,184.530 242.030,185.785 240.600 C 187.040 239.170,187.917 238.015,187.734 238.034 C 187.550 238.052,186.808 238.757,186.084 239.600 M207.270 241.222 C 206.758 241.870,206.488 242.390,206.670 242.378 C 206.851 242.366,207.419 241.826,207.930 241.178 C 208.442 240.530,208.712 240.010,208.530 240.022 C 208.349 240.034,207.781 240.574,207.270 241.222 M135.740 242.703 C 135.896 242.956,136.591 243.567,137.284 244.060 C 137.977 244.554,138.417 244.750,138.260 244.497 C 138.104 244.244,137.409 243.633,136.716 243.140 C 136.023 242.646,135.583 242.450,135.740 242.703 M139.600 245.900 C 139.600 246.069,139.960 246.432,140.400 246.707 C 140.840 246.982,141.200 247.069,141.200 246.900 C 141.200 246.731,140.840 246.368,140.400 246.093 C 139.960 245.818,139.600 245.731,139.600 245.900 M179.775 246.900 L 178.600 248.200 179.900 247.025 C 181.112 245.930,181.384 245.600,181.075 245.600 C 181.006 245.600,180.421 246.185,179.775 246.900 M167.344 246.309 C 167.660 246.821,170.000 248.553,170.000 248.275 C 170.000 248.176,169.339 247.591,168.532 246.975 C 167.724 246.359,167.189 246.059,167.344 246.309 M199.820 249.769 C 198.291 251.546,197.457 252.640,197.965 252.200 C 199.213 251.120,202.943 246.800,202.752 246.655 C 202.668 246.591,201.349 247.993,199.820 249.769 M143.281 248.900 C 143.577 249.175,144.625 250.020,145.610 250.777 C 146.594 251.535,148.165 252.772,149.100 253.526 C 150.035 254.279,150.800 254.804,150.800 254.692 C 150.800 254.430,143.313 248.400,142.987 248.400 C 142.853 248.400,142.985 248.625,143.281 248.900 M194.454 255.634 C 193.251 257.033,192.962 257.964,194.129 256.682 C 196.096 254.520,196.494 254.004,196.170 254.034 C 195.966 254.052,195.194 254.772,194.454 255.634 M155.200 258.300 C 155.200 258.469,155.560 258.832,156.000 259.107 C 156.440 259.382,156.800 259.469,156.800 259.300 C 156.800 259.131,156.440 258.768,156.000 258.493 C 155.560 258.218,155.200 258.131,155.200 258.300 M187.800 263.192 C 186.920 264.264,185.051 266.460,183.647 268.071 L 181.095 271.000 183.447 268.558 C 184.741 267.214,186.413 265.414,187.163 264.558 C 187.913 263.701,188.889 262.595,189.333 262.100 C 189.776 261.605,189.973 261.209,189.770 261.221 C 189.566 261.232,188.680 262.119,187.800 263.192 M165.212 266.225 C 165.226 266.652,168.495 269.200,169.028 269.200 C 169.221 269.200,168.933 268.902,168.389 268.539 C 167.845 268.175,166.905 267.421,166.300 266.864 C 165.695 266.306,165.206 266.019,165.212 266.225 M170.046 270.340 C 171.012 271.090,173.177 272.303,172.790 271.877 C 172.422 271.474,169.575 269.600,169.328 269.600 C 169.198 269.600,169.521 269.933,170.046 270.340 M174.379 272.435 C 175.138 272.598,176.488 272.595,177.379 272.429 C 178.733 272.176,178.506 272.127,176.000 272.133 C 173.715 272.138,173.329 272.210,174.379 272.435 " stroke="none" fill="#41ba94" fill-rule="evenodd"></path><path id="path4" d="M302.138 111.906 C 301.884 112.068,302.722 112.200,304.000 112.200 C 305.278 112.200,306.116 112.068,305.862 111.906 C 305.608 111.744,304.770 111.612,304.000 111.612 C 303.230 111.612,302.392 111.744,302.138 111.906 M307.233 112.516 C 307.325 112.580,308.120 113.133,309.000 113.745 L 310.600 114.858 309.215 113.629 C 308.453 112.953,307.658 112.400,307.448 112.400 C 307.238 112.400,307.142 112.452,307.233 112.516 M295.375 117.300 L 294.200 118.600 295.500 117.425 C 296.215 116.779,296.800 116.194,296.800 116.125 C 296.800 115.816,296.470 116.088,295.375 117.300 M312.093 120.000 C 312.093 120.770,312.175 121.085,312.276 120.700 C 312.376 120.315,312.376 119.685,312.276 119.300 C 312.175 118.915,312.093 119.230,312.093 120.000 M292.175 120.900 L 291.000 122.200 292.300 121.025 C 293.015 120.379,293.600 119.794,293.600 119.725 C 293.600 119.416,293.270 119.688,292.175 120.900 M289.048 124.238 C 287.037 126.521,287.343 126.500,289.600 124.200 C 290.572 123.210,291.194 122.417,290.983 122.438 C 290.772 122.458,289.902 123.268,289.048 124.238 M285.780 128.100 C 281.633 132.545,281.053 133.200,281.270 133.200 C 281.397 133.200,282.891 131.670,284.588 129.800 C 286.286 127.930,287.606 126.400,287.521 126.400 C 287.436 126.400,286.653 127.165,285.780 128.100 M306.575 129.300 L 305.400 130.600 306.700 129.425 C 307.415 128.779,308.000 128.194,308.000 128.125 C 308.000 127.816,307.670 128.088,306.575 129.300 M303.375 132.900 L 302.200 134.200 303.500 133.025 C 304.215 132.379,304.800 131.794,304.800 131.725 C 304.800 131.416,304.470 131.688,303.375 132.900 M279.626 134.922 L 278.651 136.200 279.926 135.025 C 281.251 133.803,281.403 133.585,280.900 133.622 C 280.735 133.634,280.162 134.219,279.626 134.922 M298.788 138.013 C 297.196 139.780,295.961 141.279,296.046 141.345 C 296.131 141.411,297.518 139.965,299.129 138.132 C 300.741 136.300,301.975 134.800,301.872 134.800 C 301.769 134.800,300.381 136.246,298.788 138.013 M275.775 139.300 L 274.600 140.600 275.900 139.425 C 276.615 138.779,277.200 138.194,277.200 138.125 C 277.200 137.816,276.870 138.088,275.775 139.300 M273.375 142.100 L 272.200 143.400 273.500 142.225 C 274.215 141.579,274.800 140.994,274.800 140.925 C 274.800 140.616,274.470 140.888,273.375 142.100 M293.375 144.100 L 292.200 145.400 293.500 144.225 C 294.215 143.579,294.800 142.994,294.800 142.925 C 294.800 142.616,294.470 142.888,293.375 144.100 M269.829 145.962 L 268.658 147.400 270.009 146.113 C 270.751 145.405,271.278 144.758,271.179 144.675 C 271.081 144.592,270.473 145.171,269.829 145.962 M290.581 147.300 L 289.000 149.000 290.700 147.419 C 292.281 145.948,292.584 145.600,292.281 145.600 C 292.216 145.600,291.451 146.365,290.581 147.300 M266.575 149.700 L 265.400 151.000 266.700 149.825 C 267.415 149.179,268.000 148.594,268.000 148.525 C 268.000 148.216,267.670 148.488,266.575 149.700 M287.400 150.800 C 286.541 151.680,286.009 152.385,286.219 152.366 C 286.586 152.334,289.465 149.200,289.128 149.200 C 289.037 149.200,288.259 149.920,287.400 150.800 M263.173 153.500 C 260.882 155.972,259.849 157.200,260.059 157.200 C 260.169 157.200,261.292 156.030,262.555 154.600 C 265.026 151.803,265.458 151.033,263.173 153.500 M284.207 154.393 C 283.352 155.269,282.730 156.045,282.826 156.118 C 282.922 156.191,283.698 155.474,284.552 154.525 C 286.501 152.359,286.277 152.273,284.207 154.393 M279.349 159.880 C 277.837 161.574,276.805 162.836,277.055 162.684 C 277.625 162.339,282.552 156.800,282.290 156.800 C 282.185 156.800,280.861 158.186,279.349 159.880 M256.778 160.700 L 255.400 162.200 256.900 160.822 C 258.296 159.538,258.584 159.200,258.278 159.200 C 258.212 159.200,257.537 159.875,256.778 160.700 M253.978 163.900 L 252.600 165.400 254.100 164.022 C 255.496 162.738,255.784 162.400,255.478 162.400 C 255.412 162.400,254.737 163.075,253.978 163.900 M274.575 165.300 L 273.400 166.600 274.700 165.425 C 275.415 164.779,276.000 164.194,276.000 164.125 C 276.000 163.816,275.670 164.088,274.575 165.300 M250.622 167.575 L 249.044 169.400 250.803 167.714 C 251.770 166.786,252.480 165.965,252.380 165.888 C 252.281 165.812,251.490 166.571,250.622 167.575 M271.375 168.900 L 270.200 170.200 271.500 169.025 C 272.215 168.379,272.800 167.794,272.800 167.725 C 272.800 167.416,272.470 167.688,271.375 168.900 M247.775 170.900 L 246.600 172.200 247.900 171.025 C 248.615 170.379,249.200 169.794,249.200 169.725 C 249.200 169.416,248.870 169.688,247.775 170.900 M268.418 172.134 L 267.037 173.800 268.718 172.219 C 269.643 171.349,270.400 170.584,270.400 170.519 C 270.400 170.059,269.594 170.716,268.418 172.134 M244.018 174.934 L 242.637 176.600 244.318 175.019 C 245.243 174.149,246.000 173.384,246.000 173.319 C 246.000 172.859,245.194 173.516,244.018 174.934 M265.200 175.800 C 264.228 176.790,263.606 177.583,263.817 177.562 C 264.189 177.526,267.473 174.000,267.135 174.000 C 267.042 174.000,266.172 174.810,265.200 175.800 M241.375 178.100 L 240.200 179.400 241.500 178.225 C 242.215 177.579,242.800 176.994,242.800 176.925 C 242.800 176.616,242.470 176.888,241.375 178.100 M262.006 179.394 C 261.263 180.161,260.732 180.850,260.827 180.925 C 260.922 181.000,261.606 180.373,262.346 179.531 C 264.029 177.618,263.812 177.531,262.006 179.394 M235.988 184.013 C 234.396 185.780,233.161 187.279,233.246 187.345 C 233.331 187.411,234.718 185.965,236.329 184.132 C 237.941 182.300,239.175 180.800,239.072 180.800 C 238.969 180.800,237.581 182.246,235.988 184.013 M258.600 183.200 C 257.741 184.080,257.209 184.785,257.419 184.766 C 257.786 184.734,260.665 181.600,260.328 181.600 C 260.237 181.600,259.459 182.320,258.600 183.200 M255.400 186.800 C 254.541 187.680,254.009 188.385,254.219 188.366 C 254.586 188.334,257.465 185.200,257.128 185.200 C 257.037 185.200,256.259 185.920,255.400 186.800 M231.373 189.300 C 228.412 192.553,227.865 193.200,228.076 193.200 C 228.201 193.200,229.330 192.030,230.585 190.600 C 232.910 187.952,233.527 186.934,231.373 189.300 M252.575 190.100 L 251.400 191.400 252.700 190.225 C 253.415 189.579,254.000 188.994,254.000 188.925 C 254.000 188.616,253.670 188.888,252.575 190.100 M249.029 193.962 L 247.858 195.400 249.209 194.113 C 249.951 193.405,250.478 192.758,250.379 192.675 C 250.281 192.592,249.673 193.171,249.029 193.962 M224.820 196.579 L 223.040 198.600 225.001 196.714 C 226.079 195.677,226.880 194.767,226.781 194.693 C 226.681 194.619,225.799 195.467,224.820 196.579 M246.008 197.392 C 245.041 198.377,244.329 199.241,244.425 199.313 C 244.521 199.384,245.390 198.578,246.357 197.521 C 248.571 195.100,248.341 195.014,246.008 197.392 M105.344 197.109 C 105.660 197.621,108.000 199.353,108.000 199.075 C 108.000 198.976,107.339 198.391,106.532 197.775 C 105.724 197.159,105.189 196.859,105.344 197.109 M221.775 200.100 L 220.600 201.400 221.900 200.225 C 222.615 199.579,223.200 198.994,223.200 198.925 C 223.200 198.616,222.870 198.888,221.775 200.100 M109.344 200.309 C 109.660 200.821,112.000 202.553,112.000 202.275 C 112.000 202.176,111.339 201.591,110.532 200.975 C 109.724 200.359,109.189 200.059,109.344 200.309 M242.575 201.300 L 241.400 202.600 242.700 201.425 C 243.415 200.779,244.000 200.194,244.000 200.125 C 244.000 199.816,243.670 200.088,242.575 201.300 M218.173 204.100 C 215.212 207.353,214.665 208.000,214.876 208.000 C 215.001 208.000,216.130 206.830,217.385 205.400 C 219.710 202.752,220.327 201.734,218.173 204.100 M92.000 207.325 C 92.000 207.424,92.661 208.009,93.468 208.625 C 94.276 209.241,94.811 209.541,94.656 209.291 C 94.340 208.779,92.000 207.047,92.000 207.325 M236.175 208.500 L 235.000 209.800 236.300 208.625 C 237.015 207.979,237.600 207.394,237.600 207.325 C 237.600 207.016,237.270 207.288,236.175 208.500 M212.054 210.834 C 211.313 211.695,210.863 212.385,211.054 212.366 C 211.244 212.348,212.006 211.628,212.746 210.766 C 213.487 209.905,213.937 209.215,213.746 209.234 C 213.556 209.252,212.794 209.972,212.054 210.834 M96.269 210.909 C 98.360 212.591,99.014 212.905,97.400 211.452 C 96.520 210.660,95.651 210.009,95.469 210.006 C 95.287 210.003,95.647 210.409,96.269 210.909 M232.775 212.300 C 229.943 215.364,229.056 216.400,229.267 216.400 C 229.386 216.400,230.603 215.140,231.972 213.600 C 234.578 210.668,235.169 209.711,232.775 212.300 M209.375 214.100 L 208.200 215.400 209.500 214.225 C 210.215 213.579,210.800 212.994,210.800 212.925 C 210.800 212.616,210.470 212.888,209.375 214.100 M128.800 215.718 C 128.800 215.820,129.647 216.597,130.681 217.445 C 131.716 218.293,132.434 218.778,132.276 218.523 C 131.940 217.979,128.800 215.445,128.800 215.718 M205.578 218.300 L 204.200 219.800 205.700 218.422 C 206.525 217.663,207.200 216.988,207.200 216.922 C 207.200 216.616,206.862 216.904,205.578 218.300 M226.581 219.300 L 225.000 221.000 226.700 219.419 C 227.635 218.549,228.400 217.784,228.400 217.719 C 228.400 217.416,228.052 217.719,226.581 219.300 M134.582 220.488 C 135.472 221.306,136.349 221.981,136.531 221.988 C 136.713 221.995,136.263 221.516,135.531 220.924 C 133.287 219.111,132.883 218.925,134.582 220.488 M202.778 221.500 L 201.400 223.000 202.900 221.622 C 204.296 220.338,204.584 220.000,204.278 220.000 C 204.212 220.000,203.537 220.675,202.778 221.500 M223.775 222.500 L 222.600 223.800 223.900 222.625 C 224.615 221.979,225.200 221.394,225.200 221.325 C 225.200 221.016,224.870 221.288,223.775 222.500 M138.600 223.727 C 139.480 224.520,140.349 225.177,140.531 225.185 C 140.713 225.193,140.353 224.791,139.731 224.291 C 137.613 222.587,136.995 222.279,138.600 223.727 M199.206 225.394 C 198.463 226.161,197.932 226.850,198.027 226.925 C 198.122 227.000,198.806 226.373,199.546 225.531 C 201.229 223.618,201.012 223.531,199.206 225.394 M142.600 226.927 C 143.480 227.720,144.349 228.377,144.531 228.385 C 144.713 228.393,144.353 227.991,143.731 227.491 C 141.613 225.787,140.995 225.479,142.600 226.927 M219.775 226.900 L 218.600 228.200 219.900 227.025 C 220.615 226.379,221.200 225.794,221.200 225.725 C 221.200 225.416,220.870 225.688,219.775 226.900 M217.375 229.700 L 216.200 231.000 217.500 229.825 C 218.215 229.179,218.800 228.594,218.800 228.525 C 218.800 228.216,218.470 228.488,217.375 229.700 M194.033 231.140 C 192.198 233.276,192.006 233.629,193.392 232.313 C 194.255 231.496,194.879 230.749,194.780 230.654 C 194.681 230.559,194.345 230.778,194.033 231.140 M148.416 231.473 C 148.431 231.799,152.000 234.574,152.000 234.261 C 152.000 234.170,151.190 233.433,150.200 232.621 C 149.210 231.810,148.407 231.293,148.416 231.473 M212.900 234.613 C 211.305 236.421,210.000 238.009,210.000 238.142 C 210.000 238.276,211.368 236.847,213.041 234.967 C 214.714 233.087,216.019 231.499,215.941 231.438 C 215.863 231.376,214.495 232.805,212.900 234.613 M124.000 232.925 C 124.000 233.024,124.661 233.609,125.468 234.225 C 126.276 234.841,126.811 235.141,126.656 234.891 C 126.340 234.379,124.000 232.647,124.000 232.925 M190.025 235.769 L 188.650 237.400 190.205 235.913 C 191.060 235.096,191.679 234.362,191.580 234.283 C 191.481 234.203,190.781 234.872,190.025 235.769 M152.433 234.923 C 152.525 234.990,153.410 235.637,154.400 236.361 L 156.200 237.676 154.600 236.244 C 153.720 235.456,152.835 234.809,152.633 234.806 C 152.432 234.803,152.342 234.855,152.433 234.923 M128.109 236.400 C 128.669 236.840,129.257 237.200,129.417 237.200 C 129.577 237.200,129.250 236.840,128.691 236.400 C 128.131 235.960,127.543 235.600,127.383 235.600 C 127.223 235.600,127.550 235.960,128.109 236.400 M186.825 239.369 L 185.450 241.000 187.005 239.513 C 187.860 238.696,188.479 237.962,188.380 237.883 C 188.281 237.803,187.581 238.472,186.825 239.369 M158.924 239.877 C 159.260 240.421,162.400 242.955,162.400 242.682 C 162.400 242.580,161.553 241.803,160.519 240.955 C 159.484 240.107,158.766 239.622,158.924 239.877 M183.775 242.900 L 182.600 244.200 183.900 243.025 C 185.112 241.930,185.384 241.600,185.075 241.600 C 185.006 241.600,184.421 242.185,183.775 242.900 M204.975 243.700 L 203.800 245.000 205.100 243.825 C 205.815 243.179,206.400 242.594,206.400 242.525 C 206.400 242.216,206.070 242.488,204.975 243.700 M137.800 243.966 C 138.578 244.861,140.800 246.598,140.800 246.312 C 140.800 246.234,139.945 245.467,138.900 244.608 C 137.855 243.749,137.360 243.460,137.800 243.966 M180.018 246.934 L 178.637 248.600 180.318 247.019 C 181.243 246.149,182.000 245.384,182.000 245.319 C 182.000 244.859,181.194 245.516,180.018 246.934 M200.975 248.100 L 199.800 249.400 201.100 248.225 C 202.312 247.130,202.584 246.800,202.275 246.800 C 202.206 246.800,201.621 247.385,200.975 248.100 M177.375 250.100 L 176.200 251.400 177.500 250.225 C 178.712 249.130,178.984 248.800,178.675 248.800 C 178.606 248.800,178.021 249.385,177.375 250.100 M172.582 250.888 C 173.472 251.706,174.349 252.381,174.531 252.388 C 174.713 252.395,174.263 251.916,173.531 251.324 C 171.287 249.511,170.883 249.325,172.582 250.888 M198.207 251.193 C 197.352 252.069,196.730 252.845,196.826 252.918 C 196.922 252.991,197.698 252.274,198.552 251.325 C 200.501 249.159,200.277 249.073,198.207 251.193 M194.175 255.700 L 193.000 257.000 194.300 255.825 C 195.512 254.730,195.784 254.400,195.475 254.400 C 195.406 254.400,194.821 254.985,194.175 255.700 M191.775 258.500 L 190.600 259.800 191.900 258.625 C 193.112 257.530,193.384 257.200,193.075 257.200 C 193.006 257.200,192.421 257.785,191.775 258.500 M159.600 261.318 C 159.600 261.420,160.447 262.197,161.481 263.045 C 162.516 263.893,163.234 264.378,163.076 264.123 C 162.740 263.579,159.600 261.045,159.600 261.318 M186.549 264.282 C 185.257 265.757,184.406 266.837,184.659 266.683 C 185.224 266.339,189.353 261.600,189.088 261.600 C 188.984 261.600,187.841 262.807,186.549 264.282 M166.144 266.709 C 166.460 267.221,168.800 268.953,168.800 268.675 C 168.800 268.576,168.139 267.991,167.332 267.375 C 166.524 266.759,165.989 266.459,166.144 266.709 M181.978 269.500 L 180.600 271.000 182.100 269.622 C 183.496 268.338,183.784 268.000,183.478 268.000 C 183.412 268.000,182.737 268.675,181.978 269.500 " stroke="none" fill="#68c7ad" fill-rule="evenodd"></path></g></svg>