<svg id="svg" version="1.1" xmlns="http://www.w3.org/2000/svg" xmlns:xlink="http://www.w3.org/1999/xlink" width="400" height="400" viewBox="0, 0, 400,400"><g id="svgg"><path id="path0" d="M180.400 8.875 C 178.310 9.059,175.295 9.312,173.700 9.436 C 172.105 9.561,170.800 9.814,170.800 9.997 C 170.800 10.181,169.675 10.429,168.300 10.548 C 163.968 10.924,161.813 11.266,161.420 11.639 C 161.211 11.837,160.266 12.000,159.320 12.000 C 158.374 12.000,157.600 12.180,157.600 12.400 C 157.600 12.620,156.880 12.800,156.000 12.800 C 155.120 12.800,154.400 12.980,154.400 13.200 C 154.400 13.420,153.680 13.600,152.800 13.600 C 151.920 13.600,151.200 13.780,151.200 14.000 C 151.200 14.220,150.480 14.400,149.600 14.400 C 148.720 14.400,148.000 14.580,148.000 14.800 C 148.000 15.020,147.381 15.200,146.624 15.200 C 145.867 15.200,145.136 15.380,145.000 15.600 C 144.864 15.820,144.313 16.000,143.776 16.000 C 143.239 16.000,142.800 16.180,142.800 16.400 C 142.800 16.620,142.337 16.800,141.771 16.800 C 140.132 16.800,140.702 17.897,143.600 20.321 C 147.218 23.347,150.183 26.218,152.353 28.794 C 153.369 30.000,154.534 31.350,154.943 31.794 C 155.838 32.766,160.847 40.153,162.053 42.281 C 167.234 51.417,170.365 60.625,172.364 72.600 C 173.280 78.090,173.115 91.702,172.056 98.000 C 171.502 101.295,170.865 104.430,170.432 106.000 C 170.219 106.770,169.876 108.030,169.669 108.800 C 169.462 109.570,169.162 110.516,169.002 110.903 C 168.727 111.570,170.174 111.600,197.456 111.503 L 226.200 111.400 226.318 108.002 C 226.383 106.133,226.608 104.432,226.818 104.222 C 227.028 104.012,227.200 102.897,227.200 101.744 C 227.200 100.591,227.380 99.536,227.600 99.400 C 227.820 99.264,228.000 98.443,228.000 97.576 C 228.000 96.709,228.180 96.000,228.400 96.000 C 228.620 96.000,228.800 95.381,228.800 94.624 C 228.800 93.867,228.980 93.136,229.200 93.000 C 229.420 92.864,229.600 92.234,229.600 91.600 C 229.600 90.966,229.780 90.336,230.000 90.200 C 230.220 90.064,230.400 89.601,230.400 89.171 C 230.400 88.741,230.559 88.077,230.753 87.695 C 231.193 86.830,231.768 85.419,232.423 83.600 C 234.197 78.669,241.282 66.675,244.001 64.000 C 244.113 63.890,244.740 63.080,245.394 62.200 C 246.952 60.103,254.556 52.491,256.600 50.981 C 257.480 50.332,258.648 49.395,259.196 48.900 C 259.744 48.405,260.316 48.000,260.467 48.000 C 260.619 48.000,260.981 47.766,261.271 47.481 C 262.142 46.626,265.514 44.400,265.939 44.400 C 266.156 44.400,266.393 44.265,266.467 44.100 C 266.597 43.806,268.005 43.013,272.400 40.757 C 278.310 37.723,283.388 35.832,290.450 34.033 C 295.385 32.776,295.425 32.580,291.200 30.364 C 289.770 29.614,288.510 28.902,288.400 28.783 C 288.011 28.361,282.756 26.000,282.206 26.000 C 281.899 26.000,281.528 25.808,281.383 25.573 C 281.238 25.338,280.867 25.242,280.560 25.360 C 280.252 25.478,280.000 25.401,280.000 25.187 C 280.000 24.974,279.640 24.800,279.200 24.800 C 278.760 24.800,278.400 24.620,278.400 24.400 C 278.400 24.180,278.040 24.000,277.600 24.000 C 277.160 24.000,276.800 23.820,276.800 23.600 C 276.800 23.380,276.350 23.200,275.800 23.200 C 275.250 23.200,274.800 23.020,274.800 22.800 C 274.800 22.580,274.451 22.400,274.024 22.400 C 273.597 22.400,273.136 22.220,273.000 22.000 C 272.864 21.780,272.313 21.600,271.776 21.600 C 271.239 21.600,270.800 21.420,270.800 21.200 C 270.800 20.980,270.451 20.800,270.024 20.800 C 269.597 20.800,269.136 20.620,269.000 20.400 C 268.864 20.180,268.313 20.000,267.776 20.000 C 267.239 20.000,266.800 19.820,266.800 19.600 C 266.800 19.380,266.260 19.200,265.600 19.200 C 264.940 19.200,264.400 19.020,264.400 18.800 C 264.400 18.580,263.860 18.400,263.200 18.400 C 262.540 18.400,262.000 18.220,262.000 18.000 C 262.000 17.780,261.460 17.600,260.800 17.600 C 260.140 17.600,259.600 17.420,259.600 17.200 C 259.600 16.980,259.161 16.800,258.624 16.800 C 258.087 16.800,257.536 16.620,257.400 16.400 C 257.264 16.180,256.533 16.000,255.776 16.000 C 255.019 16.000,254.400 15.820,254.400 15.600 C 254.400 15.380,253.860 15.200,253.200 15.200 C 252.540 15.200,252.000 15.020,252.000 14.800 C 252.000 14.580,251.280 14.400,250.400 14.400 C 249.520 14.400,248.800 14.220,248.800 14.000 C 248.800 13.780,248.080 13.600,247.200 13.600 C 246.320 13.600,245.600 13.420,245.600 13.200 C 245.600 12.980,244.891 12.800,244.024 12.800 C 243.157 12.800,242.336 12.620,242.200 12.400 C 242.064 12.180,241.254 12.000,240.400 12.000 C 239.546 12.000,238.736 11.820,238.600 11.600 C 238.464 11.380,237.474 11.200,236.400 11.200 C 235.326 11.200,234.336 11.020,234.200 10.800 C 234.064 10.580,232.883 10.400,231.576 10.400 C 230.269 10.400,229.200 10.234,229.200 10.032 C 229.200 9.829,227.895 9.565,226.300 9.445 C 224.705 9.325,221.510 9.060,219.200 8.856 C 214.049 8.401,185.629 8.415,180.400 8.875 M16.800 133.167 C 16.800 133.625,16.620 134.000,16.400 134.000 C 16.180 134.000,16.000 134.540,16.000 135.200 C 16.000 135.860,15.820 136.400,15.600 136.400 C 15.380 136.400,15.200 136.762,15.200 137.205 C 15.200 137.983,15.058 138.369,14.062 140.295 C 13.808 140.787,13.600 141.541,13.600 141.971 C 13.600 142.401,13.420 142.864,13.200 143.000 C 12.980 143.136,12.800 143.676,12.800 144.200 C 12.800 144.724,12.620 145.264,12.400 145.400 C 12.180 145.536,12.000 146.177,12.000 146.824 C 12.000 147.471,11.820 148.000,11.600 148.000 C 11.380 148.000,11.200 148.529,11.200 149.176 C 11.200 149.823,11.020 150.464,10.800 150.600 C 10.580 150.736,10.400 151.456,10.400 152.200 C 10.400 152.944,10.239 153.652,10.042 153.774 C 9.845 153.895,9.582 154.671,9.456 155.497 C 8.716 160.352,8.164 163.171,7.900 163.434 C 7.735 163.599,7.600 164.503,7.600 165.443 C 7.600 166.383,7.420 167.264,7.200 167.400 C 6.980 167.536,6.800 168.537,6.800 169.624 C 6.800 170.711,6.620 171.600,6.400 171.600 C 6.175 171.600,6.000 172.725,6.000 174.176 C 6.000 175.593,5.820 176.864,5.600 177.000 C 5.380 177.136,5.200 178.587,5.200 180.224 C 5.200 181.941,5.031 183.200,4.800 183.200 C 4.554 183.200,4.400 185.200,4.400 188.400 C 4.400 191.600,4.246 193.600,4.000 193.600 C 3.743 193.600,3.600 197.467,3.600 204.400 C 3.600 211.333,3.743 215.200,4.000 215.200 C 4.245 215.200,4.400 217.133,4.400 220.200 C 4.400 223.267,4.555 225.200,4.800 225.200 C 5.033 225.200,5.200 226.533,5.200 228.400 C 5.200 230.267,5.367 231.600,5.600 231.600 C 5.829 231.600,6.000 232.800,6.000 234.400 C 6.000 236.000,6.171 237.200,6.400 237.200 C 6.620 237.200,6.800 238.190,6.800 239.400 C 6.800 240.610,6.980 241.600,7.200 241.600 C 7.420 241.600,7.600 242.500,7.600 243.600 C 7.600 244.700,7.759 245.600,7.953 245.600 C 8.147 245.600,8.432 246.949,8.587 248.597 C 8.741 250.246,9.033 251.696,9.234 251.821 C 9.435 251.945,9.600 252.656,9.600 253.400 C 9.600 254.144,9.780 254.864,10.000 255.000 C 10.220 255.136,10.400 255.867,10.400 256.624 C 10.400 257.381,10.580 258.000,10.800 258.000 C 11.020 258.000,11.200 258.540,11.200 259.200 C 11.200 259.860,11.380 260.400,11.600 260.400 C 11.820 260.400,12.000 261.019,12.000 261.776 C 12.000 262.533,12.180 263.264,12.400 263.400 C 12.620 263.536,12.800 264.076,12.800 264.600 C 12.800 265.124,12.980 265.664,13.200 265.800 C 13.420 265.936,13.600 266.476,13.600 267.000 C 13.600 267.524,13.780 268.064,14.000 268.200 C 14.220 268.336,14.400 268.876,14.400 269.400 C 14.400 269.924,14.580 270.464,14.800 270.600 C 15.020 270.736,15.200 271.197,15.200 271.624 C 15.200 272.051,15.380 272.400,15.600 272.400 C 15.820 272.400,16.000 272.839,16.000 273.376 C 16.000 273.913,16.180 274.464,16.400 274.600 C 16.620 274.736,16.800 275.287,16.800 275.824 C 16.800 276.361,16.980 276.800,17.200 276.800 C 17.420 276.800,17.600 277.160,17.600 277.600 C 17.600 278.040,17.780 278.400,18.000 278.400 C 18.220 278.400,18.400 278.940,18.400 279.600 C 18.400 280.260,18.580 280.800,18.800 280.800 C 19.020 280.800,19.200 281.160,19.200 281.600 C 19.200 282.040,19.380 282.400,19.600 282.400 C 19.820 282.400,20.000 282.760,20.000 283.200 C 20.000 283.640,20.180 284.000,20.400 284.000 C 20.620 284.000,20.800 284.450,20.800 285.000 C 20.800 285.550,20.980 286.000,21.200 286.000 C 21.420 286.000,21.600 286.245,21.600 286.544 C 21.600 287.201,24.076 292.145,24.500 292.333 C 24.665 292.407,24.800 292.726,24.800 293.043 C 24.800 293.788,27.589 299.358,28.049 299.533 C 28.242 299.607,28.400 300.012,28.400 300.433 C 28.400 300.855,28.580 301.200,28.800 301.200 C 29.020 301.200,29.200 301.560,29.200 302.000 C 29.200 302.440,29.380 302.800,29.600 302.800 C 29.820 302.800,30.000 303.036,30.000 303.325 C 30.000 303.613,30.315 304.198,30.700 304.625 C 31.085 305.051,31.669 305.940,31.997 306.600 C 32.326 307.260,32.911 308.091,33.297 308.447 C 33.684 308.803,34.000 309.348,34.000 309.659 C 34.000 309.969,34.360 310.483,34.800 310.800 C 35.240 311.117,35.600 311.657,35.600 312.000 C 35.600 312.343,35.960 312.883,36.400 313.200 C 36.840 313.517,37.200 314.057,37.200 314.400 C 37.200 314.743,37.560 315.283,38.000 315.600 C 38.440 315.917,38.800 316.457,38.800 316.800 C 38.800 317.143,39.160 317.683,39.600 318.000 C 40.040 318.317,40.400 318.807,40.400 319.088 C 40.400 319.370,40.580 319.600,40.800 319.600 C 41.020 319.600,41.200 319.870,41.200 320.200 C 41.200 320.530,41.341 320.800,41.514 320.800 C 41.686 320.800,42.167 321.385,42.581 322.100 C 43.456 323.611,44.793 325.320,46.900 327.625 C 47.725 328.527,48.400 329.420,48.400 329.610 C 48.400 329.800,49.435 331.015,50.700 332.310 C 51.965 333.605,53.450 335.270,54.000 336.010 C 55.391 337.881,68.737 351.200,69.221 351.200 C 69.438 351.200,70.557 352.101,71.708 353.202 C 74.847 356.206,77.973 358.800,78.453 358.800 C 78.687 358.800,79.383 359.340,80.000 360.000 C 80.617 360.660,81.292 361.200,81.501 361.200 C 81.710 361.200,82.446 361.740,83.137 362.400 C 83.828 363.060,84.583 363.600,84.815 363.600 C 85.047 363.600,85.686 364.050,86.236 364.600 C 86.786 365.150,87.436 365.600,87.679 365.600 C 87.923 365.600,87.780 365.285,87.361 364.900 C 86.640 364.237,86.607 363.583,86.731 352.600 C 86.803 346.220,86.736 318.624,86.582 291.275 L 86.302 241.550 84.513 239.475 C 73.808 227.058,70.644 209.947,76.264 194.873 C 77.728 190.948,77.664 190.000,75.940 190.000 C 74.406 190.000,69.210 187.158,67.246 185.245 C 63.478 181.575,63.582 177.670,67.557 173.600 C 68.073 173.072,68.051 172.986,67.371 172.879 C 66.947 172.813,66.240 172.606,65.800 172.420 C 65.360 172.233,64.370 171.864,63.600 171.600 C 48.260 166.332,31.844 153.000,20.542 136.629 C 17.727 132.551,16.800 131.694,16.800 133.167 M388.291 151.253 C 387.911 151.466,387.600 151.904,387.600 152.226 C 387.600 153.727,378.691 169.992,377.207 171.200 C 377.072 171.310,376.529 172.030,376.000 172.800 C 375.471 173.570,374.939 174.290,374.817 174.400 C 374.695 174.510,373.966 175.447,373.197 176.481 C 371.511 178.751,362.040 188.184,359.800 189.824 C 358.920 190.468,358.110 191.095,358.000 191.217 C 357.890 191.339,357.170 191.875,356.400 192.408 C 355.630 192.942,354.651 193.698,354.225 194.089 C 353.798 194.480,353.296 194.800,353.108 194.800 C 352.920 194.800,352.380 195.160,351.908 195.600 C 351.436 196.040,350.813 196.400,350.525 196.400 C 350.236 196.400,350.000 196.580,350.000 196.800 C 350.000 197.020,349.828 197.200,349.618 197.200 C 349.407 197.200,348.372 197.699,347.318 198.309 C 346.263 198.919,343.870 200.106,342.000 200.946 C 337.446 202.993,337.382 203.019,334.400 204.025 C 331.198 205.106,331.290 205.015,332.290 206.102 C 341.551 216.172,324.194 226.064,302.568 223.040 L 300.136 222.700 300.168 297.950 C 300.186 339.337,300.327 373.200,300.481 373.200 C 301.069 373.200,302.800 372.257,302.800 371.936 C 302.800 371.751,302.993 371.600,303.228 371.600 C 303.463 371.600,304.441 371.060,305.400 370.400 C 306.359 369.740,307.297 369.200,307.484 369.200 C 307.671 369.200,308.083 368.840,308.400 368.400 C 308.717 367.960,309.257 367.600,309.600 367.600 C 309.943 367.600,310.483 367.240,310.800 366.800 C 311.117 366.360,311.580 366.000,311.829 366.000 C 312.078 366.000,312.846 365.460,313.537 364.800 C 314.228 364.140,315.025 363.600,315.308 363.600 C 315.591 363.600,316.083 363.240,316.400 362.800 C 316.717 362.360,317.207 362.000,317.488 362.000 C 317.770 362.000,318.000 361.820,318.000 361.600 C 318.000 361.380,318.198 361.200,318.440 361.200 C 318.681 361.200,319.383 360.660,320.000 360.000 C 320.617 359.340,321.313 358.800,321.547 358.800 C 322.027 358.800,325.153 356.206,328.292 353.202 C 329.443 352.101,330.556 351.200,330.766 351.200 C 331.279 351.200,346.400 336.120,346.400 335.608 C 346.400 335.387,347.660 333.931,349.200 332.372 C 350.740 330.814,352.000 329.355,352.000 329.130 C 352.000 328.905,352.495 328.240,353.100 327.652 C 353.705 327.064,354.601 326.047,355.090 325.391 C 358.133 321.321,359.600 319.214,359.600 318.917 C 359.600 318.730,359.960 318.317,360.400 318.000 C 360.840 317.683,361.200 317.143,361.200 316.800 C 361.200 316.457,361.560 315.917,362.000 315.600 C 362.440 315.283,362.800 314.743,362.800 314.400 C 362.800 314.057,363.160 313.517,363.600 313.200 C 364.040 312.883,364.400 312.343,364.400 312.000 C 364.400 311.657,364.760 311.117,365.200 310.800 C 365.640 310.483,366.000 309.943,366.000 309.600 C 366.000 309.257,366.360 308.717,366.800 308.400 C 367.240 308.083,367.600 307.593,367.600 307.312 C 367.600 307.030,367.780 306.800,368.000 306.800 C 368.220 306.800,368.400 306.522,368.400 306.183 C 368.400 305.844,368.760 305.180,369.200 304.708 C 369.640 304.236,370.000 303.613,370.000 303.325 C 370.000 303.036,370.180 302.800,370.400 302.800 C 370.620 302.800,370.800 302.440,370.800 302.000 C 370.800 301.560,370.980 301.200,371.200 301.200 C 371.420 301.200,371.600 300.855,371.600 300.433 C 371.600 300.012,371.755 299.607,371.945 299.533 C 372.444 299.340,375.200 293.871,375.200 293.074 C 375.200 292.703,375.346 292.400,375.525 292.400 C 375.704 292.400,376.098 291.770,376.400 291.000 C 376.702 290.230,377.096 289.600,377.275 289.600 C 377.454 289.600,377.600 289.240,377.600 288.800 C 377.600 288.360,377.780 288.000,378.000 288.000 C 378.220 288.000,378.400 287.550,378.400 287.000 C 378.400 286.450,378.580 286.000,378.800 286.000 C 379.020 286.000,379.200 285.550,379.200 285.000 C 379.200 284.450,379.380 284.000,379.600 284.000 C 379.820 284.000,380.000 283.640,380.000 283.200 C 380.000 282.760,380.180 282.400,380.400 282.400 C 380.620 282.400,380.800 282.040,380.800 281.600 C 380.800 281.160,380.980 280.800,381.200 280.800 C 381.420 280.800,381.600 280.260,381.600 279.600 C 381.600 278.940,381.780 278.400,382.000 278.400 C 382.220 278.400,382.400 278.040,382.400 277.600 C 382.400 277.160,382.580 276.800,382.800 276.800 C 383.020 276.800,383.200 276.438,383.200 275.995 C 383.200 275.552,383.359 274.877,383.553 274.495 C 383.748 274.113,384.129 273.260,384.400 272.600 C 384.671 271.940,385.052 271.087,385.247 270.705 C 385.441 270.323,385.600 269.648,385.600 269.205 C 385.600 268.762,385.780 268.400,386.000 268.400 C 386.220 268.400,386.400 267.860,386.400 267.200 C 386.400 266.540,386.580 266.000,386.800 266.000 C 387.020 266.000,387.200 265.471,387.200 264.824 C 387.200 264.177,387.380 263.536,387.600 263.400 C 387.820 263.264,388.000 262.533,388.000 261.776 C 388.000 261.019,388.180 260.400,388.400 260.400 C 388.620 260.400,388.800 259.961,388.800 259.424 C 388.800 258.887,388.980 258.336,389.200 258.200 C 389.420 258.064,389.600 257.344,389.600 256.600 C 389.600 255.856,389.780 255.136,390.000 255.000 C 390.220 254.864,390.400 254.144,390.400 253.400 C 390.400 252.656,390.565 251.945,390.766 251.821 C 390.967 251.696,391.259 250.246,391.413 248.597 C 391.568 246.949,391.853 245.600,392.047 245.600 C 392.241 245.600,392.400 244.700,392.400 243.600 C 392.400 242.500,392.580 241.600,392.800 241.600 C 393.020 241.600,393.200 240.610,393.200 239.400 C 393.200 238.190,393.380 237.200,393.600 237.200 C 393.829 237.200,394.000 236.000,394.000 234.400 C 394.000 232.800,394.171 231.600,394.400 231.600 C 394.633 231.600,394.800 230.267,394.800 228.400 C 394.800 226.533,394.967 225.200,395.200 225.200 C 395.445 225.200,395.600 223.267,395.600 220.200 C 395.600 217.133,395.755 215.200,396.000 215.200 C 396.257 215.200,396.400 211.341,396.400 204.424 C 396.400 197.671,396.251 193.555,396.000 193.400 C 395.768 193.257,395.600 191.063,395.600 188.176 C 395.600 185.125,395.445 183.200,395.200 183.200 C 394.967 183.200,394.800 181.867,394.800 180.000 C 394.800 178.133,394.633 176.800,394.400 176.800 C 394.174 176.800,394.000 175.667,394.000 174.200 C 394.000 172.733,393.826 171.600,393.600 171.600 C 393.380 171.600,393.200 170.700,393.200 169.600 C 393.200 168.500,393.020 167.600,392.800 167.600 C 392.580 167.600,392.400 166.700,392.400 165.600 C 392.400 164.500,392.243 163.600,392.052 163.600 C 391.860 163.600,391.578 162.163,391.425 160.407 C 391.272 158.651,390.978 157.110,390.773 156.983 C 390.568 156.857,390.400 156.144,390.400 155.400 C 390.400 154.656,390.220 153.936,390.000 153.800 C 389.780 153.664,389.600 153.034,389.600 152.400 C 389.600 151.040,389.239 150.723,388.291 151.253 " stroke="none" fill="#31a5f7" fill-rule="evenodd"></path><path id="path1" d="M307.600 31.200 C 307.600 31.444,305.733 31.600,302.800 31.600 C 299.867 31.600,298.000 31.756,298.000 32.000 C 298.000 32.220,297.280 32.400,296.400 32.400 C 295.244 32.400,294.800 32.567,294.800 33.000 C 294.800 33.330,294.498 33.600,294.128 33.600 C 293.759 33.600,292.904 33.768,292.228 33.973 C 291.553 34.178,290.190 34.558,289.200 34.817 C 263.374 41.581,242.726 59.706,232.373 84.700 C 232.168 85.195,231.832 86.005,231.626 86.500 C 229.384 91.899,226.808 103.509,226.795 108.277 C 226.792 109.334,226.681 110.605,226.548 111.100 L 226.307 112.000 197.745 112.000 L 169.183 112.000 168.827 112.900 C 168.631 113.395,168.078 114.880,167.599 116.200 C 167.120 117.520,166.385 119.292,165.964 120.138 C 165.544 120.984,165.200 121.929,165.200 122.238 C 165.200 122.547,165.020 122.800,164.800 122.800 C 164.580 122.800,164.400 123.045,164.400 123.344 C 164.400 124.054,161.986 128.793,161.154 129.718 C 160.798 130.112,160.085 131.282,159.568 132.318 C 158.501 134.454,155.797 138.615,154.719 139.775 C 154.324 140.202,154.000 140.698,154.000 140.879 C 154.000 141.725,148.081 148.740,144.400 152.256 L 143.000 153.593 221.051 153.597 C 285.959 153.599,299.177 153.691,299.549 154.138 C 299.868 154.523,300.025 164.349,300.098 188.616 L 300.200 222.556 303.000 223.046 C 317.887 225.655,334.392 219.627,334.399 211.578 C 334.400 209.659,332.631 206.217,331.401 205.745 C 330.330 205.334,330.759 204.843,332.700 204.258 C 341.079 201.732,352.082 195.724,359.655 189.538 C 367.371 183.237,377.323 171.608,381.164 164.407 C 383.687 159.676,387.600 151.769,387.600 151.401 C 387.600 151.175,388.005 150.812,388.500 150.595 C 389.008 150.372,389.461 149.764,389.540 149.200 C 389.618 148.650,389.798 148.110,389.942 148.000 C 390.366 147.677,391.127 145.149,391.421 143.095 C 391.570 142.047,391.852 141.092,392.046 140.971 C 392.241 140.851,392.400 140.133,392.400 139.376 C 392.400 138.619,392.580 138.000,392.800 138.000 C 393.020 138.000,393.200 137.280,393.200 136.400 C 393.200 135.520,393.380 134.800,393.600 134.800 C 393.822 134.800,394.000 133.733,394.000 132.400 C 394.000 131.067,394.178 130.000,394.400 130.000 C 394.635 130.000,394.800 128.608,394.800 126.624 C 394.800 124.767,394.980 123.136,395.200 123.000 C 395.441 122.851,395.600 120.063,395.600 115.976 C 395.600 111.725,395.451 109.200,395.200 109.200 C 394.965 109.200,394.800 107.808,394.800 105.824 C 394.800 103.967,394.620 102.336,394.400 102.200 C 394.180 102.064,394.000 101.063,394.000 99.976 C 394.000 98.889,393.820 98.000,393.600 98.000 C 393.380 98.000,393.200 97.280,393.200 96.400 C 393.200 95.520,393.020 94.800,392.800 94.800 C 392.580 94.800,392.400 94.170,392.400 93.400 C 392.400 92.630,392.243 92.000,392.052 92.000 C 391.860 92.000,391.578 91.059,391.426 89.910 C 391.273 88.760,391.006 87.635,390.832 87.410 C 390.659 87.184,390.271 86.145,389.971 85.100 C 389.671 84.055,389.285 83.200,389.113 83.200 C 388.941 83.200,388.800 82.928,388.800 82.595 C 388.800 82.262,388.640 81.677,388.444 81.295 C 388.248 80.913,387.663 79.700,387.144 78.600 C 386.625 77.500,386.065 76.540,385.900 76.467 C 385.735 76.393,385.600 76.028,385.600 75.655 C 385.600 75.282,385.240 74.717,384.800 74.400 C 384.360 74.083,384.000 73.503,384.000 73.112 C 384.000 72.720,383.820 72.400,383.600 72.400 C 383.380 72.400,383.200 72.080,383.200 71.688 C 383.200 71.297,382.840 70.717,382.400 70.400 C 381.960 70.083,381.600 69.543,381.600 69.200 C 381.600 68.857,381.240 68.317,380.800 68.000 C 380.360 67.683,380.000 67.175,380.000 66.872 C 380.000 66.569,379.460 65.817,378.800 65.200 C 378.140 64.583,377.600 63.875,377.600 63.626 C 377.600 63.377,377.015 62.585,376.300 61.866 C 375.585 61.147,374.280 59.678,373.400 58.601 C 371.534 56.319,367.964 52.800,367.515 52.800 C 367.344 52.800,366.285 51.900,365.161 50.800 C 364.038 49.700,362.956 48.800,362.756 48.800 C 362.556 48.800,361.828 48.260,361.137 47.600 C 360.446 46.940,359.678 46.400,359.429 46.400 C 359.180 46.400,358.717 46.040,358.400 45.600 C 358.083 45.160,357.671 44.800,357.484 44.800 C 357.297 44.800,356.392 44.303,355.472 43.697 C 354.552 43.090,352.678 42.055,351.307 41.397 C 349.935 40.738,348.810 40.065,348.807 39.900 C 348.803 39.735,348.451 39.600,348.024 39.600 C 347.597 39.600,347.136 39.420,347.000 39.200 C 346.864 38.980,346.313 38.800,345.776 38.800 C 345.239 38.800,344.800 38.620,344.800 38.400 C 344.800 38.180,344.440 38.000,344.000 38.000 C 343.560 38.000,343.200 37.820,343.200 37.600 C 343.200 37.380,342.750 37.200,342.200 37.200 C 341.650 37.200,341.200 37.020,341.200 36.800 C 341.200 36.580,340.750 36.400,340.200 36.400 C 339.650 36.400,339.200 36.220,339.200 36.000 C 339.200 35.780,338.761 35.600,338.224 35.600 C 337.687 35.600,337.136 35.420,337.000 35.200 C 336.864 34.980,336.133 34.800,335.376 34.800 C 334.619 34.800,334.000 34.620,334.000 34.400 C 334.000 34.180,333.471 34.000,332.824 34.000 C 332.177 34.000,331.536 33.820,331.400 33.600 C 331.264 33.380,330.353 33.200,329.376 33.200 C 328.399 33.200,327.600 33.020,327.600 32.800 C 327.600 32.580,326.621 32.400,325.424 32.400 C 324.227 32.400,323.136 32.220,323.000 32.000 C 322.860 31.773,320.870 31.600,318.400 31.600 C 315.930 31.600,313.940 31.427,313.800 31.200 C 313.664 30.980,312.213 30.800,310.576 30.800 C 308.859 30.800,307.600 30.969,307.600 31.200 " stroke="none" fill="#f3931d" fill-rule="evenodd"></path><path id="path2" d="M75.000 0.274 C 73.680 0.367,72.429 0.614,72.220 0.822 C 72.011 1.030,71.167 1.200,70.344 1.200 C 69.521 1.200,68.736 1.380,68.600 1.600 C 68.464 1.820,67.643 2.000,66.776 2.000 C 65.909 2.000,65.200 2.180,65.200 2.400 C 65.200 2.620,64.660 2.800,64.000 2.800 C 63.340 2.800,62.800 2.980,62.800 3.200 C 62.800 3.420,62.260 3.600,61.600 3.600 C 60.940 3.600,60.400 3.780,60.400 4.000 C 60.400 4.220,59.950 4.400,59.400 4.400 C 58.850 4.400,58.400 4.580,58.400 4.800 C 58.400 5.020,57.961 5.200,57.424 5.200 C 56.887 5.200,56.336 5.380,56.200 5.600 C 56.064 5.820,55.603 6.000,55.176 6.000 C 54.749 6.000,54.400 6.180,54.400 6.400 C 54.400 6.620,54.040 6.800,53.600 6.800 C 53.160 6.800,52.800 6.980,52.800 7.200 C 52.800 7.420,52.440 7.600,52.000 7.600 C 51.560 7.600,51.200 7.780,51.200 8.000 C 51.200 8.220,50.898 8.400,50.530 8.400 C 49.632 8.400,44.000 11.201,44.000 11.648 C 44.000 11.841,43.813 12.000,43.584 12.000 C 43.146 12.000,41.180 13.313,39.840 14.500 C 39.405 14.885,38.879 15.200,38.671 15.200 C 38.464 15.200,38.003 15.524,37.647 15.919 C 37.291 16.314,36.399 17.058,35.665 17.571 C 32.383 19.865,21.600 30.713,21.600 31.721 C 21.600 31.918,21.060 32.583,20.400 33.200 C 19.740 33.817,19.200 34.569,19.200 34.872 C 19.200 35.175,18.840 35.683,18.400 36.000 C 17.960 36.317,17.600 36.857,17.600 37.200 C 17.600 37.543,17.240 38.083,16.800 38.400 C 16.360 38.717,16.000 39.297,16.000 39.688 C 16.000 40.080,15.820 40.400,15.600 40.400 C 15.380 40.400,15.200 40.745,15.200 41.167 C 15.200 41.588,15.039 41.993,14.843 42.067 C 14.334 42.257,12.000 46.321,12.000 47.018 C 12.000 47.338,11.820 47.600,11.600 47.600 C 11.380 47.600,11.200 47.949,11.200 48.376 C 11.200 48.803,11.020 49.264,10.800 49.400 C 10.580 49.536,10.400 49.997,10.400 50.424 C 10.400 50.851,10.260 51.200,10.089 51.200 C 9.712 51.200,8.400 55.487,8.400 56.720 C 8.400 57.204,8.220 57.600,8.000 57.600 C 7.780 57.600,7.600 58.039,7.600 58.576 C 7.600 59.113,7.420 59.664,7.200 59.800 C 6.980 59.936,6.800 60.667,6.800 61.424 C 6.800 62.181,6.620 62.800,6.400 62.800 C 6.180 62.800,6.000 63.520,6.000 64.400 C 6.000 65.280,5.820 66.000,5.600 66.000 C 5.380 66.000,5.200 66.900,5.200 68.000 C 5.200 69.100,5.020 70.000,4.800 70.000 C 4.565 70.000,4.400 71.392,4.400 73.376 C 4.400 75.233,4.220 76.864,4.000 77.000 C 3.458 77.335,3.458 91.600,4.000 91.600 C 4.235 91.600,4.400 92.992,4.400 94.976 C 4.400 96.833,4.580 98.464,4.800 98.600 C 5.020 98.736,5.200 99.737,5.200 100.824 C 5.200 101.911,5.380 102.800,5.600 102.800 C 5.820 102.800,6.000 103.509,6.000 104.376 C 6.000 105.243,6.180 106.064,6.400 106.200 C 6.620 106.336,6.800 106.977,6.800 107.624 C 6.800 108.271,6.980 108.800,7.200 108.800 C 7.420 108.800,7.600 109.520,7.600 110.400 C 7.600 111.280,7.756 112.000,7.946 112.000 C 8.136 112.000,8.402 112.806,8.537 113.791 C 8.672 114.776,8.966 115.946,9.191 116.391 C 9.416 116.836,9.780 117.558,10.000 117.995 C 10.220 118.432,10.400 118.983,10.400 119.220 C 10.400 119.841,12.900 124.975,13.280 125.133 C 13.456 125.207,13.600 125.612,13.600 126.033 C 13.600 126.455,13.780 126.800,14.000 126.800 C 14.220 126.800,14.400 127.160,14.400 127.600 C 14.400 128.040,14.580 128.400,14.800 128.400 C 15.020 128.400,15.200 128.760,15.200 129.200 C 15.200 129.640,15.380 130.000,15.600 130.000 C 15.820 130.000,16.000 130.294,16.000 130.653 C 16.000 131.277,17.419 132.800,18.000 132.800 C 18.153 132.800,19.504 134.645,21.002 136.900 C 32.190 153.740,49.339 167.004,66.900 172.401 C 68.718 172.960,68.738 173.129,67.164 174.625 C 61.958 179.575,65.888 186.708,75.400 189.574 C 76.280 189.839,77.360 190.198,77.800 190.372 C 80.584 191.475,82.101 191.660,88.385 191.665 C 92.105 191.668,95.746 191.480,96.475 191.247 C 97.204 191.014,99.060 190.450,100.600 189.992 C 111.940 186.622,116.030 179.057,109.445 173.633 C 108.819 173.117,108.912 173.017,110.478 172.513 C 111.425 172.209,112.560 171.806,113.000 171.618 C 113.440 171.429,114.610 170.973,115.600 170.604 C 122.923 167.878,130.945 163.150,138.095 157.344 L 141.726 154.396 220.829 154.498 C 284.075 154.580,299.849 154.500,299.517 154.100 C 299.188 153.703,283.000 153.599,221.051 153.597 L 143.000 153.593 144.400 152.256 C 148.081 148.740,154.000 141.725,154.000 140.879 C 154.000 140.698,154.324 140.202,154.719 139.775 C 155.797 138.615,158.501 134.454,159.568 132.318 C 160.085 131.282,160.798 130.112,161.154 129.718 C 161.986 128.793,164.400 124.054,164.400 123.344 C 164.400 123.045,164.580 122.800,164.800 122.800 C 165.020 122.800,165.200 122.535,165.200 122.212 C 165.200 121.889,165.529 121.034,165.932 120.312 C 166.334 119.590,166.766 118.640,166.892 118.200 C 167.017 117.760,167.585 116.149,168.154 114.620 C 168.770 112.961,169.031 111.742,168.799 111.599 C 168.561 111.452,168.719 110.285,169.207 108.580 C 175.013 88.320,172.991 65.127,163.823 46.800 C 158.918 36.995,149.530 25.223,141.954 19.377 C 141.379 18.933,140.771 18.126,140.604 17.585 C 140.316 16.648,139.099 15.200,138.600 15.200 C 138.472 15.200,137.980 14.840,137.508 14.400 C 137.036 13.960,136.413 13.600,136.125 13.600 C 135.836 13.600,135.600 13.432,135.600 13.227 C 135.600 13.022,135.241 12.740,134.802 12.601 C 134.364 12.462,133.772 12.134,133.487 11.874 C 132.292 10.781,127.646 8.404,126.700 8.402 C 126.315 8.401,125.999 8.265,125.997 8.100 C 125.993 7.741,124.056 6.800,123.320 6.800 C 123.034 6.800,122.800 6.620,122.800 6.400 C 122.800 6.180,122.451 6.000,122.024 6.000 C 121.597 6.000,121.136 5.820,121.000 5.600 C 120.864 5.380,120.403 5.200,119.976 5.200 C 119.549 5.200,119.200 5.020,119.200 4.800 C 119.200 4.580,118.660 4.400,118.000 4.400 C 117.340 4.400,116.800 4.220,116.800 4.000 C 116.800 3.780,116.260 3.600,115.600 3.600 C 114.940 3.600,114.400 3.420,114.400 3.200 C 114.400 2.980,113.860 2.800,113.200 2.800 C 112.540 2.800,112.000 2.620,112.000 2.400 C 112.000 2.180,111.280 2.000,110.400 2.000 C 109.520 2.000,108.800 1.820,108.800 1.600 C 108.800 1.380,108.005 1.200,107.033 1.200 C 106.005 1.200,105.199 0.997,105.105 0.715 C 104.943 0.228,80.668 -0.128,75.000 0.274 M212.200 251.561 C 195.448 254.640,197.759 279.649,214.808 279.772 C 233.176 279.905,234.307 253.028,216.000 251.456 C 214.790 251.352,213.080 251.400,212.200 251.561 M255.992 251.550 C 248.384 252.670,242.667 261.015,244.401 268.469 C 247.675 282.543,266.934 284.048,271.957 270.622 C 275.796 260.362,267.057 249.922,255.992 251.550 M124.200 338.862 C 110.367 343.456,109.941 361.917,123.566 366.363 C 136.338 370.530,147.184 356.002,139.664 344.801 C 136.380 339.910,129.269 337.178,124.200 338.862 " stroke="none" fill="#fb5bb9" fill-rule="evenodd"></path><path id="path3" d="M140.822 18.300 C 140.834 18.465,141.419 19.038,142.122 19.574 L 143.400 20.549 142.225 19.274 C 141.003 17.949,140.785 17.797,140.822 18.300 M143.600 20.512 C 143.600 20.615,145.238 22.297,147.240 24.250 C 169.496 45.961,177.901 78.242,169.202 108.599 C 168.761 110.138,168.405 111.488,168.412 111.599 C 168.441 112.082,169.345 110.147,169.657 108.933 C 169.846 108.200,170.184 106.925,170.409 106.100 C 170.866 104.425,171.499 101.314,172.056 98.000 C 173.115 91.702,173.280 78.090,172.364 72.600 C 170.365 60.625,167.234 51.417,162.053 42.281 C 160.835 40.132,155.831 32.757,154.942 31.800 C 154.534 31.360,153.688 30.370,153.063 29.600 C 150.568 26.526,143.600 19.834,143.600 20.512 M289.600 34.196 C 282.663 36.107,277.840 37.956,272.200 40.865 C 268.026 43.019,267.600 43.255,267.600 43.416 C 267.600 43.630,268.330 43.301,273.000 40.984 C 278.630 38.192,283.833 36.206,289.000 34.877 C 290.897 34.390,294.035 33.552,294.600 33.383 C 294.820 33.317,294.550 33.262,294.000 33.261 C 293.450 33.260,291.470 33.680,289.600 34.196 M263.507 45.726 C 262.466 46.426,261.611 47.137,261.607 47.304 C 261.603 47.471,262.590 46.951,263.800 46.147 C 265.010 45.344,266.000 44.622,266.000 44.543 C 266.000 44.193,265.267 44.541,263.507 45.726 M259.701 48.500 C 258.993 48.995,258.411 49.566,258.407 49.770 C 258.403 49.973,258.895 49.706,259.500 49.176 C 260.105 48.646,260.771 48.074,260.980 47.906 C 261.813 47.235,260.911 47.654,259.701 48.500 M255.972 51.487 C 253.904 53.223,249.434 57.593,250.575 56.764 C 251.002 56.454,252.262 55.366,253.375 54.346 C 254.489 53.326,256.030 51.936,256.800 51.257 C 258.783 49.509,258.104 49.698,255.972 51.487 M246.600 60.672 C 245.062 62.535,244.309 63.600,244.529 63.600 C 244.624 63.600,245.549 62.610,246.582 61.400 C 247.616 60.190,248.313 59.204,248.131 59.209 C 247.949 59.214,247.260 59.872,246.600 60.672 M242.889 65.329 C 237.952 72.286,231.446 83.979,232.132 84.665 C 232.269 84.802,232.501 84.574,232.647 84.157 C 234.172 79.817,239.692 70.037,242.952 65.900 C 243.602 65.075,244.057 64.323,243.963 64.229 C 243.868 64.135,243.386 64.630,242.889 65.329 M229.067 93.067 C 228.920 93.213,228.811 93.708,228.825 94.167 C 228.849 94.933,228.882 94.923,229.234 94.042 C 229.626 93.063,229.544 92.589,229.067 93.067 M228.000 97.200 C 228.000 97.860,228.070 98.400,228.155 98.400 C 228.240 98.400,228.388 97.860,228.485 97.200 C 228.582 96.540,228.513 96.000,228.331 96.000 C 228.149 96.000,228.000 96.540,228.000 97.200 M227.467 99.467 C 227.320 99.613,227.221 100.378,227.246 101.167 L 227.292 102.600 227.604 101.000 C 227.931 99.319,227.905 99.028,227.467 99.467 M226.667 104.267 C 226.520 104.413,226.428 105.988,226.462 107.767 L 226.524 111.000 226.798 107.600 C 227.089 103.991,227.083 103.850,226.667 104.267 M183.329 111.900 C 191.211 111.961,203.991 111.961,211.729 111.900 C 219.468 111.839,213.020 111.789,197.400 111.790 C 181.780 111.790,175.448 111.839,183.329 111.900 M384.884 157.149 C 381.478 163.988,380.461 165.828,378.483 168.725 C 377.554 170.086,376.930 171.198,377.097 171.197 C 377.438 171.193,380.013 167.291,381.699 164.224 C 384.201 159.672,387.635 152.707,387.521 152.413 C 387.455 152.240,386.268 154.371,384.884 157.149 M52.800 166.579 C 52.800 166.689,53.340 167.059,54.000 167.400 C 54.660 167.741,55.200 167.931,55.200 167.821 C 55.200 167.711,54.660 167.341,54.000 167.000 C 53.340 166.659,52.800 166.469,52.800 166.579 M118.980 169.138 C 118.771 169.323,117.520 169.881,116.200 170.377 C 114.880 170.872,113.440 171.432,113.000 171.619 C 112.560 171.807,111.425 172.209,110.478 172.513 C 108.912 173.017,108.819 173.117,109.445 173.633 C 116.030 179.057,111.940 186.622,100.600 189.992 C 99.060 190.450,97.204 191.014,96.475 191.247 C 95.746 191.480,92.105 191.668,88.385 191.665 C 82.069 191.660,79.977 191.398,77.905 190.351 C 76.895 189.841,76.636 189.920,77.178 190.573 C 77.555 191.027,77.365 191.921,76.264 194.873 C 70.644 209.947,73.808 227.058,84.513 239.475 L 86.302 241.550 86.582 291.275 C 86.736 318.624,86.803 346.220,86.731 352.600 L 86.600 364.200 88.133 365.700 C 88.976 366.525,89.818 367.200,90.004 367.200 C 90.190 367.200,90.629 367.486,90.979 367.837 C 91.330 368.187,91.848 368.507,92.131 368.549 C 92.414 368.590,92.905 368.841,93.223 369.106 C 94.804 370.426,96.317 371.477,97.400 372.009 C 98.060 372.334,98.690 372.697,98.800 372.817 C 99.433 373.508,102.128 374.768,102.493 374.543 C 102.749 374.385,102.808 374.464,102.638 374.738 C 102.469 375.012,102.607 375.200,102.976 375.200 C 103.319 375.200,103.603 375.425,103.606 375.700 C 103.611 376.092,103.682 376.090,103.936 375.691 C 104.183 375.301,104.432 375.372,104.991 375.991 C 105.394 376.436,105.966 376.800,106.262 376.800 C 106.558 376.800,106.800 376.980,106.800 377.200 C 106.800 377.420,107.160 377.600,107.600 377.600 C 108.040 377.600,108.400 377.746,108.400 377.925 C 108.400 378.104,109.030 378.498,109.800 378.800 C 110.570 379.102,111.200 379.496,111.200 379.675 C 111.200 379.854,111.560 380.000,112.000 380.000 C 112.440 380.000,112.800 380.180,112.800 380.400 C 112.800 380.620,113.250 380.800,113.800 380.800 C 114.350 380.800,114.800 380.980,114.800 381.200 C 114.800 381.420,115.070 381.600,115.400 381.600 C 115.730 381.600,116.000 381.780,116.000 382.000 C 116.000 382.220,116.360 382.400,116.800 382.400 C 117.240 382.400,117.600 382.580,117.600 382.800 C 117.600 383.020,117.960 383.200,118.400 383.200 C 118.840 383.200,119.200 383.380,119.200 383.600 C 119.200 383.820,119.549 384.000,119.976 384.000 C 120.403 384.000,120.864 384.180,121.000 384.400 C 121.136 384.620,121.687 384.800,122.224 384.800 C 122.761 384.800,123.200 384.980,123.200 385.200 C 123.200 385.420,123.560 385.600,124.000 385.600 C 124.440 385.600,124.800 385.801,124.800 386.047 C 124.800 386.311,125.221 386.413,125.832 386.296 C 126.487 386.171,126.940 386.300,127.074 386.649 C 127.191 386.952,127.626 387.200,128.043 387.200 C 128.459 387.200,128.800 387.364,128.800 387.565 C 128.800 387.765,129.250 387.880,129.800 387.820 C 130.350 387.759,130.800 387.848,130.800 388.016 C 130.800 388.296,132.852 389.250,133.800 389.410 C 134.020 389.447,134.514 389.614,134.899 389.781 C 135.283 389.948,136.030 390.110,136.560 390.142 C 137.090 390.174,137.443 390.330,137.345 390.488 C 137.086 390.908,139.068 391.329,139.639 390.976 C 139.947 390.785,140.020 390.844,139.838 391.138 C 139.647 391.448,139.948 391.600,140.753 391.600 C 141.413 391.600,142.064 391.780,142.200 392.000 C 142.336 392.220,142.977 392.400,143.624 392.400 C 144.271 392.400,144.800 392.580,144.800 392.800 C 144.800 393.020,145.329 393.200,145.976 393.200 C 146.623 393.200,147.264 393.380,147.400 393.600 C 147.536 393.820,148.267 394.000,149.024 394.000 C 149.781 394.000,150.400 394.151,150.400 394.335 C 150.400 394.520,151.062 394.695,151.871 394.726 C 152.679 394.756,153.444 394.943,153.571 395.142 C 153.784 395.478,154.735 395.669,159.100 396.253 C 160.035 396.378,160.800 396.642,160.800 396.840 C 160.800 397.038,161.664 397.200,162.720 397.200 C 163.776 397.200,164.811 397.363,165.020 397.563 C 165.229 397.763,166.300 398.018,167.400 398.130 C 168.500 398.241,169.940 398.429,170.600 398.546 C 171.260 398.663,172.729 398.811,173.864 398.875 C 175.000 398.939,175.856 399.109,175.768 399.252 C 175.209 400.157,223.391 400.198,224.492 399.294 C 224.771 399.065,226.260 398.761,227.800 398.619 C 229.340 398.477,231.663 398.262,232.961 398.142 C 234.555 397.994,235.140 397.807,234.761 397.568 C 234.399 397.338,235.077 397.210,236.676 397.206 C 238.038 397.203,239.264 397.020,239.400 396.800 C 239.536 396.580,240.346 396.400,241.200 396.400 C 242.054 396.400,242.864 396.220,243.000 396.000 C 243.136 395.780,243.957 395.600,244.824 395.600 C 245.691 395.600,246.400 395.420,246.400 395.200 C 246.400 394.980,247.120 394.800,248.000 394.800 C 248.880 394.800,249.600 394.620,249.600 394.400 C 249.600 394.180,250.194 394.000,250.920 394.000 C 251.646 394.000,252.411 393.836,252.620 393.635 C 252.829 393.434,253.450 393.209,254.000 393.135 C 254.550 393.061,255.097 392.871,255.216 392.713 C 255.334 392.555,256.009 392.382,256.716 392.328 C 257.422 392.274,258.000 392.088,258.000 391.915 C 258.000 391.742,258.551 391.600,259.224 391.600 C 259.928 391.600,260.344 391.432,260.203 391.205 C 260.065 390.982,260.217 390.908,260.551 391.036 C 261.148 391.266,264.761 390.142,267.896 388.752 C 268.828 388.338,269.959 388.000,270.408 388.000 C 270.857 388.000,271.324 387.741,271.446 387.425 C 271.573 387.094,271.935 386.954,272.299 387.093 C 272.674 387.237,272.829 387.170,272.679 386.928 C 272.530 386.687,272.947 386.506,273.706 386.485 C 274.409 386.465,275.048 386.257,275.125 386.024 C 275.203 385.791,275.535 385.600,275.862 385.600 C 276.189 385.600,276.711 385.346,277.021 385.036 C 277.331 384.727,278.308 384.351,279.192 384.201 C 280.076 384.052,280.800 383.766,280.800 383.565 C 280.800 383.364,281.160 383.200,281.600 383.200 C 282.040 383.200,282.400 383.020,282.400 382.800 C 282.400 382.580,282.760 382.400,283.200 382.400 C 283.640 382.400,284.000 382.220,284.000 382.000 C 284.000 381.780,284.270 381.600,284.600 381.600 C 284.930 381.600,285.200 381.420,285.200 381.200 C 285.200 380.980,285.524 380.800,285.920 380.800 C 286.814 380.800,288.793 379.906,288.797 379.500 C 288.799 379.335,289.171 379.200,289.624 379.200 C 290.077 379.200,290.336 379.020,290.200 378.800 C 290.064 378.580,290.323 378.400,290.776 378.400 C 291.229 378.400,291.601 378.265,291.603 378.100 C 291.607 377.741,293.544 376.800,294.280 376.800 C 294.566 376.800,294.800 376.620,294.800 376.400 C 294.800 376.180,295.160 376.000,295.600 376.000 C 296.040 376.000,296.400 375.820,296.400 375.600 C 296.400 375.380,296.657 375.200,296.971 375.200 C 297.286 375.200,297.789 374.954,298.090 374.653 C 298.391 374.352,298.989 373.994,299.419 373.857 C 300.189 373.613,300.200 372.809,300.226 318.705 C 300.248 272.287,300.234 270.756,300.131 308.800 C 300.046 340.732,299.882 354.045,299.567 354.645 C 299.251 355.247,297.958 355.862,295.062 356.786 C 292.828 357.499,290.687 358.244,290.305 358.441 C 289.923 358.639,289.169 358.800,288.629 358.800 C 288.089 358.800,287.536 358.980,287.400 359.200 C 287.264 359.420,286.634 359.600,286.000 359.600 C 285.366 359.600,284.736 359.780,284.600 360.000 C 284.464 360.220,283.744 360.400,283.000 360.400 C 282.256 360.400,281.536 360.580,281.400 360.800 C 281.264 361.020,280.544 361.200,279.800 361.200 C 279.056 361.200,278.336 361.380,278.200 361.600 C 278.064 361.820,277.279 362.000,276.456 362.000 C 275.633 362.000,274.789 362.163,274.580 362.361 C 274.371 362.560,273.390 362.821,272.400 362.942 C 271.410 363.063,269.520 363.358,268.200 363.597 C 250.087 366.878,228.945 367.469,210.400 365.214 C 208.750 365.013,206.320 364.736,205.000 364.598 C 203.680 364.460,202.240 364.189,201.800 363.995 C 201.360 363.801,200.190 363.555,199.200 363.450 C 198.210 363.344,196.500 363.053,195.400 362.803 C 194.300 362.553,192.680 362.251,191.800 362.133 C 190.920 362.015,190.029 361.756,189.820 361.559 C 189.611 361.362,188.857 361.200,188.144 361.200 C 187.431 361.200,186.736 361.020,186.600 360.800 C 186.464 360.580,185.893 360.400,185.331 360.400 C 184.207 360.400,184.202 360.238,185.205 356.400 C 189.841 338.659,164.520 331.213,157.816 348.346 C 157.119 350.126,156.773 350.572,156.167 350.464 C 154.585 350.185,140.753 343.344,140.467 342.700 C 140.393 342.535,139.988 342.400,139.567 342.400 C 139.145 342.400,138.800 342.220,138.800 342.000 C 138.800 341.780,138.644 341.600,138.453 341.600 C 135.342 341.600,121.600 330.704,121.600 328.238 C 121.600 327.887,121.440 327.600,121.245 327.600 C 120.889 327.600,120.546 326.322,120.130 323.444 C 119.874 321.675,119.470 321.713,124.557 323.030 C 137.742 326.442,147.326 310.847,138.746 299.941 C 135.212 295.450,128.697 293.823,122.693 295.934 C 119.797 296.951,120.000 297.595,120.000 287.400 C 120.000 277.315,119.869 277.793,122.337 278.882 C 128.219 281.478,135.952 279.117,139.674 273.589 C 147.337 262.205,135.112 247.037,122.597 252.401 C 121.569 252.842,120.564 253.101,120.364 252.978 C 119.929 252.709,119.866 234.798,120.300 234.805 C 120.465 234.808,121.741 235.168,123.136 235.605 C 132.992 238.695,141.800 232.369,141.800 222.200 C 141.800 211.917,132.229 205.180,122.742 208.785 C 121.606 209.217,120.524 209.476,120.338 209.362 C 120.152 209.247,120.000 200.073,120.000 188.976 C 120.000 177.879,119.856 168.800,119.680 168.800 C 119.504 168.800,119.189 168.952,118.980 169.138 M375.427 173.000 C 374.840 173.770,374.503 174.398,374.680 174.395 C 374.856 174.392,375.407 173.762,375.904 172.995 C 377.068 171.197,376.800 171.200,375.427 173.000 M65.800 172.400 C 65.936 172.620,66.442 172.787,66.924 172.772 C 67.769 172.745,67.771 172.731,67.000 172.400 C 65.899 171.927,65.508 171.927,65.800 172.400 M67.423 173.712 C 65.631 175.878,65.536 176.103,66.997 174.713 C 67.857 173.896,68.469 173.136,68.359 173.025 C 68.248 172.915,67.827 173.224,67.423 173.712 M372.559 176.700 C 371.714 177.745,369.084 180.567,366.714 182.970 C 364.345 185.374,362.467 187.400,362.540 187.474 C 362.739 187.673,372.469 177.607,373.535 176.100 C 374.901 174.168,374.317 174.527,372.559 176.700 M159.368 176.754 C 155.888 178.877,155.495 185.391,158.663 188.461 L 160.044 189.800 192.122 189.921 C 214.186 190.004,224.662 189.907,225.679 189.611 C 230.568 188.188,231.268 179.290,226.698 176.667 C 224.792 175.574,161.169 175.656,159.368 176.754 M64.493 179.600 C 64.493 180.370,64.575 180.685,64.676 180.300 C 64.776 179.915,64.776 179.285,64.676 178.900 C 64.575 178.515,64.493 178.830,64.493 179.600 M64.801 181.840 C 64.800 182.401,66.977 185.422,67.674 185.825 C 67.963 185.992,67.814 185.695,67.342 185.165 C 66.870 184.634,66.106 183.570,65.643 182.800 C 65.181 182.030,64.802 181.598,64.801 181.840 M69.089 186.830 C 69.578 187.339,70.078 187.655,70.201 187.532 C 70.324 187.409,69.924 186.992,69.312 186.606 L 68.200 185.904 69.089 186.830 M360.000 189.270 C 359.010 190.153,358.740 190.501,359.400 190.044 C 361.410 188.651,362.150 188.016,361.970 187.837 C 361.876 187.743,360.989 188.388,360.000 189.270 M356.200 192.235 L 355.000 193.266 356.400 192.363 C 358.196 191.204,358.201 191.200,357.767 191.202 C 357.565 191.203,356.860 191.668,356.200 192.235 M353.594 194.018 C 353.047 194.439,352.780 194.780,353.000 194.778 C 353.529 194.773,354.991 193.658,354.765 193.431 C 354.668 193.334,354.141 193.598,353.594 194.018 M350.608 195.911 C 349.733 196.470,348.023 197.463,346.808 198.118 C 345.594 198.772,344.420 199.474,344.200 199.677 C 343.549 200.280,345.218 199.555,347.318 198.324 C 348.372 197.706,349.407 197.200,349.618 197.200 C 349.828 197.200,350.000 197.020,350.000 196.800 C 350.000 196.580,350.225 196.394,350.500 196.387 C 351.089 196.372,352.619 195.280,352.371 195.051 C 352.277 194.965,351.484 195.351,350.608 195.911 M340.600 201.229 C 339.280 201.880,338.650 202.296,339.200 202.154 C 340.372 201.853,343.987 200.035,343.400 200.042 C 343.180 200.045,341.920 200.579,340.600 201.229 M331.900 204.465 C 330.678 204.911,330.489 205.395,331.401 205.745 C 332.631 206.217,334.400 209.659,334.399 211.578 C 334.395 215.321,330.540 219.225,325.042 221.053 C 323.919 221.427,323.213 221.803,323.473 221.890 C 324.299 222.167,329.810 219.369,331.568 217.782 C 335.595 214.143,335.853 209.976,332.290 206.102 C 331.835 205.607,331.539 205.148,331.632 205.080 C 331.724 205.013,332.250 204.754,332.800 204.506 C 334.037 203.947,333.397 203.918,331.900 204.465 M166.143 208.814 C 160.699 210.957,157.200 216.224,157.200 222.276 C 157.200 225.880,158.017 228.199,160.308 231.098 C 167.253 239.885,181.651 237.177,185.029 226.449 C 188.569 215.207,177.102 204.500,166.143 208.814 M209.000 209.193 C 195.223 215.925,199.566 236.133,214.800 236.180 C 220.439 236.197,225.484 233.372,227.500 229.068 C 227.775 228.480,228.225 227.522,228.500 226.938 C 229.417 224.990,229.115 218.518,227.999 216.200 C 224.592 209.128,215.782 205.879,209.000 209.193 M253.769 208.530 C 238.794 214.250,242.459 236.131,258.400 236.180 C 277.216 236.238,277.611 208.547,258.800 208.141 C 256.642 208.095,254.468 208.263,253.769 208.530 M320.800 222.400 L 319.800 222.720 320.800 222.754 C 321.350 222.773,322.070 222.613,322.400 222.400 C 323.164 221.906,322.342 221.906,320.800 222.400 M299.690 242.700 C 299.740 253.865,299.830 259.760,299.889 255.800 C 300.168 237.304,300.173 222.400,299.900 222.400 C 299.735 222.400,299.641 231.535,299.690 242.700 M166.600 252.156 C 151.665 257.891,155.468 279.761,171.400 279.761 C 186.757 279.761,191.236 259.423,177.343 252.776 C 174.642 251.484,169.173 251.168,166.600 252.156 M167.349 295.559 C 161.268 297.299,157.200 302.786,157.200 309.246 C 157.200 323.988,176.986 328.918,184.028 315.930 C 189.982 304.949,179.456 292.093,167.349 295.559 M210.990 295.547 C 196.682 299.646,197.729 320.725,212.363 323.194 C 230.484 326.250,235.967 300.090,218.200 295.344 C 215.611 294.652,213.952 294.699,210.990 295.547 M254.364 295.559 C 243.930 298.897,240.792 311.599,248.493 319.325 C 254.007 324.857,263.180 324.814,268.648 319.230 C 278.891 308.770,268.239 291.119,254.364 295.559 M131.791 339.015 C 142.139 342.023,145.551 355.308,137.922 362.888 C 128.553 372.195,112.839 365.012,113.687 351.810 C 114.275 342.646,123.021 336.465,131.791 339.015 " stroke="none" fill="#adbfe5" fill-rule="evenodd"></path><path id="path4" d="M138.093 157.346 C 133.720 160.897,127.783 164.853,123.300 167.205 L 120.000 168.936 120.000 189.045 C 120.000 200.104,120.152 209.247,120.338 209.362 C 120.524 209.476,121.606 209.217,122.742 208.785 C 132.229 205.180,141.800 211.917,141.800 222.200 C 141.800 232.369,132.992 238.695,123.136 235.605 C 121.741 235.168,120.465 234.808,120.300 234.805 C 119.866 234.798,119.929 252.709,120.364 252.978 C 120.564 253.101,121.569 252.842,122.597 252.401 C 135.112 247.037,147.337 262.205,139.674 273.589 C 135.952 279.117,128.219 281.478,122.337 278.882 C 119.869 277.793,120.000 277.315,120.000 287.400 C 120.000 297.595,119.797 296.951,122.693 295.934 C 139.419 290.055,149.997 312.798,134.705 321.760 C 131.909 323.398,127.913 323.898,124.557 323.030 C 119.470 321.713,119.874 321.675,120.130 323.444 C 120.546 326.322,120.889 327.600,121.245 327.600 C 121.440 327.600,121.600 327.887,121.600 328.238 C 121.600 329.070,122.944 330.983,124.989 333.065 C 126.444 334.546,137.572 341.600,138.453 341.600 C 138.644 341.600,138.800 341.780,138.800 342.000 C 138.800 342.220,139.145 342.400,139.567 342.400 C 139.988 342.400,140.393 342.535,140.467 342.700 C 140.753 343.344,154.585 350.185,156.167 350.464 C 156.773 350.572,157.119 350.126,157.816 348.346 C 164.520 331.213,189.841 338.659,185.205 356.400 C 184.202 360.238,184.207 360.400,185.331 360.400 C 185.893 360.400,186.464 360.580,186.600 360.800 C 186.736 361.020,187.431 361.200,188.144 361.200 C 188.857 361.200,189.611 361.362,189.820 361.559 C 190.029 361.756,190.920 362.015,191.800 362.133 C 192.680 362.251,194.300 362.553,195.400 362.803 C 196.500 363.053,198.210 363.344,199.200 363.450 C 200.190 363.555,201.360 363.801,201.800 363.995 C 202.240 364.189,203.680 364.460,205.000 364.598 C 206.320 364.736,208.750 365.013,210.400 365.214 C 228.945 367.469,250.087 366.878,268.200 363.597 C 269.520 363.358,271.410 363.063,272.400 362.942 C 273.390 362.821,274.371 362.560,274.580 362.361 C 274.789 362.163,275.633 362.000,276.456 362.000 C 277.279 362.000,278.064 361.820,278.200 361.600 C 278.336 361.380,279.056 361.200,279.800 361.200 C 280.544 361.200,281.264 361.020,281.400 360.800 C 281.536 360.580,282.256 360.400,283.000 360.400 C 283.744 360.400,284.464 360.220,284.600 360.000 C 284.736 359.780,285.366 359.600,286.000 359.600 C 286.634 359.600,287.264 359.420,287.400 359.200 C 287.536 358.980,288.089 358.800,288.629 358.800 C 289.169 358.800,289.923 358.640,290.305 358.445 C 290.687 358.249,292.794 357.511,294.986 356.804 C 297.178 356.097,299.190 355.222,299.457 354.859 C 300.133 353.943,300.124 155.149,299.448 154.706 C 299.202 154.544,263.612 154.409,220.361 154.406 L 141.721 154.400 138.093 157.346 M226.698 176.667 C 231.268 179.290,230.568 188.188,225.679 189.611 C 224.662 189.907,214.186 190.004,192.122 189.921 L 160.044 189.800 158.663 188.461 C 155.495 185.391,155.888 178.877,159.368 176.754 C 161.169 175.656,224.792 175.574,226.698 176.667 M177.667 209.313 C 187.313 214.050,188.425 227.439,179.698 233.773 C 173.744 238.094,164.870 236.870,160.308 231.098 C 158.017 228.199,157.200 225.880,157.200 222.276 C 157.200 211.639,168.207 204.668,177.667 209.313 M220.282 208.865 C 226.794 211.301,231.249 221.100,228.500 226.938 C 228.225 227.522,227.775 228.480,227.500 229.068 C 222.710 239.296,205.694 238.251,201.665 227.482 C 197.267 215.727,208.527 204.467,220.282 208.865 M264.554 209.146 C 278.377 215.676,273.698 236.227,258.400 236.180 C 244.001 236.136,238.868 218.081,250.969 210.042 C 254.441 207.735,260.694 207.323,264.554 209.146 M219.600 252.080 C 229.097 255.034,232.321 267.670,225.541 275.372 C 221.840 279.577,214.043 281.212,209.088 278.823 C 192.841 270.987,202.378 246.725,219.600 252.080 M263.200 252.086 C 270.433 254.308,274.690 263.319,271.957 270.622 C 267.693 282.018,251.632 283.201,245.933 272.539 C 239.740 260.952,250.515 248.188,263.200 252.086 M177.343 252.776 C 191.236 259.423,186.757 279.761,171.400 279.761 C 155.468 279.761,151.665 257.891,166.600 252.156 C 169.173 251.168,174.642 251.484,177.343 252.776 M174.600 295.344 C 189.951 299.444,189.085 320.630,173.456 323.308 C 165.061 324.745,157.200 317.946,157.200 309.246 C 157.200 299.976,165.905 293.021,174.600 295.344 M218.200 295.344 C 235.967 300.090,230.484 326.250,212.363 323.194 C 201.838 321.418,197.200 308.888,203.845 300.177 C 206.944 296.114,213.199 294.008,218.200 295.344 M261.800 295.342 C 275.026 298.867,276.720 316.320,264.400 322.142 C 252.673 327.683,240.325 315.541,245.403 303.462 C 248.006 297.269,255.362 293.627,261.800 295.342 " stroke="none" fill="#eaeff6" fill-rule="evenodd"></path></g></svg>