<svg id="svg" version="1.1" xmlns="http://www.w3.org/2000/svg" xmlns:xlink="http://www.w3.org/1999/xlink" width="400" height="400" viewBox="0, 0, 400,400"><g id="svgg"><path id="path0" d="M76.586 107.400 C 76.586 118.400,76.637 122.842,76.700 117.272 C 76.763 111.702,76.762 102.702,76.700 97.272 C 76.637 91.842,76.585 96.400,76.586 107.400 M88.090 107.276 C 88.041 118.208,88.135 127.236,88.300 127.338 C 88.573 127.507,88.567 112.317,88.289 94.400 C 88.229 90.550,88.140 96.344,88.090 107.276 M199.290 107.276 C 199.241 118.208,199.335 127.236,199.500 127.338 C 199.773 127.507,199.767 112.317,199.489 94.400 C 199.429 90.550,199.340 96.344,199.290 107.276 M339.600 101.600 C 339.600 101.820,339.375 102.000,339.100 102.000 C 338.238 102.001,336.400 103.855,336.400 104.723 C 336.400 105.179,336.211 105.669,335.981 105.812 C 335.750 105.954,335.601 107.037,335.649 108.217 C 335.696 109.398,335.885 110.271,336.068 110.158 C 336.250 110.045,336.400 110.332,336.400 110.795 C 336.400 111.774,338.080 113.600,338.982 113.600 C 339.322 113.600,339.600 113.780,339.600 114.000 C 339.600 114.233,340.920 114.400,342.760 114.400 C 346.128 114.400,348.800 112.800,348.800 110.784 C 348.800 110.379,348.980 109.936,349.200 109.800 C 349.420 109.664,349.600 108.753,349.600 107.776 C 349.600 106.799,349.420 106.000,349.200 106.000 C 348.980 106.000,348.800 105.580,348.800 105.066 C 348.800 104.157,346.833 102.000,346.003 102.000 C 345.782 102.000,345.600 101.820,345.600 101.600 C 345.600 101.369,344.333 101.200,342.600 101.200 C 340.867 101.200,339.600 101.369,339.600 101.600 M301.766 131.683 C 299.904 132.980,299.216 135.016,298.920 140.100 L 298.739 143.200 294.970 143.200 C 292.723 143.200,291.200 143.362,291.200 143.600 C 291.200 143.820,290.763 144.000,290.229 144.000 C 289.673 144.000,288.926 144.422,288.482 144.986 C 288.055 145.529,287.592 145.859,287.453 145.720 C 287.314 145.581,287.200 145.846,287.200 146.310 C 287.200 146.773,287.020 147.264,286.800 147.400 C 286.580 147.536,286.400 148.987,286.400 150.624 C 286.400 152.341,286.569 153.600,286.800 153.600 C 287.020 153.600,287.200 153.793,287.200 154.029 C 287.200 155.906,291.077 157.363,295.700 157.224 L 298.800 157.131 298.800 160.765 C 298.800 162.922,298.963 164.400,299.200 164.400 C 299.420 164.400,299.600 164.940,299.600 165.600 C 299.600 166.260,299.780 166.800,300.000 166.800 C 300.220 166.800,300.400 167.145,300.400 167.566 C 300.400 168.033,300.869 168.541,301.600 168.864 C 302.260 169.156,302.800 169.531,302.800 169.698 C 302.800 169.864,304.150 170.000,305.800 170.000 C 307.533 170.000,308.800 169.831,308.800 169.600 C 308.800 169.380,309.083 169.200,309.429 169.200 C 311.435 169.200,312.800 165.942,312.800 161.154 L 312.800 157.132 316.100 157.206 C 317.915 157.247,319.490 157.247,319.600 157.207 C 319.710 157.167,320.340 157.048,321.000 156.943 C 321.660 156.837,322.260 156.582,322.333 156.375 C 322.407 156.169,322.694 156.000,322.971 156.000 C 323.865 156.000,324.862 154.507,325.087 152.831 C 325.207 151.934,325.462 151.200,325.653 151.200 C 326.134 151.200,326.090 149.703,325.600 149.400 C 325.380 149.264,325.200 148.567,325.200 147.851 C 325.200 145.066,321.575 143.215,316.100 143.206 L 312.800 143.200 312.800 139.224 C 312.800 137.004,312.623 135.138,312.400 135.000 C 312.180 134.864,312.000 134.487,312.000 134.163 C 312.000 131.324,304.789 129.576,301.766 131.683 M73.300 139.097 C 74.785 139.174,77.215 139.174,78.700 139.097 C 80.185 139.020,78.970 138.957,76.000 138.957 C 73.030 138.957,71.815 139.020,73.300 139.097 M86.082 139.096 C 87.558 139.173,90.078 139.173,91.682 139.097 C 93.287 139.021,92.080 138.958,89.000 138.958 C 85.920 138.957,84.607 139.019,86.082 139.096 M184.082 139.096 C 185.558 139.173,188.078 139.173,189.682 139.097 C 191.287 139.021,190.080 138.958,187.000 138.958 C 183.920 138.957,182.607 139.019,184.082 139.096 M197.282 139.096 C 198.758 139.173,201.278 139.173,202.882 139.097 C 204.487 139.021,203.280 138.958,200.200 138.958 C 197.120 138.957,195.807 139.019,197.282 139.096 M261.684 220.615 C 261.237 221.122,254.458 221.200,210.559 221.200 L 159.950 221.200 157.397 222.431 C 154.621 223.770,152.198 226.106,150.728 228.860 L 149.800 230.600 149.688 254.582 C 149.585 276.592,149.519 278.629,148.888 279.351 C 148.510 279.783,148.428 280.004,148.706 279.842 C 149.111 279.604,149.208 284.413,149.194 304.109 C 149.184 317.619,149.271 328.926,149.386 329.236 C 149.502 329.546,149.642 343.120,149.698 359.400 L 149.800 389.000 150.741 390.800 C 152.889 394.912,157.325 398.400,160.406 398.400 C 161.031 398.400,161.813 398.670,162.143 399.000 C 162.804 399.661,390.000 399.948,390.000 399.287 C 390.000 399.115,390.495 398.934,391.100 398.884 C 391.705 398.834,392.260 398.615,392.333 398.397 C 392.407 398.178,392.701 398.000,392.987 398.000 C 393.720 398.000,398.800 392.987,398.800 392.264 C 398.800 391.935,399.025 391.592,399.300 391.500 C 400.127 391.225,400.228 229.808,399.403 228.548 C 399.071 228.042,398.800 227.422,398.800 227.171 C 398.800 226.598,394.569 222.400,393.992 222.400 C 393.758 222.400,393.180 222.040,392.708 221.600 C 392.236 221.160,391.354 220.800,390.748 220.800 C 390.143 220.800,389.536 220.620,389.400 220.400 C 388.956 219.682,262.319 219.895,261.684 220.615 M78.999 349.300 L 29.400 399.000 79.100 349.401 C 106.435 322.121,128.800 299.756,128.800 299.701 C 128.800 299.421,125.112 303.094,78.999 349.300 " stroke="none" fill="#fbc57c" fill-rule="evenodd"></path><path id="path1" d="M38.800 86.800 C 38.800 87.020,38.001 87.200,37.024 87.200 C 36.047 87.200,35.136 87.380,35.000 87.600 C 34.864 87.820,34.403 88.000,33.976 88.000 C 33.549 88.000,33.200 88.180,33.200 88.400 C 33.200 88.620,32.880 88.800,32.488 88.800 C 32.097 88.800,31.517 89.160,31.200 89.600 C 30.883 90.040,30.404 90.400,30.136 90.400 C 29.675 90.400,26.219 94.198,26.183 94.744 C 26.174 94.885,25.859 95.576,25.483 96.280 C 25.107 96.984,24.800 98.019,24.800 98.580 C 24.800 99.141,24.620 99.600,24.400 99.600 C 24.163 99.600,24.000 101.067,24.000 103.200 C 24.000 105.333,23.837 106.800,23.600 106.800 C 23.358 106.800,23.200 108.533,23.200 111.200 C 23.200 113.867,23.042 115.600,22.800 115.600 C 22.557 115.600,22.400 117.400,22.400 120.200 C 22.400 123.000,22.243 124.800,22.000 124.800 C 21.759 124.800,21.600 126.467,21.600 129.000 C 21.600 131.533,21.441 133.200,21.200 133.200 C 20.958 133.200,20.800 134.925,20.800 137.576 C 20.800 140.063,20.627 142.060,20.400 142.200 C 20.173 142.340,20.000 144.337,20.000 146.824 C 20.000 149.475,19.842 151.200,19.600 151.200 C 19.358 151.200,19.200 152.933,19.200 155.600 C 19.200 158.267,19.042 160.000,18.800 160.000 C 18.558 160.000,18.400 161.725,18.400 164.376 C 18.400 166.863,18.227 168.860,18.000 169.000 C 17.775 169.139,17.600 171.063,17.600 173.400 C 17.600 175.737,17.425 177.661,17.200 177.800 C 16.975 177.939,16.800 179.871,16.800 182.224 C 16.800 184.741,16.641 186.400,16.400 186.400 C 16.158 186.400,16.000 188.125,16.000 190.776 C 16.000 193.263,15.827 195.260,15.600 195.400 C 15.373 195.540,15.200 197.537,15.200 200.024 C 15.200 202.675,15.042 204.400,14.800 204.400 C 14.559 204.400,14.400 206.040,14.400 208.520 C 14.400 210.786,14.231 212.811,14.025 213.020 C 13.819 213.229,13.549 215.335,13.425 217.700 C 13.301 220.065,13.099 223.935,12.975 226.300 C 12.851 228.665,12.581 230.771,12.375 230.980 C 12.169 231.189,12.000 233.178,12.000 235.400 C 12.000 237.622,11.831 239.611,11.625 239.820 C 11.419 240.029,11.149 242.135,11.025 244.500 C 10.901 246.865,10.698 250.731,10.572 253.092 C 10.447 255.453,10.198 257.568,10.017 257.792 C 9.837 258.016,9.662 259.895,9.628 261.966 C 9.594 264.037,9.450 265.919,9.309 266.147 C 9.168 266.375,9.009 267.650,8.955 268.981 C 8.519 279.738,8.231 284.000,7.940 284.000 C 7.753 284.000,7.600 285.980,7.600 288.400 C 7.600 291.067,7.442 292.800,7.200 292.800 C 6.959 292.800,6.800 294.459,6.800 296.976 C 6.800 299.329,6.625 301.261,6.400 301.400 C 6.173 301.540,6.000 303.530,6.000 306.000 C 6.000 308.470,5.827 310.460,5.600 310.600 C 5.375 310.739,5.200 312.671,5.200 315.024 C 5.200 317.541,5.041 319.200,4.800 319.200 C 4.558 319.200,4.400 320.925,4.400 323.576 C 4.400 326.063,4.227 328.060,4.000 328.200 C 3.773 328.340,3.600 330.337,3.600 332.824 C 3.600 335.475,3.442 337.200,3.200 337.200 C 2.959 337.200,2.800 338.859,2.800 341.376 C 2.800 343.729,2.625 345.661,2.400 345.800 C 2.173 345.940,2.000 347.930,2.000 350.400 C 2.000 352.870,1.827 354.860,1.600 355.000 C 1.375 355.139,1.200 357.060,1.200 359.390 C 1.200 361.942,1.038 363.587,0.778 363.674 C 0.495 363.768,0.330 368.001,0.278 376.439 C 0.196 389.771,0.264 390.359,2.097 392.047 C 2.484 392.403,2.800 392.904,2.800 393.160 C 2.800 393.799,5.448 396.400,6.098 396.400 C 6.387 396.400,6.883 396.760,7.200 397.200 C 7.517 397.640,8.097 398.000,8.488 398.000 C 8.880 398.000,9.200 398.180,9.200 398.400 C 9.200 398.620,9.639 398.800,10.176 398.800 C 10.713 398.800,11.264 398.980,11.400 399.200 C 11.801 399.849,28.800 399.733,28.800 399.082 C 28.800 398.797,55.755 371.662,88.700 338.782 L 148.600 279.000 148.800 255.200 L 149.000 231.400 150.276 228.800 C 151.833 225.625,153.835 223.623,157.000 222.074 C 161.475 219.883,160.939 219.902,213.400 220.057 L 261.800 220.200 261.922 218.300 C 261.995 217.157,261.876 216.400,261.622 216.400 C 261.352 216.400,261.200 214.819,261.200 212.000 C 261.200 209.333,261.042 207.600,260.800 207.600 C 260.558 207.600,260.400 205.867,260.400 203.200 C 260.400 200.533,260.242 198.800,260.000 198.800 C 259.758 198.800,259.600 197.075,259.600 194.424 C 259.600 192.017,259.444 189.951,259.253 189.833 C 259.063 189.715,258.775 185.879,258.614 181.309 C 258.453 176.739,258.172 172.816,257.988 172.592 C 257.805 172.368,257.558 170.298,257.440 167.992 C 257.322 165.686,257.034 161.730,256.800 159.200 C 256.566 156.670,256.280 152.710,256.163 150.400 C 256.045 148.090,255.781 146.029,255.575 145.820 C 255.369 145.611,255.200 143.597,255.200 141.344 C 255.200 139.044,255.025 137.139,254.800 137.000 C 254.573 136.860,254.400 134.863,254.400 132.376 C 254.400 129.725,254.242 128.000,254.000 128.000 C 253.758 128.000,253.600 126.267,253.600 123.600 C 253.600 120.933,253.442 119.200,253.200 119.200 C 252.958 119.200,252.800 117.475,252.800 114.824 C 252.800 112.337,252.627 110.340,252.400 110.200 C 252.177 110.062,252.000 108.204,252.000 106.000 C 252.000 103.796,251.823 101.938,251.600 101.800 C 251.380 101.664,251.200 100.753,251.200 99.776 C 251.200 98.799,251.020 98.000,250.800 98.000 C 250.580 98.000,250.400 97.584,250.400 97.075 C 250.400 96.567,250.040 95.764,249.600 95.292 C 249.160 94.820,248.800 94.196,248.800 93.905 C 248.800 93.614,248.414 93.112,247.942 92.788 C 247.470 92.465,246.486 91.615,245.755 90.900 C 245.025 90.185,244.190 89.600,243.902 89.600 C 243.613 89.600,243.117 89.240,242.800 88.800 C 242.483 88.360,241.813 88.000,241.312 88.000 C 240.810 88.000,240.400 87.820,240.400 87.600 C 240.400 87.380,239.680 87.200,238.800 87.200 C 237.920 87.200,237.200 87.020,237.200 86.800 C 237.200 86.539,230.800 86.400,218.800 86.400 L 200.400 86.400 200.400 106.800 L 200.400 127.200 203.605 127.200 C 205.428 127.200,207.195 127.416,207.701 127.700 C 208.981 128.419,210.399 130.088,210.400 130.876 C 210.400 131.248,210.580 131.664,210.800 131.800 C 211.020 131.936,211.200 132.656,211.200 133.400 C 211.200 134.144,211.020 134.864,210.800 135.000 C 210.580 135.136,210.400 135.511,210.400 135.834 C 210.400 136.853,208.044 139.060,206.444 139.539 C 204.051 140.257,182.101 140.169,180.349 139.435 C 176.104 137.658,174.758 131.405,178.080 128.896 C 178.455 128.613,179.027 128.116,179.352 127.791 C 179.786 127.357,180.904 127.200,183.571 127.200 L 187.200 127.200 187.200 106.800 L 187.200 86.400 138.443 86.400 C 94.352 86.400,89.662 86.461,89.443 87.033 C 89.309 87.381,89.200 96.561,89.200 107.433 L 89.200 127.200 92.709 127.200 C 100.693 127.200,103.228 135.854,96.211 139.153 C 93.301 140.520,71.387 140.454,68.763 139.070 C 62.251 135.635,64.791 127.200,72.338 127.200 L 75.600 127.200 75.600 106.800 L 75.600 86.400 57.200 86.400 C 45.200 86.400,38.800 86.539,38.800 86.800 M113.747 364.417 C 94.856 383.347,79.340 399.007,79.267 399.217 C 79.182 399.459,93.989 399.600,119.567 399.600 C 158.907 399.600,162.456 399.492,158.462 398.417 C 155.620 397.651,152.048 394.572,150.624 391.658 C 150.232 390.856,149.706 389.840,149.456 389.400 C 149.129 388.827,148.967 380.289,148.883 359.300 C 148.819 343.185,148.615 330.000,148.430 330.000 C 148.245 330.000,132.638 345.488,113.747 364.417 " stroke="none" fill="#fc4151" fill-rule="evenodd"></path><path id="path2" d="M128.600 0.800 C 128.464 1.020,127.478 1.200,126.410 1.200 C 125.341 1.200,124.407 1.371,124.333 1.580 C 124.260 1.789,123.435 2.004,122.500 2.058 C 121.565 2.112,120.800 2.301,120.800 2.478 C 120.800 2.655,120.260 2.800,119.600 2.800 C 118.940 2.800,118.400 2.980,118.400 3.200 C 118.400 3.420,117.961 3.600,117.424 3.600 C 116.887 3.600,116.336 3.780,116.200 4.000 C 116.064 4.220,115.513 4.400,114.976 4.400 C 114.439 4.400,114.000 4.580,114.000 4.800 C 114.000 5.020,113.539 5.200,112.976 5.200 C 112.396 5.200,112.060 5.373,112.200 5.600 C 112.340 5.827,112.004 6.000,111.424 6.000 C 110.861 6.000,110.400 6.180,110.400 6.400 C 110.400 6.620,110.130 6.800,109.800 6.800 C 109.470 6.800,109.200 6.980,109.200 7.200 C 109.200 7.420,108.840 7.600,108.400 7.600 C 107.960 7.600,107.600 7.780,107.600 8.000 C 107.600 8.220,107.251 8.400,106.824 8.400 C 106.397 8.400,105.939 8.575,105.807 8.789 C 105.674 9.003,104.944 9.474,104.183 9.835 C 103.422 10.196,102.800 10.651,102.800 10.846 C 102.800 11.041,102.557 11.200,102.259 11.200 C 101.962 11.200,101.154 11.740,100.463 12.400 C 99.772 13.060,99.050 13.600,98.858 13.600 C 98.177 13.600,88.800 23.376,88.800 24.087 C 88.800 24.279,88.395 24.856,87.900 25.368 C 86.389 26.932,85.755 27.802,85.180 29.100 C 84.878 29.783,84.488 30.255,84.315 30.148 C 84.142 30.040,84.000 30.323,84.000 30.776 C 84.000 31.229,83.820 31.600,83.600 31.600 C 83.380 31.600,83.200 31.960,83.200 32.400 C 83.200 32.840,83.020 33.200,82.800 33.200 C 82.580 33.200,82.400 33.560,82.400 34.000 C 82.400 34.440,82.220 34.800,82.000 34.800 C 81.780 34.800,81.600 35.160,81.600 35.600 C 81.600 36.040,81.420 36.400,81.200 36.400 C 80.980 36.400,80.800 36.760,80.800 37.200 C 80.800 37.640,80.653 38.000,80.472 38.000 C 80.292 38.000,79.900 38.900,79.600 40.000 C 79.300 41.100,78.908 42.000,78.728 42.000 C 78.547 42.000,78.400 42.630,78.400 43.400 C 78.400 44.170,78.240 44.800,78.044 44.800 C 77.848 44.800,77.585 45.385,77.460 46.100 C 77.336 46.815,77.034 48.390,76.790 49.600 C 75.196 57.513,74.580 85.380,75.969 86.769 C 76.801 87.601,76.807 87.766,76.704 107.504 L 76.600 127.400 73.400 127.623 C 67.096 128.061,64.460 131.412,66.804 136.008 C 68.233 138.808,68.445 138.846,82.809 138.842 C 96.922 138.838,96.752 138.866,98.393 136.211 C 101.081 131.862,97.818 127.738,91.515 127.516 L 88.200 127.400 88.096 107.504 C 87.995 88.114,88.013 87.587,88.787 86.813 C 89.547 86.053,89.589 85.337,89.740 70.509 C 89.891 55.639,90.098 51.888,90.819 50.990 C 91.000 50.765,91.273 49.640,91.426 48.490 C 91.578 47.341,91.860 46.400,92.052 46.400 C 92.243 46.400,92.400 45.860,92.400 45.200 C 92.400 44.540,92.580 44.000,92.800 44.000 C 93.020 44.000,93.200 43.640,93.200 43.200 C 93.200 42.760,93.380 42.400,93.600 42.400 C 93.820 42.400,94.000 42.040,94.000 41.600 C 94.000 41.160,94.180 40.800,94.400 40.800 C 94.620 40.800,94.800 40.429,94.800 39.976 C 94.800 39.523,94.980 39.264,95.200 39.400 C 95.420 39.536,95.600 39.277,95.600 38.824 C 95.600 38.371,95.780 38.000,96.000 38.000 C 96.220 38.000,96.400 37.764,96.400 37.475 C 96.400 37.187,96.760 36.564,97.200 36.092 C 97.640 35.620,98.000 35.046,98.000 34.817 C 98.000 34.588,98.180 34.400,98.400 34.400 C 98.620 34.400,98.800 34.194,98.800 33.943 C 98.800 33.692,99.338 32.972,99.996 32.343 C 100.654 31.714,101.104 31.200,100.996 31.200 C 100.888 31.200,101.115 30.877,101.500 30.483 C 101.885 30.088,102.558 29.278,102.995 28.683 C 103.432 28.087,103.940 27.600,104.124 27.600 C 104.307 27.600,104.727 27.330,105.057 27.000 C 105.387 26.670,105.519 26.400,105.351 26.400 C 105.183 26.400,106.385 25.462,108.023 24.315 C 109.660 23.168,111.060 22.088,111.133 21.915 C 111.207 21.742,111.451 21.600,111.675 21.600 C 111.900 21.600,112.884 21.060,113.862 20.400 C 114.840 19.740,115.901 19.200,116.220 19.200 C 116.539 19.200,116.800 19.020,116.800 18.800 C 116.800 18.580,117.160 18.400,117.600 18.400 C 118.040 18.400,118.400 18.220,118.400 18.000 C 118.400 17.780,118.839 17.600,119.376 17.600 C 119.913 17.600,120.464 17.420,120.600 17.200 C 120.736 16.980,121.197 16.800,121.624 16.800 C 122.051 16.800,122.400 16.620,122.400 16.400 C 122.400 16.180,122.929 16.000,123.576 16.000 C 124.223 16.000,124.864 15.820,125.000 15.600 C 125.136 15.380,125.856 15.200,126.600 15.200 C 127.344 15.200,128.064 15.020,128.200 14.800 C 128.336 14.580,129.326 14.400,130.400 14.400 C 131.474 14.400,132.464 14.220,132.600 14.000 C 132.744 13.767,135.004 13.600,138.024 13.600 C 141.208 13.600,143.200 13.754,143.200 14.000 C 143.200 14.222,144.267 14.400,145.600 14.400 C 146.933 14.400,148.000 14.578,148.000 14.800 C 148.000 15.020,148.720 15.200,149.600 15.200 C 150.480 15.200,151.200 15.380,151.200 15.600 C 151.200 15.820,151.740 16.000,152.400 16.000 C 153.060 16.000,153.600 16.147,153.600 16.328 C 153.600 16.508,154.500 16.900,155.600 17.200 C 156.700 17.500,157.600 17.892,157.600 18.072 C 157.600 18.253,157.960 18.400,158.400 18.400 C 158.840 18.400,159.200 18.536,159.200 18.702 C 159.200 18.869,159.785 19.259,160.500 19.570 C 161.215 19.881,161.890 20.249,162.000 20.387 C 162.110 20.525,163.042 21.125,164.072 21.719 C 165.101 22.314,166.185 23.042,166.481 23.338 C 166.776 23.633,167.796 24.366,168.746 24.966 C 170.392 26.005,174.800 30.120,174.800 30.618 C 174.800 30.943,176.931 33.769,177.300 33.933 C 177.465 34.007,177.600 34.288,177.600 34.558 C 177.600 34.828,177.915 35.406,178.300 35.842 C 179.188 36.847,180.383 38.791,180.671 39.700 C 180.793 40.085,181.052 40.400,181.247 40.400 C 181.441 40.400,181.600 40.670,181.600 41.000 C 181.600 41.330,181.780 41.600,182.000 41.600 C 182.220 41.600,182.400 42.050,182.400 42.600 C 182.400 43.150,182.580 43.600,182.800 43.600 C 183.020 43.600,183.200 44.050,183.200 44.600 C 183.200 45.150,183.380 45.600,183.600 45.600 C 183.820 45.600,184.000 46.140,184.000 46.800 C 184.000 47.460,184.180 48.000,184.400 48.000 C 184.620 48.000,184.800 48.529,184.800 49.176 C 184.800 49.823,184.980 50.464,185.200 50.600 C 185.420 50.736,185.600 51.657,185.600 52.647 C 185.600 53.745,185.756 54.351,186.000 54.200 C 186.255 54.043,186.418 55.341,186.450 57.776 C 186.506 62.051,186.504 62.030,186.891 62.638 C 187.045 62.879,187.296 77.594,187.450 95.338 L 187.730 127.600 184.488 127.600 C 182.706 127.600,181.136 127.780,181.000 128.000 C 180.864 128.220,180.481 128.400,180.148 128.400 C 178.009 128.400,176.299 132.704,177.395 135.327 C 178.867 138.849,180.124 139.039,200.700 138.855 L 206.800 138.800 208.400 137.200 C 212.578 133.022,209.325 127.769,202.400 127.512 L 199.400 127.400 199.296 107.673 C 199.206 90.615,199.274 87.829,199.796 87.084 C 200.526 86.041,200.721 55.845,200.000 55.400 C 199.780 55.264,199.600 54.083,199.600 52.776 C 199.600 51.459,199.422 50.400,199.200 50.400 C 198.980 50.400,198.800 49.601,198.800 48.624 C 198.800 47.647,198.620 46.736,198.400 46.600 C 198.180 46.464,198.000 45.823,198.000 45.176 C 198.000 44.529,197.820 44.000,197.600 44.000 C 197.380 44.000,197.200 43.561,197.200 43.024 C 197.200 42.487,197.020 41.936,196.800 41.800 C 196.580 41.664,196.400 41.113,196.400 40.576 C 196.400 40.039,196.220 39.600,196.000 39.600 C 195.780 39.600,195.600 39.150,195.600 38.600 C 195.600 38.050,195.420 37.600,195.200 37.600 C 194.980 37.600,194.800 37.347,194.800 37.038 C 194.800 36.372,193.132 33.059,192.700 32.867 C 192.535 32.793,192.400 32.461,192.400 32.128 C 192.400 31.796,192.085 31.045,191.700 30.460 C 190.511 28.654,190.006 27.824,189.717 27.201 C 189.564 26.872,189.070 26.205,188.619 25.720 C 187.261 24.258,186.756 23.600,186.994 23.600 C 187.118 23.600,184.972 21.350,182.224 18.600 C 179.476 15.850,177.041 13.600,176.814 13.600 C 176.586 13.600,176.400 13.420,176.400 13.200 C 176.400 12.980,176.239 12.800,176.042 12.800 C 175.846 12.800,175.155 12.305,174.507 11.700 C 173.859 11.095,172.265 10.060,170.964 9.400 C 169.664 8.740,168.540 8.065,168.467 7.900 C 168.393 7.735,167.988 7.600,167.567 7.600 C 167.145 7.600,166.800 7.420,166.800 7.200 C 166.800 6.980,166.440 6.800,166.000 6.800 C 165.560 6.800,165.200 6.620,165.200 6.400 C 165.200 6.180,164.840 6.000,164.400 6.000 C 163.960 6.000,163.600 5.820,163.600 5.600 C 163.600 5.380,163.251 5.200,162.824 5.200 C 162.397 5.200,161.936 5.020,161.800 4.800 C 161.664 4.580,161.113 4.400,160.576 4.400 C 160.039 4.400,159.600 4.220,159.600 4.000 C 159.600 3.780,159.161 3.600,158.624 3.600 C 158.087 3.600,157.536 3.420,157.400 3.200 C 157.264 2.980,156.724 2.800,156.200 2.800 C 155.676 2.800,155.136 2.620,155.000 2.400 C 154.864 2.180,154.033 2.000,153.153 2.000 C 152.188 2.000,151.651 1.841,151.800 1.600 C 151.954 1.350,151.137 1.200,149.624 1.200 C 148.275 1.200,147.200 1.023,147.200 0.800 C 147.200 0.545,143.875 0.400,138.024 0.400 C 132.337 0.400,128.753 0.552,128.600 0.800 M89.400 339.141 C 56.620 371.999,29.740 399.044,29.667 399.241 C 29.589 399.451,39.695 399.600,53.933 399.600 C 70.612 399.600,78.378 399.467,78.473 399.180 C 78.550 398.949,94.497 382.881,113.910 363.472 L 149.206 328.184 149.103 303.792 L 149.000 279.400 89.400 339.141 " stroke="none" fill="#d4e4e9" fill-rule="evenodd"></path><path id="path3" d="M88.583 87.300 C 88.478 87.575,88.439 96.710,88.496 107.600 L 88.600 127.400 92.000 127.600 C 98.760 127.998,101.707 132.931,97.699 137.144 C 95.728 139.216,95.173 139.282,81.200 139.127 C 68.539 138.986,68.095 138.890,66.594 135.988 C 64.343 131.636,67.216 127.976,73.200 127.569 L 76.600 127.338 73.295 127.269 C 69.284 127.185,67.505 128.019,66.159 130.613 C 64.424 133.958,66.785 138.776,70.447 139.361 C 72.640 139.712,92.586 139.708,94.785 139.356 C 98.068 138.831,100.467 135.123,99.586 131.934 C 98.645 128.528,96.498 127.200,91.931 127.200 L 88.786 127.200 88.893 107.000 C 88.952 95.890,88.949 86.800,88.887 86.800 C 88.826 86.800,88.689 87.025,88.583 87.300 M199.783 87.300 C 199.678 87.575,199.639 96.710,199.696 107.600 L 199.800 127.400 202.800 127.512 C 207.345 127.681,209.780 129.264,210.022 132.209 C 210.554 138.666,208.954 139.302,192.600 139.128 C 179.086 138.984,178.722 138.902,177.391 135.718 C 175.476 131.134,178.064 127.946,183.979 127.600 L 187.400 127.400 187.406 107.300 L 187.411 87.200 187.302 107.200 L 187.193 127.200 184.055 127.200 C 176.720 127.200,173.627 134.128,179.099 138.303 C 181.590 140.203,205.235 140.374,207.847 138.510 C 213.557 134.438,210.463 127.200,203.013 127.200 L 199.986 127.200 200.093 107.000 C 200.152 95.890,200.149 86.800,200.087 86.800 C 200.026 86.800,199.889 87.025,199.783 87.300 M294.500 157.491 C 295.325 157.578,296.675 157.578,297.500 157.491 C 298.325 157.405,297.650 157.334,296.000 157.334 C 294.350 157.334,293.675 157.405,294.500 157.491 M314.100 157.491 C 314.925 157.578,316.275 157.578,317.100 157.491 C 317.925 157.405,317.250 157.334,315.600 157.334 C 313.950 157.334,313.275 157.405,314.100 157.491 M261.269 220.357 C 260.990 220.530,239.036 220.595,212.481 220.502 C 182.396 220.397,163.371 220.479,162.000 220.720 C 160.524 220.979,176.461 221.120,210.400 221.147 C 256.611 221.184,262.809 221.076,261.977 220.243 C 261.867 220.133,261.549 220.185,261.269 220.357 M154.554 223.691 C 153.919 224.182,153.186 224.787,152.925 225.037 C 152.199 225.733,150.000 229.302,150.004 229.778 C 150.006 230.010,150.536 229.279,151.181 228.154 C 151.826 227.029,153.200 225.364,154.234 224.454 C 156.254 222.676,156.439 222.235,154.554 223.691 M149.443 231.033 C 149.309 231.381,149.200 242.226,149.200 255.133 L 149.200 278.601 89.200 338.600 C 56.200 371.599,29.214 398.869,29.232 399.199 C 29.260 399.733,29.287 399.733,29.475 399.200 C 29.591 398.870,56.663 371.600,89.635 338.600 L 149.583 278.600 149.692 254.500 C 149.751 241.245,149.774 230.400,149.743 230.400 C 149.711 230.400,149.576 230.685,149.443 231.033 M113.599 363.899 L 78.600 398.998 113.800 363.999 L 149.000 329.000 149.200 359.000 L 149.400 389.000 150.483 391.205 C 151.079 392.418,152.235 394.038,153.053 394.805 L 154.540 396.200 153.111 394.400 C 152.324 393.410,151.258 391.790,150.741 390.800 L 149.800 389.000 149.600 359.033 C 149.470 339.557,149.260 329.020,148.999 328.933 C 148.779 328.860,132.849 344.594,113.599 363.899 M156.000 396.966 C 156.000 397.315,158.456 398.478,158.693 398.241 C 158.813 398.121,158.410 397.832,157.798 397.599 C 157.186 397.366,156.531 397.081,156.342 396.964 C 156.154 396.848,156.000 396.849,156.000 396.966 M160.143 399.000 C 160.793 399.650,162.400 399.823,162.400 399.243 C 162.400 398.805,161.409 398.400,160.339 398.400 C 159.631 398.400,159.610 398.467,160.143 399.000 " stroke="none" fill="#f57f74" fill-rule="evenodd"></path><path id="path4" d="M89.049 87.015 C 88.912 87.373,88.842 96.606,88.893 107.533 L 88.985 127.400 89.193 107.000 C 89.415 85.155,89.421 86.047,89.049 87.015 M75.600 107.176 C 75.600 120.259,75.739 127.200,76.000 127.200 C 76.261 127.200,76.400 120.341,76.400 107.424 C 76.400 94.671,76.258 87.559,76.000 87.400 C 75.735 87.236,75.600 93.929,75.600 107.176 M200.186 107.200 C 200.186 118.310,200.237 122.855,200.300 117.300 C 200.362 111.745,200.362 102.655,200.300 97.100 C 200.237 91.545,200.186 96.090,200.186 107.200 M98.045 128.981 C 98.400 129.431,98.890 130.160,99.133 130.600 C 99.377 131.040,99.581 131.178,99.588 130.906 C 99.595 130.635,99.105 129.906,98.500 129.287 C 97.895 128.668,97.690 128.530,98.045 128.981 M178.043 128.823 C 177.517 129.261,177.171 129.705,177.275 129.808 C 177.379 129.912,177.886 129.548,178.401 128.998 C 179.524 127.804,179.362 127.725,178.043 128.823 M208.824 129.100 C 209.354 129.705,209.926 130.371,210.094 130.580 C 210.287 130.820,210.400 130.820,210.400 130.580 C 210.399 130.088,208.606 128.000,208.184 128.000 C 208.006 128.000,208.294 128.495,208.824 129.100 M65.314 133.400 C 65.317 134.500,65.395 134.903,65.487 134.295 C 65.579 133.686,65.577 132.786,65.482 132.295 C 65.387 131.803,65.311 132.300,65.314 133.400 M99.733 133.434 C 99.733 135.068,99.792 135.225,100.078 134.366 C 100.271 133.787,100.271 132.921,100.078 132.399 C 99.805 131.662,99.733 131.879,99.733 133.434 M210.562 133.424 C 210.541 134.384,210.676 135.077,210.862 134.962 C 211.280 134.703,211.312 132.116,210.900 131.862 C 210.735 131.760,210.583 132.463,210.562 133.424 M66.134 136.641 C 66.478 137.323,67.263 138.202,67.880 138.594 C 68.924 139.258,68.905 139.201,67.601 137.753 C 66.832 136.899,66.046 136.020,65.855 135.800 C 65.665 135.580,65.790 135.958,66.134 136.641 M98.492 137.029 C 97.997 137.783,97.672 138.400,97.769 138.400 C 98.047 138.400,99.704 135.971,99.539 135.806 C 99.457 135.724,98.986 136.274,98.492 137.029 M177.200 136.984 C 177.200 137.406,179.288 139.199,179.780 139.200 C 180.020 139.200,180.020 139.087,179.780 138.894 C 179.571 138.726,178.905 138.154,178.300 137.624 C 177.695 137.094,177.200 136.806,177.200 136.984 M208.200 138.212 C 207.540 138.753,207.194 139.197,207.430 139.198 C 207.667 139.199,208.283 138.750,208.800 138.200 C 209.985 136.938,209.748 136.943,208.200 138.212 M69.890 139.663 C 70.281 139.818,73.210 139.932,76.400 139.917 C 79.590 139.903,81.840 139.833,81.400 139.762 C 79.695 139.488,69.220 139.398,69.890 139.663 M88.800 139.600 L 83.000 139.834 88.800 139.911 C 92.011 139.953,94.868 139.815,95.200 139.600 C 95.733 139.255,95.733 139.221,95.200 139.289 C 94.870 139.332,91.990 139.472,88.800 139.600 M180.938 139.694 C 181.192 139.856,184.010 139.964,187.200 139.934 C 193.952 139.871,193.269 139.675,185.738 139.513 C 182.843 139.451,180.683 139.532,180.938 139.694 M199.800 139.600 L 193.800 139.833 199.600 139.888 C 202.790 139.919,205.760 139.789,206.200 139.600 C 206.640 139.411,206.730 139.281,206.400 139.312 C 206.070 139.342,203.100 139.472,199.800 139.600 M182.930 220.300 C 193.672 220.359,211.132 220.359,221.730 220.300 C 232.329 220.241,223.540 220.192,202.200 220.192 C 180.860 220.192,172.189 220.241,182.930 220.300 M246.300 220.699 C 248.995 220.768,253.405 220.768,256.100 220.699 C 258.795 220.630,256.590 220.573,251.200 220.573 C 245.810 220.573,243.605 220.630,246.300 220.699 M148.800 256.280 C 148.690 268.864,148.737 279.024,148.903 278.857 C 149.070 278.690,149.160 268.394,149.103 255.977 L 149.000 233.400 148.800 256.280 M138.575 288.900 L 137.400 290.200 138.700 289.025 C 139.912 287.930,140.184 287.600,139.875 287.600 C 139.806 287.600,139.221 288.185,138.575 288.900 M79.250 348.150 C 47.077 380.324,28.780 398.901,28.919 399.250 C 29.092 399.687,29.143 399.677,29.168 399.201 C 29.186 398.871,51.925 375.876,79.699 348.101 C 107.474 320.325,130.109 297.600,129.999 297.600 C 129.889 297.600,107.052 320.348,79.250 348.150 M146.650 331.300 C 145.062 332.903,145.003 332.998,146.399 331.700 C 147.405 330.765,148.355 330.000,148.511 330.000 C 148.667 330.000,148.842 342.735,148.900 358.300 L 149.005 386.600 149.103 357.900 C 149.156 342.115,149.094 329.200,148.965 329.200 C 148.835 329.200,147.794 330.145,146.650 331.300 M106.016 371.784 C 90.956 386.845,78.717 399.220,78.817 399.284 C 78.918 399.348,91.329 387.025,106.397 371.900 C 121.465 356.775,133.704 344.400,133.596 344.400 C 133.487 344.400,121.076 356.723,106.016 371.784 " stroke="none" fill="#f46474" fill-rule="evenodd"></path></g></svg>