<svg id="svg" version="1.1" xmlns="http://www.w3.org/2000/svg" xmlns:xlink="http://www.w3.org/1999/xlink" width="400" height="400" viewBox="0, 0, 400,400"><g id="svgg"><path id="path0" d="M144.800 99.908 C 144.800 100.071,144.224 100.459,143.521 100.771 C 141.956 101.463,138.800 104.551,138.800 105.389 C 138.800 105.725,138.620 106.000,138.400 106.000 C 138.180 106.000,138.000 106.360,138.000 106.800 C 138.000 107.240,137.820 107.600,137.600 107.600 C 137.346 107.600,137.200 110.727,137.200 116.180 L 137.200 124.760 127.500 124.912 C 118.523 125.053,114.880 125.455,114.000 126.401 C 113.890 126.520,113.350 126.845,112.800 127.124 C 112.250 127.403,111.397 127.865,110.905 128.150 C 109.525 128.950,106.000 132.076,106.000 132.501 C 106.000 132.709,105.460 133.383,104.800 134.000 C 104.140 134.617,103.600 135.369,103.600 135.672 C 103.600 135.975,103.240 136.483,102.800 136.800 C 102.360 137.117,102.000 137.697,102.000 138.088 C 102.000 138.480,101.820 138.800,101.600 138.800 C 101.380 138.800,101.200 139.340,101.200 140.000 C 101.200 140.660,101.020 141.200,100.800 141.200 C 100.580 141.200,100.400 141.650,100.400 142.200 C 100.400 142.750,100.213 143.200,99.984 143.200 C 99.720 143.200,99.610 144.407,99.684 146.500 L 99.800 149.800 101.600 149.888 C 111.768 150.387,123.057 152.775,130.600 156.022 C 143.444 161.553,152.583 168.090,161.046 177.800 C 168.753 186.642,174.719 197.254,177.576 207.200 C 177.860 208.190,178.243 209.450,178.427 210.000 C 178.823 211.184,180.210 218.152,180.617 221.000 C 180.773 222.100,181.014 225.790,181.151 229.200 L 181.400 235.400 182.700 235.525 C 183.430 235.596,184.000 235.464,184.000 235.225 C 184.000 234.991,184.772 234.800,185.720 234.800 C 186.666 234.800,187.611 234.630,187.820 234.423 C 188.029 234.215,189.145 234.003,190.300 233.951 C 191.455 233.899,192.400 233.709,192.400 233.529 C 192.400 233.348,193.300 233.200,194.400 233.200 C 195.500 233.200,196.400 233.020,196.400 232.800 C 196.400 232.561,197.941 232.400,200.224 232.400 C 202.671 232.400,203.958 232.544,203.800 232.800 C 203.646 233.050,204.463 233.200,205.976 233.200 C 207.325 233.200,208.400 233.377,208.400 233.600 C 208.400 233.820,209.199 234.000,210.176 234.000 C 211.153 234.000,212.064 234.180,212.200 234.400 C 212.336 234.620,213.247 234.800,214.224 234.800 C 215.212 234.800,216.000 234.989,216.000 235.225 C 216.000 235.464,216.570 235.596,217.300 235.525 L 218.600 235.400 218.850 228.800 C 219.134 221.299,219.643 217.487,221.203 211.200 C 221.448 210.210,221.749 208.903,221.871 208.295 C 221.993 207.687,222.251 207.092,222.446 206.971 C 222.641 206.851,222.800 206.438,222.800 206.054 C 222.800 202.349,231.974 185.656,237.669 179.000 C 252.475 161.695,276.773 149.995,297.900 149.999 L 300.400 150.000 300.400 146.800 C 300.400 144.933,300.233 143.600,300.000 143.600 C 299.780 143.600,299.600 143.161,299.600 142.624 C 299.600 142.087,299.420 141.536,299.200 141.400 C 298.980 141.264,298.800 140.613,298.800 139.953 C 298.800 139.255,298.633 138.856,298.400 139.000 C 298.177 139.138,298.000 138.834,298.000 138.312 C 298.000 137.797,297.640 137.117,297.200 136.800 C 296.760 136.483,296.400 135.975,296.400 135.672 C 296.400 135.369,295.860 134.617,295.200 134.000 C 294.540 133.383,294.000 132.671,294.000 132.416 C 294.000 132.161,293.820 132.064,293.600 132.200 C 293.380 132.336,293.200 132.137,293.200 131.757 C 293.200 131.377,293.085 131.182,292.945 131.322 C 292.804 131.463,292.062 130.863,291.296 129.989 C 290.530 129.115,289.683 128.400,289.414 128.400 C 289.144 128.400,288.617 128.061,288.243 127.647 C 287.681 127.027,284.064 125.718,282.112 125.429 C 281.843 125.389,281.498 125.231,281.345 125.078 C 281.192 124.925,276.957 124.800,271.933 124.800 L 262.800 124.800 262.800 116.200 C 262.800 110.733,262.654 107.600,262.400 107.600 C 262.180 107.600,262.000 107.240,262.000 106.800 C 262.000 106.360,261.850 106.000,261.668 106.000 C 261.485 106.000,261.080 105.506,260.768 104.903 C 260.202 103.810,258.071 101.452,257.500 101.287 C 257.335 101.239,257.009 101.200,256.776 101.200 C 256.543 101.200,256.464 101.020,256.600 100.800 C 256.736 100.580,256.487 100.400,256.047 100.400 C 255.607 100.400,255.135 100.219,254.998 99.997 C 254.706 99.524,144.800 99.435,144.800 99.908 M204.800 150.553 C 228.322 155.557,232.208 188.384,210.400 197.859 C 206.264 199.655,205.797 199.740,200.000 199.740 C 193.941 199.740,193.510 199.652,188.800 197.460 C 176.008 191.506,171.022 174.452,178.472 162.136 C 183.833 153.275,194.837 148.434,204.800 150.553 M71.400 188.000 C 70.896 188.217,70.822 188.344,71.200 188.344 C 71.530 188.344,72.160 188.189,72.600 188.000 C 73.104 187.783,73.178 187.656,72.800 187.656 C 72.470 187.656,71.840 187.811,71.400 188.000 M77.400 188.000 C 77.840 188.189,78.470 188.344,78.800 188.344 C 79.178 188.344,79.104 188.217,78.600 188.000 C 78.160 187.811,77.530 187.656,77.200 187.656 C 76.822 187.656,76.896 187.783,77.400 188.000 M271.400 188.000 C 270.896 188.217,270.822 188.344,271.200 188.344 C 271.530 188.344,272.160 188.189,272.600 188.000 C 273.104 187.783,273.178 187.656,272.800 187.656 C 272.470 187.656,271.840 187.811,271.400 188.000 M277.400 188.000 C 277.840 188.189,278.470 188.344,278.800 188.344 C 279.178 188.344,279.104 188.217,278.600 188.000 C 278.160 187.811,277.530 187.656,277.200 187.656 C 276.822 187.656,276.896 187.783,277.400 188.000 M81.222 189.546 C 83.409 190.956,84.854 192.504,85.937 194.600 C 86.392 195.480,86.773 196.058,86.782 195.884 C 86.879 194.156,81.534 188.400,79.833 188.400 C 79.619 188.400,80.244 188.916,81.222 189.546 M281.222 189.546 C 283.409 190.956,284.854 192.504,285.937 194.600 C 286.392 195.480,286.773 196.058,286.782 195.884 C 286.879 194.156,281.534 188.400,279.833 188.400 C 279.619 188.400,280.244 188.916,281.222 189.546 M66.477 191.059 L 64.600 192.918 66.600 191.191 C 67.700 190.241,68.675 189.404,68.767 189.332 C 68.858 189.259,68.803 189.200,68.643 189.200 C 68.484 189.200,67.509 190.037,66.477 191.059 M266.477 191.059 L 264.600 192.918 266.600 191.191 C 267.700 190.241,268.675 189.404,268.767 189.332 C 268.858 189.259,268.803 189.200,268.643 189.200 C 268.484 189.200,267.509 190.037,266.477 191.059 M63.931 194.100 C 60.758 199.194,62.337 206.130,67.600 210.210 C 68.150 210.636,67.722 210.088,66.649 208.992 C 62.780 205.042,61.624 199.458,63.783 195.158 C 64.813 193.108,64.889 192.562,63.931 194.100 M263.931 194.100 C 260.758 199.194,262.337 206.130,267.600 210.210 C 268.150 210.636,267.722 210.088,266.649 208.992 C 262.780 205.042,261.624 199.458,263.783 195.158 C 264.813 193.108,264.889 192.562,263.931 194.100 M87.000 200.000 C 87.000 201.938,87.132 203.316,87.294 203.062 C 87.456 202.808,87.588 201.430,87.588 200.000 C 87.588 198.570,87.456 197.192,87.294 196.938 C 87.132 196.684,87.000 198.062,87.000 200.000 M287.000 200.000 C 287.000 201.938,287.132 203.316,287.294 203.062 C 287.456 202.808,287.588 201.430,287.588 200.000 C 287.588 198.570,287.456 197.192,287.294 196.938 C 287.132 196.684,287.000 198.062,287.000 200.000 M81.681 210.172 C 79.823 211.485,79.562 211.861,81.131 210.962 C 81.863 210.543,82.650 209.975,82.880 209.700 C 83.471 208.993,83.193 209.102,81.681 210.172 M281.681 210.172 C 279.823 211.485,279.562 211.861,281.131 210.962 C 281.863 210.543,282.650 209.975,282.880 209.700 C 283.471 208.993,283.193 209.102,281.681 210.172 M69.444 211.375 C 69.895 211.692,70.790 212.056,71.433 212.184 C 72.580 212.413,72.582 212.409,71.600 211.967 C 71.050 211.720,70.287 211.356,69.905 211.159 C 68.824 210.600,68.532 210.737,69.444 211.375 M269.444 211.375 C 269.895 211.692,270.790 212.056,271.433 212.184 C 272.580 212.413,272.582 212.409,271.600 211.967 C 271.050 211.720,270.287 211.356,269.905 211.159 C 268.824 210.600,268.532 210.737,269.444 211.375 M78.000 212.000 C 77.467 212.345,77.467 212.388,78.000 212.388 C 78.330 212.388,78.870 212.213,79.200 212.000 C 79.733 211.655,79.733 211.612,79.200 211.612 C 78.870 211.612,78.330 211.787,78.000 212.000 M278.000 212.000 C 277.467 212.345,277.467 212.388,278.000 212.388 C 278.330 212.388,278.870 212.213,279.200 212.000 C 279.733 211.655,279.733 211.612,279.200 211.612 C 278.870 211.612,278.330 211.787,278.000 212.000 M100.000 237.072 C 93.290 250.419,87.618 261.398,87.395 261.471 C 87.173 261.544,84.385 256.382,81.201 250.002 C 78.016 243.621,75.229 238.406,75.006 238.414 C 74.481 238.432,50.346 286.789,50.631 287.251 C 50.913 287.706,150.000 287.711,150.000 287.256 C 150.000 287.066,147.844 282.701,145.208 277.556 C 140.995 269.329,127.447 242.308,116.561 220.415 C 114.541 216.353,112.733 212.979,112.544 212.917 C 112.355 212.856,106.710 223.725,100.000 237.072 M300.000 237.072 C 293.290 250.419,287.618 261.398,287.395 261.471 C 287.173 261.544,284.385 256.382,281.201 250.002 C 278.016 243.621,275.229 238.406,275.006 238.414 C 274.481 238.432,250.346 286.789,250.631 287.251 C 250.913 287.706,350.000 287.711,350.000 287.256 C 350.000 287.066,347.844 282.701,345.208 277.556 C 340.995 269.329,327.447 242.308,316.561 220.415 C 314.541 216.353,312.733 212.979,312.544 212.917 C 312.355 212.856,306.710 223.725,300.000 237.072 " stroke="none" fill="#9ed325" fill-rule="evenodd"></path><path id="path1" d="M89.038 149.939 C 88.874 150.203,87.740 150.400,86.376 150.400 C 85.069 150.400,84.000 150.561,84.000 150.758 C 84.000 150.955,83.280 151.225,82.400 151.358 C 81.520 151.491,80.079 151.709,79.197 151.842 C 78.316 151.975,77.495 152.245,77.374 152.442 C 77.252 152.639,76.623 152.800,75.976 152.800 C 75.329 152.800,74.800 152.980,74.800 153.200 C 74.800 153.420,74.361 153.600,73.824 153.600 C 73.287 153.600,72.758 153.744,72.649 153.921 C 72.540 154.097,71.539 154.490,70.425 154.793 C 69.311 155.096,68.400 155.492,68.400 155.672 C 68.400 155.853,68.147 156.000,67.838 156.000 C 67.172 156.000,63.859 157.668,63.667 158.100 C 63.593 158.265,63.188 158.400,62.767 158.400 C 62.345 158.400,62.000 158.610,62.000 158.867 C 62.000 159.123,61.885 159.218,61.743 159.077 C 61.462 158.795,57.149 161.042,56.755 161.675 C 56.621 161.891,56.399 162.059,56.263 162.048 C 55.787 162.009,53.490 163.409,52.568 164.300 C 52.055 164.795,51.515 165.200,51.367 165.200 C 51.218 165.200,50.433 165.785,49.622 166.500 C 48.810 167.215,47.681 168.160,47.111 168.600 C 45.972 169.480,43.268 172.037,42.533 172.929 C 42.152 173.392,44.030 175.457,52.704 184.114 L 63.343 194.731 64.404 193.058 C 69.775 184.588,82.381 185.689,86.762 195.009 C 89.327 200.466,86.521 208.474,81.105 211.155 C 80.167 211.620,79.674 212.000,80.010 212.000 C 80.345 212.000,85.415 216.815,91.276 222.700 L 101.933 233.400 107.061 223.098 C 109.882 217.432,112.347 212.849,112.539 212.913 C 112.918 213.039,114.551 216.248,131.924 251.000 C 138.303 263.760,143.770 274.650,144.072 275.200 C 144.375 275.750,147.382 278.900,150.754 282.200 C 154.126 285.500,157.012 288.534,157.167 288.943 C 157.448 289.681,163.600 284.059,163.600 283.064 C 163.600 282.860,163.932 282.403,164.337 282.047 C 164.742 281.691,166.216 279.690,167.612 277.600 C 169.008 275.510,170.252 273.710,170.376 273.600 C 170.500 273.490,170.871 272.860,171.200 272.200 C 171.529 271.540,172.481 269.779,173.314 268.286 C 174.148 266.793,174.723 265.398,174.591 265.186 C 174.460 264.974,174.543 264.800,174.776 264.800 C 175.009 264.800,175.200 264.350,175.200 263.800 C 175.200 263.250,175.380 262.800,175.600 262.800 C 175.820 262.800,176.000 262.260,176.000 261.600 C 176.000 260.940,176.180 260.400,176.400 260.400 C 176.620 260.400,176.800 260.040,176.800 259.600 C 176.800 259.160,176.980 258.800,177.200 258.800 C 177.420 258.800,177.600 258.260,177.600 257.600 C 177.600 256.940,177.780 256.400,178.000 256.400 C 178.220 256.400,178.400 255.871,178.400 255.224 C 178.400 254.577,178.560 253.948,178.756 253.827 C 179.109 253.609,179.434 252.160,179.859 248.900 C 179.981 247.965,180.242 247.200,180.440 247.200 C 180.638 247.200,180.800 246.019,180.800 244.576 C 180.800 242.782,180.938 242.038,181.237 242.223 C 182.773 243.172,180.393 215.876,178.427 210.000 C 178.243 209.450,177.860 208.190,177.576 207.200 C 173.179 191.894,162.346 176.579,148.560 166.181 C 143.333 162.239,137.900 159.166,130.600 156.022 C 121.696 152.188,110.956 150.178,96.961 149.725 C 91.389 149.544,89.246 149.602,89.038 149.939 M298.800 149.855 C 277.068 151.243,259.847 158.103,245.691 171.011 C 244.311 172.269,242.769 173.624,242.264 174.021 C 241.758 174.419,240.484 175.792,239.431 177.072 L 237.518 179.400 239.859 176.891 C 241.147 175.511,242.381 174.386,242.603 174.391 C 242.825 174.396,247.580 178.977,253.171 184.571 L 263.336 194.742 264.401 193.063 C 269.775 184.588,282.380 185.685,286.762 195.009 C 289.327 200.466,286.521 208.474,281.105 211.155 C 280.167 211.620,279.674 212.000,280.010 212.000 C 280.345 212.000,285.415 216.815,291.276 222.700 L 301.933 233.400 307.061 223.098 C 309.882 217.432,312.347 212.849,312.539 212.913 C 312.918 213.039,314.551 216.248,331.924 251.000 C 338.303 263.760,343.770 274.650,344.072 275.200 C 344.375 275.750,347.382 278.900,350.754 282.200 C 354.126 285.500,357.012 288.534,357.167 288.943 C 357.448 289.681,363.600 284.059,363.600 283.064 C 363.600 282.860,363.932 282.403,364.337 282.047 C 364.742 281.691,366.216 279.690,367.612 277.600 C 369.008 275.510,370.252 273.710,370.376 273.600 C 370.500 273.490,370.871 272.860,371.200 272.200 C 371.529 271.540,372.481 269.779,373.314 268.286 C 374.148 266.793,374.723 265.398,374.591 265.186 C 374.460 264.974,374.543 264.800,374.776 264.800 C 375.009 264.800,375.200 264.350,375.200 263.800 C 375.200 263.250,375.380 262.800,375.600 262.800 C 375.820 262.800,376.000 262.260,376.000 261.600 C 376.000 260.940,376.180 260.400,376.400 260.400 C 376.620 260.400,376.800 260.040,376.800 259.600 C 376.800 259.160,376.980 258.800,377.200 258.800 C 377.420 258.800,377.600 258.260,377.600 257.600 C 377.600 256.940,377.780 256.400,378.000 256.400 C 378.220 256.400,378.400 255.871,378.400 255.224 C 378.400 254.577,378.560 253.948,378.756 253.827 C 379.109 253.609,379.434 252.160,379.859 248.900 C 379.981 247.965,380.242 247.200,380.440 247.200 C 380.638 247.200,380.800 246.019,380.800 244.576 C 380.800 242.929,380.949 242.045,381.200 242.200 C 381.463 242.363,381.600 238.679,381.600 231.447 C 381.600 224.545,381.451 220.355,381.200 220.200 C 380.980 220.064,380.800 218.883,380.800 217.576 C 380.800 216.259,380.622 215.200,380.400 215.200 C 380.180 215.200,380.000 214.491,380.000 213.624 C 380.000 212.757,379.820 211.936,379.600 211.800 C 379.380 211.664,379.200 210.933,379.200 210.176 C 379.200 209.419,379.020 208.800,378.800 208.800 C 378.580 208.800,378.400 208.170,378.400 207.400 C 378.400 206.630,378.220 206.000,378.000 206.000 C 377.780 206.000,377.600 205.638,377.600 205.195 C 377.600 204.752,377.420 204.032,377.200 203.595 C 376.980 203.158,376.620 202.442,376.400 202.005 C 376.180 201.568,376.000 200.848,376.000 200.405 C 376.000 199.962,375.820 199.600,375.600 199.600 C 375.380 199.600,375.200 199.261,375.200 198.848 C 375.200 198.044,371.603 190.690,371.100 190.467 C 370.935 190.393,370.800 190.156,370.800 189.939 C 370.800 189.722,370.260 188.759,369.600 187.800 C 368.940 186.841,368.400 185.955,368.400 185.833 C 368.400 185.617,367.470 184.410,366.564 183.448 C 366.325 183.194,366.055 182.791,365.964 182.554 C 365.693 181.840,363.148 178.821,360.700 176.307 C 359.435 175.008,358.400 173.778,358.400 173.573 C 358.400 173.368,358.130 173.200,357.800 173.200 C 357.470 173.200,357.200 173.058,357.200 172.883 C 357.200 172.442,354.824 170.002,353.224 168.800 C 352.492 168.250,351.422 167.382,350.847 166.871 C 349.270 165.470,343.842 161.805,343.500 161.909 C 343.335 161.959,343.200 161.842,343.200 161.649 C 343.200 161.455,342.660 161.073,342.000 160.800 C 341.340 160.527,340.800 160.145,340.800 159.951 C 340.800 159.758,340.602 159.600,340.360 159.600 C 339.880 159.600,337.121 158.376,336.800 158.020 C 336.690 157.898,336.060 157.553,335.400 157.253 C 334.740 156.952,333.887 156.548,333.505 156.353 C 333.123 156.159,332.538 156.000,332.205 156.000 C 331.872 156.000,331.600 155.820,331.600 155.600 C 331.600 155.380,331.161 155.200,330.624 155.200 C 330.087 155.200,329.536 155.020,329.400 154.800 C 329.264 154.580,328.803 154.400,328.376 154.400 C 327.949 154.400,327.600 154.220,327.600 154.000 C 327.600 153.780,327.060 153.600,326.400 153.600 C 325.740 153.600,325.200 153.420,325.200 153.200 C 325.200 152.980,324.581 152.800,323.824 152.800 C 323.067 152.800,322.336 152.620,322.200 152.400 C 322.064 152.180,321.434 152.000,320.800 152.000 C 320.166 152.000,319.536 151.820,319.400 151.600 C 319.264 151.380,318.443 151.200,317.576 151.200 C 316.709 151.200,316.000 151.020,316.000 150.800 C 316.000 150.578,314.941 150.400,313.624 150.400 C 312.317 150.400,311.136 150.220,311.000 150.000 C 310.774 149.635,303.585 149.549,298.800 149.855 M194.200 150.800 C 191.016 151.632,187.435 153.129,188.527 153.172 C 189.096 153.194,189.191 153.396,188.966 154.100 C 186.656 161.328,187.259 168.588,190.685 174.800 C 192.060 177.292,197.917 183.600,198.857 183.600 C 199.088 183.600,199.754 183.930,200.338 184.334 C 204.439 187.168,212.351 188.355,217.800 186.955 C 222.700 185.695,222.504 185.637,221.160 187.953 L 220.321 189.400 221.156 188.400 C 223.127 186.040,224.800 179.886,224.800 175.000 C 224.800 158.881,209.520 146.797,194.200 150.800 M179.566 160.500 C 178.270 162.278,176.795 164.943,176.807 165.484 C 176.811 165.658,177.350 164.829,178.004 163.642 C 178.658 162.455,179.654 160.880,180.217 160.142 C 180.780 159.404,181.143 158.800,181.023 158.800 C 180.903 158.800,180.247 159.565,179.566 160.500 M175.429 169.429 C 175.281 170.015,175.238 170.572,175.332 170.666 C 175.427 170.760,175.624 170.358,175.771 169.771 C 175.919 169.185,175.962 168.628,175.868 168.534 C 175.773 168.440,175.576 168.842,175.429 169.429 M174.914 175.000 C 174.917 176.100,174.995 176.503,175.087 175.895 C 175.179 175.286,175.177 174.386,175.082 173.895 C 174.987 173.403,174.911 173.900,174.914 175.000 M127.720 175.459 C 137.488 180.491,146.004 188.111,152.327 197.478 C 153.247 198.841,154.000 200.048,154.000 200.160 C 154.000 200.273,154.572 201.318,155.271 202.482 C 158.236 207.422,155.769 213.200,150.695 213.200 C 147.894 213.200,146.305 211.923,144.144 207.937 C 139.260 198.928,131.475 191.148,123.400 187.207 C 120.200 185.645,118.799 183.721,118.801 180.890 C 118.805 176.247,123.591 173.333,127.720 175.459 M327.720 175.459 C 337.488 180.491,346.004 188.111,352.327 197.478 C 353.247 198.841,354.000 200.048,354.000 200.160 C 354.000 200.273,354.572 201.318,355.271 202.482 C 358.236 207.422,355.769 213.200,350.695 213.200 C 347.894 213.200,346.305 211.923,344.144 207.937 C 339.260 198.928,331.475 191.148,323.400 187.207 C 320.200 185.645,318.799 183.721,318.801 180.890 C 318.805 176.247,323.591 173.333,327.720 175.459 M38.500 176.598 C 37.931 177.245,37.861 177.600,38.304 177.600 C 38.471 177.600,38.832 177.240,39.107 176.800 C 39.678 175.887,39.251 175.745,38.500 176.598 M235.375 181.868 C 234.759 182.676,234.459 183.211,234.709 183.056 C 235.221 182.740,236.953 180.400,236.675 180.400 C 236.576 180.400,235.991 181.061,235.375 181.868 M230.305 189.300 C 229.444 190.622,228.246 193.065,228.688 192.600 C 229.211 192.050,231.274 188.400,231.063 188.400 C 230.969 188.400,230.628 188.805,230.305 189.300 M218.019 192.100 C 216.505 193.852,216.310 194.181,217.365 193.200 C 218.745 191.916,220.644 189.600,220.316 189.600 C 220.240 189.600,219.206 190.725,218.019 192.100 M181.983 192.500 C 182.964 193.545,183.819 194.400,183.883 194.400 C 184.184 194.400,183.866 194.041,182.100 192.383 L 180.200 190.600 181.983 192.500 M194.800 199.582 C 195.130 199.805,195.745 199.991,196.167 199.994 C 197.190 200.002,196.871 199.773,195.400 199.444 C 194.524 199.248,194.362 199.285,194.800 199.582 M204.000 199.600 C 203.176 199.864,203.141 199.926,203.800 199.954 C 204.240 199.973,204.870 199.813,205.200 199.600 C 205.901 199.147,205.414 199.147,204.000 199.600 M221.400 210.000 C 221.250 210.473,221.217 210.950,221.327 211.060 C 221.437 211.170,221.650 210.873,221.800 210.400 C 221.950 209.927,221.983 209.450,221.873 209.340 C 221.763 209.230,221.550 209.527,221.400 210.000 M66.800 209.885 C 66.800 210.234,68.399 211.338,68.600 211.128 C 68.667 211.057,68.289 210.677,67.761 210.281 C 67.232 209.886,66.800 209.708,66.800 209.885 M266.800 209.885 C 266.800 210.234,268.399 211.338,268.600 211.128 C 268.667 211.057,268.289 210.677,267.761 210.281 C 267.232 209.886,266.800 209.708,266.800 209.885 M71.062 212.500 C 71.164 212.665,72.936 212.800,75.000 212.800 C 77.064 212.800,78.836 212.665,78.938 212.500 C 79.040 212.335,77.268 212.200,75.000 212.200 C 72.732 212.200,70.960 212.335,71.062 212.500 M271.062 212.500 C 271.164 212.665,272.936 212.800,275.000 212.800 C 277.064 212.800,278.836 212.665,278.938 212.500 C 279.040 212.335,277.268 212.200,275.000 212.200 C 272.732 212.200,270.960 212.335,271.062 212.500 M220.649 213.015 C 220.512 213.373,220.415 213.966,220.434 214.333 C 220.453 214.700,220.627 214.469,220.821 213.820 C 221.198 212.558,221.065 211.933,220.649 213.015 M219.800 217.200 C 219.648 217.891,219.614 218.547,219.724 218.657 C 219.834 218.767,220.048 218.291,220.200 217.600 C 220.352 216.909,220.386 216.253,220.276 216.143 C 220.166 216.033,219.952 216.509,219.800 217.200 M219.053 222.436 C 218.914 223.131,218.823 224.353,218.851 225.150 C 218.885 226.130,219.010 225.763,219.235 224.018 C 219.589 221.283,219.477 220.313,219.053 222.436 M159.504 225.998 C 163.822 228.631,163.211 235.041,158.451 237.035 C 153.160 239.251,147.951 233.191,150.925 228.278 C 152.771 225.230,156.582 224.216,159.504 225.998 M359.504 225.998 C 363.822 228.631,363.211 235.041,358.451 237.035 C 353.160 239.251,347.951 233.191,350.925 228.278 C 352.771 225.230,356.582 224.216,359.504 225.998 M22.508 258.028 C 22.476 258.452,22.619 258.800,22.825 258.800 C 23.280 258.800,23.327 257.725,22.883 257.451 C 22.709 257.344,22.540 257.603,22.508 258.028 M222.508 258.028 C 222.476 258.452,222.619 258.800,222.825 258.800 C 223.280 258.800,223.327 257.725,222.883 257.451 C 222.709 257.344,222.540 257.603,222.508 258.028 M25.956 266.671 C 26.114 267.263,26.463 267.791,26.732 267.844 C 27.000 267.897,27.036 267.849,26.810 267.737 C 26.584 267.625,26.400 267.199,26.400 266.790 C 26.400 266.382,26.235 265.945,26.034 265.821 C 25.821 265.690,25.788 266.046,25.956 266.671 M225.956 266.671 C 226.114 267.263,226.463 267.791,226.732 267.844 C 227.000 267.897,227.036 267.849,226.810 267.737 C 226.584 267.625,226.400 267.199,226.400 266.790 C 226.400 266.382,226.235 265.945,226.034 265.821 C 225.821 265.690,225.788 266.046,225.956 266.671 M45.200 291.938 C 45.200 292.471,46.776 293.758,47.069 293.464 C 47.214 293.319,47.135 293.200,46.894 293.200 C 46.652 293.200,46.340 292.840,46.200 292.400 C 45.951 291.617,45.200 291.270,45.200 291.938 M245.200 291.938 C 245.200 292.471,246.776 293.758,247.069 293.464 C 247.214 293.319,247.135 293.200,246.894 293.200 C 246.652 293.200,246.340 292.840,246.200 292.400 C 245.951 291.617,245.200 291.270,245.200 291.938 M145.992 298.610 C 145.219 299.541,145.771 299.717,146.598 298.802 C 146.997 298.361,147.138 298.000,146.911 298.000 C 146.684 298.000,146.270 298.274,145.992 298.610 M345.992 298.610 C 345.219 299.541,345.771 299.717,346.598 298.802 C 346.997 298.361,347.138 298.000,346.911 298.000 C 346.684 298.000,346.270 298.274,345.992 298.610 M137.200 303.971 C 137.200 304.175,136.885 304.424,136.500 304.524 C 135.909 304.679,135.902 304.714,136.451 304.754 C 136.809 304.779,137.326 304.530,137.600 304.200 C 137.944 303.785,137.959 303.600,137.649 303.600 C 137.402 303.600,137.200 303.767,137.200 303.971 M337.200 303.971 C 337.200 304.175,336.885 304.424,336.500 304.524 C 335.909 304.679,335.902 304.714,336.451 304.754 C 336.809 304.779,337.326 304.530,337.600 304.200 C 337.944 303.785,337.959 303.600,337.649 303.600 C 337.402 303.600,337.200 303.767,337.200 303.971 M130.400 306.776 C 130.400 307.447,131.109 307.613,131.346 306.998 C 131.485 306.635,131.344 306.400,130.987 306.400 C 130.664 306.400,130.400 306.569,130.400 306.776 M330.400 306.776 C 330.400 307.447,331.109 307.613,331.346 306.998 C 331.485 306.635,331.344 306.400,330.987 306.400 C 330.664 306.400,330.400 306.569,330.400 306.776 M70.626 307.558 C 70.504 307.755,70.674 308.019,71.002 308.146 C 71.365 308.285,71.600 308.144,71.600 307.787 C 71.600 307.140,70.975 306.993,70.626 307.558 M270.626 307.558 C 270.504 307.755,270.674 308.019,271.002 308.146 C 271.365 308.285,271.600 308.144,271.600 307.787 C 271.600 307.140,270.975 306.993,270.626 307.558 M126.000 308.400 C 126.000 308.620,126.270 308.800,126.600 308.800 C 126.930 308.800,127.200 308.620,127.200 308.400 C 127.200 308.180,126.930 308.000,126.600 308.000 C 126.270 308.000,126.000 308.180,126.000 308.400 M326.000 308.400 C 326.000 308.620,326.270 308.800,326.600 308.800 C 326.930 308.800,327.200 308.620,327.200 308.400 C 327.200 308.180,326.930 308.000,326.600 308.000 C 326.270 308.000,326.000 308.180,326.000 308.400 M75.000 309.200 C 75.136 309.420,75.507 309.600,75.824 309.600 C 76.141 309.600,76.400 309.420,76.400 309.200 C 76.400 308.980,76.029 308.800,75.576 308.800 C 75.123 308.800,74.864 308.980,75.000 309.200 M275.000 309.200 C 275.136 309.420,275.507 309.600,275.824 309.600 C 276.141 309.600,276.400 309.420,276.400 309.200 C 276.400 308.980,276.029 308.800,275.576 308.800 C 275.123 308.800,274.864 308.980,275.000 309.200 M77.920 310.080 C 78.293 310.453,78.507 310.453,78.880 310.080 C 79.253 309.707,79.147 309.600,78.400 309.600 C 77.653 309.600,77.547 309.707,77.920 310.080 M277.920 310.080 C 278.293 310.453,278.507 310.453,278.880 310.080 C 279.253 309.707,279.147 309.600,278.400 309.600 C 277.653 309.600,277.547 309.707,277.920 310.080 M80.600 310.800 C 80.736 311.020,81.096 311.200,81.400 311.200 C 81.704 311.200,82.064 311.020,82.200 310.800 C 82.341 310.572,81.996 310.400,81.400 310.400 C 80.804 310.400,80.459 310.572,80.600 310.800 M117.600 310.800 C 117.600 311.020,117.949 311.200,118.376 311.200 C 118.803 311.200,119.264 311.020,119.400 310.800 C 119.540 310.573,119.204 310.400,118.624 310.400 C 118.061 310.400,117.600 310.580,117.600 310.800 M280.600 310.800 C 280.736 311.020,281.096 311.200,281.400 311.200 C 281.704 311.200,282.064 311.020,282.200 310.800 C 282.341 310.572,281.996 310.400,281.400 310.400 C 280.804 310.400,280.459 310.572,280.600 310.800 M317.600 310.800 C 317.600 311.020,317.949 311.200,318.376 311.200 C 318.803 311.200,319.264 311.020,319.400 310.800 C 319.540 310.573,319.204 310.400,318.624 310.400 C 318.061 310.400,317.600 310.580,317.600 310.800 M84.400 311.600 C 84.400 311.820,84.760 312.000,85.200 312.000 C 85.640 312.000,86.000 311.820,86.000 311.600 C 86.000 311.380,85.640 311.200,85.200 311.200 C 84.760 311.200,84.400 311.380,84.400 311.600 M114.000 311.600 C 114.000 311.820,114.450 312.000,115.000 312.000 C 115.550 312.000,116.000 311.820,116.000 311.600 C 116.000 311.380,115.550 311.200,115.000 311.200 C 114.450 311.200,114.000 311.380,114.000 311.600 M284.400 311.600 C 284.400 311.820,284.760 312.000,285.200 312.000 C 285.640 312.000,286.000 311.820,286.000 311.600 C 286.000 311.380,285.640 311.200,285.200 311.200 C 284.760 311.200,284.400 311.380,284.400 311.600 M314.000 311.600 C 314.000 311.820,314.450 312.000,315.000 312.000 C 315.550 312.000,316.000 311.820,316.000 311.600 C 316.000 311.380,315.550 311.200,315.000 311.200 C 314.450 311.200,314.000 311.380,314.000 311.600 M89.000 312.400 C 89.312 312.906,90.418 312.906,91.200 312.400 C 91.645 312.112,91.407 312.011,90.276 312.006 C 89.361 312.002,88.852 312.160,89.000 312.400 M108.000 312.315 C 108.000 312.488,108.540 312.671,109.200 312.721 C 109.860 312.772,110.400 312.630,110.400 312.406 C 110.400 312.183,109.860 312.000,109.200 312.000 C 108.540 312.000,108.000 312.142,108.000 312.315 M289.000 312.400 C 289.312 312.906,290.418 312.906,291.200 312.400 C 291.645 312.112,291.407 312.011,290.276 312.006 C 289.361 312.002,288.852 312.160,289.000 312.400 M308.000 312.315 C 308.000 312.488,308.540 312.671,309.200 312.721 C 309.860 312.772,310.400 312.630,310.400 312.406 C 310.400 312.183,309.860 312.000,309.200 312.000 C 308.540 312.000,308.000 312.142,308.000 312.315 " stroke="none" fill="#7bcbf3" fill-rule="evenodd"></path><path id="path2" d="M121.696 175.598 C 117.054 178.428,117.952 184.548,123.400 187.207 C 131.475 191.148,139.260 198.928,144.144 207.937 C 146.305 211.923,147.894 213.200,150.695 213.200 C 155.769 213.200,158.236 207.422,155.271 202.482 C 154.572 201.318,154.000 200.273,154.000 200.160 C 154.000 200.048,153.247 198.841,152.327 197.478 C 146.004 188.111,137.488 180.491,127.720 175.459 C 125.975 174.560,123.297 174.622,121.696 175.598 M321.696 175.598 C 317.054 178.428,317.952 184.548,323.400 187.207 C 331.475 191.148,339.260 198.928,344.144 207.937 C 346.305 211.923,347.894 213.200,350.695 213.200 C 355.769 213.200,358.236 207.422,355.271 202.482 C 354.572 201.318,354.000 200.273,354.000 200.160 C 354.000 200.048,353.247 198.841,352.327 197.478 C 346.004 188.111,337.488 180.491,327.720 175.459 C 325.975 174.560,323.297 174.622,321.696 175.598 M74.100 187.487 C 74.705 187.578,75.695 187.578,76.300 187.487 C 76.905 187.395,76.410 187.320,75.200 187.320 C 73.990 187.320,73.495 187.395,74.100 187.487 M274.100 187.487 C 274.705 187.578,275.695 187.578,276.300 187.487 C 276.905 187.395,276.410 187.320,275.200 187.320 C 273.990 187.320,273.495 187.395,274.100 187.487 M65.978 191.100 L 64.600 192.600 66.100 191.222 C 67.496 189.938,67.784 189.600,67.478 189.600 C 67.412 189.600,66.737 190.275,65.978 191.100 M83.600 191.000 C 84.346 191.770,85.047 192.400,85.157 192.400 C 85.267 192.400,84.746 191.770,84.000 191.000 C 83.254 190.230,82.553 189.600,82.443 189.600 C 82.333 189.600,82.854 190.230,83.600 191.000 M265.978 191.100 L 264.600 192.600 266.100 191.222 C 267.496 189.938,267.784 189.600,267.478 189.600 C 267.412 189.600,266.737 190.275,265.978 191.100 M283.600 191.000 C 284.346 191.770,285.047 192.400,285.157 192.400 C 285.267 192.400,284.746 191.770,284.000 191.000 C 283.254 190.230,282.553 189.600,282.443 189.600 C 282.333 189.600,282.854 190.230,283.600 191.000 M83.578 209.100 L 82.200 210.600 83.700 209.222 C 85.096 207.938,85.384 207.600,85.078 207.600 C 85.012 207.600,84.337 208.275,83.578 209.100 M283.578 209.100 L 282.200 210.600 283.700 209.222 C 285.096 207.938,285.384 207.600,285.078 207.600 C 285.012 207.600,284.337 208.275,283.578 209.100 M153.023 225.981 C 148.714 228.822,149.162 234.563,153.880 236.952 C 158.972 239.530,164.623 233.050,161.602 228.096 C 159.903 225.310,155.637 224.258,153.023 225.981 M353.023 225.981 C 348.714 228.822,349.162 234.563,353.880 236.952 C 358.972 239.530,364.623 233.050,361.602 228.096 C 359.903 225.310,355.637 224.258,353.023 225.981 " stroke="none" fill="#ace3fb" fill-rule="evenodd"></path><path id="path3" d="M185.046 155.276 C 177.423 161.002,173.573 171.685,175.776 181.000 C 179.426 196.431,199.948 205.340,212.062 196.753 C 212.646 196.339,213.315 196.000,213.549 196.000 C 214.287 196.000,219.777 190.281,220.912 188.329 C 222.517 185.569,222.764 185.678,217.800 186.955 C 212.351 188.355,204.439 187.168,200.338 184.334 C 199.754 183.930,199.088 183.600,198.857 183.600 C 197.917 183.600,192.060 177.292,190.685 174.800 C 187.259 168.588,186.656 161.328,188.966 154.100 C 189.448 152.592,188.069 153.005,185.046 155.276 M47.762 167.662 L 47.000 168.524 48.100 167.816 C 49.234 167.086,49.449 166.800,48.862 166.800 C 48.676 166.800,48.181 167.188,47.762 167.662 M41.357 174.168 C 41.230 174.499,40.828 174.864,40.463 174.980 C 40.098 175.096,39.559 175.733,39.266 176.395 C 38.941 177.130,38.434 177.600,37.966 177.600 C 37.280 177.600,37.014 178.024,37.153 178.900 C 37.179 179.065,37.003 179.155,36.763 179.100 C 36.522 179.045,36.117 179.355,35.863 179.788 C 35.608 180.221,34.905 181.058,34.300 181.648 C 33.657 182.275,33.200 183.153,33.200 183.760 C 33.200 184.533,32.995 184.800,32.400 184.800 C 31.867 184.800,31.600 185.067,31.600 185.600 C 31.600 186.040,31.450 186.400,31.268 186.400 C 31.085 186.400,30.680 186.895,30.368 187.500 C 30.056 188.105,29.621 188.732,29.401 188.894 C 29.151 189.077,29.188 189.190,29.496 189.194 C 29.769 189.197,29.499 189.695,28.896 190.300 C 28.293 190.905,27.746 191.760,27.681 192.200 C 27.616 192.640,27.451 193.270,27.316 193.600 C 27.180 193.930,27.054 194.320,27.035 194.467 C 27.016 194.613,26.836 194.883,26.636 195.067 C 26.424 195.260,26.392 195.190,26.559 194.900 C 26.718 194.625,26.702 194.401,26.524 194.401 C 25.926 194.404,24.644 198.057,25.134 198.359 C 25.432 198.543,25.317 198.828,24.791 199.206 C 24.243 199.601,24.000 200.241,24.000 201.288 C 24.000 202.120,23.820 202.800,23.600 202.800 C 23.380 202.800,23.200 203.081,23.200 203.424 C 23.200 203.767,23.065 203.964,22.900 203.862 C 22.735 203.760,22.573 204.133,22.539 204.691 C 22.506 205.248,22.326 205.816,22.139 205.952 C 21.953 206.089,21.738 206.650,21.662 207.200 C 21.586 207.750,21.361 208.260,21.162 208.333 C 20.963 208.407,20.800 208.642,20.800 208.857 C 20.800 209.072,20.980 209.136,21.200 209.000 C 21.420 208.864,21.600 209.033,21.600 209.376 C 21.600 209.719,21.420 210.000,21.200 210.000 C 20.980 210.000,20.800 210.270,20.800 210.600 C 20.800 210.930,20.616 211.200,20.392 211.200 C 20.168 211.200,20.062 211.630,20.158 212.156 C 20.253 212.681,20.077 213.602,19.765 214.201 C 19.110 215.465,19.019 216.559,19.600 216.200 C 19.820 216.064,20.000 216.133,20.000 216.353 C 20.000 216.573,19.820 216.864,19.600 217.000 C 19.380 217.136,19.200 217.676,19.200 218.200 C 19.200 218.724,19.020 219.264,18.800 219.400 C 18.230 219.752,18.304 221.495,18.900 221.735 C 19.300 221.896,19.300 221.943,18.900 221.968 C 18.515 221.993,18.400 224.128,18.400 231.224 C 18.400 237.271,18.538 240.362,18.800 240.200 C 19.020 240.064,19.200 240.223,19.200 240.553 C 19.200 240.883,19.020 241.264,18.799 241.401 C 18.531 241.566,18.531 241.897,18.799 242.398 C 19.020 242.810,19.200 243.699,19.200 244.374 C 19.200 245.048,19.380 245.600,19.600 245.600 C 19.820 245.600,20.000 245.881,20.000 246.224 C 20.000 246.567,19.820 246.736,19.600 246.600 C 19.074 246.275,19.082 247.322,19.610 247.850 C 19.835 248.075,20.044 248.921,20.074 249.730 C 20.105 250.538,20.280 251.200,20.465 251.200 C 20.649 251.200,20.800 251.571,20.800 252.024 C 20.800 252.477,20.980 252.736,21.200 252.600 C 21.420 252.464,21.600 252.618,21.600 252.943 C 21.600 253.268,21.375 253.638,21.100 253.767 C 20.700 253.953,20.700 254.047,21.100 254.233 C 21.375 254.362,21.600 254.722,21.600 255.033 C 21.600 255.345,21.780 255.600,22.000 255.600 C 22.220 255.600,22.400 255.949,22.400 256.376 C 22.400 256.803,22.580 257.264,22.800 257.400 C 23.020 257.536,23.200 258.087,23.200 258.624 C 23.200 259.161,23.380 259.600,23.600 259.600 C 23.820 259.600,24.000 259.791,24.000 260.024 C 24.000 260.257,23.820 260.336,23.600 260.200 C 22.834 259.727,23.206 261.027,24.000 261.600 C 24.533 261.984,24.805 262.647,24.814 263.588 C 24.822 264.365,25.104 265.450,25.442 266.000 C 25.779 266.550,25.955 266.676,25.832 266.279 C 25.695 265.836,25.770 265.658,26.028 265.817 C 26.259 265.960,26.409 266.464,26.363 266.938 C 26.252 268.073,27.099 270.110,27.562 269.824 C 27.762 269.700,27.843 269.915,27.742 270.301 C 27.557 271.009,28.900 272.800,29.616 272.800 C 29.827 272.800,30.000 272.991,30.000 273.224 C 30.000 273.457,29.837 273.546,29.637 273.423 C 29.438 273.300,29.481 273.635,29.732 274.168 C 29.984 274.701,30.372 275.106,30.595 275.068 C 30.818 275.031,30.955 275.225,30.900 275.500 C 30.845 275.775,30.980 276.000,31.200 276.000 C 31.420 276.000,31.600 276.360,31.600 276.800 C 31.600 277.333,31.867 277.600,32.400 277.600 C 33.022 277.600,33.200 277.867,33.200 278.800 C 33.200 279.776,33.368 280.001,34.100 280.006 C 34.828 280.011,34.885 280.086,34.400 280.400 C 33.891 280.729,33.910 280.789,34.524 280.794 C 34.922 280.797,35.136 280.980,35.000 281.200 C 34.864 281.420,34.899 281.600,35.079 281.600 C 35.258 281.600,35.644 282.140,35.936 282.800 C 36.259 283.531,36.767 284.000,37.234 284.000 C 37.658 284.000,38.000 284.276,38.000 284.618 C 38.000 285.493,39.884 287.317,40.139 286.689 C 40.248 286.419,40.351 286.525,40.368 286.925 C 40.412 287.929,45.060 292.561,45.365 291.905 C 45.554 291.499,45.646 291.500,45.836 291.907 C 45.965 292.186,46.338 292.681,46.664 293.007 C 47.077 293.420,47.108 293.600,46.766 293.600 C 46.496 293.600,46.799 294.050,47.438 294.600 C 48.077 295.149,49.050 295.602,49.600 295.606 C 50.175 295.609,50.406 295.737,50.144 295.906 C 49.811 296.121,49.830 296.332,50.215 296.688 C 50.629 297.073,50.783 297.073,50.939 296.688 C 51.048 296.420,51.151 296.605,51.168 297.100 C 51.194 297.835,51.438 298.006,52.500 298.032 C 53.215 298.049,53.577 298.153,53.304 298.264 C 52.503 298.587,53.768 299.600,54.971 299.600 C 55.733 299.600,56.000 299.807,56.000 300.400 C 56.000 300.933,56.267 301.200,56.800 301.200 C 57.240 301.200,57.601 301.335,57.603 301.500 C 57.605 301.665,58.055 302.008,58.604 302.263 C 59.152 302.517,59.500 302.562,59.377 302.363 C 59.254 302.163,59.343 302.000,59.576 302.000 C 59.809 302.000,60.003 302.315,60.006 302.700 C 60.013 303.408,66.444 306.800,67.780 306.800 C 68.121 306.800,68.400 306.959,68.400 307.153 C 68.400 307.634,70.365 307.980,70.633 307.546 C 70.989 306.970,71.600 307.158,71.600 307.843 C 71.600 308.244,71.821 308.401,72.187 308.260 C 72.510 308.136,72.881 308.207,73.011 308.417 C 73.141 308.628,73.913 308.800,74.727 308.800 C 75.774 308.800,76.354 309.034,76.707 309.600 C 76.982 310.040,77.396 310.400,77.627 310.400 C 77.858 310.400,77.936 310.220,77.800 310.000 C 77.664 309.780,77.934 309.600,78.400 309.600 C 78.866 309.600,79.136 309.780,79.000 310.000 C 78.864 310.220,79.033 310.400,79.376 310.400 C 79.719 310.400,80.000 310.580,80.000 310.800 C 80.000 311.020,80.191 311.200,80.424 311.200 C 80.657 311.200,80.736 311.020,80.600 310.800 C 80.459 310.572,80.804 310.400,81.400 310.400 C 81.996 310.400,82.341 310.572,82.200 310.800 C 82.064 311.020,82.308 311.200,82.743 311.200 C 83.178 311.200,83.638 311.425,83.767 311.700 C 83.953 312.100,84.047 312.100,84.233 311.700 C 84.510 311.107,86.000 311.023,86.000 311.600 C 86.000 311.829,87.237 312.003,88.900 312.006 C 90.920 312.010,91.618 312.130,91.200 312.400 C 90.802 312.657,93.535 312.790,99.300 312.794 C 104.837 312.798,108.000 312.655,108.000 312.400 C 108.000 312.180,108.540 312.000,109.200 312.000 C 109.860 312.000,110.400 312.180,110.400 312.400 C 110.400 312.620,110.591 312.800,110.824 312.800 C 111.057 312.800,111.136 312.620,111.000 312.400 C 110.851 312.158,111.396 312.000,112.376 312.000 C 113.269 312.000,114.000 311.820,114.000 311.600 C 114.000 311.019,115.896 311.108,116.135 311.700 C 116.296 312.100,116.343 312.100,116.368 311.700 C 116.386 311.425,116.670 311.200,117.000 311.200 C 117.330 311.200,117.600 311.020,117.600 310.800 C 117.600 310.580,118.061 310.400,118.624 310.400 C 119.204 310.400,119.540 310.573,119.400 310.800 C 119.264 311.020,119.343 311.200,119.576 311.200 C 119.809 311.200,120.000 311.020,120.000 310.800 C 120.000 310.580,120.371 310.400,120.824 310.400 C 121.277 310.400,121.555 310.250,121.441 310.067 C 121.328 309.883,121.489 309.733,121.800 309.733 C 122.111 309.733,122.272 309.883,122.159 310.067 C 121.871 310.532,122.146 310.484,123.348 309.861 C 123.920 309.564,124.271 309.204,124.127 309.061 C 123.984 308.917,124.347 308.800,124.933 308.800 C 125.520 308.800,126.000 308.620,126.000 308.400 C 126.000 308.180,126.270 308.000,126.600 308.000 C 126.930 308.000,127.200 308.155,127.200 308.345 C 127.200 308.534,127.654 308.602,128.209 308.496 C 128.945 308.356,129.109 308.172,128.815 307.818 C 128.531 307.475,128.587 307.333,129.006 307.333 C 129.333 307.333,129.600 307.478,129.600 307.654 C 129.600 307.831,129.859 307.876,130.175 307.754 C 130.491 307.633,130.652 307.279,130.532 306.967 C 130.401 306.626,130.565 306.400,130.945 306.400 C 131.291 306.400,131.520 306.625,131.453 306.900 C 131.386 307.175,131.407 307.265,131.499 307.100 C 131.591 306.935,131.967 306.790,132.333 306.777 C 133.477 306.737,136.961 304.924,136.356 304.683 C 135.957 304.525,135.997 304.454,136.500 304.432 C 136.885 304.414,137.200 304.220,137.200 304.000 C 137.200 303.780,137.391 303.600,137.624 303.600 C 137.857 303.600,137.936 303.780,137.800 304.000 C 137.300 304.809,138.324 304.371,138.970 303.500 C 139.337 303.005,139.528 302.825,139.395 303.100 C 139.262 303.375,139.343 303.600,139.576 303.600 C 139.809 303.600,140.000 303.240,140.000 302.800 C 140.000 302.360,140.191 302.000,140.424 302.000 C 140.657 302.000,140.736 302.180,140.600 302.400 C 140.464 302.620,140.531 302.800,140.749 302.800 C 140.968 302.800,141.260 302.440,141.400 302.000 C 141.564 301.482,142.005 301.200,142.651 301.200 C 143.213 301.200,143.540 301.026,143.400 300.800 C 143.263 300.578,143.564 300.397,144.076 300.394 C 144.819 300.389,144.883 300.312,144.400 300.000 C 143.903 299.679,143.938 299.611,144.604 299.606 C 145.046 299.603,145.632 299.240,145.907 298.800 C 146.226 298.290,146.840 298.000,147.603 298.000 C 148.533 298.000,148.800 297.822,148.800 297.200 C 148.800 296.760,149.025 296.445,149.300 296.500 C 149.575 296.555,149.755 296.375,149.700 296.100 C 149.645 295.825,149.735 295.621,149.900 295.647 C 150.860 295.799,151.602 295.455,152.922 294.246 C 153.735 293.501,154.400 292.681,154.400 292.422 C 154.400 292.164,154.580 292.064,154.800 292.200 C 155.020 292.336,155.200 292.156,155.200 291.800 C 155.200 291.444,155.360 291.251,155.555 291.372 C 156.020 291.659,156.881 290.615,156.497 290.230 C 156.333 290.067,156.380 289.977,156.600 290.030 C 157.208 290.177,158.400 289.567,158.400 289.108 C 158.400 288.874,158.146 288.913,157.800 289.200 C 157.316 289.602,157.200 289.591,157.200 289.144 C 157.200 288.488,145.731 276.936,145.404 277.263 C 145.155 277.512,146.826 280.923,147.300 281.133 C 147.465 281.207,147.600 281.486,147.600 281.754 C 147.600 282.463,148.549 284.393,148.900 284.397 C 149.065 284.399,149.200 284.760,149.200 285.200 C 149.200 285.640,149.380 286.000,149.600 286.000 C 149.820 286.000,150.000 286.360,150.000 286.800 C 150.000 287.663,51.163 288.111,50.631 287.251 C 50.346 286.789,74.481 238.432,75.006 238.414 C 75.229 238.406,78.016 243.621,81.201 250.002 C 84.385 256.382,87.173 261.545,87.395 261.474 C 87.826 261.337,101.600 234.130,101.600 233.416 C 101.600 232.706,80.640 212.000,79.921 212.000 C 79.550 212.000,79.136 212.180,79.000 212.400 C 78.864 212.621,77.070 212.800,75.000 212.800 C 72.930 212.800,71.136 212.621,71.000 212.400 C 70.864 212.180,70.403 212.000,69.976 212.000 C 69.549 212.000,69.200 211.820,69.200 211.600 C 69.200 211.380,68.937 211.200,68.616 211.200 C 64.835 211.200,60.603 199.705,62.843 195.520 C 63.244 194.770,62.328 193.731,53.143 184.521 C 42.465 173.813,41.738 173.175,41.357 174.168 M239.755 177.100 C 238.466 178.585,237.319 179.890,237.205 180.000 C 232.766 184.293,224.729 199.493,222.400 208.000 C 222.129 208.990,221.759 210.250,221.577 210.800 C 221.396 211.350,221.042 212.880,220.792 214.200 C 220.541 215.520,220.179 217.320,219.987 218.200 C 219.060 222.442,218.053 240.662,218.770 240.219 C 219.006 240.072,219.200 240.223,219.200 240.553 C 219.200 240.883,219.020 241.264,218.799 241.401 C 218.531 241.566,218.531 241.897,218.799 242.398 C 219.020 242.810,219.200 243.699,219.200 244.374 C 219.200 245.048,219.380 245.600,219.600 245.600 C 219.820 245.600,220.000 245.881,220.000 246.224 C 220.000 246.567,219.820 246.736,219.600 246.600 C 219.074 246.275,219.082 247.322,219.610 247.850 C 219.835 248.075,220.044 248.921,220.074 249.730 C 220.105 250.538,220.280 251.200,220.465 251.200 C 220.649 251.200,220.800 251.571,220.800 252.024 C 220.800 252.477,220.980 252.736,221.200 252.600 C 221.420 252.464,221.600 252.618,221.600 252.943 C 221.600 253.268,221.375 253.638,221.100 253.767 C 220.700 253.953,220.700 254.047,221.100 254.233 C 221.375 254.362,221.600 254.722,221.600 255.033 C 221.600 255.345,221.780 255.600,222.000 255.600 C 222.220 255.600,222.400 255.949,222.400 256.376 C 222.400 256.803,222.580 257.264,222.800 257.400 C 223.020 257.536,223.200 258.087,223.200 258.624 C 223.200 259.161,223.380 259.600,223.600 259.600 C 223.820 259.600,224.000 259.791,224.000 260.024 C 224.000 260.257,223.820 260.336,223.600 260.200 C 222.834 259.727,223.206 261.027,224.000 261.600 C 224.533 261.984,224.805 262.647,224.814 263.588 C 224.822 264.365,225.104 265.450,225.442 266.000 C 225.779 266.550,225.955 266.676,225.832 266.279 C 225.695 265.836,225.770 265.658,226.028 265.817 C 226.259 265.960,226.409 266.464,226.363 266.938 C 226.252 268.073,227.099 270.110,227.562 269.824 C 227.762 269.700,227.843 269.915,227.742 270.301 C 227.557 271.009,228.900 272.800,229.616 272.800 C 229.827 272.800,230.000 272.991,230.000 273.224 C 230.000 273.457,229.837 273.546,229.637 273.423 C 229.438 273.300,229.481 273.635,229.732 274.168 C 229.984 274.701,230.372 275.106,230.595 275.068 C 230.818 275.031,230.955 275.225,230.900 275.500 C 230.845 275.775,230.980 276.000,231.200 276.000 C 231.420 276.000,231.600 276.360,231.600 276.800 C 231.600 277.333,231.867 277.600,232.400 277.600 C 233.022 277.600,233.200 277.867,233.200 278.800 C 233.200 279.776,233.368 280.001,234.100 280.006 C 234.828 280.011,234.885 280.086,234.400 280.400 C 233.891 280.729,233.910 280.789,234.524 280.794 C 234.922 280.797,235.136 280.980,235.000 281.200 C 234.864 281.420,234.899 281.600,235.079 281.600 C 235.258 281.600,235.644 282.140,235.936 282.800 C 236.259 283.531,236.767 284.000,237.234 284.000 C 237.658 284.000,238.000 284.276,238.000 284.618 C 238.000 285.493,239.884 287.317,240.139 286.689 C 240.248 286.419,240.351 286.525,240.368 286.925 C 240.412 287.929,245.060 292.561,245.365 291.905 C 245.554 291.499,245.646 291.500,245.836 291.907 C 245.965 292.186,246.338 292.681,246.664 293.007 C 247.077 293.420,247.108 293.600,246.766 293.600 C 246.496 293.600,246.799 294.050,247.438 294.600 C 248.077 295.149,249.050 295.602,249.600 295.606 C 250.175 295.609,250.406 295.737,250.144 295.906 C 249.811 296.121,249.830 296.332,250.215 296.688 C 250.629 297.073,250.783 297.073,250.939 296.688 C 251.048 296.420,251.151 296.605,251.168 297.100 C 251.194 297.835,251.438 298.006,252.500 298.032 C 253.215 298.049,253.577 298.153,253.304 298.264 C 252.503 298.587,253.768 299.600,254.971 299.600 C 255.733 299.600,256.000 299.807,256.000 300.400 C 256.000 300.933,256.267 301.200,256.800 301.200 C 257.240 301.200,257.601 301.335,257.603 301.500 C 257.605 301.665,258.055 302.008,258.604 302.263 C 259.152 302.517,259.500 302.562,259.377 302.363 C 259.254 302.163,259.343 302.000,259.576 302.000 C 259.809 302.000,260.003 302.315,260.006 302.700 C 260.013 303.408,266.444 306.800,267.780 306.800 C 268.121 306.800,268.400 306.959,268.400 307.153 C 268.400 307.634,270.365 307.980,270.633 307.546 C 270.989 306.970,271.600 307.158,271.600 307.843 C 271.600 308.244,271.821 308.401,272.187 308.260 C 272.510 308.136,272.881 308.207,273.011 308.417 C 273.141 308.628,273.913 308.800,274.727 308.800 C 275.774 308.800,276.354 309.034,276.707 309.600 C 276.982 310.040,277.396 310.400,277.627 310.400 C 277.858 310.400,277.936 310.220,277.800 310.000 C 277.664 309.780,277.934 309.600,278.400 309.600 C 278.866 309.600,279.136 309.780,279.000 310.000 C 278.864 310.220,279.033 310.400,279.376 310.400 C 279.719 310.400,280.000 310.580,280.000 310.800 C 280.000 311.020,280.191 311.200,280.424 311.200 C 280.657 311.200,280.736 311.020,280.600 310.800 C 280.459 310.572,280.804 310.400,281.400 310.400 C 281.996 310.400,282.341 310.572,282.200 310.800 C 282.064 311.020,282.308 311.200,282.743 311.200 C 283.178 311.200,283.638 311.425,283.767 311.700 C 283.953 312.100,284.047 312.100,284.233 311.700 C 284.510 311.107,286.000 311.023,286.000 311.600 C 286.000 311.829,287.237 312.003,288.900 312.006 C 290.920 312.010,291.618 312.130,291.200 312.400 C 290.802 312.657,293.535 312.790,299.300 312.794 C 304.837 312.798,308.000 312.655,308.000 312.400 C 308.000 312.180,308.540 312.000,309.200 312.000 C 309.860 312.000,310.400 312.180,310.400 312.400 C 310.400 312.620,310.591 312.800,310.824 312.800 C 311.057 312.800,311.136 312.620,311.000 312.400 C 310.851 312.158,311.396 312.000,312.376 312.000 C 313.269 312.000,314.000 311.820,314.000 311.600 C 314.000 311.019,315.896 311.108,316.135 311.700 C 316.296 312.100,316.343 312.100,316.368 311.700 C 316.386 311.425,316.670 311.200,317.000 311.200 C 317.330 311.200,317.600 311.020,317.600 310.800 C 317.600 310.580,318.061 310.400,318.624 310.400 C 319.204 310.400,319.540 310.573,319.400 310.800 C 319.264 311.020,319.343 311.200,319.576 311.200 C 319.809 311.200,320.000 311.020,320.000 310.800 C 320.000 310.580,320.371 310.400,320.824 310.400 C 321.277 310.400,321.555 310.250,321.441 310.067 C 321.328 309.883,321.489 309.733,321.800 309.733 C 322.111 309.733,322.272 309.883,322.159 310.067 C 321.871 310.532,322.146 310.484,323.348 309.861 C 323.920 309.564,324.271 309.204,324.127 309.061 C 323.984 308.917,324.347 308.800,324.933 308.800 C 325.520 308.800,326.000 308.620,326.000 308.400 C 326.000 308.180,326.270 308.000,326.600 308.000 C 326.930 308.000,327.200 308.155,327.200 308.345 C 327.200 308.534,327.654 308.602,328.209 308.496 C 328.945 308.356,329.109 308.172,328.815 307.818 C 328.531 307.475,328.587 307.333,329.006 307.333 C 329.333 307.333,329.600 307.478,329.600 307.654 C 329.600 307.831,329.859 307.876,330.175 307.754 C 330.491 307.633,330.652 307.279,330.532 306.967 C 330.401 306.626,330.565 306.400,330.945 306.400 C 331.291 306.400,331.520 306.625,331.453 306.900 C 331.386 307.175,331.407 307.265,331.499 307.100 C 331.591 306.935,331.967 306.790,332.333 306.777 C 333.477 306.737,336.961 304.924,336.356 304.683 C 335.957 304.525,335.997 304.454,336.500 304.432 C 336.885 304.414,337.200 304.220,337.200 304.000 C 337.200 303.780,337.391 303.600,337.624 303.600 C 337.857 303.600,337.936 303.780,337.800 304.000 C 337.300 304.809,338.324 304.371,338.970 303.500 C 339.337 303.005,339.528 302.825,339.395 303.100 C 339.262 303.375,339.343 303.600,339.576 303.600 C 339.809 303.600,340.000 303.240,340.000 302.800 C 340.000 302.360,340.191 302.000,340.424 302.000 C 340.657 302.000,340.736 302.180,340.600 302.400 C 340.464 302.620,340.531 302.800,340.749 302.800 C 340.968 302.800,341.260 302.440,341.400 302.000 C 341.564 301.482,342.005 301.200,342.651 301.200 C 343.213 301.200,343.540 301.026,343.400 300.800 C 343.263 300.578,343.564 300.397,344.076 300.394 C 344.819 300.389,344.883 300.312,344.400 300.000 C 343.903 299.679,343.938 299.611,344.604 299.606 C 345.046 299.603,345.632 299.240,345.907 298.800 C 346.226 298.290,346.840 298.000,347.603 298.000 C 348.533 298.000,348.800 297.822,348.800 297.200 C 348.800 296.760,349.025 296.445,349.300 296.500 C 349.575 296.555,349.755 296.375,349.700 296.100 C 349.645 295.825,349.735 295.621,349.900 295.647 C 350.860 295.799,351.602 295.455,352.922 294.246 C 353.735 293.501,354.400 292.681,354.400 292.422 C 354.400 292.164,354.580 292.064,354.800 292.200 C 355.020 292.336,355.200 292.156,355.200 291.800 C 355.200 291.444,355.360 291.251,355.555 291.372 C 356.020 291.659,356.881 290.615,356.497 290.230 C 356.333 290.067,356.380 289.977,356.600 290.030 C 357.208 290.177,358.400 289.567,358.400 289.108 C 358.400 288.874,358.146 288.913,357.800 289.200 C 357.316 289.602,357.200 289.591,357.200 289.144 C 357.200 288.488,345.731 276.936,345.404 277.263 C 345.155 277.512,346.826 280.923,347.300 281.133 C 347.465 281.207,347.600 281.486,347.600 281.754 C 347.600 282.463,348.549 284.393,348.900 284.397 C 349.065 284.399,349.200 284.760,349.200 285.200 C 349.200 285.640,349.380 286.000,349.600 286.000 C 349.820 286.000,350.000 286.360,350.000 286.800 C 350.000 287.663,251.163 288.111,250.631 287.251 C 250.346 286.789,274.481 238.432,275.006 238.414 C 275.229 238.406,278.016 243.621,281.201 250.002 C 284.385 256.382,287.173 261.545,287.395 261.474 C 287.826 261.337,301.600 234.130,301.600 233.416 C 301.600 232.706,280.640 212.000,279.921 212.000 C 279.550 212.000,279.136 212.180,279.000 212.400 C 278.864 212.621,277.070 212.800,275.000 212.800 C 272.930 212.800,271.136 212.621,271.000 212.400 C 270.864 212.180,270.403 212.000,269.976 212.000 C 269.549 212.000,269.200 211.820,269.200 211.600 C 269.200 211.380,268.937 211.200,268.616 211.200 C 264.835 211.200,260.603 199.705,262.843 195.520 C 263.290 194.685,243.800 174.400,242.552 174.400 C 242.302 174.400,241.043 175.615,239.755 177.100 M363.293 179.200 C 363.568 179.640,363.931 180.000,364.100 180.000 C 364.269 180.000,364.182 179.640,363.907 179.200 C 363.632 178.760,363.269 178.400,363.100 178.400 C 362.931 178.400,363.018 178.760,363.293 179.200 " stroke="none" fill="#54b4eb" fill-rule="evenodd"></path><path id="path4" d="M72.200 188.062 C 64.429 190.643,60.689 198.090,63.751 204.889 C 65.740 209.307,70.328 212.400,74.890 212.400 C 85.877 212.400,91.372 198.431,83.266 191.108 C 79.963 188.123,75.617 186.927,72.200 188.062 M272.200 188.062 C 264.429 190.643,260.689 198.090,263.751 204.889 C 265.740 209.307,270.328 212.400,274.890 212.400 C 285.877 212.400,291.372 198.431,283.266 191.108 C 279.963 188.123,275.617 186.927,272.200 188.062 " stroke="none" fill="#fad80b" fill-rule="evenodd"></path></g></svg>