<svg id="svg" version="1.1" xmlns="http://www.w3.org/2000/svg" xmlns:xlink="http://www.w3.org/1999/xlink" width="400" height="400" viewBox="0, 0, 400,400"><g id="svgg"><path id="path0" d="M317.206 62.500 C 317.201 63.142,316.569 63.200,309.600 63.200 C 301.901 63.200,301.073 63.374,302.941 64.598 C 305.720 66.419,305.942 68.502,304.817 82.200 C 304.637 84.400,304.294 88.990,304.056 92.400 C 303.818 95.810,303.520 99.185,303.393 99.900 L 303.164 101.200 311.782 101.200 L 320.400 101.200 320.400 98.633 C 320.400 95.681,320.717 94.426,321.250 95.266 C 321.498 95.658,321.589 95.582,321.594 94.980 C 321.597 94.529,321.816 93.944,322.080 93.680 C 322.453 93.307,322.409 93.200,321.880 93.200 C 321.288 93.200,321.200 92.710,321.200 89.400 C 321.200 86.438,321.322 85.600,321.751 85.600 C 322.436 85.600,323.337 83.521,323.082 82.532 C 322.956 82.043,322.877 82.166,322.846 82.900 C 322.720 85.886,322.000 83.587,322.000 80.200 C 322.000 76.605,322.522 75.102,322.937 77.500 C 323.042 78.105,323.099 77.762,323.064 76.738 C 323.029 75.714,323.135 74.960,323.300 75.062 C 323.465 75.164,323.600 75.057,323.600 74.824 C 323.600 74.591,323.420 74.400,323.200 74.400 C 322.970 74.400,322.800 73.173,322.800 71.520 C 322.800 68.044,323.486 68.257,323.702 71.800 L 323.849 74.200 323.924 71.524 C 323.966 70.052,323.820 68.736,323.600 68.600 C 323.380 68.464,323.182 67.958,323.160 67.476 C 323.123 66.660,323.098 66.668,322.796 67.600 L 322.471 68.600 322.189 67.700 C 322.034 67.205,321.748 66.800,321.553 66.800 C 321.359 66.800,321.200 66.596,321.200 66.347 C 321.200 65.668,319.109 64.001,318.257 64.000 C 317.801 64.000,317.594 63.793,317.720 63.464 C 317.833 63.169,317.765 62.674,317.569 62.364 C 317.281 61.908,317.211 61.935,317.206 62.500 M193.200 111.656 C 192.650 111.891,190.177 112.057,187.705 112.025 C 184.879 111.988,182.879 112.143,182.319 112.443 C 181.829 112.706,180.296 112.884,178.914 112.839 C 177.068 112.779,176.400 112.897,176.400 113.281 C 176.400 113.675,175.704 113.774,173.600 113.680 C 171.822 113.601,170.800 113.709,170.800 113.978 C 170.800 114.218,169.937 114.400,168.800 114.400 C 167.700 114.400,166.800 114.580,166.800 114.800 C 166.800 115.020,165.936 115.200,164.880 115.200 C 163.824 115.200,162.752 115.408,162.499 115.661 C 162.245 115.915,161.451 116.106,160.734 116.086 C 159.792 116.059,159.593 116.151,160.016 116.418 C 160.563 116.765,158.826 117.028,157.300 116.830 C 157.025 116.794,156.800 116.953,156.800 117.182 C 156.800 117.412,156.095 117.600,155.233 117.600 C 154.372 117.600,153.607 117.778,153.533 117.997 C 153.460 118.215,152.860 118.427,152.200 118.469 C 151.540 118.511,150.783 118.708,150.518 118.907 C 150.252 119.106,149.868 119.165,149.663 119.039 C 149.303 118.816,148.585 119.545,142.600 126.212 C 137.137 132.298,126.768 142.400,125.985 142.400 C 125.515 142.400,125.461 174.762,125.930 175.500 C 126.280 176.052,129.504 176.079,129.841 175.534 C 129.954 175.350,130.802 175.192,131.724 175.183 C 132.646 175.173,134.210 174.992,135.200 174.779 C 136.190 174.567,137.630 174.291,138.400 174.165 C 139.170 174.039,140.160 173.784,140.600 173.598 C 141.368 173.274,142.401 173.021,145.000 172.521 C 145.660 172.393,146.303 172.130,146.429 171.935 C 146.556 171.740,147.321 171.556,148.129 171.526 C 148.938 171.495,149.600 171.320,149.600 171.135 C 149.600 170.951,150.140 170.800,150.800 170.800 C 151.460 170.800,152.000 170.620,152.000 170.400 C 152.000 170.180,152.540 170.000,153.200 170.000 C 153.860 170.000,154.400 169.820,154.400 169.600 C 154.400 169.380,154.805 169.194,155.300 169.187 C 155.795 169.180,156.532 168.923,156.939 168.615 C 157.345 168.307,157.930 168.152,158.239 168.270 C 158.547 168.389,158.800 168.286,158.800 168.043 C 158.800 167.799,159.239 167.600,159.776 167.600 C 160.313 167.600,160.864 167.420,161.000 167.200 C 161.136 166.980,161.597 166.800,162.024 166.800 C 162.451 166.800,162.800 166.620,162.800 166.400 C 162.800 166.180,163.228 166.000,163.751 166.000 C 164.274 166.000,164.924 165.732,165.196 165.404 C 165.468 165.077,165.850 164.907,166.045 165.028 C 166.240 165.149,166.400 165.057,166.400 164.824 C 166.400 164.591,166.925 164.400,167.567 164.400 C 168.208 164.400,168.796 164.212,168.873 163.982 C 168.949 163.752,169.414 163.534,169.906 163.497 C 170.398 163.460,170.800 163.288,170.800 163.115 C 170.800 162.942,171.171 162.800,171.624 162.800 C 172.077 162.800,172.353 162.647,172.237 162.460 C 172.121 162.272,172.741 161.884,173.613 161.596 C 174.486 161.308,175.200 160.921,175.200 160.736 C 175.200 160.551,175.560 160.400,176.000 160.400 C 176.440 160.400,176.800 160.220,176.800 160.000 C 176.800 159.780,177.160 159.600,177.600 159.600 C 178.040 159.600,178.400 159.420,178.400 159.200 C 178.400 158.980,178.715 158.797,179.100 158.794 C 179.485 158.791,180.250 158.526,180.800 158.207 C 181.350 157.887,182.295 157.422,182.900 157.173 C 183.505 156.925,184.000 156.475,184.000 156.173 C 184.000 155.868,184.248 155.720,184.560 155.840 C 184.867 155.958,185.238 155.862,185.383 155.627 C 185.528 155.392,185.997 155.200,186.424 155.200 C 186.851 155.200,187.200 155.020,187.200 154.800 C 187.200 154.580,187.425 154.400,187.700 154.400 C 188.158 154.399,189.531 153.419,191.300 151.829 C 191.685 151.483,192.270 151.200,192.600 151.200 C 192.930 151.200,193.200 151.020,193.200 150.800 C 193.200 150.580,193.436 150.400,193.725 150.400 C 194.013 150.400,194.636 150.040,195.108 149.600 C 195.580 149.160,196.172 148.800,196.423 148.800 C 196.674 148.800,197.383 148.260,198.000 147.600 C 198.617 146.940,199.337 146.400,199.600 146.400 C 199.863 146.400,200.583 145.860,201.200 145.200 C 201.817 144.540,202.474 144.000,202.660 143.999 C 202.847 143.999,203.630 143.459,204.400 142.800 C 205.170 142.141,205.996 141.601,206.236 141.601 C 206.475 141.600,207.338 140.880,208.152 140.000 C 208.966 139.120,209.790 138.400,209.983 138.400 C 210.535 138.400,213.600 135.319,213.600 134.765 C 213.600 134.491,213.714 134.380,213.853 134.519 C 213.992 134.658,214.604 134.238,215.213 133.586 C 215.822 132.934,216.474 132.400,216.662 132.400 C 217.139 132.400,222.351 127.308,223.800 125.427 C 224.460 124.570,225.765 123.093,226.700 122.145 C 227.635 121.197,228.400 120.226,228.400 119.987 C 228.400 119.748,228.580 119.664,228.800 119.800 C 229.048 119.953,229.200 119.238,229.200 117.924 C 229.199 115.031,228.122 113.756,225.600 113.664 C 224.610 113.628,223.740 113.419,223.667 113.199 C 223.593 112.980,222.198 112.800,220.567 112.800 C 218.856 112.800,217.600 112.631,217.600 112.400 C 217.600 112.148,215.544 112.037,212.033 112.100 C 208.488 112.164,206.490 112.055,206.533 111.800 C 206.628 111.236,194.488 111.104,193.200 111.656 M155.711 199.044 C 155.845 199.178,157.630 199.871,159.678 200.582 C 182.915 208.659,184.037 239.252,161.414 247.914 C 160.048 248.437,155.860 248.574,134.200 248.803 L 108.600 249.074 104.800 250.370 C 85.737 256.876,76.452 274.707,82.605 293.000 C 84.143 297.573,90.076 306.749,91.535 306.811 C 91.681 306.818,92.568 307.506,93.506 308.342 C 95.603 310.208,99.976 312.529,103.840 313.826 L 106.741 314.800 156.471 314.804 C 205.448 314.808,228.849 315.199,231.600 316.061 C 239.074 318.402,241.702 319.604,246.438 322.848 C 276.082 343.151,267.096 391.073,232.200 398.773 C 230.880 399.064,229.260 399.443,228.600 399.615 C 227.920 399.792,231.570 399.943,237.025 399.964 C 245.702 399.996,246.805 399.925,248.225 399.241 C 249.091 398.823,250.610 398.275,251.600 398.022 C 256.896 396.668,263.324 393.246,267.387 389.617 C 270.178 387.124,274.000 383.069,274.000 382.601 C 274.000 382.472,274.360 381.980,274.800 381.508 C 275.240 381.036,275.600 380.413,275.600 380.125 C 275.600 379.836,275.780 379.600,276.000 379.600 C 276.220 379.600,276.400 379.330,276.400 379.000 C 276.400 378.670,276.536 378.400,276.702 378.400 C 277.023 378.400,277.516 377.383,279.223 373.200 C 283.006 363.929,283.133 352.246,279.554 342.800 C 278.458 339.908,277.076 337.034,276.700 336.867 C 276.535 336.793,276.400 336.556,276.400 336.339 C 276.400 336.122,275.823 335.106,275.118 334.081 C 266.656 321.782,253.223 315.200,236.582 315.200 C 234.115 315.200,233.667 314.424,235.875 313.972 C 246.376 311.824,257.320 298.376,258.639 286.000 C 259.762 275.459,254.872 262.616,247.748 257.400 C 247.148 256.960,246.250 256.198,245.754 255.708 C 243.701 253.677,238.146 251.050,233.600 249.960 C 231.510 249.459,229.656 248.813,229.480 248.524 C 229.222 248.102,224.633 248.000,205.780 248.000 C 192.921 248.000,182.400 247.897,182.400 247.771 C 182.400 247.302,183.565 246.400,184.171 246.400 C 184.517 246.400,184.800 246.220,184.800 246.000 C 184.800 245.780,185.074 245.600,185.408 245.600 C 186.209 245.600,191.600 240.218,191.600 239.419 C 191.600 239.079,191.780 238.800,192.000 238.800 C 192.220 238.800,192.400 238.530,192.400 238.200 C 192.400 237.870,192.580 237.600,192.800 237.600 C 193.020 237.600,193.200 237.330,193.200 237.000 C 193.200 236.670,193.380 236.400,193.600 236.400 C 193.820 236.400,194.000 236.051,194.000 235.624 C 194.000 235.197,194.180 234.736,194.400 234.600 C 194.620 234.464,194.800 233.733,194.800 232.976 C 194.800 232.219,194.980 231.600,195.200 231.600 C 195.420 231.600,195.600 230.700,195.600 229.600 C 195.600 228.500,195.780 227.600,196.000 227.600 C 196.526 227.600,196.527 221.709,196.000 221.533 C 195.781 221.460,195.577 220.365,195.548 219.100 C 195.519 217.835,195.338 216.800,195.147 216.800 C 194.956 216.800,194.800 216.260,194.800 215.600 C 194.800 214.940,194.620 214.400,194.400 214.400 C 194.180 214.400,194.000 214.040,194.000 213.600 C 194.000 213.160,193.862 212.800,193.694 212.800 C 193.526 212.800,193.073 212.070,192.686 211.179 C 192.300 210.287,191.482 209.067,190.869 208.467 C 190.255 207.868,189.635 207.067,189.489 206.689 C 189.344 206.310,189.022 206.000,188.773 206.000 C 188.524 206.000,187.822 205.466,187.213 204.814 C 186.604 204.162,185.992 203.742,185.853 203.881 C 185.714 204.020,185.600 203.833,185.600 203.467 C 185.600 203.067,185.280 202.800,184.800 202.800 C 184.360 202.800,184.000 202.620,184.000 202.400 C 184.000 202.180,183.640 202.000,183.200 202.000 C 182.760 202.000,182.400 201.809,182.400 201.576 C 182.400 201.343,182.235 201.255,182.032 201.380 C 181.830 201.505,181.393 201.336,181.061 201.004 C 180.729 200.672,179.994 200.400,179.429 200.400 C 178.863 200.400,178.400 200.220,178.400 200.000 C 178.400 199.780,177.680 199.600,176.800 199.600 C 175.920 199.600,175.200 199.420,175.200 199.200 C 175.200 198.944,171.644 198.800,165.333 198.800 C 159.907 198.800,155.577 198.910,155.711 199.044 " stroke="none" fill="#517577" fill-rule="evenodd"></path><path id="path1" d="M26.803 51.580 C 26.809 85.010,26.950 103.246,27.206 103.404 C 27.423 103.538,27.600 104.346,27.600 105.200 C 27.600 106.054,27.780 106.864,28.000 107.000 C 28.220 107.136,28.400 107.777,28.400 108.424 C 28.400 109.071,28.580 109.600,28.800 109.600 C 29.020 109.600,29.200 109.960,29.200 110.400 C 29.200 110.840,29.380 111.200,29.600 111.200 C 29.820 111.200,30.000 111.443,30.000 111.741 C 30.000 112.038,30.540 112.846,31.200 113.537 C 31.860 114.228,32.400 114.983,32.400 115.215 C 32.400 115.781,34.246 117.600,34.821 117.600 C 35.073 117.600,35.783 118.140,36.400 118.800 C 37.017 119.460,37.809 120.000,38.160 120.000 C 38.512 120.000,38.800 120.180,38.800 120.400 C 38.800 120.620,39.160 120.800,39.600 120.800 C 40.040 120.800,40.400 120.980,40.400 121.200 C 40.400 121.420,40.940 121.600,41.600 121.600 C 42.260 121.600,42.800 121.703,42.800 121.829 C 42.800 122.354,41.599 123.200,40.852 123.200 C 40.409 123.200,39.936 123.380,39.800 123.600 C 39.664 123.820,39.203 124.000,38.776 124.000 C 38.349 124.000,38.000 124.139,38.000 124.309 C 38.000 124.479,37.363 124.961,36.585 125.380 C 34.943 126.265,31.565 129.432,31.903 129.770 C 32.030 129.897,31.932 130.000,31.685 130.000 C 31.439 130.000,30.923 130.675,30.540 131.500 C 30.156 132.325,29.739 133.090,29.613 133.200 C 29.176 133.581,28.400 135.641,28.400 136.419 C 28.400 136.848,28.220 137.200,28.000 137.200 C 27.780 137.200,27.600 137.999,27.600 138.976 C 27.600 139.953,27.420 140.864,27.200 141.000 C 26.649 141.340,26.653 381.062,27.204 381.402 C 27.422 381.537,27.600 382.436,27.600 383.400 C 27.600 384.364,27.780 385.264,28.000 385.400 C 28.220 385.536,28.400 386.053,28.400 386.548 C 28.400 387.044,28.760 387.836,29.200 388.308 C 29.640 388.780,30.000 389.444,30.000 389.783 C 30.000 390.122,30.180 390.400,30.400 390.400 C 30.620 390.400,30.800 390.586,30.800 390.813 C 30.800 391.041,31.430 391.857,32.200 392.627 C 32.970 393.397,33.600 394.201,33.600 394.413 C 33.600 394.626,33.798 394.800,34.040 394.800 C 34.281 394.800,34.983 395.340,35.600 396.000 C 36.217 396.660,37.009 397.200,37.360 397.200 C 37.712 397.200,38.000 397.380,38.000 397.600 C 38.000 397.820,38.360 398.000,38.800 398.000 C 39.240 398.000,39.600 398.180,39.600 398.400 C 39.600 398.620,39.945 398.800,40.367 398.800 C 40.788 398.800,41.208 399.025,41.300 399.300 C 41.430 399.691,46.777 399.825,65.833 399.915 C 91.879 400.037,92.803 399.961,86.600 398.205 C 60.218 390.734,48.107 357.619,63.339 334.600 C 71.956 321.577,84.039 315.321,101.800 314.686 L 104.200 314.600 102.400 313.997 C 100.126 313.234,95.330 310.684,93.945 309.501 C 93.365 309.006,92.217 308.067,91.395 307.416 C 89.369 305.811,86.027 301.557,84.309 298.397 C 83.061 296.103,82.439 294.504,80.754 289.268 C 80.518 288.535,80.325 285.355,80.325 282.200 C 80.325 279.045,80.518 275.865,80.754 275.132 C 82.432 269.918,83.067 268.297,84.329 266.000 C 88.147 259.055,96.225 252.247,102.800 250.433 C 106.552 249.398,106.586 249.358,106.715 245.737 C 106.829 242.552,106.808 242.471,105.361 240.576 C 97.745 230.599,97.665 218.099,105.157 208.811 L 106.600 207.022 106.714 176.011 C 106.844 140.762,106.740 138.682,104.616 134.207 C 102.870 130.526,98.443 125.805,95.380 124.356 L 93.400 123.420 99.200 123.106 C 102.390 122.934,105.313 122.614,105.695 122.396 C 106.077 122.178,106.707 121.997,107.095 121.994 C 114.011 121.937,123.486 112.869,124.862 104.990 C 125.360 102.138,125.888 64.370,125.953 26.900 L 126.000 0.000 76.397 0.000 L 26.794 0.000 26.803 51.580 M281.868 101.900 C 282.393 102.283,286.349 102.386,298.776 102.339 C 314.500 102.279,314.729 102.267,306.200 101.958 C 289.752 101.362,281.102 101.341,281.868 101.900 M124.894 187.500 C 124.962 194.914,125.142 198.965,125.400 198.900 C 126.138 198.716,126.138 176.000,125.400 176.000 C 124.862 176.000,124.801 177.396,124.894 187.500 M291.675 201.998 L 230.349 202.200 230.387 225.100 C 230.415 242.147,230.307 248.000,229.963 248.000 C 229.631 248.000,229.642 248.168,230.000 248.600 C 230.274 248.930,231.108 249.200,231.854 249.200 C 232.600 249.200,233.523 249.362,233.905 249.561 C 234.287 249.760,235.410 250.147,236.400 250.422 C 240.858 251.660,247.640 256.202,250.873 260.114 C 251.821 261.261,252.818 262.433,253.088 262.719 C 253.359 263.004,253.887 263.904,254.261 264.719 C 254.636 265.533,255.246 266.650,255.617 267.200 C 256.973 269.209,258.666 275.096,258.997 278.948 C 259.126 280.460,259.257 281.810,259.286 281.948 C 259.500 282.938,258.623 289.106,257.943 291.400 C 254.868 301.768,245.921 311.344,236.775 314.055 C 235.016 314.576,235.044 314.584,240.000 314.875 C 257.320 315.893,271.510 324.440,277.807 337.647 L 278.495 339.088 325.143 339.282 C 350.799 339.388,372.107 339.392,372.495 339.291 C 373.165 339.116,373.200 335.677,373.200 270.353 L 373.200 201.600 363.100 201.698 C 357.545 201.752,325.404 201.887,291.675 201.998 " stroke="none" fill="#f5c385" fill-rule="evenodd"></path><path id="path2" d="M266.600 101.600 C 266.464 101.820,265.733 102.000,264.976 102.000 C 264.219 102.000,263.599 102.135,263.597 102.300 C 263.593 102.665,261.651 103.600,260.897 103.600 C 260.598 103.600,260.464 103.780,260.600 104.000 C 260.736 104.220,260.606 104.400,260.312 104.400 C 260.017 104.400,259.517 104.760,259.200 105.200 C 258.883 105.640,258.393 106.000,258.112 106.000 C 257.830 106.000,257.600 106.320,257.600 106.712 C 257.600 107.103,257.240 107.683,256.800 108.000 C 256.360 108.317,256.000 108.837,256.000 109.155 C 256.000 109.473,255.883 109.616,255.739 109.473 C 255.365 109.098,254.400 111.113,254.400 112.269 C 254.400 112.819,254.225 113.139,254.000 113.000 C 253.740 112.840,253.600 114.796,253.600 118.576 C 253.600 122.192,253.752 124.400,254.000 124.400 C 254.220 124.400,254.400 124.940,254.400 125.600 C 254.400 126.260,254.550 126.800,254.732 126.800 C 254.915 126.800,255.320 127.295,255.632 127.900 C 255.945 128.505,256.965 129.785,257.900 130.745 C 258.835 131.704,259.600 132.638,259.600 132.819 C 259.600 133.000,260.220 133.373,260.979 133.647 C 261.737 133.921,262.266 134.293,262.155 134.473 C 262.044 134.653,262.503 134.800,263.176 134.800 C 263.849 134.800,264.400 134.980,264.400 135.200 C 264.400 135.420,264.763 135.600,265.206 135.600 C 265.650 135.600,266.730 135.824,267.606 136.097 L 269.200 136.595 269.200 143.686 C 269.200 152.992,267.576 156.743,262.600 158.934 C 261.720 159.322,260.687 159.810,260.305 160.019 C 259.923 160.229,259.338 160.400,259.005 160.400 C 258.672 160.400,258.400 160.580,258.400 160.800 C 258.400 161.020,257.961 161.200,257.424 161.200 C 256.887 161.200,256.336 161.380,256.200 161.600 C 256.064 161.820,255.603 162.000,255.176 162.000 C 254.749 162.000,254.400 162.180,254.400 162.400 C 254.400 162.620,254.040 162.800,253.600 162.800 C 253.160 162.800,252.800 162.980,252.800 163.200 C 252.800 163.420,252.575 163.600,252.300 163.600 C 252.025 163.601,251.282 164.047,250.648 164.592 C 250.014 165.137,249.311 165.469,249.086 165.330 C 248.851 165.184,248.798 165.273,248.962 165.538 C 249.131 165.812,248.993 166.000,248.624 166.000 C 248.281 166.000,248.000 166.180,248.000 166.400 C 248.000 166.620,247.733 166.800,247.407 166.800 C 247.082 166.800,245.777 167.896,244.507 169.235 C 237.899 176.210,237.200 177.010,237.200 177.605 C 237.200 177.822,237.054 178.000,236.875 178.000 C 236.696 178.000,236.301 178.634,235.997 179.409 C 235.693 180.183,235.119 181.111,234.722 181.471 C 234.325 181.830,234.000 182.546,234.000 183.062 C 234.000 183.578,233.820 184.000,233.600 184.000 C 233.380 184.000,233.200 184.253,233.200 184.562 C 233.200 184.871,232.864 185.816,232.452 186.662 C 231.435 188.755,230.800 190.846,230.800 192.105 C 230.800 192.681,230.620 193.264,230.400 193.400 C 230.180 193.536,230.000 194.616,230.000 195.800 C 230.000 196.984,229.825 198.061,229.612 198.193 C 228.877 198.647,229.070 248.000,229.807 248.000 C 230.357 248.000,230.420 245.500,230.387 225.100 L 230.349 202.200 299.274 201.958 C 383.292 201.664,373.200 201.877,373.200 200.400 C 373.200 199.740,373.020 199.200,372.800 199.200 C 372.572 199.200,372.400 198.008,372.400 196.424 C 372.400 194.897,372.220 193.536,372.000 193.400 C 371.780 193.264,371.600 192.634,371.600 192.000 C 371.600 191.366,371.420 190.736,371.200 190.600 C 370.980 190.464,370.800 189.823,370.800 189.176 C 370.800 188.529,370.620 188.000,370.400 188.000 C 370.180 188.000,370.000 187.460,370.000 186.800 C 370.000 186.140,369.820 185.600,369.600 185.600 C 369.380 185.600,369.200 185.240,369.200 184.800 C 369.200 184.360,369.020 184.000,368.800 184.000 C 368.580 184.000,368.400 183.728,368.400 183.395 C 368.400 182.839,367.677 181.276,367.199 180.800 C 367.089 180.690,366.744 180.105,366.432 179.500 C 366.120 178.895,365.715 178.400,365.532 178.400 C 365.350 178.400,365.200 178.083,365.200 177.696 C 365.200 177.309,364.840 176.768,364.400 176.493 C 363.960 176.218,363.600 175.811,363.600 175.589 C 363.600 175.367,362.430 174.015,361.000 172.585 C 359.570 171.155,358.400 169.809,358.400 169.593 C 358.400 169.377,358.202 169.200,357.960 169.200 C 357.719 169.200,357.044 168.705,356.460 168.100 C 355.877 167.495,354.911 166.748,354.314 166.440 C 353.716 166.132,353.322 165.727,353.437 165.540 C 353.553 165.353,353.359 165.200,353.007 165.200 C 352.655 165.200,351.980 164.840,351.508 164.400 C 351.036 163.960,350.413 163.600,350.125 163.600 C 349.836 163.600,349.600 163.420,349.600 163.200 C 349.600 162.980,349.240 162.800,348.800 162.800 C 348.360 162.800,348.000 162.658,348.000 162.485 C 348.000 162.312,347.598 162.140,347.106 162.103 C 346.614 162.066,346.149 161.848,346.073 161.618 C 345.996 161.388,345.498 161.200,344.967 161.200 C 344.435 161.200,344.000 161.020,344.000 160.800 C 344.000 160.580,343.640 160.400,343.200 160.400 C 342.760 160.400,342.400 160.220,342.400 160.000 C 342.400 159.780,342.265 159.630,342.100 159.666 C 341.503 159.796,339.600 159.105,339.600 158.757 C 339.600 158.560,339.325 158.400,338.989 158.400 C 338.196 158.400,334.800 155.004,334.800 154.211 C 334.800 153.875,334.620 153.600,334.400 153.600 C 334.180 153.600,334.000 153.240,334.000 152.800 C 334.000 152.360,333.820 152.000,333.600 152.000 C 333.347 152.000,333.201 149.169,333.203 144.300 L 333.206 136.600 334.283 136.100 C 334.875 135.825,335.954 135.600,336.680 135.600 C 337.406 135.600,338.000 135.420,338.000 135.200 C 338.000 134.980,338.362 134.800,338.805 134.800 C 340.376 134.800,346.400 129.571,346.400 128.207 C 346.400 127.873,346.580 127.600,346.800 127.600 C 347.020 127.600,347.200 127.319,347.200 126.976 C 347.200 126.633,347.342 126.440,347.515 126.548 C 347.688 126.655,347.870 126.260,347.919 125.671 C 347.967 125.082,348.185 124.540,348.403 124.467 C 348.940 124.286,348.937 113.200,348.400 113.200 C 348.180 113.200,348.000 112.660,348.000 112.000 C 348.000 111.340,347.820 110.800,347.600 110.800 C 347.380 110.800,347.200 110.565,347.200 110.278 C 347.200 109.991,346.572 109.071,345.804 108.233 C 345.037 107.395,344.525 106.522,344.666 106.293 C 344.811 106.059,344.731 105.995,344.485 106.148 C 344.243 106.297,343.439 105.830,342.698 105.109 C 341.127 103.583,339.866 102.800,338.982 102.800 C 338.636 102.800,338.464 102.620,338.600 102.400 C 338.747 102.162,338.279 102.000,337.447 102.000 C 336.677 102.000,335.936 101.820,335.800 101.600 C 335.402 100.955,321.563 101.102,320.696 101.760 C 319.574 102.611,282.917 102.679,281.800 101.832 C 280.846 101.108,267.034 100.897,266.600 101.600 M279.831 341.848 C 281.879 347.147,282.601 351.292,282.576 357.600 C 282.543 365.998,281.401 370.640,277.544 378.060 C 275.909 381.203,270.511 388.100,268.774 389.263 C 268.239 389.623,267.407 390.291,266.926 390.749 C 264.119 393.425,258.354 396.433,251.923 398.577 L 247.800 399.951 300.844 399.975 C 351.856 399.999,357.840 399.911,357.367 399.147 C 357.249 398.956,357.506 398.800,357.939 398.800 C 358.864 398.800,362.000 397.198,362.000 396.726 C 362.000 396.547,362.261 396.400,362.581 396.400 C 363.318 396.400,369.200 390.547,369.200 389.814 C 369.200 389.513,369.335 389.207,369.500 389.133 C 369.973 388.923,371.600 385.598,371.600 384.842 C 371.600 384.467,371.763 383.989,371.961 383.780 C 372.715 382.988,372.902 378.819,373.056 359.400 L 373.214 339.400 325.991 339.248 L 278.768 339.095 279.831 341.848 " stroke="none" fill="#d2dded" fill-rule="evenodd"></path><path id="path3" d="M285.600 62.390 C 285.270 62.609,284.651 62.791,284.225 62.794 C 281.191 62.818,277.952 68.364,278.571 72.473 C 278.935 74.894,279.591 83.336,279.839 88.800 C 279.954 91.330,280.217 93.571,280.424 93.780 C 280.631 93.989,280.800 95.723,280.800 97.633 C 280.800 101.902,279.971 101.578,291.000 101.624 C 295.620 101.643,303.990 101.802,309.600 101.978 C 322.017 102.365,321.696 102.459,321.565 98.473 C 321.407 93.658,320.417 93.680,320.406 98.500 L 320.400 101.200 311.782 101.200 L 303.164 101.200 303.393 99.900 C 303.520 99.185,303.818 95.810,304.056 92.400 C 304.294 88.990,304.637 84.400,304.817 82.200 C 305.942 68.502,305.720 66.419,302.941 64.598 C 301.073 63.374,301.901 63.200,309.600 63.200 C 315.849 63.200,317.200 63.100,317.200 62.640 C 317.200 61.947,286.631 61.705,285.600 62.390 M317.867 63.067 C 317.382 63.552,317.589 64.000,318.300 64.000 C 319.118 64.001,321.200 65.685,321.200 66.347 C 321.200 66.596,321.380 66.800,321.600 66.800 C 321.820 66.800,322.000 67.059,322.000 67.376 C 322.000 67.693,322.180 68.064,322.400 68.200 C 323.367 68.798,322.679 66.456,321.500 65.136 C 319.870 63.312,318.437 62.496,317.867 63.067 M322.800 71.576 C 322.800 73.192,322.971 74.400,323.200 74.400 C 323.425 74.400,323.600 73.275,323.600 71.824 C 323.600 70.407,323.420 69.136,323.200 69.000 C 322.948 68.844,322.800 69.796,322.800 71.576 M322.000 80.200 C 322.000 83.615,322.703 85.825,322.859 82.900 C 322.928 81.593,322.925 78.565,322.852 77.300 C 322.693 74.548,322.000 76.909,322.000 80.200 M321.200 89.400 C 321.200 92.218,321.332 93.200,321.711 93.200 C 322.086 93.200,322.242 92.180,322.296 89.400 C 322.355 86.301,322.261 85.600,321.784 85.600 C 321.313 85.600,321.200 86.335,321.200 89.400 M105.780 122.369 C 105.571 122.571,102.700 122.890,99.400 123.077 L 93.400 123.418 95.380 124.355 C 98.443 125.806,102.870 130.528,104.616 134.207 C 106.740 138.682,106.844 140.762,106.714 176.011 L 106.600 207.022 105.157 208.811 C 97.665 218.099,97.745 230.599,105.361 240.576 C 106.808 242.471,106.829 242.552,106.715 245.737 C 106.586 249.358,106.552 249.398,102.800 250.433 C 96.225 252.247,88.147 259.055,84.329 266.000 C 83.067 268.297,82.432 269.918,80.754 275.132 C 80.197 276.861,80.197 287.539,80.754 289.268 C 82.439 294.504,83.061 296.103,84.309 298.397 C 86.027 301.557,89.369 305.811,91.395 307.416 C 92.217 308.067,93.365 309.006,93.945 309.501 C 95.330 310.684,100.126 313.234,102.400 313.997 L 104.200 314.600 101.800 314.686 C 84.039 315.321,71.956 321.577,63.339 334.600 C 48.105 357.623,60.195 390.684,86.600 398.209 C 87.920 398.585,89.284 399.142,89.631 399.447 C 90.367 400.091,225.835 400.286,228.400 399.646 C 229.170 399.454,230.880 399.060,232.200 398.770 C 267.084 391.112,276.079 343.149,246.438 322.848 C 241.702 319.604,239.074 318.402,231.600 316.061 C 228.849 315.199,205.448 314.808,156.471 314.804 L 106.741 314.800 103.840 313.826 C 99.976 312.529,95.603 310.208,93.506 308.342 C 92.568 307.506,91.681 306.818,91.535 306.811 C 90.076 306.749,84.143 297.573,82.605 293.000 C 76.452 274.707,85.737 256.876,104.800 250.370 L 108.600 249.074 134.200 248.803 C 155.860 248.574,160.048 248.437,161.414 247.914 C 183.930 239.293,182.877 208.426,159.800 200.629 C 158.040 200.035,156.281 199.376,155.891 199.165 C 155.472 198.939,149.006 198.793,140.091 198.810 L 125.000 198.838 124.894 187.419 C 124.810 178.421,124.895 176.000,125.294 176.001 C 125.678 176.001,125.777 174.914,125.704 171.501 C 125.651 169.025,125.540 160.700,125.458 153.000 C 125.329 140.995,125.210 138.743,124.623 137.200 C 121.789 129.755,117.259 125.331,110.049 122.967 C 106.779 121.895,106.332 121.833,105.780 122.369 M231.233 249.343 C 231.676 249.722,234.017 249.951,233.796 249.594 C 233.662 249.377,232.993 249.200,232.310 249.200 C 231.626 249.200,231.142 249.264,231.233 249.343 M239.600 251.779 C 239.600 251.889,240.140 252.259,240.800 252.600 C 241.460 252.941,242.000 253.131,242.000 253.021 C 242.000 252.911,241.460 252.541,240.800 252.200 C 240.140 251.859,239.600 251.669,239.600 251.779 M245.913 255.925 C 246.373 256.324,247.223 256.999,247.801 257.425 C 248.380 257.851,250.011 259.611,251.426 261.336 C 252.842 263.061,253.999 264.321,253.999 264.136 C 253.995 263.218,246.353 255.200,245.483 255.200 C 245.260 255.200,245.454 255.526,245.913 255.925 M255.160 267.000 C 255.834 268.305,256.388 269.028,256.385 268.600 C 256.383 268.380,256.014 267.750,255.564 267.200 C 255.021 266.536,254.885 266.469,255.160 267.000 M256.626 270.159 C 257.049 271.847,257.964 274.218,257.982 273.675 C 258.004 273.036,256.773 269.200,256.546 269.200 C 256.457 269.200,256.493 269.632,256.626 270.159 M258.447 277.233 C 258.473 278.425,258.633 279.940,258.802 280.600 C 258.976 281.281,259.018 280.415,258.898 278.600 C 258.655 274.899,258.378 274.058,258.447 277.233 M258.657 284.700 C 258.520 285.525,258.404 286.830,258.399 287.600 C 258.393 288.370,258.099 289.810,257.745 290.800 C 256.824 293.376,256.423 295.233,256.843 294.974 C 257.039 294.852,257.200 294.460,257.200 294.103 C 257.200 293.746,257.542 292.451,257.960 291.227 C 258.379 290.002,258.830 287.695,258.963 286.100 C 259.223 282.989,259.062 282.250,258.657 284.700 M254.411 298.904 C 253.898 299.837,252.864 301.365,252.113 302.300 C 250.713 304.041,250.653 304.723,252.042 303.100 C 253.047 301.925,255.676 297.542,255.488 297.355 C 255.408 297.274,254.923 297.972,254.411 298.904 M248.800 306.112 C 247.810 307.043,246.280 308.405,245.400 309.137 C 244.085 310.232,244.039 310.310,245.145 309.575 C 246.520 308.661,251.162 304.433,250.800 304.424 C 250.690 304.421,249.790 305.181,248.800 306.112 M238.000 313.224 C 237.230 313.630,236.741 313.970,236.913 313.981 C 237.403 314.011,240.000 312.866,240.000 312.620 C 240.000 312.279,239.519 312.424,238.000 313.224 M234.667 314.267 C 234.002 314.931,234.564 315.200,236.616 315.200 C 253.221 315.200,266.663 321.792,275.118 334.081 C 275.823 335.106,276.400 336.122,276.400 336.339 C 276.400 336.556,276.535 336.793,276.700 336.867 C 277.076 337.034,278.458 339.908,279.554 342.800 C 283.133 352.246,283.006 363.929,279.223 373.200 C 277.516 377.383,277.023 378.400,276.702 378.400 C 276.536 378.400,276.400 378.670,276.400 379.000 C 276.400 379.330,276.220 379.600,276.000 379.600 C 275.780 379.600,275.600 379.836,275.600 380.125 C 275.600 380.413,275.240 381.036,274.800 381.508 C 274.360 381.980,274.000 382.472,274.000 382.601 C 274.000 383.069,270.178 387.124,267.387 389.617 C 263.368 393.206,256.890 396.670,251.734 397.987 C 249.627 398.525,247.057 399.590,247.294 399.827 C 247.548 400.081,255.607 397.403,258.306 396.169 C 260.823 395.017,265.599 392.015,266.926 390.749 C 267.407 390.291,268.239 389.623,268.774 389.263 C 270.511 388.100,275.909 381.203,277.544 378.060 C 280.225 372.903,280.906 370.980,282.100 365.200 C 282.706 362.268,282.718 352.754,282.119 350.000 C 281.856 348.790,281.525 347.260,281.384 346.600 C 277.627 329.040,260.412 315.854,240.045 314.938 C 236.965 314.799,235.301 314.582,235.645 314.363 C 236.099 314.076,236.085 314.011,235.567 314.006 C 235.218 314.003,234.813 314.120,234.667 314.267 " stroke="none" fill="#7c8493" fill-rule="evenodd"></path><path id="path4" d="M184.000 4.000 C 184.000 4.220,183.640 4.400,183.200 4.400 C 182.760 4.400,182.400 4.580,182.400 4.800 C 182.400 5.020,182.164 5.200,181.875 5.200 C 181.587 5.200,180.964 5.560,180.492 6.000 C 180.020 6.440,179.356 6.800,179.017 6.800 C 178.678 6.800,178.400 6.980,178.400 7.200 C 178.400 7.420,178.130 7.600,177.800 7.600 C 177.470 7.600,177.200 7.780,177.200 8.000 C 177.200 8.220,177.022 8.400,176.805 8.400 C 176.587 8.400,176.041 8.715,175.592 9.100 C 175.142 9.485,174.731 9.710,174.678 9.600 C 174.625 9.490,174.147 9.805,173.615 10.300 C 173.084 10.795,172.453 11.200,172.213 11.200 C 171.973 11.200,171.517 11.560,171.200 12.000 C 170.883 12.440,170.420 12.800,170.171 12.800 C 169.922 12.800,169.154 13.340,168.463 14.000 C 167.772 14.660,167.052 15.200,166.863 15.200 C 166.674 15.200,165.954 15.740,165.263 16.400 C 164.572 17.060,163.918 17.600,163.808 17.600 C 163.539 17.600,162.202 18.725,160.602 20.300 C 159.875 21.015,159.167 21.600,159.029 21.600 C 158.892 21.600,157.989 22.365,157.023 23.300 C 156.057 24.235,154.036 26.120,152.533 27.489 C 151.030 28.858,149.035 30.676,148.100 31.527 C 147.165 32.379,146.400 33.198,146.400 33.347 C 146.400 33.496,145.455 34.592,144.300 35.783 C 143.145 36.974,141.480 38.786,140.600 39.809 C 139.720 40.833,138.415 42.278,137.700 43.022 C 136.985 43.765,136.400 44.558,136.400 44.783 C 136.400 45.009,136.040 45.418,135.600 45.693 C 135.160 45.968,134.800 46.353,134.800 46.549 C 134.800 46.746,134.476 47.197,134.081 47.553 C 133.686 47.909,132.929 48.830,132.400 49.600 C 131.871 50.370,131.114 51.291,130.719 51.647 C 130.324 52.003,130.000 52.548,130.000 52.859 C 130.000 53.169,129.640 53.683,129.200 54.000 C 128.760 54.317,128.400 54.773,128.400 55.013 C 128.400 55.253,128.064 55.809,127.654 56.250 C 125.770 58.272,125.812 57.753,125.575 81.800 C 125.325 107.034,125.404 106.272,122.530 111.414 C 121.229 113.742,117.125 117.966,115.173 118.986 C 111.803 120.748,110.802 121.200,110.265 121.200 C 109.950 121.200,109.215 121.447,108.633 121.749 L 107.574 122.299 109.480 122.778 C 117.449 124.785,125.167 133.496,125.194 140.513 C 125.198 141.432,125.418 142.109,125.757 142.239 C 126.582 142.555,135.819 133.766,142.600 126.212 C 144.140 124.497,146.300 122.103,147.400 120.892 C 148.500 119.682,149.662 118.311,149.981 117.846 C 150.301 117.381,151.075 116.514,151.701 115.921 C 152.327 115.328,152.786 114.757,152.720 114.653 C 152.654 114.549,152.990 114.015,153.468 113.466 C 153.945 112.917,154.557 112.048,154.828 111.534 C 155.098 111.020,155.430 110.510,155.565 110.400 C 155.700 110.290,156.528 109.120,157.405 107.800 C 158.282 106.480,159.090 105.310,159.201 105.200 C 159.311 105.090,159.656 104.505,159.968 103.900 C 160.280 103.295,160.685 102.800,160.868 102.800 C 161.050 102.800,161.200 102.440,161.200 102.000 C 161.200 101.560,161.380 101.200,161.600 101.200 C 161.820 101.200,162.000 100.930,162.000 100.600 C 162.000 100.270,162.180 100.000,162.400 100.000 C 162.620 100.000,162.800 99.730,162.800 99.400 C 162.800 99.070,162.980 98.800,163.200 98.800 C 163.420 98.800,163.600 98.480,163.600 98.088 C 163.600 97.697,163.960 97.117,164.400 96.800 C 164.840 96.483,165.200 95.903,165.200 95.512 C 165.200 95.120,165.380 94.800,165.600 94.800 C 165.820 94.800,166.000 94.440,166.000 94.000 C 166.000 93.560,166.180 93.200,166.400 93.200 C 166.620 93.200,166.800 92.840,166.800 92.400 C 166.800 91.960,166.980 91.600,167.200 91.600 C 167.420 91.600,167.600 91.240,167.600 90.800 C 167.600 90.360,167.780 90.000,168.000 90.000 C 168.220 90.000,168.400 89.730,168.400 89.400 C 168.400 89.070,168.580 88.800,168.800 88.800 C 169.020 88.800,169.200 88.455,169.200 88.033 C 169.200 87.612,169.335 87.207,169.500 87.133 C 169.665 87.060,170.187 86.190,170.661 85.200 C 174.371 77.443,175.200 75.507,175.200 74.595 C 175.200 74.002,175.372 73.659,175.600 73.800 C 175.827 73.940,176.000 73.604,176.000 73.024 C 176.000 72.461,176.180 72.000,176.400 72.000 C 176.620 72.000,176.800 71.561,176.800 71.024 C 176.800 70.487,176.980 69.936,177.200 69.800 C 177.420 69.664,177.600 69.113,177.600 68.576 C 177.600 68.039,177.780 67.600,178.000 67.600 C 178.220 67.600,178.400 67.240,178.400 66.800 C 178.400 66.360,178.580 66.000,178.800 66.000 C 179.020 66.000,179.200 65.460,179.200 64.800 C 179.200 64.140,179.380 63.600,179.600 63.600 C 179.820 63.600,180.000 62.970,180.000 62.200 C 180.000 61.430,180.180 60.800,180.400 60.800 C 180.620 60.800,180.800 60.260,180.800 59.600 C 180.800 58.940,180.980 58.400,181.200 58.400 C 181.420 58.400,181.600 57.860,181.600 57.200 C 181.600 56.540,181.780 56.000,182.000 56.000 C 182.220 56.000,182.400 55.471,182.400 54.824 C 182.400 54.177,182.580 53.536,182.800 53.400 C 183.020 53.264,183.200 52.544,183.200 51.800 C 183.200 51.056,183.380 50.336,183.600 50.200 C 183.820 50.064,184.000 49.344,184.000 48.600 C 184.000 47.856,184.180 47.136,184.400 47.000 C 184.620 46.864,184.800 46.144,184.800 45.400 C 184.800 44.656,184.980 43.936,185.200 43.800 C 185.420 43.664,185.600 42.764,185.600 41.800 C 185.600 40.836,185.780 39.936,186.000 39.800 C 186.220 39.664,186.400 38.674,186.400 37.600 C 186.400 36.526,186.580 35.536,186.800 35.400 C 187.020 35.264,187.200 34.173,187.200 32.976 C 187.200 31.779,187.367 30.800,187.571 30.800 C 187.774 30.800,188.045 29.225,188.172 27.300 C 188.299 25.375,188.585 21.550,188.808 18.800 C 189.733 7.379,189.728 6.706,188.711 5.600 C 187.110 3.859,184.000 2.803,184.000 4.000 " stroke="none" fill="#5cecbc" fill-rule="evenodd"></path></g></svg>