<svg id="svg" version="1.1" xmlns="http://www.w3.org/2000/svg" xmlns:xlink="http://www.w3.org/1999/xlink" width="400" height="400" viewBox="0, 0, 400,400"><g id="svgg"><path id="path0" d="M187.600 39.965 C 175.804 41.758,173.727 59.384,184.737 64.269 C 187.111 65.323,193.313 65.211,195.634 64.073 C 209.017 57.510,202.420 37.713,187.600 39.965 M313.600 85.846 C 293.859 89.628,288.903 117.161,306.100 127.513 C 311.075 130.507,320.003 131.747,324.400 130.055 C 338.427 124.654,344.205 111.377,338.263 98.200 C 334.432 89.706,323.095 84.027,313.600 85.846 M187.200 125.166 C 184.256 125.780,182.278 127.531,164.777 145.013 C 144.448 165.320,144.669 165.041,144.662 170.400 C 144.651 177.920,149.787 183.000,157.400 183.000 C 163.088 183.000,162.828 183.192,179.600 166.591 C 187.630 158.643,194.689 151.839,195.286 151.470 C 196.267 150.865,198.491 150.800,218.327 150.800 L 240.282 150.800 241.604 151.700 C 244.168 153.445,245.381 156.174,244.903 159.122 C 244.740 160.127,238.344 170.038,223.572 192.178 C 211.968 209.570,202.592 223.922,202.737 224.071 C 202.882 224.220,208.580 224.980,215.400 225.761 C 222.220 226.541,228.649 227.279,229.686 227.402 C 231.571 227.624,231.572 227.623,232.428 225.945 C 235.386 220.147,256.461 189.585,258.066 188.766 C 262.886 186.307,264.938 187.936,272.357 200.115 C 273.324 201.702,274.784 204.080,275.601 205.400 C 276.419 206.720,279.026 210.950,281.394 214.800 C 285.415 221.336,286.690 223.401,289.960 228.669 C 292.353 232.526,295.295 234.728,299.216 235.598 C 301.575 236.121,303.139 235.932,312.600 233.976 C 314.800 233.521,317.500 232.981,318.600 232.776 C 319.700 232.570,321.410 232.219,322.400 231.996 C 323.390 231.773,325.190 231.412,326.400 231.193 C 329.145 230.698,331.565 230.222,334.400 229.621 C 335.610 229.364,337.500 228.985,338.600 228.778 C 339.700 228.571,341.410 228.219,342.400 227.996 C 343.390 227.773,345.190 227.417,346.400 227.204 C 347.610 226.992,350.310 226.452,352.400 226.004 C 354.490 225.556,357.133 225.023,358.274 224.820 C 359.414 224.617,361.484 224.184,362.874 223.859 C 364.263 223.534,366.570 223.044,368.000 222.771 C 375.865 221.265,379.740 216.987,379.748 209.800 C 379.760 199.234,372.359 195.478,357.600 198.559 C 354.630 199.179,351.300 199.863,350.200 200.079 C 349.100 200.294,347.480 200.611,346.600 200.784 C 343.756 201.340,338.650 202.377,336.700 202.794 C 334.200 203.328,331.548 203.859,328.600 204.413 C 327.280 204.662,325.480 205.016,324.600 205.200 C 323.082 205.518,320.406 206.049,316.400 206.826 C 315.410 207.019,313.835 207.342,312.899 207.546 C 311.181 207.919,309.193 207.549,307.363 206.513 C 306.623 206.094,303.733 201.797,298.680 193.600 C 297.799 192.170,296.475 190.058,295.739 188.906 C 295.002 187.755,294.400 186.630,294.400 186.406 C 294.400 186.183,294.220 186.000,294.000 186.000 C 293.780 186.000,293.600 185.817,293.600 185.594 C 293.600 185.370,292.998 184.245,292.261 183.094 C 290.731 180.700,288.723 177.452,285.405 172.000 C 284.133 169.910,282.306 166.987,281.346 165.505 C 280.386 164.022,279.600 162.705,279.600 162.577 C 279.600 162.449,279.060 161.559,278.400 160.600 C 277.740 159.641,277.200 158.663,277.200 158.428 C 277.200 158.193,277.020 158.000,276.800 158.000 C 276.580 158.000,276.400 157.807,276.400 157.572 C 276.400 157.337,275.879 156.387,275.243 155.462 C 274.606 154.537,273.553 152.884,272.903 151.790 C 271.822 149.971,270.479 147.787,264.462 138.071 C 263.328 136.239,262.400 134.655,262.400 134.549 C 262.400 133.239,257.223 127.318,255.289 126.415 C 254.690 126.136,253.840 125.703,253.400 125.453 C 252.485 124.935,189.617 124.662,187.200 125.166 " stroke="none" fill="#f7d623" fill-rule="evenodd"></path><path id="path1" d="M103.045 137.135 C 101.513 139.345,101.299 139.466,80.600 149.807 C 59.447 160.375,59.427 160.382,55.528 157.691 C 54.498 156.981,53.552 156.400,53.424 156.400 C 53.296 156.400,51.709 155.435,49.896 154.257 C 48.083 153.078,44.890 151.041,42.800 149.731 C 34.778 144.703,30.971 142.327,30.207 141.872 C 29.770 141.613,28.690 140.930,27.807 140.355 C 22.135 136.665,18.396 136.621,15.246 140.209 C 13.496 142.202,12.925 144.394,13.550 146.727 C 14.476 150.190,14.559 150.253,34.800 162.813 C 42.967 167.881,51.207 173.033,53.000 174.192 C 58.965 178.051,57.356 178.510,83.243 165.546 C 109.922 152.186,105.367 152.857,119.973 160.133 C 132.294 166.272,131.502 165.980,131.825 164.500 C 132.494 161.433,134.361 157.464,136.428 154.714 C 137.293 153.563,138.000 152.483,138.000 152.313 C 138.000 152.143,134.805 150.404,130.900 148.448 C 126.995 146.492,123.492 144.549,123.115 144.131 C 122.221 143.138,121.200 140.671,121.200 139.504 C 121.200 138.564,118.584 137.600,116.035 137.600 C 115.517 137.600,114.442 137.432,113.646 137.227 C 106.366 135.352,104.293 135.334,103.045 137.135 M172.600 191.826 C 170.564 193.474,165.934 195.531,163.100 196.047 C 161.615 196.317,160.400 196.708,160.400 196.915 C 160.400 197.465,173.630 223.972,174.027 224.217 C 174.391 224.441,186.996 218.253,187.354 217.675 C 187.591 217.291,175.128 192.149,174.303 191.345 C 173.904 190.956,173.551 191.056,172.600 191.826 M88.600 223.337 C 78.699 226.625,75.464 238.007,82.399 245.151 C 83.468 246.252,117.506 268.003,119.324 268.747 C 119.522 268.828,121.011 269.773,122.633 270.847 C 124.255 271.921,125.662 272.800,125.761 272.800 C 125.860 272.800,127.259 273.667,128.871 274.726 C 139.548 281.746,142.870 282.941,147.754 281.521 C 148.659 281.258,162.647 274.418,178.838 266.321 C 202.939 254.269,208.569 251.600,209.888 251.600 C 211.797 251.600,263.418 277.107,265.258 278.960 C 265.840 279.546,273.208 293.806,281.630 310.649 C 299.705 346.795,298.886 345.568,305.898 347.035 C 314.849 348.907,322.990 340.564,320.839 331.724 C 319.985 328.216,286.529 261.806,284.632 259.855 C 283.500 258.689,281.220 257.266,277.390 255.332 C 242.898 237.917,235.617 234.184,234.495 233.337 C 233.193 232.354,232.000 230.165,232.000 228.759 C 232.000 227.883,231.698 227.808,225.800 227.207 C 223.380 226.961,220.050 226.594,218.400 226.392 C 216.750 226.190,213.870 225.842,212.000 225.618 C 210.130 225.395,207.093 225.016,205.252 224.777 C 201.923 224.345,201.898 224.348,200.813 225.387 C 198.179 227.911,147.987 252.513,145.400 252.548 L 143.000 252.581 133.200 246.425 C 127.810 243.038,121.600 239.156,119.400 237.796 C 113.678 234.259,109.691 231.770,104.112 228.250 C 96.051 223.165,92.502 222.041,88.600 223.337 " stroke="none" fill="#3648a7" fill-rule="evenodd"></path><path id="path2" d="M90.800 66.072 C 88.618 66.560,63.366 91.191,61.963 94.200 C 59.619 99.230,63.367 104.834,69.046 104.791 C 71.672 104.771,73.425 103.371,83.661 93.116 C 89.237 87.529,94.368 82.562,95.062 82.079 C 96.313 81.208,96.469 81.200,113.224 81.200 L 130.124 81.200 131.496 82.246 C 137.003 86.447,137.033 86.372,119.100 113.301 C 111.235 125.111,104.800 134.857,104.800 134.958 C 104.800 135.254,115.325 137.325,119.300 137.811 C 121.227 138.047,121.600 137.992,121.600 137.476 C 121.600 136.402,139.005 110.589,140.495 109.453 C 141.613 108.600,142.309 108.400,144.158 108.400 C 148.078 108.400,148.878 109.107,153.210 116.400 C 154.581 118.710,156.220 121.352,156.852 122.272 C 157.483 123.192,158.000 124.057,158.000 124.194 C 158.000 124.331,158.741 125.535,159.647 126.869 L 161.294 129.295 166.647 123.953 C 169.591 121.015,172.000 118.482,172.000 118.324 C 172.000 117.991,166.832 109.404,165.142 106.928 C 164.514 106.008,164.000 105.151,164.000 105.022 C 164.000 104.893,163.398 103.845,162.661 102.694 C 161.925 101.542,160.598 99.430,159.712 98.000 C 158.827 96.570,156.279 92.463,154.051 88.874 C 151.823 85.285,150.000 82.257,150.000 82.146 C 150.000 82.035,149.460 81.159,148.800 80.200 C 148.140 79.241,147.600 78.367,147.600 78.257 C 147.600 78.148,146.732 76.741,145.672 75.129 C 144.611 73.518,143.640 71.930,143.513 71.600 C 142.921 70.057,140.646 67.534,139.105 66.711 L 137.400 65.800 115.000 65.735 C 101.191 65.695,91.910 65.824,90.800 66.072 M316.500 131.076 C 316.885 131.176,317.515 131.176,317.900 131.076 C 318.285 130.975,317.970 130.893,317.200 130.893 C 316.430 130.893,316.115 130.975,316.500 131.076 " stroke="none" fill="#f14333" fill-rule="evenodd"></path><path id="path3" d="M187.152 25.381 C 187.053 25.481,185.898 25.759,184.586 26.001 C 180.441 26.763,180.000 26.882,180.000 27.245 C 180.000 27.440,179.747 27.600,179.438 27.600 C 178.681 27.600,175.600 29.265,175.600 29.674 C 175.600 29.853,175.319 30.000,174.975 30.000 C 174.204 30.000,167.600 36.659,167.600 37.437 C 167.600 37.746,167.420 38.000,167.200 38.000 C 166.980 38.000,166.800 38.360,166.800 38.800 C 166.800 39.240,166.620 39.600,166.400 39.600 C 166.180 39.600,166.000 39.960,166.000 40.400 C 166.000 40.840,165.820 41.200,165.600 41.200 C 165.380 41.200,165.200 41.560,165.200 42.000 C 165.200 42.440,165.020 42.800,164.800 42.800 C 164.580 42.800,164.400 43.239,164.400 43.776 C 164.400 44.313,164.220 44.864,164.000 45.000 C 163.780 45.136,163.600 46.216,163.600 47.400 C 163.600 48.584,163.420 49.664,163.200 49.800 C 162.980 49.936,162.800 51.106,162.800 52.400 C 162.800 53.694,162.980 54.864,163.200 55.000 C 163.420 55.136,163.600 56.227,163.600 57.424 C 163.600 58.621,163.780 59.600,164.000 59.600 C 164.220 59.600,164.400 60.140,164.400 60.800 C 164.400 61.460,164.580 62.000,164.800 62.000 C 165.020 62.000,165.200 62.439,165.200 62.976 C 165.200 63.513,165.380 64.064,165.600 64.200 C 165.820 64.336,166.000 64.757,166.000 65.135 C 166.000 65.514,166.360 66.083,166.800 66.400 C 167.240 66.717,167.600 67.225,167.600 67.528 C 167.600 67.831,168.140 68.583,168.800 69.200 C 169.460 69.817,170.002 70.474,170.004 70.660 C 170.006 70.847,170.564 71.440,171.244 71.977 C 171.924 72.514,173.021 73.459,173.682 74.077 C 174.344 74.695,175.136 75.200,175.442 75.200 C 175.749 75.200,176.000 75.380,176.000 75.600 C 176.000 75.820,176.360 76.000,176.800 76.000 C 177.240 76.000,177.600 76.180,177.600 76.400 C 177.600 76.620,177.960 76.800,178.400 76.800 C 178.840 76.800,179.200 76.980,179.200 77.200 C 179.200 77.420,179.639 77.600,180.176 77.600 C 180.713 77.600,181.264 77.780,181.400 78.000 C 181.536 78.220,182.177 78.400,182.824 78.400 C 183.471 78.400,184.000 78.580,184.000 78.800 C 184.000 79.339,195.867 79.339,196.200 78.800 C 196.336 78.580,196.977 78.400,197.624 78.400 C 198.271 78.400,198.800 78.220,198.800 78.000 C 198.800 77.780,199.340 77.600,200.000 77.600 C 200.660 77.600,201.200 77.420,201.200 77.200 C 201.200 76.980,201.560 76.800,202.000 76.800 C 202.440 76.800,202.800 76.620,202.800 76.400 C 202.800 76.180,203.160 76.000,203.600 76.000 C 204.040 76.000,204.400 75.820,204.400 75.600 C 204.400 75.380,204.690 75.200,205.045 75.200 C 205.837 75.200,212.800 68.176,212.800 67.376 C 212.800 67.059,212.980 66.800,213.200 66.800 C 213.420 66.800,213.600 66.440,213.600 66.000 C 213.600 65.560,213.780 65.200,214.000 65.200 C 214.220 65.200,214.400 64.840,214.400 64.400 C 214.400 63.960,214.580 63.600,214.800 63.600 C 215.020 63.600,215.200 63.240,215.200 62.800 C 215.200 62.360,215.380 62.000,215.600 62.000 C 215.820 62.000,216.000 61.280,216.000 60.400 C 216.000 59.520,216.180 58.800,216.400 58.800 C 216.651 58.800,216.800 56.333,216.800 52.200 C 216.800 48.067,216.651 45.600,216.400 45.600 C 216.180 45.600,216.000 45.060,216.000 44.400 C 216.000 43.740,215.820 43.200,215.600 43.200 C 215.380 43.200,215.200 42.750,215.200 42.200 C 215.200 41.650,215.020 41.200,214.800 41.200 C 214.580 41.200,214.400 40.840,214.400 40.400 C 214.400 39.960,214.220 39.600,214.000 39.600 C 213.780 39.600,213.600 39.280,213.600 38.888 C 213.600 38.497,213.240 37.917,212.800 37.600 C 212.360 37.283,212.000 36.792,212.000 36.509 C 212.000 35.933,207.081 30.800,206.529 30.800 C 206.335 30.800,205.917 30.440,205.600 30.000 C 205.283 29.560,204.703 29.200,204.312 29.200 C 203.920 29.200,203.600 29.020,203.600 28.800 C 203.600 28.580,203.240 28.400,202.800 28.400 C 202.360 28.400,202.000 28.220,202.000 28.000 C 202.000 27.780,201.640 27.600,201.200 27.600 C 200.760 27.600,200.400 27.420,200.400 27.200 C 200.400 26.980,199.948 26.800,199.395 26.800 C 198.842 26.800,198.077 26.639,197.695 26.443 C 196.011 25.578,187.784 24.749,187.152 25.381 M192.828 39.362 C 206.560 42.646,207.232 61.310,193.766 65.395 C 187.763 67.216,181.052 64.159,178.004 58.215 C 176.861 55.985,176.518 48.922,177.504 47.936 C 177.777 47.663,178.000 47.116,178.000 46.720 C 178.000 46.324,178.180 46.000,178.400 46.000 C 178.620 46.000,178.800 45.744,178.800 45.432 C 178.800 43.684,183.757 40.185,187.400 39.362 C 190.105 38.751,190.277 38.751,192.828 39.362 M87.200 52.400 C 87.200 52.620,86.660 52.800,86.000 52.800 C 85.340 52.800,84.800 52.980,84.800 53.200 C 84.800 53.420,84.260 53.600,83.600 53.600 C 82.940 53.600,82.400 53.780,82.400 54.000 C 82.400 54.220,82.130 54.400,81.800 54.400 C 81.470 54.400,81.200 54.580,81.200 54.800 C 81.200 55.020,81.022 55.200,80.805 55.200 C 79.631 55.200,51.200 83.000,51.200 84.148 C 51.200 84.409,50.840 84.883,50.400 85.200 C 49.960 85.517,49.600 86.097,49.600 86.488 C 49.600 86.880,49.420 87.200,49.200 87.200 C 48.980 87.200,48.800 87.560,48.800 88.000 C 48.800 88.440,48.620 88.800,48.400 88.800 C 48.180 88.800,48.000 89.340,48.000 90.000 C 48.000 90.660,47.820 91.200,47.600 91.200 C 47.380 91.200,47.200 91.999,47.200 92.976 C 47.200 93.953,47.020 94.864,46.800 95.000 C 46.580 95.136,46.400 96.306,46.400 97.600 C 46.400 98.894,46.580 100.064,46.800 100.200 C 47.020 100.336,47.200 101.236,47.200 102.200 C 47.200 103.164,47.380 104.064,47.600 104.200 C 47.820 104.336,48.000 104.887,48.000 105.424 C 48.000 105.961,48.180 106.400,48.400 106.400 C 48.620 106.400,48.800 106.760,48.800 107.200 C 48.800 107.640,48.980 108.000,49.200 108.000 C 49.420 108.000,49.600 108.264,49.600 108.586 C 49.600 109.374,56.142 116.000,56.919 116.000 C 57.257 116.000,57.593 116.135,57.667 116.300 C 57.939 116.914,61.316 118.400,62.438 118.400 C 63.077 118.400,63.600 118.580,63.600 118.800 C 63.600 119.043,65.392 119.200,68.176 119.200 C 70.796 119.200,72.858 119.029,73.000 118.800 C 73.136 118.580,73.867 118.400,74.624 118.400 C 75.381 118.400,76.000 118.220,76.000 118.000 C 76.000 117.780,76.360 117.600,76.800 117.600 C 77.240 117.600,77.600 117.420,77.600 117.200 C 77.600 116.980,77.960 116.800,78.400 116.800 C 78.840 116.800,79.200 116.620,79.200 116.400 C 79.200 116.180,79.520 116.000,79.912 116.000 C 80.303 116.000,80.883 115.640,81.200 115.200 C 81.517 114.760,82.007 114.400,82.288 114.400 C 82.570 114.400,82.800 114.220,82.800 114.000 C 82.800 113.780,82.964 113.600,83.164 113.600 C 83.364 113.600,87.770 109.370,92.954 104.200 L 102.379 94.800 107.989 94.800 C 113.948 94.800,114.397 94.967,112.900 96.625 C 112.515 97.051,111.945 97.895,111.632 98.500 C 111.320 99.105,110.915 99.600,110.732 99.600 C 110.550 99.600,110.400 99.808,110.400 100.062 C 110.400 100.316,109.950 101.114,109.400 101.836 C 108.850 102.557,108.400 103.389,108.400 103.685 C 108.400 103.981,108.040 104.483,107.600 104.800 C 107.160 105.117,106.800 105.631,106.800 105.941 C 106.800 106.252,106.484 106.797,106.097 107.153 C 105.711 107.509,105.140 108.295,104.830 108.900 C 104.519 109.505,104.115 110.000,103.932 110.000 C 103.750 110.000,103.600 110.270,103.600 110.600 C 103.600 110.930,103.420 111.200,103.200 111.200 C 102.980 111.200,102.800 111.436,102.800 111.725 C 102.800 112.013,102.440 112.636,102.000 113.108 C 101.560 113.580,101.200 114.154,101.200 114.383 C 101.200 114.612,101.020 114.800,100.800 114.800 C 100.580 114.800,100.400 114.988,100.400 115.217 C 100.400 115.446,100.040 116.020,99.600 116.492 C 99.160 116.964,98.800 117.587,98.800 117.875 C 98.800 118.164,98.642 118.400,98.449 118.400 C 98.255 118.400,97.873 118.940,97.600 119.600 C 97.327 120.260,96.967 120.800,96.800 120.800 C 96.633 120.800,96.273 121.340,96.000 122.000 C 95.727 122.660,95.367 123.200,95.200 123.200 C 95.033 123.200,94.673 123.740,94.400 124.400 C 94.127 125.060,93.786 125.600,93.642 125.600 C 93.499 125.600,93.043 126.230,92.628 127.000 C 92.186 127.821,91.569 128.400,91.137 128.400 C 90.732 128.400,90.400 128.580,90.400 128.800 C 90.400 129.020,90.040 129.200,89.600 129.200 C 89.160 129.200,88.800 129.380,88.800 129.600 C 88.800 129.820,88.440 130.000,88.000 130.000 C 87.560 130.000,87.200 130.180,87.200 130.400 C 87.200 130.620,86.840 130.800,86.400 130.800 C 85.960 130.800,85.600 130.980,85.600 131.200 C 85.600 131.420,85.240 131.600,84.800 131.600 C 84.360 131.600,84.000 131.780,84.000 132.000 C 84.000 132.220,83.640 132.400,83.200 132.400 C 82.760 132.400,82.400 132.580,82.400 132.800 C 82.400 133.020,82.040 133.200,81.600 133.200 C 81.160 133.200,80.799 133.335,80.799 133.500 C 80.798 133.665,79.808 134.250,78.600 134.800 C 77.392 135.350,76.402 135.935,76.401 136.100 C 76.401 136.265,76.040 136.400,75.600 136.400 C 75.160 136.400,74.800 136.580,74.800 136.800 C 74.800 137.020,74.440 137.200,74.000 137.200 C 73.560 137.200,73.200 137.380,73.200 137.600 C 73.200 137.820,72.840 138.000,72.400 138.000 C 71.960 138.000,71.600 138.180,71.600 138.400 C 71.600 138.620,71.240 138.800,70.800 138.800 C 70.360 138.800,70.000 138.980,70.000 139.200 C 70.000 139.420,69.640 139.600,69.200 139.600 C 68.760 139.600,68.400 139.780,68.400 140.000 C 68.400 140.220,68.040 140.400,67.600 140.400 C 67.160 140.400,66.800 140.580,66.800 140.800 C 66.800 141.020,66.440 141.200,66.000 141.200 C 65.560 141.200,65.200 141.380,65.200 141.600 C 65.200 141.820,64.885 142.002,64.500 142.005 C 64.115 142.007,63.028 142.451,62.085 142.990 L 60.370 143.971 58.204 142.585 C 57.013 141.823,55.850 141.200,55.619 141.200 C 55.389 141.200,55.200 141.020,55.200 140.800 C 55.200 140.580,54.930 140.400,54.600 140.400 C 54.270 140.400,54.000 140.220,54.000 140.000 C 54.000 139.780,53.730 139.600,53.400 139.600 C 53.070 139.600,52.800 139.420,52.800 139.200 C 52.800 138.980,52.480 138.800,52.088 138.800 C 51.697 138.800,51.117 138.440,50.800 138.000 C 50.483 137.560,49.986 137.200,49.695 137.200 C 49.404 137.200,48.780 136.840,48.308 136.400 C 47.836 135.960,47.213 135.600,46.925 135.600 C 46.636 135.600,46.400 135.420,46.400 135.200 C 46.400 134.980,46.080 134.800,45.688 134.800 C 45.297 134.800,44.717 134.440,44.400 134.000 C 44.083 133.560,43.503 133.200,43.112 133.200 C 42.720 133.200,42.400 133.020,42.400 132.800 C 42.400 132.580,42.130 132.400,41.800 132.400 C 41.470 132.400,41.200 132.250,41.200 132.068 C 41.200 131.885,40.705 131.480,40.100 131.168 C 39.495 130.855,38.651 130.285,38.225 129.900 C 37.798 129.515,37.213 129.200,36.925 129.200 C 36.636 129.200,36.400 129.020,36.400 128.800 C 36.400 128.580,36.122 128.400,35.783 128.400 C 35.444 128.400,34.780 128.040,34.308 127.600 C 33.836 127.160,33.213 126.800,32.925 126.800 C 32.636 126.800,32.400 126.620,32.400 126.400 C 32.400 126.180,32.151 126.000,31.846 126.000 C 31.541 126.000,30.776 125.731,30.146 125.402 C 29.516 125.074,28.505 124.804,27.900 124.802 C 27.295 124.801,26.800 124.620,26.800 124.400 C 26.800 124.151,24.467 124.000,20.600 124.000 C 16.733 124.000,14.400 124.151,14.400 124.400 C 14.400 124.620,14.021 124.800,13.558 124.800 C 12.728 124.800,8.801 126.591,8.404 127.151 C 8.292 127.309,7.570 127.874,6.800 128.406 C 5.049 129.616,4.400 130.240,4.400 130.712 C 4.400 130.915,3.860 131.646,3.200 132.337 C 2.540 133.028,2.000 133.864,2.000 134.196 C 2.000 134.528,1.820 134.800,1.600 134.800 C 1.380 134.800,1.200 135.145,1.200 135.567 C 1.200 135.988,0.975 136.408,0.700 136.500 C 0.321 136.626,0.200 138.689,0.200 145.000 C 0.200 151.311,0.321 153.374,0.700 153.500 C 0.975 153.592,1.200 154.012,1.200 154.433 C 1.200 154.855,1.380 155.200,1.600 155.200 C 1.820 155.200,2.000 155.560,2.000 156.000 C 2.000 156.440,2.180 156.800,2.400 156.800 C 2.620 156.800,2.800 156.983,2.800 157.207 C 2.800 157.625,7.805 162.800,8.209 162.800 C 8.333 162.800,8.820 163.160,9.292 163.600 C 9.764 164.040,10.387 164.400,10.675 164.400 C 10.964 164.400,11.200 164.580,11.200 164.800 C 11.200 165.020,11.470 165.200,11.800 165.200 C 12.130 165.200,12.400 165.380,12.400 165.600 C 12.400 165.820,12.670 166.000,13.000 166.000 C 13.330 166.000,13.600 166.180,13.600 166.400 C 13.600 166.620,13.920 166.800,14.312 166.800 C 14.703 166.800,15.283 167.160,15.600 167.600 C 15.917 168.040,16.414 168.400,16.705 168.400 C 16.996 168.400,17.620 168.760,18.092 169.200 C 18.564 169.640,19.187 170.000,19.475 170.000 C 19.764 170.000,20.000 170.180,20.000 170.400 C 20.000 170.620,20.320 170.800,20.712 170.800 C 21.103 170.800,21.683 171.160,22.000 171.600 C 22.317 172.040,22.882 172.400,23.255 172.400 C 23.628 172.400,23.993 172.535,24.067 172.700 C 24.278 173.175,26.527 174.660,27.508 174.971 C 27.998 175.126,28.400 175.422,28.400 175.627 C 28.400 175.832,28.678 176.000,29.017 176.000 C 29.356 176.000,30.020 176.360,30.492 176.800 C 30.964 177.240,31.587 177.600,31.875 177.600 C 32.164 177.600,32.400 177.780,32.400 178.000 C 32.400 178.220,32.636 178.400,32.925 178.400 C 33.213 178.400,33.836 178.760,34.308 179.200 C 34.780 179.640,35.404 180.000,35.695 180.000 C 35.986 180.000,36.483 180.360,36.800 180.800 C 37.117 181.240,37.697 181.600,38.088 181.600 C 38.480 181.600,38.800 181.780,38.800 182.000 C 38.800 182.220,39.036 182.400,39.325 182.400 C 39.613 182.400,40.198 182.715,40.625 183.100 C 41.051 183.485,41.895 184.055,42.500 184.368 C 43.105 184.680,43.600 185.085,43.600 185.268 C 43.600 185.450,43.870 185.600,44.200 185.600 C 44.530 185.600,44.800 185.780,44.800 186.000 C 44.800 186.220,45.078 186.400,45.417 186.400 C 45.756 186.400,46.420 186.760,46.892 187.200 C 47.364 187.640,47.987 188.000,48.275 188.000 C 48.564 188.000,48.800 188.180,48.800 188.400 C 48.800 188.620,49.149 188.800,49.576 188.800 C 50.003 188.800,50.464 188.980,50.600 189.200 C 50.736 189.420,51.251 189.600,51.744 189.600 C 52.237 189.600,52.842 189.802,53.088 190.048 C 53.685 190.645,64.330 190.630,64.928 190.032 C 65.166 189.794,65.864 189.600,66.480 189.600 C 67.096 189.600,67.600 189.420,67.600 189.200 C 67.600 188.980,67.848 188.800,68.151 188.800 C 68.649 188.800,72.970 186.652,82.338 181.748 C 84.175 180.786,85.915 180.000,86.205 180.000 C 86.496 180.000,86.793 179.859,86.867 179.687 C 86.994 179.390,94.752 175.493,97.500 174.347 C 98.215 174.049,98.800 173.669,98.800 173.502 C 98.800 173.336,99.034 173.200,99.320 173.200 C 100.056 173.200,101.993 172.259,101.997 171.900 C 101.999 171.735,102.265 171.600,102.588 171.600 C 102.911 171.600,103.817 171.240,104.600 170.800 C 106.723 169.608,107.447 169.764,112.925 172.600 C 115.687 174.030,118.229 175.200,118.574 175.200 C 118.918 175.200,119.200 175.380,119.200 175.600 C 119.200 175.820,119.560 176.000,120.000 176.000 C 120.440 176.000,120.800 176.180,120.800 176.400 C 120.800 176.620,121.160 176.800,121.600 176.800 C 122.040 176.800,122.400 176.980,122.400 177.200 C 122.400 177.420,122.760 177.600,123.200 177.600 C 123.640 177.600,124.000 177.780,124.000 178.000 C 124.000 178.220,124.360 178.400,124.800 178.400 C 125.240 178.400,125.600 178.580,125.600 178.800 C 125.600 179.020,125.872 179.200,126.205 179.200 C 126.783 179.200,128.376 179.951,128.800 180.423 C 128.910 180.545,129.945 181.085,131.101 181.623 C 132.466 182.258,133.375 182.985,133.698 183.700 C 133.972 184.305,134.331 184.800,134.498 184.800 C 134.664 184.800,134.800 185.067,134.800 185.393 C 134.800 185.719,135.295 186.544,135.900 187.227 C 138.117 189.727,139.636 191.200,139.995 191.200 C 140.333 191.200,141.453 192.261,142.700 193.764 C 142.975 194.095,143.200 194.644,143.200 194.983 C 143.200 195.322,143.380 195.600,143.600 195.600 C 143.820 195.600,144.000 195.960,144.000 196.400 C 144.000 196.840,144.180 197.200,144.400 197.200 C 144.620 197.200,144.800 197.560,144.800 198.000 C 144.800 198.440,144.980 198.800,145.200 198.800 C 145.420 198.800,145.600 199.160,145.600 199.600 C 145.600 200.040,145.780 200.400,146.000 200.400 C 146.220 200.400,146.400 200.760,146.400 201.200 C 146.400 201.640,146.580 202.000,146.800 202.000 C 147.020 202.000,147.200 202.360,147.200 202.800 C 147.200 203.240,147.380 203.600,147.600 203.600 C 147.820 203.600,148.000 203.960,148.000 204.400 C 148.000 204.840,148.180 205.200,148.400 205.200 C 148.620 205.200,148.800 205.560,148.800 206.000 C 148.800 206.440,148.946 206.800,149.125 206.800 C 149.304 206.800,149.698 207.430,150.000 208.200 C 150.302 208.970,150.696 209.600,150.875 209.600 C 151.054 209.600,151.200 209.960,151.200 210.400 C 151.200 210.840,151.380 211.200,151.600 211.200 C 151.820 211.200,152.000 211.560,152.000 212.000 C 152.000 212.440,152.180 212.800,152.400 212.800 C 152.620 212.800,152.800 213.160,152.800 213.600 C 152.800 214.040,152.980 214.400,153.200 214.400 C 153.420 214.400,153.600 214.760,153.600 215.200 C 153.600 215.640,153.780 216.000,154.000 216.000 C 154.220 216.000,154.400 216.360,154.400 216.800 C 154.400 217.240,154.580 217.600,154.800 217.600 C 155.020 217.600,155.200 217.960,155.200 218.400 C 155.200 218.840,155.380 219.200,155.600 219.200 C 155.820 219.200,156.000 219.560,156.000 220.000 C 156.000 220.440,156.180 220.800,156.400 220.800 C 156.620 220.800,156.800 221.160,156.800 221.600 C 156.800 222.040,156.980 222.400,157.200 222.400 C 157.420 222.400,157.600 222.760,157.600 223.200 C 157.600 223.640,157.766 224.000,157.968 224.000 C 158.171 224.000,158.455 224.538,158.599 225.195 C 158.743 225.853,159.028 226.494,159.231 226.619 C 159.434 226.745,159.600 227.197,159.600 227.624 C 159.600 228.051,159.780 228.400,160.000 228.400 C 160.220 228.400,160.400 228.831,160.400 229.358 C 160.400 230.195,159.609 230.708,154.100 233.441 C 150.635 235.160,147.710 236.664,147.600 236.783 C 147.061 237.368,145.600 237.967,145.600 237.603 C 145.600 237.382,145.280 237.200,144.888 237.200 C 144.497 237.200,143.917 236.840,143.600 236.400 C 143.283 235.960,142.703 235.600,142.312 235.600 C 141.920 235.600,141.600 235.420,141.600 235.200 C 141.600 234.980,141.330 234.800,141.000 234.800 C 140.670 234.800,140.400 234.650,140.400 234.468 C 140.400 234.285,139.905 233.880,139.300 233.568 C 138.695 233.255,137.851 232.685,137.425 232.300 C 136.998 231.915,136.413 231.600,136.125 231.600 C 135.836 231.600,135.600 231.420,135.600 231.200 C 135.600 230.980,135.280 230.800,134.888 230.800 C 134.497 230.800,133.917 230.440,133.600 230.000 C 133.283 229.560,132.703 229.200,132.312 229.200 C 131.920 229.200,131.600 229.042,131.600 228.849 C 131.600 228.655,131.060 228.273,130.400 228.000 C 129.740 227.727,129.200 227.345,129.200 227.151 C 129.200 226.958,128.840 226.800,128.400 226.800 C 127.960 226.800,127.600 226.647,127.600 226.461 C 127.600 226.274,126.880 225.797,126.000 225.400 C 125.120 225.003,124.400 224.526,124.400 224.339 C 124.400 224.153,124.130 224.000,123.800 224.000 C 123.470 224.000,123.200 223.820,123.200 223.600 C 123.200 223.380,122.880 223.200,122.488 223.200 C 122.097 223.200,121.517 222.840,121.200 222.400 C 120.883 221.960,120.386 221.600,120.095 221.600 C 119.804 221.600,119.180 221.240,118.708 220.800 C 118.236 220.360,117.613 220.000,117.325 220.000 C 117.036 220.000,116.800 219.820,116.800 219.600 C 116.800 219.380,116.480 219.200,116.088 219.200 C 115.697 219.200,115.117 218.840,114.800 218.400 C 114.483 217.960,113.986 217.600,113.695 217.600 C 113.404 217.600,112.780 217.240,112.308 216.800 C 111.836 216.360,111.213 216.000,110.925 216.000 C 110.636 216.000,110.400 215.820,110.400 215.600 C 110.400 215.380,110.106 215.200,109.747 215.200 C 109.388 215.200,108.803 214.884,108.447 214.497 C 108.091 214.111,107.260 213.526,106.600 213.198 C 105.940 212.870,105.310 212.511,105.200 212.401 C 104.724 211.923,103.161 211.200,102.605 211.200 C 102.272 211.200,102.000 211.020,102.000 210.800 C 102.000 210.580,101.460 210.400,100.800 210.400 C 100.140 210.400,99.600 210.238,99.600 210.040 C 99.600 209.507,96.326 209.122,91.800 209.122 C 87.274 209.122,84.000 209.507,84.000 210.040 C 84.000 210.238,83.460 210.400,82.800 210.400 C 82.140 210.400,81.600 210.580,81.600 210.800 C 81.600 211.020,81.335 211.200,81.012 211.200 C 80.481 211.200,79.563 211.648,76.784 213.262 C 75.394 214.070,70.000 219.511,70.000 220.105 C 70.000 220.390,69.640 220.883,69.200 221.200 C 68.760 221.517,68.400 222.097,68.400 222.488 C 68.400 222.880,68.220 223.200,68.000 223.200 C 67.780 223.200,67.600 223.560,67.600 224.000 C 67.600 224.440,67.420 224.800,67.200 224.800 C 66.980 224.800,66.800 225.160,66.800 225.600 C 66.800 226.040,66.620 226.400,66.400 226.400 C 66.180 226.400,66.000 226.940,66.000 227.600 C 66.000 228.260,65.820 228.800,65.600 228.800 C 65.375 228.800,65.200 229.925,65.200 231.376 C 65.200 232.793,65.020 234.064,64.800 234.200 C 64.580 234.336,64.400 235.146,64.400 236.000 C 64.400 236.854,64.580 237.664,64.800 237.800 C 65.020 237.936,65.200 239.207,65.200 240.624 C 65.200 242.075,65.375 243.200,65.600 243.200 C 65.820 243.200,66.000 243.740,66.000 244.400 C 66.000 245.060,66.180 245.600,66.400 245.600 C 66.620 245.600,66.800 245.853,66.800 246.162 C 66.800 246.828,68.468 250.141,68.900 250.333 C 69.065 250.407,69.200 250.739,69.200 251.072 C 69.200 251.827,76.274 258.800,77.040 258.800 C 77.348 258.800,77.600 258.980,77.600 259.200 C 77.600 259.420,77.920 259.600,78.312 259.600 C 78.703 259.600,79.283 259.960,79.600 260.400 C 79.917 260.840,80.414 261.200,80.705 261.200 C 80.996 261.200,81.620 261.560,82.092 262.000 C 82.564 262.440,83.187 262.800,83.475 262.800 C 83.764 262.800,84.000 262.980,84.000 263.200 C 84.000 263.420,84.320 263.600,84.712 263.600 C 85.103 263.600,85.683 263.960,86.000 264.400 C 86.317 264.840,86.814 265.200,87.105 265.200 C 87.396 265.200,88.020 265.560,88.492 266.000 C 88.964 266.440,89.587 266.800,89.875 266.800 C 90.164 266.800,90.400 266.980,90.400 267.200 C 90.400 267.420,90.720 267.600,91.112 267.600 C 91.503 267.600,92.083 267.960,92.400 268.400 C 92.717 268.840,93.207 269.200,93.488 269.200 C 93.770 269.200,94.000 269.380,94.000 269.600 C 94.000 269.820,94.236 270.000,94.525 270.000 C 94.813 270.000,95.436 270.360,95.908 270.800 C 96.380 271.240,97.044 271.600,97.383 271.600 C 97.722 271.600,98.000 271.750,98.000 271.932 C 98.000 272.115,98.495 272.520,99.100 272.832 C 99.705 273.145,100.810 273.805,101.556 274.300 C 102.302 274.795,103.207 275.200,103.568 275.200 C 103.928 275.200,104.483 275.560,104.800 276.000 C 105.117 276.440,105.631 276.800,105.941 276.800 C 106.252 276.800,106.797 277.116,107.153 277.503 C 107.509 277.889,108.340 278.474,109.000 278.803 C 109.660 279.131,110.549 279.715,110.975 280.100 C 111.402 280.485,111.904 280.800,112.092 280.800 C 112.280 280.800,112.820 281.160,113.292 281.600 C 113.764 282.040,114.387 282.400,114.675 282.400 C 114.964 282.400,115.200 282.580,115.200 282.800 C 115.200 283.020,115.520 283.200,115.912 283.200 C 116.303 283.200,116.883 283.560,117.200 284.000 C 117.517 284.440,118.014 284.800,118.305 284.800 C 118.596 284.800,119.220 285.160,119.692 285.600 C 120.164 286.040,120.787 286.400,121.075 286.400 C 121.364 286.400,121.600 286.580,121.600 286.800 C 121.600 287.020,121.920 287.200,122.312 287.200 C 122.703 287.200,123.283 287.560,123.600 288.000 C 123.917 288.440,124.482 288.800,124.855 288.800 C 125.228 288.800,125.593 288.935,125.667 289.100 C 125.871 289.560,128.009 290.931,129.895 291.810 C 130.828 292.244,131.593 292.735,131.595 292.900 C 131.598 293.065,132.050 293.200,132.600 293.200 C 133.150 293.200,133.600 293.380,133.600 293.600 C 133.600 293.820,134.050 294.000,134.600 294.000 C 135.150 294.000,135.600 294.180,135.600 294.400 C 135.600 294.620,136.320 294.800,137.200 294.800 C 138.080 294.800,138.800 294.980,138.800 295.200 C 138.800 295.447,140.867 295.600,144.200 295.600 C 147.533 295.600,149.600 295.447,149.600 295.200 C 149.600 294.980,150.320 294.800,151.200 294.800 C 152.080 294.800,152.800 294.620,152.800 294.400 C 152.800 294.180,153.340 294.000,154.000 294.000 C 154.660 294.000,155.200 293.820,155.200 293.600 C 155.200 293.380,155.560 293.200,156.000 293.200 C 156.440 293.200,156.800 293.020,156.800 292.800 C 156.800 292.580,157.160 292.400,157.600 292.400 C 158.040 292.400,158.400 292.228,158.400 292.018 C 158.400 291.808,159.030 291.518,159.800 291.374 C 160.570 291.229,161.200 290.951,161.200 290.755 C 161.200 290.560,161.560 290.400,162.000 290.400 C 162.440 290.400,162.800 290.220,162.800 290.000 C 162.800 289.780,163.160 289.600,163.600 289.600 C 164.040 289.600,164.400 289.420,164.400 289.200 C 164.400 288.980,164.760 288.800,165.200 288.800 C 165.640 288.800,166.000 288.620,166.000 288.400 C 166.000 288.180,166.360 288.000,166.800 288.000 C 167.240 288.000,167.600 287.820,167.600 287.600 C 167.600 287.380,167.960 287.200,168.400 287.200 C 168.840 287.200,169.200 287.020,169.200 286.800 C 169.200 286.580,169.560 286.400,170.000 286.400 C 170.440 286.400,170.800 286.220,170.800 286.000 C 170.800 285.780,171.160 285.600,171.600 285.600 C 172.040 285.600,172.400 285.420,172.400 285.200 C 172.400 284.980,172.760 284.800,173.200 284.800 C 173.640 284.800,174.000 284.620,174.000 284.400 C 174.000 284.180,174.270 284.000,174.600 284.000 C 174.930 284.000,175.200 283.820,175.200 283.600 C 175.200 283.380,175.560 283.200,176.000 283.200 C 176.440 283.200,176.800 283.020,176.800 282.800 C 176.800 282.580,177.160 282.400,177.600 282.400 C 178.040 282.400,178.400 282.220,178.400 282.000 C 178.400 281.780,178.760 281.600,179.200 281.600 C 179.640 281.600,180.000 281.420,180.000 281.200 C 180.000 280.980,180.360 280.800,180.800 280.800 C 181.240 280.800,181.600 280.620,181.600 280.400 C 181.600 280.180,181.960 280.000,182.400 280.000 C 182.840 280.000,183.200 279.820,183.200 279.600 C 183.200 279.380,183.560 279.200,184.000 279.200 C 184.440 279.200,184.800 279.020,184.800 278.800 C 184.800 278.580,185.160 278.400,185.600 278.400 C 186.040 278.400,186.400 278.220,186.400 278.000 C 186.400 277.780,186.760 277.600,187.200 277.600 C 187.640 277.600,188.000 277.420,188.000 277.200 C 188.000 276.980,188.360 276.800,188.800 276.800 C 189.240 276.800,189.600 276.620,189.600 276.400 C 189.600 276.180,189.960 276.000,190.400 276.000 C 190.840 276.000,191.200 275.828,191.200 275.618 C 191.200 275.408,191.830 275.118,192.600 274.974 C 193.370 274.829,194.000 274.551,194.000 274.355 C 194.000 274.160,194.360 274.000,194.800 274.000 C 195.240 274.000,195.600 273.820,195.600 273.600 C 195.600 273.380,195.960 273.200,196.400 273.200 C 196.840 273.200,197.200 273.020,197.200 272.800 C 197.200 272.580,197.560 272.400,198.000 272.400 C 198.440 272.400,198.800 272.220,198.800 272.000 C 198.800 271.780,199.160 271.600,199.600 271.600 C 200.040 271.600,200.400 271.420,200.400 271.200 C 200.400 270.980,200.760 270.800,201.200 270.800 C 201.640 270.800,202.000 270.620,202.000 270.400 C 202.000 270.180,202.360 270.000,202.800 270.000 C 203.240 270.000,203.600 269.820,203.600 269.600 C 203.600 269.380,203.960 269.200,204.400 269.200 C 204.840 269.200,205.200 269.020,205.200 268.800 C 205.200 268.580,205.560 268.400,206.000 268.400 C 206.440 268.400,206.800 268.220,206.800 268.000 C 206.800 267.780,207.145 267.600,207.567 267.600 C 207.988 267.600,208.401 267.397,208.483 267.150 C 208.679 266.564,210.921 266.564,211.117 267.150 C 211.199 267.397,211.612 267.600,212.033 267.600 C 212.455 267.600,212.800 267.780,212.800 268.000 C 212.800 268.220,213.160 268.400,213.600 268.400 C 214.040 268.400,214.400 268.580,214.400 268.800 C 214.400 269.020,214.760 269.200,215.200 269.200 C 215.640 269.200,216.000 269.380,216.000 269.600 C 216.000 269.820,216.360 270.000,216.800 270.000 C 217.240 270.000,217.600 270.180,217.600 270.400 C 217.600 270.620,217.960 270.800,218.400 270.800 C 218.840 270.800,219.200 270.980,219.200 271.200 C 219.200 271.420,219.560 271.600,220.000 271.600 C 220.440 271.600,220.800 271.780,220.800 272.000 C 220.800 272.220,221.160 272.400,221.600 272.400 C 222.040 272.400,222.400 272.580,222.400 272.800 C 222.400 273.020,222.760 273.200,223.200 273.200 C 223.640 273.200,224.000 273.380,224.000 273.600 C 224.000 273.820,224.360 274.000,224.800 274.000 C 225.240 274.000,225.600 274.172,225.600 274.382 C 225.600 274.592,226.230 274.882,227.000 275.026 C 227.770 275.171,228.400 275.449,228.400 275.645 C 228.400 275.840,228.760 276.000,229.200 276.000 C 229.640 276.000,230.000 276.180,230.000 276.400 C 230.000 276.620,230.360 276.800,230.800 276.800 C 231.240 276.800,231.600 276.980,231.600 277.200 C 231.600 277.420,231.960 277.600,232.400 277.600 C 232.840 277.600,233.200 277.780,233.200 278.000 C 233.200 278.220,233.560 278.400,234.000 278.400 C 234.440 278.400,234.800 278.580,234.800 278.800 C 234.800 279.020,235.160 279.200,235.600 279.200 C 236.040 279.200,236.400 279.380,236.400 279.600 C 236.400 279.820,236.760 280.000,237.200 280.000 C 237.640 280.000,238.000 280.180,238.000 280.400 C 238.000 280.620,238.360 280.800,238.800 280.800 C 239.240 280.800,239.600 280.980,239.600 281.200 C 239.600 281.420,239.960 281.600,240.400 281.600 C 240.840 281.600,241.200 281.746,241.200 281.925 C 241.200 282.104,241.830 282.498,242.600 282.800 C 243.370 283.102,244.000 283.496,244.000 283.675 C 244.000 283.854,244.360 284.000,244.800 284.000 C 245.240 284.000,245.600 284.180,245.600 284.400 C 245.600 284.620,245.960 284.800,246.400 284.800 C 246.840 284.800,247.200 284.980,247.200 285.200 C 247.200 285.420,247.560 285.600,248.000 285.600 C 248.440 285.600,248.800 285.780,248.800 286.000 C 248.800 286.220,249.160 286.400,249.600 286.400 C 250.040 286.400,250.400 286.580,250.400 286.800 C 250.400 287.020,250.760 287.200,251.200 287.200 C 251.640 287.200,252.000 287.380,252.000 287.600 C 252.000 287.820,252.360 288.000,252.800 288.000 C 253.240 288.000,253.600 288.180,253.600 288.400 C 253.600 288.620,253.930 288.800,254.332 288.800 C 254.735 288.800,255.320 289.295,255.632 289.900 C 255.944 290.505,256.297 291.090,256.418 291.200 C 256.888 291.628,258.800 295.915,258.800 296.540 C 258.800 296.903,258.980 297.200,259.200 297.200 C 259.420 297.200,259.600 297.560,259.600 298.000 C 259.600 298.440,259.780 298.800,260.000 298.800 C 260.220 298.800,260.400 299.160,260.400 299.600 C 260.400 300.040,260.580 300.400,260.800 300.400 C 261.020 300.400,261.200 300.760,261.200 301.200 C 261.200 301.640,261.380 302.000,261.600 302.000 C 261.820 302.000,262.000 302.360,262.000 302.800 C 262.000 303.240,262.180 303.600,262.400 303.600 C 262.620 303.600,262.800 303.960,262.800 304.400 C 262.800 304.840,262.980 305.200,263.200 305.200 C 263.420 305.200,263.600 305.560,263.600 306.000 C 263.600 306.440,263.780 306.800,264.000 306.800 C 264.220 306.800,264.400 307.145,264.400 307.567 C 264.400 307.988,264.538 308.393,264.707 308.467 C 264.877 308.540,266.718 312.020,268.800 316.200 C 270.882 320.380,272.723 323.860,272.893 323.933 C 273.062 324.007,273.200 324.262,273.200 324.502 C 273.200 325.127,275.211 329.374,279.958 338.770 C 282.244 343.296,284.314 347.404,284.558 347.897 C 284.801 348.390,285.135 348.795,285.300 348.797 C 285.465 348.799,285.600 349.083,285.600 349.429 C 285.600 351.057,294.635 358.800,296.535 358.800 C 296.901 358.800,297.200 358.980,297.200 359.200 C 297.200 359.465,275.467 359.600,232.800 359.600 C 196.267 359.600,168.400 359.751,168.400 359.950 C 168.400 360.142,167.903 360.399,167.295 360.521 C 165.927 360.795,164.764 361.827,164.051 363.400 C 163.751 364.060,163.348 364.913,163.153 365.295 C 162.699 366.187,162.699 368.213,163.153 369.105 C 163.348 369.487,163.753 370.340,164.053 371.000 C 164.816 372.674,165.284 373.093,167.408 374.003 C 169.927 375.083,387.207 375.282,389.651 374.207 C 391.359 373.455,392.400 372.641,392.400 372.056 C 392.400 371.805,392.580 371.600,392.800 371.600 C 393.020 371.600,393.200 371.240,393.200 370.800 C 393.200 370.360,393.380 370.000,393.600 370.000 C 393.829 370.000,394.000 368.800,394.000 367.200 C 394.000 365.600,393.829 364.400,393.600 364.400 C 393.380 364.400,393.200 364.136,393.200 363.813 C 393.200 362.973,390.733 360.400,389.926 360.400 C 389.553 360.400,389.136 360.220,389.000 360.000 C 388.838 359.738,376.729 359.600,353.976 359.600 C 331.059 359.600,319.200 359.464,319.200 359.200 C 319.200 358.980,319.535 358.800,319.944 358.800 C 320.353 358.800,321.351 358.350,322.162 357.800 C 322.972 357.250,323.720 356.800,323.823 356.800 C 324.322 356.800,330.800 349.934,330.800 349.406 C 330.800 349.073,330.980 348.800,331.200 348.800 C 331.420 348.800,331.600 348.440,331.600 348.000 C 331.600 347.560,331.780 347.200,332.000 347.200 C 332.220 347.200,332.400 346.840,332.400 346.400 C 332.400 345.960,332.580 345.600,332.800 345.600 C 333.020 345.600,333.200 345.240,333.200 344.800 C 333.200 344.360,333.380 344.000,333.600 344.000 C 333.820 344.000,334.000 343.471,334.000 342.824 C 334.000 342.177,334.180 341.536,334.400 341.400 C 334.620 341.264,334.800 339.993,334.800 338.576 C 334.800 336.956,334.965 336.000,335.244 336.000 C 335.538 336.000,335.596 335.495,335.416 334.500 C 335.266 333.675,335.052 331.830,334.940 330.400 C 334.827 328.970,334.570 327.629,334.368 327.420 C 334.165 327.211,334.000 326.536,334.000 325.920 C 334.000 325.304,333.820 324.800,333.600 324.800 C 333.380 324.800,333.200 324.440,333.200 324.000 C 333.200 323.560,333.020 323.200,332.800 323.200 C 332.580 323.200,332.400 322.840,332.400 322.400 C 332.400 321.960,332.220 321.600,332.000 321.600 C 331.780 321.600,331.600 321.240,331.600 320.800 C 331.600 320.360,331.420 320.000,331.200 320.000 C 330.980 320.000,330.800 319.640,330.800 319.200 C 330.800 318.760,330.620 318.400,330.400 318.400 C 330.180 318.400,330.000 318.040,330.000 317.600 C 330.000 317.160,329.820 316.800,329.600 316.800 C 329.380 316.800,329.200 316.440,329.200 316.000 C 329.200 315.560,329.020 315.200,328.800 315.200 C 328.580 315.200,328.400 314.840,328.400 314.400 C 328.400 313.960,328.220 313.600,328.000 313.600 C 327.780 313.600,327.600 313.240,327.600 312.800 C 327.600 312.360,327.420 312.000,327.200 312.000 C 326.980 312.000,326.800 311.640,326.800 311.200 C 326.800 310.760,326.620 310.400,326.400 310.400 C 326.180 310.400,326.000 310.040,326.000 309.600 C 326.000 309.160,325.828 308.800,325.618 308.800 C 325.408 308.800,325.118 308.170,324.974 307.400 C 324.829 306.630,324.551 306.000,324.355 306.000 C 324.160 306.000,324.000 305.640,324.000 305.200 C 324.000 304.760,323.820 304.400,323.600 304.400 C 323.380 304.400,323.200 304.040,323.200 303.600 C 323.200 303.160,323.020 302.800,322.800 302.800 C 322.580 302.800,322.400 302.440,322.400 302.000 C 322.400 301.560,322.220 301.200,322.000 301.200 C 321.780 301.200,321.600 300.840,321.600 300.400 C 321.600 299.960,321.420 299.600,321.200 299.600 C 320.980 299.600,320.800 299.240,320.800 298.800 C 320.800 298.360,320.620 298.000,320.400 298.000 C 320.180 298.000,320.000 297.640,320.000 297.200 C 320.000 296.760,319.820 296.400,319.600 296.400 C 319.380 296.400,319.200 296.040,319.200 295.600 C 319.200 295.160,319.020 294.800,318.800 294.800 C 318.580 294.800,318.400 294.440,318.400 294.000 C 318.400 293.560,318.220 293.200,318.000 293.200 C 317.780 293.200,317.600 292.930,317.600 292.600 C 317.600 292.270,317.420 292.000,317.200 292.000 C 316.980 292.000,316.800 291.640,316.800 291.200 C 316.800 290.760,316.620 290.400,316.400 290.400 C 316.180 290.400,316.000 290.040,316.000 289.600 C 316.000 289.160,315.820 288.800,315.600 288.800 C 315.380 288.800,315.200 288.440,315.200 288.000 C 315.200 287.560,315.020 287.200,314.800 287.200 C 314.580 287.200,314.400 286.840,314.400 286.400 C 314.400 285.960,314.220 285.600,314.000 285.600 C 313.780 285.600,313.600 285.240,313.600 284.800 C 313.600 284.360,313.420 284.000,313.200 284.000 C 312.980 284.000,312.800 283.640,312.800 283.200 C 312.800 282.760,312.620 282.400,312.400 282.400 C 312.180 282.400,312.000 282.040,312.000 281.600 C 312.000 281.160,311.820 280.800,311.600 280.800 C 311.380 280.800,311.200 280.440,311.200 280.000 C 311.200 279.560,311.020 279.200,310.800 279.200 C 310.580 279.200,310.400 278.840,310.400 278.400 C 310.400 277.960,310.220 277.600,310.000 277.600 C 309.780 277.600,309.600 277.240,309.600 276.800 C 309.600 276.360,309.428 276.000,309.218 276.000 C 309.008 276.000,308.718 275.370,308.574 274.600 C 308.429 273.830,308.151 273.200,307.955 273.200 C 307.760 273.200,307.600 272.840,307.600 272.400 C 307.600 271.960,307.420 271.600,307.200 271.600 C 306.980 271.600,306.800 271.240,306.800 270.800 C 306.800 270.360,306.620 270.000,306.400 270.000 C 306.180 270.000,306.000 269.640,306.000 269.200 C 306.000 268.760,305.820 268.400,305.600 268.400 C 305.380 268.400,305.200 268.040,305.200 267.600 C 305.200 267.160,305.020 266.800,304.800 266.800 C 304.580 266.800,304.400 266.440,304.400 266.000 C 304.400 265.560,304.220 265.200,304.000 265.200 C 303.780 265.200,303.600 264.840,303.600 264.400 C 303.600 263.960,303.420 263.600,303.200 263.600 C 302.980 263.600,302.800 263.240,302.800 262.800 C 302.800 262.360,302.620 262.000,302.400 262.000 C 302.180 262.000,302.000 261.640,302.000 261.200 C 302.000 260.760,301.854 260.400,301.675 260.400 C 301.496 260.400,301.102 259.770,300.800 259.000 C 300.498 258.230,300.104 257.600,299.925 257.600 C 299.746 257.600,299.600 257.240,299.600 256.800 C 299.600 256.360,299.420 256.000,299.200 256.000 C 298.980 256.000,298.800 255.640,298.800 255.200 C 298.800 254.760,298.650 254.400,298.468 254.400 C 298.285 254.400,297.880 253.905,297.568 253.300 C 297.255 252.695,296.325 251.539,295.500 250.731 C 293.851 249.117,293.703 248.800,294.600 248.800 C 294.930 248.800,295.200 248.980,295.200 249.200 C 295.200 249.450,297.659 249.600,301.776 249.600 C 305.729 249.600,308.451 249.440,308.600 249.200 C 308.736 248.980,309.636 248.800,310.600 248.800 C 311.564 248.800,312.464 248.620,312.600 248.400 C 312.736 248.180,313.546 248.000,314.400 248.000 C 315.254 248.000,316.064 247.820,316.200 247.600 C 316.336 247.380,317.236 247.200,318.200 247.200 C 319.164 247.200,320.064 247.020,320.200 246.800 C 320.336 246.580,321.236 246.400,322.200 246.400 C 323.164 246.400,324.064 246.220,324.200 246.000 C 324.336 245.780,325.236 245.600,326.200 245.600 C 327.164 245.600,328.064 245.420,328.200 245.200 C 328.336 244.980,329.236 244.800,330.200 244.800 C 331.164 244.800,332.064 244.620,332.200 244.400 C 332.336 244.180,333.247 244.000,334.224 244.000 C 335.201 244.000,336.000 243.820,336.000 243.600 C 336.000 243.380,336.900 243.200,338.000 243.200 C 339.100 243.200,340.000 243.020,340.000 242.800 C 340.000 242.580,340.780 242.400,341.733 242.400 C 342.687 242.400,343.600 242.265,343.764 242.100 C 343.927 241.935,345.622 241.584,347.531 241.321 C 349.439 241.057,351.945 240.652,353.100 240.421 C 354.255 240.189,356.145 239.811,357.300 239.580 C 358.455 239.348,360.120 239.060,361.000 238.939 C 361.880 238.817,362.771 238.556,362.980 238.359 C 363.189 238.162,364.123 238.000,365.056 238.000 C 365.989 238.000,366.864 237.820,367.000 237.600 C 367.136 237.380,368.036 237.200,369.000 237.200 C 369.964 237.200,370.864 237.020,371.000 236.800 C 371.136 236.580,371.946 236.400,372.800 236.400 C 373.654 236.400,374.464 236.220,374.600 236.000 C 374.736 235.780,375.287 235.600,375.824 235.600 C 376.361 235.600,376.800 235.420,376.800 235.200 C 376.800 234.980,377.340 234.800,378.000 234.800 C 378.660 234.800,379.200 234.620,379.200 234.400 C 379.200 234.180,379.560 234.000,380.000 234.000 C 380.440 234.000,380.800 233.850,380.800 233.668 C 380.800 233.485,381.295 233.081,381.900 232.770 C 382.505 232.460,383.291 231.889,383.647 231.503 C 384.003 231.116,384.512 230.800,384.778 230.800 C 385.322 230.800,388.400 227.728,388.400 227.186 C 388.400 226.993,388.806 226.423,389.302 225.918 C 390.429 224.770,392.400 220.982,392.400 219.963 C 392.400 219.543,392.580 219.200,392.800 219.200 C 393.020 219.200,393.200 218.660,393.200 218.000 C 393.200 217.340,393.380 216.800,393.600 216.800 C 393.851 216.800,394.000 214.200,394.000 209.800 C 394.000 205.400,393.851 202.800,393.600 202.800 C 393.380 202.800,393.200 202.260,393.200 201.600 C 393.200 200.940,393.020 200.400,392.800 200.400 C 392.580 200.400,392.400 200.065,392.400 199.656 C 392.400 197.268,386.324 188.800,384.610 188.800 C 384.372 188.800,383.917 188.440,383.600 188.000 C 383.283 187.560,382.743 187.200,382.400 187.200 C 382.057 187.200,381.517 186.840,381.200 186.400 C 380.883 185.960,380.303 185.600,379.912 185.600 C 379.520 185.600,379.200 185.420,379.200 185.200 C 379.200 184.980,378.660 184.800,378.000 184.800 C 377.340 184.800,376.800 184.620,376.800 184.400 C 376.800 184.180,376.260 184.000,375.600 184.000 C 374.940 184.000,374.400 183.820,374.400 183.600 C 374.400 183.349,371.875 183.200,367.624 183.200 C 363.537 183.200,360.749 183.359,360.600 183.600 C 360.464 183.820,359.553 184.000,358.576 184.000 C 357.599 184.000,356.800 184.180,356.800 184.400 C 356.800 184.620,355.900 184.800,354.800 184.800 C 353.700 184.800,352.800 184.980,352.800 185.200 C 352.800 185.420,351.900 185.600,350.800 185.600 C 349.700 185.600,348.800 185.780,348.800 186.000 C 348.800 186.220,347.900 186.400,346.800 186.400 C 345.700 186.400,344.800 186.580,344.800 186.800 C 344.800 187.020,343.990 187.200,343.000 187.200 C 342.010 187.200,341.200 187.380,341.200 187.600 C 341.200 187.820,340.300 188.000,339.200 188.000 C 338.100 188.000,337.200 188.180,337.200 188.400 C 337.200 188.620,336.300 188.800,335.200 188.800 C 334.100 188.800,333.200 188.980,333.200 189.200 C 333.200 189.420,332.300 189.600,331.200 189.600 C 330.100 189.600,329.200 189.780,329.200 190.000 C 329.200 190.220,328.390 190.400,327.400 190.400 C 326.410 190.400,325.600 190.580,325.600 190.800 C 325.600 191.020,324.925 191.200,324.100 191.200 C 323.275 191.200,321.340 191.467,319.800 191.793 C 316.300 192.534,314.400 192.568,314.400 191.888 C 314.400 191.607,314.040 191.117,313.600 190.800 C 313.160 190.483,312.800 189.903,312.800 189.512 C 312.800 189.120,312.620 188.800,312.400 188.800 C 312.180 188.800,312.000 188.480,312.000 188.088 C 312.000 187.697,311.640 187.117,311.200 186.800 C 310.760 186.483,310.400 185.903,310.400 185.512 C 310.400 185.120,310.220 184.800,310.000 184.800 C 309.780 184.800,309.600 184.643,309.600 184.450 C 309.600 183.990,307.696 180.685,305.500 177.335 C 304.895 176.411,304.400 175.463,304.400 175.228 C 304.400 174.993,304.220 174.800,304.000 174.800 C 303.780 174.800,303.600 174.564,303.600 174.275 C 303.600 173.987,303.240 173.364,302.800 172.892 C 302.360 172.420,302.000 171.838,302.000 171.600 C 302.000 171.362,301.640 170.780,301.200 170.308 C 300.760 169.836,300.400 169.213,300.400 168.925 C 300.400 168.636,300.220 168.400,300.000 168.400 C 299.780 168.400,299.600 168.080,299.600 167.688 C 299.600 167.297,299.240 166.717,298.800 166.400 C 298.360 166.083,298.000 165.503,298.000 165.112 C 298.000 164.720,297.820 164.400,297.600 164.400 C 297.380 164.400,297.200 164.130,297.200 163.800 C 297.200 163.470,297.020 163.200,296.800 163.200 C 296.580 163.200,296.400 162.930,296.400 162.600 C 296.400 162.270,296.220 162.000,296.000 162.000 C 295.780 162.000,295.600 161.764,295.600 161.475 C 295.600 161.187,295.240 160.564,294.800 160.092 C 294.360 159.620,294.000 159.046,294.000 158.817 C 294.000 158.588,293.820 158.400,293.600 158.400 C 293.380 158.400,293.200 158.080,293.200 157.688 C 293.200 157.297,292.840 156.717,292.400 156.400 C 291.960 156.083,291.600 155.599,291.600 155.325 C 291.600 154.581,290.301 152.000,289.926 152.000 C 289.747 152.000,289.600 151.764,289.600 151.475 C 289.600 151.187,289.240 150.564,288.800 150.092 C 288.360 149.620,288.000 148.956,288.000 148.617 C 288.000 148.278,287.820 148.000,287.600 148.000 C 287.380 148.000,287.200 147.764,287.200 147.475 C 287.200 147.187,286.885 146.602,286.500 146.175 C 286.115 145.749,285.546 144.908,285.236 144.307 C 284.926 143.705,284.341 142.858,283.936 142.423 C 283.531 141.989,283.200 141.438,283.200 141.200 C 283.200 140.962,282.840 140.380,282.400 139.908 C 281.960 139.436,281.600 138.813,281.600 138.525 C 281.600 138.236,281.420 138.000,281.200 138.000 C 280.980 138.000,280.800 137.680,280.800 137.288 C 280.800 136.897,280.440 136.317,280.000 136.000 C 279.560 135.683,279.200 135.103,279.200 134.712 C 279.200 134.320,279.020 134.000,278.800 134.000 C 278.580 134.000,278.400 133.764,278.400 133.475 C 278.400 133.187,278.040 132.564,277.600 132.092 C 277.160 131.620,276.800 130.956,276.800 130.617 C 276.800 130.278,276.650 130.000,276.467 130.000 C 276.283 130.000,275.615 129.010,274.982 127.800 C 274.349 126.590,273.689 125.600,273.516 125.600 C 273.342 125.600,273.200 125.240,273.200 124.800 C 273.200 124.360,273.032 124.000,272.827 124.000 C 272.622 124.000,272.337 123.631,272.194 123.180 C 272.051 122.729,271.342 121.769,270.619 121.045 C 269.896 120.322,268.990 119.251,268.606 118.665 C 268.222 118.079,267.731 117.600,267.514 117.600 C 267.298 117.600,266.617 117.060,266.000 116.400 C 265.383 115.740,264.631 115.200,264.328 115.200 C 264.025 115.200,263.517 114.840,263.200 114.400 C 262.883 113.960,262.318 113.600,261.945 113.600 C 261.572 113.600,261.207 113.458,261.133 113.284 C 260.982 112.926,257.502 111.714,254.800 111.078 C 252.347 110.501,187.209 110.231,186.645 110.795 C 185.750 111.690,183.200 110.211,183.200 108.797 C 183.200 108.579,183.020 108.400,182.800 108.400 C 182.580 108.400,182.400 108.080,182.400 107.688 C 182.400 107.297,182.040 106.717,181.600 106.400 C 181.160 106.083,180.800 105.503,180.800 105.112 C 180.800 104.720,180.620 104.400,180.400 104.400 C 180.180 104.400,180.000 104.164,180.000 103.875 C 180.000 103.587,179.640 102.964,179.200 102.492 C 178.760 102.020,178.400 101.396,178.400 101.105 C 178.400 100.814,178.040 100.317,177.600 100.000 C 177.160 99.683,176.800 99.103,176.800 98.712 C 176.800 98.320,176.620 98.000,176.400 98.000 C 176.180 98.000,176.000 97.830,176.000 97.621 C 176.000 97.095,173.138 92.230,172.731 92.067 C 172.549 91.993,172.400 91.628,172.400 91.255 C 172.400 90.882,172.040 90.317,171.600 90.000 C 171.160 89.683,170.800 89.103,170.800 88.712 C 170.800 88.320,170.620 88.000,170.400 88.000 C 170.180 88.000,170.000 87.764,170.000 87.475 C 170.000 87.187,169.640 86.564,169.200 86.092 C 168.760 85.620,168.400 85.038,168.400 84.800 C 168.400 84.562,168.040 83.980,167.600 83.508 C 167.160 83.036,166.800 82.413,166.800 82.125 C 166.800 81.836,166.620 81.600,166.400 81.600 C 166.180 81.600,166.000 81.280,166.000 80.888 C 166.000 80.497,165.640 79.917,165.200 79.600 C 164.760 79.283,164.400 78.703,164.400 78.312 C 164.400 77.920,164.220 77.600,164.000 77.600 C 163.780 77.600,163.600 77.412,163.600 77.183 C 163.600 76.954,163.240 76.380,162.800 75.908 C 162.360 75.436,162.000 74.813,162.000 74.525 C 162.000 74.236,161.820 74.000,161.600 74.000 C 161.380 74.000,161.200 73.764,161.200 73.475 C 161.200 73.187,160.840 72.564,160.400 72.092 C 159.960 71.620,159.600 70.956,159.600 70.617 C 159.600 70.278,159.465 70.000,159.300 69.999 C 159.135 69.999,158.474 68.919,157.830 67.599 C 157.187 66.280,156.533 65.200,156.377 65.200 C 156.221 65.200,155.993 64.885,155.871 64.500 C 155.541 63.458,154.296 61.491,153.500 60.754 C 153.115 60.398,152.800 59.988,152.800 59.843 C 152.800 59.350,149.224 56.000,148.699 56.000 C 148.412 56.000,147.917 55.640,147.600 55.200 C 147.283 54.760,146.703 54.400,146.312 54.400 C 145.920 54.400,145.600 54.220,145.600 54.000 C 145.600 53.780,145.240 53.600,144.800 53.600 C 144.360 53.600,144.000 53.420,144.000 53.200 C 144.000 52.980,143.460 52.800,142.800 52.800 C 142.140 52.800,141.600 52.620,141.600 52.400 C 141.600 52.137,132.267 52.000,114.400 52.000 C 96.533 52.000,87.200 52.137,87.200 52.400 M139.780 66.567 C 140.687 67.099,141.678 67.999,141.982 68.567 C 142.286 69.135,142.685 69.600,142.868 69.600 C 143.050 69.600,143.200 69.783,143.200 70.006 C 143.200 70.230,143.812 71.355,144.560 72.506 C 145.308 73.658,147.667 77.480,149.802 81.000 C 151.938 84.520,154.476 88.613,155.443 90.095 C 156.409 91.578,157.200 92.895,157.200 93.023 C 157.200 93.151,157.740 94.041,158.400 95.000 C 159.060 95.959,159.600 96.937,159.600 97.172 C 159.600 97.407,159.735 97.601,159.900 97.603 C 160.065 97.605,160.396 98.010,160.635 98.503 C 160.874 98.996,162.024 100.930,163.190 102.800 C 164.356 104.670,166.989 108.953,169.040 112.317 L 172.770 118.434 167.267 124.017 C 164.241 127.088,161.556 129.600,161.301 129.600 C 160.870 129.600,158.400 126.365,158.400 125.800 C 158.400 125.659,157.905 124.789,157.300 123.865 C 156.695 122.942,155.986 121.830,155.724 121.393 C 148.610 109.548,147.944 108.800,144.503 108.800 C 140.920 108.800,140.542 109.218,130.814 123.919 C 125.966 131.244,122.000 137.499,122.000 137.819 C 122.000 138.138,121.820 138.400,121.600 138.400 C 120.571 138.400,121.659 142.513,123.115 144.131 C 123.492 144.549,126.995 146.492,130.900 148.448 C 134.805 150.404,138.000 152.143,138.000 152.313 C 138.000 152.483,137.293 153.563,136.428 154.714 C 134.361 157.464,132.494 161.433,131.825 164.500 C 131.502 165.980,132.294 166.272,119.973 160.133 C 105.367 152.857,109.922 152.186,83.243 165.546 C 57.356 178.510,58.965 178.051,53.000 174.192 C 51.207 173.033,42.967 167.881,34.800 162.813 C 14.559 150.253,14.476 150.190,13.550 146.727 C 12.925 144.394,13.496 142.202,15.246 140.209 C 18.396 136.621,22.135 136.665,27.807 140.355 C 28.690 140.930,29.770 141.613,30.207 141.872 C 30.971 142.327,34.778 144.703,42.800 149.731 C 44.890 151.041,48.083 153.078,49.896 154.257 C 51.709 155.435,53.296 156.400,53.424 156.400 C 53.552 156.400,54.498 156.981,55.528 157.691 C 59.447 160.395,59.349 160.426,81.388 149.400 C 101.372 139.402,102.811 138.519,104.025 135.503 C 104.314 134.786,111.070 124.467,119.040 112.571 C 131.392 94.134,133.571 90.664,133.813 89.054 C 134.179 86.609,133.249 84.087,131.494 82.771 L 130.200 81.800 113.800 81.684 C 104.780 81.621,96.950 81.679,96.400 81.814 C 95.816 81.957,90.742 86.689,84.200 93.194 C 71.809 105.513,71.742 105.560,67.310 105.006 C 62.262 104.375,59.201 98.272,61.641 93.700 C 62.613 91.880,86.706 67.700,88.800 66.443 C 90.181 65.615,90.532 65.603,114.165 65.601 L 138.130 65.600 139.780 66.567 M311.600 72.000 C 311.600 72.220,310.880 72.400,310.000 72.400 C 309.120 72.400,308.400 72.580,308.400 72.800 C 308.400 73.020,307.680 73.200,306.800 73.200 C 305.920 73.200,305.200 73.380,305.200 73.600 C 305.200 73.820,304.840 74.000,304.400 74.000 C 303.960 74.000,303.600 74.180,303.600 74.400 C 303.600 74.620,303.278 74.800,302.884 74.800 C 301.918 74.800,296.770 77.513,295.957 78.450 C 295.599 78.862,295.140 79.200,294.938 79.200 C 294.396 79.200,288.800 85.156,288.800 85.732 C 288.800 86.002,288.440 86.483,288.000 86.800 C 287.560 87.117,287.200 87.657,287.200 88.000 C 287.200 88.343,286.840 88.883,286.400 89.200 C 285.960 89.517,285.600 90.097,285.600 90.488 C 285.600 90.880,285.420 91.200,285.200 91.200 C 284.980 91.200,284.800 91.560,284.800 92.000 C 284.800 92.440,284.620 92.800,284.400 92.800 C 284.180 92.800,284.000 93.250,284.000 93.800 C 284.000 94.350,283.820 94.800,283.600 94.800 C 283.380 94.800,283.200 95.239,283.200 95.776 C 283.200 96.313,283.020 96.864,282.800 97.000 C 282.580 97.136,282.400 97.766,282.400 98.400 C 282.400 99.034,282.220 99.664,282.000 99.800 C 281.780 99.936,281.600 101.567,281.600 103.424 C 281.600 105.408,281.435 106.800,281.200 106.800 C 280.980 106.800,280.800 107.430,280.800 108.200 C 280.800 108.970,280.980 109.600,281.200 109.600 C 281.435 109.600,281.600 110.992,281.600 112.976 C 281.600 114.833,281.780 116.464,282.000 116.600 C 282.220 116.736,282.400 117.366,282.400 118.000 C 282.400 118.634,282.580 119.264,282.800 119.400 C 283.020 119.536,283.200 120.087,283.200 120.624 C 283.200 121.161,283.380 121.600,283.600 121.600 C 283.820 121.600,284.000 122.050,284.000 122.600 C 284.000 123.150,284.180 123.600,284.400 123.600 C 284.620 123.600,284.800 123.960,284.800 124.400 C 284.800 124.840,284.980 125.200,285.200 125.200 C 285.420 125.200,285.600 125.520,285.600 125.912 C 285.600 126.303,285.960 126.883,286.400 127.200 C 286.840 127.517,287.200 128.057,287.200 128.400 C 287.200 128.743,287.560 129.283,288.000 129.600 C 288.440 129.917,288.800 130.398,288.800 130.668 C 288.800 131.244,294.396 137.200,294.938 137.200 C 295.140 137.200,295.597 137.528,295.953 137.928 C 296.309 138.329,297.410 139.094,298.400 139.628 C 299.390 140.163,300.290 140.718,300.401 140.863 C 300.511 141.008,301.276 141.253,302.101 141.408 C 302.925 141.562,303.600 141.849,303.600 142.045 C 303.600 142.240,303.949 142.400,304.376 142.400 C 304.803 142.400,305.264 142.580,305.400 142.800 C 305.536 143.020,306.267 143.200,307.024 143.200 C 307.781 143.200,308.400 143.380,308.400 143.600 C 308.400 143.820,309.109 144.000,309.976 144.000 C 310.843 144.000,311.664 144.180,311.800 144.400 C 311.948 144.639,314.537 144.800,318.224 144.800 C 322.075 144.800,324.400 144.649,324.400 144.400 C 324.400 144.180,325.120 144.000,326.000 144.000 C 326.880 144.000,327.600 143.820,327.600 143.600 C 327.600 143.380,328.320 143.200,329.200 143.200 C 330.080 143.200,330.800 143.020,330.800 142.800 C 330.800 142.580,331.149 142.400,331.576 142.400 C 332.003 142.400,332.464 142.220,332.600 142.000 C 332.736 141.780,333.152 141.599,333.524 141.598 C 334.196 141.595,334.869 141.285,337.664 139.690 C 339.977 138.369,347.200 131.694,347.200 130.876 C 347.200 130.680,347.740 129.954,348.400 129.263 C 349.060 128.572,349.600 127.736,349.600 127.404 C 349.600 127.072,349.780 126.800,350.000 126.800 C 350.220 126.800,350.400 126.440,350.400 126.000 C 350.400 125.560,350.535 125.199,350.700 125.197 C 351.059 125.193,352.000 123.256,352.000 122.520 C 352.000 122.234,352.180 122.000,352.400 122.000 C 352.620 122.000,352.800 121.561,352.800 121.024 C 352.800 120.487,352.980 119.936,353.200 119.800 C 353.420 119.664,353.600 118.933,353.600 118.176 C 353.600 117.419,353.780 116.800,354.000 116.800 C 354.221 116.800,354.400 115.760,354.400 114.480 C 354.400 113.204,354.594 111.966,354.831 111.729 C 355.478 111.082,354.658 99.600,353.964 99.600 C 353.764 99.600,353.600 98.981,353.600 98.224 C 353.600 97.467,353.420 96.736,353.200 96.600 C 352.980 96.464,352.800 95.913,352.800 95.376 C 352.800 94.839,352.620 94.400,352.400 94.400 C 352.180 94.400,352.000 94.166,352.000 93.880 C 352.000 93.144,351.059 91.207,350.700 91.203 C 350.535 91.201,350.400 90.840,350.400 90.400 C 350.400 89.960,350.220 89.600,350.000 89.600 C 349.780 89.600,349.600 89.280,349.600 88.888 C 349.600 88.497,349.240 87.917,348.800 87.600 C 348.360 87.283,348.000 86.808,348.000 86.545 C 348.000 85.982,340.619 78.400,340.071 78.400 C 339.866 78.400,339.477 78.134,339.208 77.809 C 338.938 77.484,337.521 76.648,336.059 75.951 C 334.596 75.254,333.087 74.530,332.705 74.342 C 332.323 74.154,331.738 74.000,331.405 74.000 C 331.072 74.000,330.800 73.820,330.800 73.600 C 330.800 73.380,330.271 73.200,329.624 73.200 C 328.977 73.200,328.336 73.020,328.200 72.800 C 328.064 72.580,327.153 72.400,326.176 72.400 C 325.199 72.400,324.400 72.220,324.400 72.000 C 324.400 71.750,322.000 71.600,318.000 71.600 C 314.000 71.600,311.600 71.750,311.600 72.000 M324.800 86.007 C 331.513 87.962,340.000 96.231,340.000 100.817 C 340.000 101.222,340.154 101.648,340.343 101.765 C 340.737 102.008,341.316 105.838,341.316 108.200 C 341.316 110.562,340.737 114.392,340.343 114.635 C 340.154 114.752,340.000 115.178,340.000 115.583 C 340.000 115.988,339.446 117.372,338.770 118.659 C 327.303 140.478,295.051 132.762,295.051 108.200 C 295.051 92.306,309.475 81.546,324.800 86.007 M251.269 124.445 C 254.130 125.042,256.564 126.263,258.335 127.989 C 259.949 129.562,261.324 131.654,268.595 143.600 C 269.867 145.690,271.694 148.613,272.654 150.095 C 273.614 151.578,274.400 152.895,274.400 153.023 C 274.400 153.151,274.940 154.041,275.600 155.000 C 276.260 155.959,276.800 156.857,276.800 156.994 C 276.800 157.131,277.506 158.283,278.368 159.553 C 279.231 160.823,280.288 162.478,280.718 163.231 C 281.862 165.237,287.875 175.061,289.447 177.494 C 290.191 178.645,290.800 179.770,290.800 179.994 C 290.800 180.217,290.980 180.400,291.200 180.400 C 291.420 180.400,291.600 180.590,291.600 180.822 C 291.600 181.054,292.320 182.304,293.200 183.600 C 294.080 184.896,294.800 186.066,294.800 186.200 C 294.800 186.334,295.520 187.504,296.400 188.800 C 297.280 190.096,298.000 191.245,298.000 191.354 C 298.000 191.960,306.607 205.139,307.471 205.856 C 309.204 207.294,311.179 207.328,317.600 206.033 C 318.590 205.834,320.300 205.497,321.400 205.285 C 322.500 205.073,324.840 204.608,326.600 204.251 C 328.360 203.894,331.600 203.246,333.800 202.810 C 336.000 202.374,339.600 201.650,341.800 201.200 C 344.000 200.750,346.790 200.207,348.000 199.992 C 349.210 199.778,351.010 199.421,352.000 199.200 C 365.378 196.212,369.096 195.986,373.104 197.919 C 385.042 203.677,382.324 220.398,369.000 223.162 C 367.680 223.436,365.970 223.817,365.200 224.009 C 364.430 224.201,363.080 224.474,362.200 224.614 C 361.320 224.755,359.790 225.042,358.800 225.253 C 357.810 225.464,356.100 225.814,355.000 226.031 C 353.900 226.248,352.100 226.606,351.000 226.826 C 349.900 227.046,348.100 227.406,347.000 227.626 C 341.421 228.741,339.596 229.115,337.400 229.589 C 336.520 229.779,334.810 230.132,333.600 230.372 C 332.390 230.612,329.060 231.279,326.200 231.854 C 323.340 232.428,320.190 233.040,319.200 233.214 C 318.210 233.387,314.700 234.105,311.400 234.809 C 298.018 237.664,294.041 236.365,288.457 227.314 C 281.984 216.822,278.630 211.304,278.239 210.503 C 277.997 210.010,277.665 209.605,277.500 209.603 C 277.335 209.601,277.200 209.417,277.200 209.194 C 277.200 208.809,276.621 207.855,272.535 201.505 C 271.581 200.022,270.800 198.729,270.800 198.630 C 270.800 198.436,266.990 192.340,265.995 190.943 C 264.283 188.538,260.849 187.821,258.200 189.316 C 256.459 190.298,233.953 223.462,232.534 227.138 C 230.797 231.634,231.477 232.155,253.800 243.423 C 263.700 248.421,274.315 253.780,277.390 255.332 C 281.220 257.266,283.500 258.689,284.632 259.855 C 286.529 261.806,319.985 328.216,320.839 331.724 C 322.990 340.564,314.849 348.907,305.898 347.035 C 298.886 345.568,299.705 346.795,281.630 310.649 C 273.208 293.806,265.840 279.546,265.258 278.960 C 263.418 277.107,211.797 251.600,209.888 251.600 C 208.569 251.600,202.939 254.269,178.838 266.321 C 162.647 274.418,148.659 281.258,147.754 281.521 C 142.870 282.941,139.548 281.746,128.871 274.726 C 127.259 273.667,125.860 272.800,125.761 272.800 C 125.662 272.800,124.255 271.921,122.633 270.847 C 121.011 269.773,119.522 268.828,119.324 268.747 C 117.506 268.003,83.468 246.252,82.399 245.151 C 74.475 236.988,80.403 223.029,91.800 223.014 C 95.205 223.010,97.045 223.793,104.112 228.250 C 109.691 231.770,113.678 234.259,119.400 237.796 C 121.600 239.156,127.810 243.038,133.200 246.425 L 143.000 252.581 145.400 252.548 C 149.329 252.494,202.000 225.854,202.000 223.921 C 202.000 223.740,206.183 217.338,211.295 209.696 C 216.408 202.053,220.840 195.305,221.145 194.700 C 221.450 194.095,221.836 193.600,222.001 193.600 C 222.167 193.600,222.527 193.060,222.800 192.400 C 223.073 191.740,223.455 191.200,223.649 191.200 C 223.842 191.200,224.000 190.964,224.000 190.675 C 224.000 190.387,224.360 189.764,224.800 189.292 C 225.240 188.820,225.600 188.246,225.600 188.017 C 225.600 187.788,225.750 187.600,225.932 187.600 C 226.115 187.600,226.520 187.105,226.832 186.500 C 227.144 185.895,227.501 185.310,227.625 185.200 C 227.966 184.899,242.804 162.400,243.658 160.888 C 245.378 157.846,244.074 153.488,241.000 152.000 C 239.129 151.094,199.472 150.740,196.370 151.602 C 195.247 151.914,191.943 155.010,180.970 166.036 C 163.403 183.687,161.736 184.811,154.983 183.563 C 151.184 182.861,146.000 179.291,146.000 177.376 C 146.000 177.059,145.820 176.800,145.600 176.800 C 145.380 176.800,145.200 176.476,145.200 176.080 C 145.200 175.684,144.979 175.139,144.709 174.869 C 144.392 174.552,144.218 173.068,144.218 170.679 C 144.218 164.561,143.704 165.228,164.022 144.981 C 184.354 124.720,182.622 126.400,183.171 126.400 C 183.407 126.400,183.600 126.220,183.600 126.000 C 183.600 125.780,183.930 125.600,184.333 125.600 C 184.737 125.600,185.201 125.465,185.364 125.300 C 186.410 124.245,190.509 124.093,219.269 124.048 C 239.822 124.015,249.803 124.139,251.269 124.445 M144.800 130.000 C 144.800 130.440,144.980 130.800,145.200 130.800 C 145.420 130.800,145.600 131.036,145.600 131.325 C 145.600 131.613,145.960 132.236,146.400 132.708 C 146.840 133.180,147.200 133.844,147.200 134.183 C 147.200 134.522,147.350 134.800,147.532 134.800 C 147.715 134.800,148.120 135.295,148.432 135.900 C 148.744 136.505,149.089 137.090,149.199 137.200 C 150.317 138.314,150.388 139.249,149.427 140.209 C 148.426 141.211,147.200 141.536,147.200 140.800 C 147.200 140.580,146.840 140.400,146.400 140.400 C 145.960 140.400,145.600 140.220,145.600 140.000 C 145.600 139.780,145.240 139.600,144.800 139.600 C 144.360 139.600,144.000 139.420,144.000 139.200 C 144.000 138.980,143.640 138.800,143.200 138.800 C 142.760 138.800,142.400 138.620,142.400 138.400 C 142.400 138.180,142.040 138.000,141.600 138.000 C 141.160 138.000,140.800 137.820,140.800 137.600 C 140.800 137.380,140.440 137.200,140.000 137.200 C 139.560 137.200,139.200 137.103,139.200 136.984 C 139.200 136.529,140.808 133.642,141.194 133.404 C 141.417 133.266,141.600 132.843,141.600 132.465 C 141.600 132.086,141.960 131.517,142.400 131.200 C 142.840 130.883,143.200 130.303,143.200 129.912 C 143.200 129.467,143.500 129.200,144.000 129.200 C 144.533 129.200,144.800 129.467,144.800 130.000 M224.800 164.800 C 224.800 165.020,224.620 165.200,224.400 165.200 C 224.180 165.200,224.000 165.520,224.000 165.912 C 224.000 166.303,223.640 166.883,223.200 167.200 C 222.760 167.517,222.400 168.057,222.400 168.400 C 222.400 168.743,222.040 169.283,221.600 169.600 C 221.160 169.917,220.800 170.457,220.800 170.800 C 220.800 171.143,220.440 171.683,220.000 172.000 C 219.560 172.317,219.200 172.857,219.200 173.200 C 219.200 173.543,218.840 174.083,218.400 174.400 C 217.960 174.717,217.600 175.207,217.600 175.488 C 217.600 175.770,217.450 176.000,217.268 176.000 C 217.085 176.000,216.680 176.495,216.368 177.100 C 216.055 177.705,215.485 178.549,215.100 178.975 C 214.715 179.402,214.400 179.947,214.400 180.187 C 214.400 180.427,214.040 180.883,213.600 181.200 C 213.160 181.517,212.800 182.057,212.800 182.400 C 212.800 182.743,212.440 183.283,212.000 183.600 C 211.560 183.917,211.200 184.497,211.200 184.888 C 211.200 185.280,211.050 185.600,210.868 185.600 C 210.685 185.600,210.280 186.095,209.968 186.700 C 209.655 187.305,209.175 188.038,208.900 188.329 C 208.625 188.619,208.400 189.165,208.400 189.540 C 208.400 189.916,208.040 190.483,207.600 190.800 C 207.160 191.117,206.800 191.607,206.800 191.888 C 206.800 192.170,206.650 192.400,206.468 192.400 C 206.285 192.400,205.881 192.895,205.570 193.500 C 205.260 194.105,204.689 194.891,204.303 195.247 C 203.916 195.603,203.600 196.148,203.600 196.459 C 203.600 196.769,203.240 197.283,202.800 197.600 C 202.360 197.917,202.000 198.457,202.000 198.800 C 202.000 199.143,201.640 199.683,201.200 200.000 C 200.760 200.317,200.400 200.857,200.400 201.200 C 200.400 201.543,200.040 202.083,199.600 202.400 C 199.160 202.717,198.800 203.220,198.800 203.517 C 198.800 203.814,198.530 204.327,198.200 204.657 C 197.504 205.354,196.400 204.600,196.400 203.429 C 196.400 203.083,196.220 202.800,196.000 202.800 C 195.780 202.800,195.600 202.440,195.600 202.000 C 195.600 201.560,195.420 201.200,195.200 201.200 C 194.980 201.200,194.800 200.840,194.800 200.400 C 194.800 199.960,194.620 199.600,194.400 199.600 C 194.180 199.600,194.000 199.240,194.000 198.800 C 194.000 198.360,193.820 198.000,193.600 198.000 C 193.380 198.000,193.200 197.640,193.200 197.200 C 193.200 196.760,193.020 196.400,192.800 196.400 C 192.580 196.400,192.400 196.040,192.400 195.600 C 192.400 195.160,192.240 194.800,192.045 194.800 C 191.849 194.800,191.571 194.170,191.426 193.400 C 191.282 192.630,190.992 192.000,190.782 192.000 C 190.572 192.000,190.400 191.640,190.400 191.200 C 190.400 190.760,190.220 190.400,190.000 190.400 C 189.780 190.400,189.600 190.040,189.600 189.600 C 189.600 189.160,189.420 188.800,189.200 188.800 C 188.980 188.800,188.800 188.440,188.800 188.000 C 188.800 187.560,188.620 187.200,188.400 187.200 C 188.180 187.200,188.000 186.840,188.000 186.400 C 188.000 185.960,187.820 185.600,187.600 185.600 C 187.380 185.600,187.200 185.240,187.200 184.800 C 187.200 184.360,187.020 184.000,186.800 184.000 C 186.580 184.000,186.400 183.640,186.400 183.200 C 186.400 182.760,186.220 182.400,186.000 182.400 C 184.316 182.400,186.121 180.095,193.700 172.567 L 201.800 164.521 213.300 164.461 C 220.740 164.421,224.800 164.541,224.800 164.800 M181.189 204.578 C 184.700 211.587,187.474 217.480,187.354 217.675 C 186.996 218.253,174.391 224.441,174.027 224.217 C 173.630 223.972,160.400 197.465,160.400 196.915 C 160.400 196.708,161.615 196.317,163.100 196.047 C 165.934 195.531,170.564 193.474,172.600 191.826 C 174.232 190.505,173.872 189.971,181.189 204.578 M261.429 209.371 C 261.743 209.686,262.000 210.226,262.000 210.571 C 262.000 210.917,262.180 211.200,262.400 211.200 C 262.620 211.200,262.800 211.436,262.800 211.725 C 262.800 212.013,263.160 212.636,263.600 213.108 C 264.040 213.580,264.400 214.162,264.400 214.400 C 264.400 214.638,264.760 215.220,265.200 215.692 C 265.640 216.164,266.000 216.787,266.000 217.075 C 266.000 217.364,266.180 217.600,266.400 217.600 C 266.620 217.600,266.800 217.920,266.800 218.312 C 266.800 218.703,267.160 219.283,267.600 219.600 C 268.040 219.917,268.400 220.497,268.400 220.888 C 268.400 221.280,268.580 221.600,268.800 221.600 C 269.020 221.600,269.200 221.870,269.200 222.200 C 269.200 222.530,269.380 222.800,269.600 222.800 C 269.820 222.800,270.000 223.070,270.000 223.400 C 270.000 223.730,270.180 224.000,270.400 224.000 C 270.620 224.000,270.800 224.270,270.800 224.600 C 270.800 224.930,270.980 225.200,271.200 225.200 C 271.420 225.200,271.600 225.436,271.600 225.725 C 271.600 226.013,271.960 226.636,272.400 227.108 C 272.840 227.580,273.200 228.204,273.200 228.495 C 273.200 228.786,273.560 229.283,274.000 229.600 C 274.440 229.917,274.800 230.379,274.800 230.627 C 274.800 231.114,275.990 233.673,276.369 234.000 C 276.496 234.110,276.825 234.605,277.100 235.100 C 277.375 235.595,277.825 236.405,278.100 236.900 C 278.375 237.395,278.691 237.890,278.802 238.000 C 280.028 239.212,281.158 241.200,280.620 241.200 C 280.279 241.200,280.000 241.020,280.000 240.800 C 280.000 240.580,279.640 240.400,279.200 240.400 C 278.760 240.400,278.400 240.220,278.400 240.000 C 278.400 239.780,278.040 239.600,277.600 239.600 C 277.160 239.600,276.800 239.420,276.800 239.200 C 276.800 238.980,276.440 238.800,276.000 238.800 C 275.560 238.800,275.200 238.620,275.200 238.400 C 275.200 238.180,274.855 238.000,274.433 238.000 C 274.012 238.000,273.607 237.863,273.533 237.695 C 273.460 237.527,271.420 236.405,269.000 235.200 C 266.580 233.995,264.540 232.873,264.467 232.705 C 264.393 232.537,263.988 232.400,263.567 232.400 C 263.145 232.400,262.800 232.220,262.800 232.000 C 262.800 231.780,262.440 231.600,262.000 231.600 C 261.560 231.600,261.200 231.420,261.200 231.200 C 261.200 230.980,260.840 230.800,260.400 230.800 C 259.960 230.800,259.600 230.620,259.600 230.400 C 259.600 230.180,259.353 230.000,259.051 230.000 C 258.623 230.000,250.281 225.887,249.660 225.370 C 249.583 225.305,249.898 224.847,250.360 224.351 C 250.822 223.855,251.200 223.253,251.200 223.013 C 251.200 222.773,251.560 222.317,252.000 222.000 C 252.440 221.683,252.800 221.143,252.800 220.800 C 252.800 220.457,253.160 219.917,253.600 219.600 C 254.040 219.283,254.400 218.743,254.400 218.400 C 254.400 218.057,254.760 217.517,255.200 217.200 C 255.640 216.883,256.000 216.386,256.000 216.095 C 256.000 215.804,256.360 215.180,256.800 214.708 C 257.240 214.236,257.600 213.613,257.600 213.325 C 257.600 213.036,257.762 212.800,257.961 212.800 C 258.159 212.800,258.502 212.305,258.722 211.700 C 259.534 209.465,260.603 208.546,261.429 209.371 M129.000 360.000 C 128.864 360.220,128.439 360.400,128.055 360.400 C 127.170 360.400,124.800 362.816,124.800 363.719 C 124.800 364.094,124.620 364.400,124.400 364.400 C 124.171 364.400,124.000 365.600,124.000 367.200 C 124.000 368.800,124.171 370.000,124.400 370.000 C 124.620 370.000,124.800 370.325,124.800 370.722 C 124.800 371.580,126.943 373.657,128.519 374.325 C 129.841 374.886,146.400 375.002,146.400 374.450 C 146.400 374.257,146.926 373.995,147.569 373.866 C 148.815 373.617,150.400 372.194,150.400 371.325 C 150.400 371.036,150.580 370.800,150.800 370.800 C 151.020 370.800,151.200 370.206,151.200 369.480 C 151.200 368.754,151.416 367.944,151.680 367.680 C 152.053 367.307,152.053 367.093,151.680 366.720 C 151.416 366.456,151.200 365.646,151.200 364.920 C 151.200 364.194,151.064 363.600,150.898 363.600 C 150.731 363.600,150.365 363.079,150.083 362.442 C 149.777 361.750,149.054 361.093,148.285 360.809 C 147.578 360.547,146.687 360.168,146.305 359.967 C 145.343 359.459,129.315 359.490,129.000 360.000 " stroke="none" fill="#040404" fill-rule="evenodd"></path><path id="path4" d="M187.400 39.362 C 183.757 40.185,178.800 43.684,178.800 45.432 C 178.800 45.744,178.620 46.000,178.400 46.000 C 178.180 46.000,178.000 46.324,178.000 46.720 C 178.000 47.116,177.777 47.663,177.504 47.936 C 176.518 48.922,176.861 55.985,178.004 58.215 C 181.052 64.159,187.763 67.216,193.766 65.395 C 207.232 61.310,206.560 42.646,192.828 39.362 C 190.277 38.751,190.105 38.751,187.400 39.362 M195.857 41.026 C 200.795 43.404,203.784 49.211,202.784 54.486 C 199.829 70.067,177.430 68.224,177.418 52.400 C 177.410 42.787,187.100 36.810,195.857 41.026 M88.800 66.443 C 86.706 67.700,62.613 91.880,61.641 93.700 C 59.201 98.272,62.262 104.375,67.310 105.006 C 71.742 105.560,71.809 105.513,84.200 93.194 C 90.742 86.689,95.816 81.957,96.400 81.814 C 96.950 81.679,104.780 81.621,113.800 81.684 L 130.200 81.800 131.494 82.771 C 133.249 84.087,134.179 86.609,133.813 89.054 C 133.571 90.664,131.393 94.130,119.035 112.571 C 102.424 137.358,103.537 135.424,105.684 135.767 C 107.698 136.089,108.164 135.795,106.219 135.430 C 104.379 135.085,102.894 137.635,119.100 113.301 C 137.033 86.372,137.003 86.447,131.496 82.246 L 130.124 81.200 113.224 81.200 C 96.469 81.200,96.313 81.208,95.062 82.079 C 94.368 82.562,89.237 87.529,83.661 93.116 C 73.425 103.371,71.672 104.771,69.046 104.791 C 63.367 104.834,59.619 99.230,61.963 94.200 C 63.372 91.179,88.621 66.558,90.800 66.080 C 92.292 65.753,92.395 65.679,91.400 65.644 C 90.740 65.622,89.570 65.981,88.800 66.443 M137.000 65.974 C 139.725 66.637,142.543 69.071,143.513 71.600 C 143.640 71.930,144.611 73.518,145.672 75.129 C 146.732 76.741,147.600 78.148,147.600 78.257 C 147.600 78.367,148.140 79.241,148.800 80.200 C 149.460 81.159,150.000 82.035,150.000 82.146 C 150.000 82.257,151.823 85.285,154.051 88.874 C 156.279 92.463,158.827 96.570,159.712 98.000 C 160.598 99.430,161.925 101.542,162.661 102.694 C 163.398 103.845,164.000 104.893,164.000 105.022 C 164.000 105.151,164.514 106.008,165.142 106.928 C 166.832 109.404,172.000 117.991,172.000 118.324 C 172.000 118.482,169.591 121.015,166.647 123.953 L 161.294 129.295 159.647 126.869 C 158.741 125.535,158.000 124.331,158.000 124.194 C 158.000 124.057,157.483 123.192,156.852 122.272 C 156.220 121.352,154.581 118.710,153.210 116.400 C 148.878 109.107,148.078 108.400,144.158 108.400 C 142.309 108.400,141.613 108.600,140.495 109.453 C 138.998 110.595,121.600 136.405,121.600 137.484 C 121.600 137.995,121.254 138.067,119.700 137.880 C 118.464 137.731,118.080 137.772,118.600 137.997 C 119.946 138.580,122.000 138.473,122.000 137.819 C 122.000 137.499,125.966 131.244,130.814 123.919 C 140.542 109.218,140.920 108.800,144.503 108.800 C 147.944 108.800,148.610 109.548,155.724 121.393 C 155.986 121.830,156.695 122.942,157.300 123.865 C 157.905 124.789,158.400 125.659,158.400 125.800 C 158.400 126.365,160.870 129.600,161.301 129.600 C 161.556 129.600,164.241 127.088,167.267 124.017 L 172.770 118.434 169.040 112.317 C 166.989 108.953,164.356 104.670,163.190 102.800 C 162.024 100.930,160.874 98.996,160.635 98.503 C 160.396 98.010,160.065 97.605,159.900 97.603 C 159.735 97.601,159.600 97.407,159.600 97.172 C 159.600 96.937,159.060 95.959,158.400 95.000 C 157.740 94.041,157.200 93.151,157.200 93.023 C 157.200 92.895,156.409 91.578,155.443 90.095 C 154.476 88.613,151.938 84.520,149.802 81.000 C 147.667 77.480,145.308 73.658,144.560 72.506 C 143.812 71.355,143.200 70.230,143.200 70.006 C 143.200 69.783,143.050 69.600,142.868 69.600 C 142.685 69.600,142.286 69.135,141.982 68.567 C 141.266 67.228,138.454 65.589,136.965 65.641 L 135.800 65.682 137.000 65.974 M313.559 85.336 C 296.081 88.538,288.828 110.624,300.912 123.846 C 311.986 135.963,331.048 133.352,338.770 118.659 C 339.446 117.372,340.000 115.988,340.000 115.583 C 340.000 115.178,340.154 114.752,340.343 114.635 C 340.737 114.392,341.316 110.562,341.316 108.200 C 341.316 105.838,340.737 102.008,340.343 101.765 C 340.154 101.648,340.000 101.222,340.000 100.817 C 340.000 99.825,337.851 95.774,336.279 93.802 C 330.991 87.171,321.945 83.799,313.559 85.336 M324.600 86.410 C 335.229 90.701,340.459 97.887,340.459 108.200 C 340.459 128.243,316.964 138.413,302.470 124.643 C 289.193 112.029,295.680 89.417,313.600 85.853 C 315.359 85.503,323.357 85.908,324.600 86.410 M187.531 124.548 C 186.503 124.796,185.528 125.135,185.364 125.300 C 185.201 125.465,184.737 125.600,184.333 125.600 C 183.930 125.600,183.600 125.780,183.600 126.000 C 183.600 126.220,183.407 126.400,183.171 126.400 C 182.622 126.400,184.354 124.720,164.022 144.981 C 143.704 165.228,144.218 164.561,144.218 170.679 C 144.218 173.068,144.392 174.552,144.709 174.869 C 144.979 175.139,145.200 175.684,145.200 176.080 C 145.200 176.476,145.380 176.800,145.600 176.800 C 145.820 176.800,146.000 177.059,146.000 177.376 C 146.000 179.291,151.184 182.861,154.983 183.563 C 161.736 184.811,163.403 183.687,180.970 166.036 C 191.943 155.010,195.247 151.914,196.370 151.602 C 199.472 150.740,239.129 151.094,241.000 152.000 C 244.074 153.488,245.378 157.846,243.658 160.888 C 242.804 162.400,227.966 184.899,227.625 185.200 C 227.501 185.310,227.144 185.895,226.832 186.500 C 226.520 187.105,226.115 187.600,225.932 187.600 C 225.750 187.600,225.600 187.788,225.600 188.017 C 225.600 188.246,225.240 188.820,224.800 189.292 C 224.360 189.764,224.000 190.387,224.000 190.675 C 224.000 190.964,223.842 191.200,223.649 191.200 C 223.455 191.200,223.073 191.740,222.800 192.400 C 222.527 193.060,222.167 193.600,222.001 193.600 C 221.836 193.600,221.450 194.095,221.145 194.700 C 220.840 195.305,216.408 202.053,211.295 209.696 C 202.303 223.139,201.540 224.400,202.400 224.400 C 202.620 224.400,202.755 224.239,202.700 224.043 C 202.645 223.847,212.021 209.550,223.536 192.273 C 237.208 171.758,244.591 160.328,244.816 159.328 C 245.474 156.397,244.257 153.505,241.604 151.700 L 240.282 150.800 218.327 150.800 C 198.491 150.800,196.267 150.865,195.286 151.470 C 194.689 151.839,187.630 158.643,179.600 166.591 C 162.828 183.192,163.088 183.000,157.400 183.000 C 147.848 183.000,141.691 173.619,145.718 165.200 C 147.081 162.350,181.584 127.659,184.695 126.010 L 186.600 125.000 219.600 125.000 L 252.600 125.000 254.496 125.942 C 257.216 127.294,262.400 132.961,262.400 134.583 C 262.400 134.708,263.183 136.022,264.140 137.505 C 265.858 140.167,266.842 141.756,271.384 149.200 C 272.659 151.290,274.490 154.213,275.451 155.695 C 276.413 157.178,277.200 158.492,277.200 158.617 C 277.200 158.742,277.920 159.904,278.800 161.200 C 279.680 162.496,280.400 163.659,280.400 163.784 C 280.400 163.910,281.006 164.955,281.747 166.106 C 282.489 167.258,285.032 171.350,287.400 175.200 C 289.768 179.050,292.311 183.142,293.053 184.294 C 293.794 185.445,294.400 186.483,294.400 186.599 C 294.400 186.715,295.190 188.022,296.155 189.505 C 297.120 190.987,299.835 195.307,302.187 199.103 C 304.540 202.900,306.856 206.227,307.333 206.497 C 309.096 207.492,311.186 207.918,312.699 207.590 C 313.525 207.411,315.280 207.056,316.600 206.800 C 317.920 206.544,319.720 206.184,320.600 206.000 C 322.357 205.632,325.944 204.924,328.900 204.362 C 331.560 203.855,334.470 203.270,336.700 202.794 C 340.062 202.075,344.946 201.109,346.951 200.766 C 348.023 200.582,348.998 200.335,349.117 200.216 C 349.562 199.771,347.460 200.030,342.704 201.007 C 340.007 201.561,336.000 202.371,333.800 202.808 C 331.600 203.245,328.360 203.894,326.600 204.251 C 324.840 204.608,322.500 205.073,321.400 205.285 C 320.300 205.497,318.590 205.834,317.600 206.033 C 311.179 207.328,309.204 207.294,307.471 205.856 C 306.607 205.139,298.000 191.960,298.000 191.354 C 298.000 191.245,297.280 190.096,296.400 188.800 C 295.520 187.504,294.800 186.334,294.800 186.200 C 294.800 186.066,294.080 184.896,293.200 183.600 C 292.320 182.304,291.600 181.054,291.600 180.822 C 291.600 180.590,291.420 180.400,291.200 180.400 C 290.980 180.400,290.800 180.217,290.800 179.994 C 290.800 179.770,290.191 178.645,289.447 177.494 C 287.875 175.061,281.862 165.237,280.718 163.231 C 280.288 162.478,279.231 160.823,278.368 159.553 C 277.506 158.283,276.800 157.131,276.800 156.994 C 276.800 156.857,276.260 155.959,275.600 155.000 C 274.940 154.041,274.400 153.151,274.400 153.023 C 274.400 152.895,273.614 151.578,272.654 150.095 C 271.694 148.613,269.867 145.690,268.595 143.600 C 261.324 131.654,259.949 129.562,258.335 127.989 C 256.564 126.263,254.130 125.042,251.269 124.445 C 248.284 123.821,190.143 123.915,187.531 124.548 M109.600 136.400 C 110.150 136.576,110.960 136.720,111.400 136.720 C 112.033 136.720,111.992 136.654,111.200 136.400 C 110.650 136.224,109.840 136.080,109.400 136.080 C 108.767 136.080,108.808 136.146,109.600 136.400 M113.800 137.181 C 114.568 137.529,116.710 137.756,116.367 137.453 C 116.275 137.372,115.480 137.196,114.600 137.062 C 113.485 136.893,113.242 136.929,113.800 137.181 M257.894 188.807 C 255.649 190.027,230.310 228.000,231.741 228.000 C 232.015 228.000,232.455 227.415,232.719 226.700 C 233.910 223.472,256.561 190.240,258.200 189.316 C 260.849 187.821,264.283 188.538,265.995 190.943 C 266.990 192.340,270.800 198.436,270.800 198.630 C 270.800 198.729,271.581 200.022,272.535 201.505 C 276.621 207.855,277.200 208.809,277.200 209.194 C 277.200 209.417,277.335 209.601,277.500 209.603 C 277.665 209.605,277.997 210.010,278.239 210.503 C 278.630 211.304,281.984 216.822,288.457 227.314 C 294.041 236.365,298.018 237.664,311.400 234.809 C 314.700 234.105,318.210 233.387,319.200 233.214 C 320.190 233.040,323.340 232.428,326.200 231.854 C 329.060 231.279,332.390 230.612,333.600 230.372 C 334.810 230.132,336.520 229.779,337.400 229.589 C 339.365 229.165,340.831 228.863,343.300 228.375 C 346.020 227.838,348.908 227.260,351.100 226.813 C 352.145 226.600,353.900 226.248,355.000 226.031 C 356.100 225.814,357.810 225.464,358.800 225.253 C 359.790 225.042,361.320 224.755,362.200 224.614 C 363.080 224.474,364.430 224.201,365.200 224.009 C 365.970 223.817,367.680 223.436,369.000 223.162 C 380.300 220.818,384.558 208.377,376.757 200.499 C 372.840 196.542,369.021 195.878,360.000 197.584 C 352.832 198.939,349.881 199.585,349.631 199.851 C 349.317 200.184,351.393 199.874,356.400 198.839 C 367.280 196.590,369.162 196.542,373.034 198.417 C 381.926 202.721,382.280 216.237,373.624 220.948 C 371.653 222.021,367.097 223.164,358.200 224.818 C 357.100 225.022,354.490 225.556,352.400 226.004 C 350.310 226.452,347.610 226.992,346.400 227.204 C 345.190 227.417,343.390 227.773,342.400 227.996 C 341.410 228.219,339.700 228.571,338.600 228.778 C 337.500 228.985,335.610 229.364,334.400 229.621 C 331.565 230.222,329.145 230.698,326.400 231.193 C 325.190 231.412,323.390 231.773,322.400 231.996 C 321.410 232.219,319.700 232.570,318.600 232.776 C 317.500 232.981,314.800 233.521,312.600 233.976 C 303.139 235.932,301.575 236.121,299.216 235.598 C 295.295 234.728,292.353 232.526,289.960 228.669 C 286.690 223.401,285.415 221.336,281.394 214.800 C 279.026 210.950,276.419 206.720,275.601 205.400 C 274.784 204.080,273.324 201.702,272.357 200.115 C 264.956 187.967,262.696 186.200,257.894 188.807 M206.900 225.076 C 207.285 225.176,207.915 225.176,208.300 225.076 C 208.685 224.975,208.370 224.893,207.600 224.893 C 206.830 224.893,206.515 224.975,206.900 225.076 M213.505 225.883 C 214.002 225.979,214.722 225.975,215.105 225.875 C 215.487 225.775,215.080 225.696,214.200 225.701 C 213.320 225.705,213.007 225.787,213.505 225.883 M220.305 226.683 C 220.802 226.779,221.522 226.775,221.905 226.675 C 222.287 226.575,221.880 226.496,221.000 226.501 C 220.120 226.505,219.807 226.587,220.305 226.683 M227.905 227.483 C 228.402 227.579,229.122 227.575,229.505 227.475 C 229.887 227.375,229.480 227.296,228.600 227.301 C 227.720 227.305,227.407 227.387,227.905 227.483 " stroke="none" fill="#624519" fill-rule="evenodd"></path></g></svg>