<svg id="svg" version="1.1" xmlns="http://www.w3.org/2000/svg" xmlns:xlink="http://www.w3.org/1999/xlink" width="400" height="400" viewBox="0, 0, 400,400"><g id="svgg"><path id="path0" d="M200.323 33.399 C 196.031 34.977,194.742 37.208,194.427 43.600 C 194.302 46.130,194.054 48.425,193.876 48.700 C 193.623 49.092,194.831 49.200,199.476 49.199 C 205.214 49.199,209.840 49.588,214.400 50.455 C 219.742 51.470,226.309 53.243,229.000 54.395 C 229.440 54.584,230.610 55.060,231.600 55.455 C 256.386 65.326,276.327 89.955,280.783 116.200 C 281.044 117.740,281.425 119.975,281.629 121.167 C 282.872 128.425,281.780 144.033,279.405 152.967 C 274.523 171.330,259.161 192.442,245.005 200.243 C 244.562 200.487,242.940 201.464,241.400 202.413 C 226.143 211.820,205.873 215.465,185.811 212.409 C 184.497 212.209,183.351 212.116,183.264 212.203 C 183.089 212.378,183.653 212.503,187.900 213.231 L 190.800 213.728 190.800 216.480 C 190.800 223.408,195.187 226.118,202.951 223.988 C 211.421 221.664,218.775 221.441,226.916 223.260 C 228.670 223.651,228.772 223.736,228.116 224.259 C 227.722 224.574,228.300 224.396,229.400 223.864 C 234.439 221.428,238.190 220.308,244.400 219.388 C 249.348 218.655,251.777 218.649,252.373 219.368 C 252.659 219.712,253.903 220.012,255.522 220.128 C 258.236 220.322,259.720 220.601,264.400 221.796 C 269.039 222.981,274.382 221.529,275.056 218.900 C 275.183 218.405,275.447 218.000,275.643 218.000 C 275.840 218.000,276.000 217.471,276.000 216.824 C 276.000 216.177,276.180 215.536,276.400 215.400 C 276.627 215.260,276.800 213.270,276.800 210.800 C 276.800 208.330,276.973 206.340,277.200 206.200 C 277.420 206.064,277.600 205.243,277.600 204.376 C 277.600 203.509,277.780 202.800,278.000 202.800 C 278.220 202.800,278.400 202.170,278.400 201.400 C 278.400 200.630,278.580 200.000,278.800 200.000 C 279.020 200.000,279.200 199.561,279.200 199.024 C 279.200 198.487,279.380 197.936,279.600 197.800 C 279.820 197.664,280.000 197.203,280.000 196.776 C 280.000 196.349,280.180 196.000,280.400 196.000 C 280.620 196.000,280.800 195.550,280.800 195.000 C 280.800 194.450,280.980 194.000,281.200 194.000 C 281.420 194.000,281.600 193.640,281.600 193.200 C 281.600 192.760,281.752 192.400,281.937 192.400 C 282.123 192.400,282.708 191.545,283.237 190.501 C 284.337 188.333,284.159 188.577,288.107 183.800 C 289.743 181.820,291.760 179.660,292.587 179.000 C 293.415 178.340,294.513 177.395,295.028 176.900 C 295.543 176.405,296.074 176.000,296.210 176.000 C 296.345 176.000,297.208 175.483,298.128 174.850 C 299.048 174.218,301.240 173.030,303.000 172.211 C 310.235 168.843,310.683 168.545,311.976 166.244 C 313.499 163.531,312.822 157.457,310.834 156.000 C 310.276 155.591,308.895 153.367,308.599 152.400 C 308.430 151.850,308.113 151.285,307.894 151.144 C 307.331 150.782,304.595 143.727,304.020 141.152 C 303.755 139.968,303.349 138.381,303.116 137.625 C 301.739 133.139,302.831 120.342,305.201 113.200 C 306.039 110.675,308.506 105.494,309.200 104.800 C 309.596 104.404,310.854 102.185,311.071 101.500 C 311.193 101.115,311.452 100.800,311.647 100.800 C 311.841 100.800,312.000 99.244,312.000 97.341 C 312.000 93.752,310.345 90.400,308.573 90.400 C 308.258 90.400,308.000 90.220,308.000 90.000 C 308.000 89.780,307.728 89.600,307.395 89.600 C 307.062 89.600,306.477 89.441,306.095 89.247 C 305.713 89.052,304.950 88.716,304.400 88.500 C 302.027 87.567,301.250 87.226,298.600 85.952 C 297.060 85.211,295.451 84.289,295.025 83.903 C 294.598 83.516,294.093 83.200,293.901 83.200 C 292.790 83.200,283.599 74.476,282.180 72.074 C 281.766 71.373,281.286 70.800,281.114 70.800 C 280.941 70.800,280.800 70.530,280.800 70.200 C 280.800 69.870,280.650 69.600,280.468 69.600 C 280.285 69.600,279.886 69.105,279.582 68.500 C 279.278 67.895,278.707 66.922,278.314 66.338 C 277.921 65.754,277.600 64.989,277.600 64.638 C 277.600 64.287,277.420 64.000,277.200 64.000 C 276.980 64.000,276.800 63.640,276.800 63.200 C 276.800 62.760,276.620 62.400,276.400 62.400 C 276.180 62.400,276.000 62.051,276.000 61.624 C 276.000 61.197,275.841 60.749,275.646 60.629 C 275.451 60.508,275.196 59.913,275.079 59.305 C 274.962 58.697,274.664 57.480,274.417 56.600 C 274.170 55.720,273.874 54.460,273.759 53.800 C 273.645 53.140,273.406 52.052,273.230 51.382 C 273.054 50.712,272.879 48.372,272.842 46.182 C 272.720 39.099,271.818 37.057,267.814 34.808 C 266.247 33.928,260.676 33.629,260.200 34.400 C 260.064 34.620,259.099 34.800,258.056 34.800 C 257.013 34.800,255.971 34.989,255.740 35.220 C 254.891 36.069,240.091 35.245,238.498 34.261 C 238.218 34.087,238.000 34.142,238.000 34.386 C 238.000 35.759,231.660 36.896,224.000 36.896 C 216.931 36.896,213.529 36.301,206.462 33.828 C 203.165 32.675,202.433 32.624,200.323 33.399 M188.600 49.600 L 187.400 49.905 188.600 49.923 C 189.260 49.933,190.610 49.797,191.600 49.620 L 193.400 49.300 191.600 49.297 C 190.610 49.296,189.260 49.432,188.600 49.600 M180.200 51.185 C 175.887 52.290,172.692 53.264,170.900 54.020 C 170.405 54.229,169.595 54.563,169.100 54.761 C 167.006 55.602,162.000 58.019,162.000 58.190 C 162.000 58.404,163.213 58.006,163.800 57.598 C 164.672 56.993,171.267 54.343,174.788 53.183 C 178.440 51.979,180.227 51.523,184.151 50.795 C 185.223 50.595,186.198 50.335,186.317 50.216 C 186.800 49.734,184.357 50.121,180.200 51.185 M160.100 58.944 C 159.605 59.189,159.200 59.533,159.200 59.709 C 159.200 60.014,159.898 59.703,161.200 58.820 C 161.981 58.289,161.256 58.372,160.100 58.944 M156.881 60.972 C 154.921 62.358,154.785 62.665,156.600 61.605 C 158.478 60.510,159.125 59.991,158.580 60.020 C 158.371 60.030,157.607 60.459,156.881 60.972 M153.123 63.300 C 152.530 63.795,151.000 64.965,149.723 65.899 C 146.735 68.084,143.276 71.192,143.825 71.196 C 144.059 71.198,144.779 70.647,145.425 69.971 C 146.071 69.295,148.310 67.466,150.400 65.907 C 154.920 62.534,155.079 62.400,154.580 62.400 C 154.371 62.401,153.715 62.806,153.123 63.300 M139.470 75.300 C 135.682 79.407,131.544 84.812,129.327 88.549 C 127.267 92.022,124.799 96.830,124.807 97.355 C 124.810 97.600,125.878 95.785,127.180 93.322 C 131.091 85.921,135.254 80.170,140.952 74.300 C 142.393 72.815,143.417 71.600,143.228 71.600 C 143.039 71.600,141.348 73.265,139.470 75.300 M123.778 99.500 C 123.415 100.325,122.966 101.360,122.779 101.800 C 122.321 102.881,121.179 106.322,120.787 107.800 C 120.612 108.460,120.203 109.990,119.876 111.200 C 119.177 113.797,118.614 117.562,119.159 116.000 C 119.351 115.450,119.802 113.703,120.160 112.117 C 120.859 109.027,122.599 103.516,123.955 100.100 C 124.908 97.700,124.772 97.240,123.778 99.500 M118.032 121.000 C 117.165 127.426,117.831 150.537,118.719 144.857 C 118.801 144.338,118.672 142.793,118.434 141.424 C 117.873 138.203,117.873 124.597,118.434 121.376 C 118.672 120.007,118.801 118.462,118.719 117.943 C 118.638 117.425,118.329 118.800,118.032 121.000 M119.047 147.600 C 119.177 148.590,119.550 150.390,119.876 151.600 C 120.203 152.810,120.613 154.340,120.789 155.000 C 121.129 156.280,121.475 157.310,121.996 158.600 C 122.174 159.040,122.539 160.030,122.807 160.800 C 123.499 162.789,124.407 164.800,124.613 164.800 C 124.709 164.800,124.413 163.855,123.955 162.700 C 122.599 159.284,120.859 153.773,120.160 150.683 C 119.266 146.729,118.741 145.276,119.047 147.600 M124.800 165.421 C 124.800 166.045,126.588 169.586,126.907 169.593 C 127.075 169.597,126.739 168.655,126.159 167.500 C 125.004 165.201,124.800 164.889,124.800 165.421 M128.077 171.900 C 129.069 173.970,129.803 175.200,130.046 175.200 C 130.210 175.200,129.891 174.390,129.338 173.400 C 128.522 171.941,127.532 170.763,128.077 171.900 M130.401 175.900 C 130.408 177.400,141.863 190.505,146.600 194.433 C 150.407 197.588,154.973 200.842,157.200 201.985 C 158.826 202.819,157.621 201.856,154.200 199.586 C 148.777 195.987,142.094 190.146,138.200 185.599 C 135.349 182.270,133.622 180.052,132.203 177.900 C 130.719 175.649,130.399 175.293,130.401 175.900 M159.200 203.200 C 159.750 203.630,160.380 203.982,160.600 203.982 C 160.820 203.982,160.550 203.630,160.000 203.200 C 159.450 202.770,158.820 202.418,158.600 202.418 C 158.380 202.418,158.650 202.770,159.200 203.200 M162.800 204.990 C 162.800 205.295,165.256 206.477,165.462 206.271 C 165.565 206.168,165.071 205.795,164.363 205.442 C 162.976 204.750,162.800 204.699,162.800 204.990 M168.000 207.395 C 168.000 207.661,170.790 208.807,171.349 208.770 C 171.597 208.754,171.080 208.407,170.200 208.000 C 168.509 207.217,168.000 207.077,168.000 207.395 M125.293 209.600 C 125.293 210.370,125.375 210.685,125.476 210.300 C 125.576 209.915,125.576 209.285,125.476 208.900 C 125.375 208.515,125.293 208.830,125.293 209.600 M172.200 209.200 C 172.336 209.420,172.842 209.587,173.324 209.572 C 174.169 209.545,174.171 209.531,173.400 209.200 C 172.299 208.727,171.908 208.727,172.200 209.200 M174.600 210.000 C 174.736 210.220,175.242 210.387,175.724 210.372 C 176.569 210.345,176.571 210.331,175.800 210.000 C 174.699 209.527,174.308 209.527,174.600 210.000 M177.400 210.775 C 179.228 211.508,181.117 211.999,182.028 211.976 C 182.563 211.963,181.740 211.607,180.200 211.186 C 177.332 210.402,175.974 210.203,177.400 210.775 M150.700 222.293 C 151.635 222.377,153.165 222.377,154.100 222.293 C 155.035 222.209,154.270 222.140,152.400 222.140 C 150.530 222.140,149.765 222.209,150.700 222.293 M225.281 225.772 C 223.321 227.158,223.185 227.465,225.000 226.405 C 226.878 225.310,227.525 224.791,226.980 224.820 C 226.771 224.830,226.007 225.259,225.281 225.772 M216.138 233.300 C 212.949 236.597,208.087 243.020,208.482 243.415 C 208.565 243.498,209.608 242.088,210.800 240.283 C 211.993 238.477,214.577 235.335,216.543 233.300 C 218.509 231.265,220.028 229.600,219.918 229.600 C 219.808 229.600,218.107 231.265,216.138 233.300 M179.233 230.556 C 179.325 230.641,180.300 231.369,181.400 232.172 L 183.400 233.633 181.600 232.017 C 180.610 231.129,179.635 230.402,179.433 230.401 C 179.232 230.400,179.142 230.470,179.233 230.556 M183.600 233.709 C 183.600 234.057,187.277 237.656,187.453 237.480 C 187.524 237.410,186.686 236.469,185.591 235.391 C 184.496 234.312,183.600 233.556,183.600 233.709 M189.375 240.132 C 189.991 240.939,190.576 241.600,190.675 241.600 C 190.953 241.600,189.221 239.260,188.709 238.944 C 188.459 238.789,188.759 239.324,189.375 240.132 M191.445 243.012 C 191.810 243.569,192.186 243.947,192.282 243.851 C 192.519 243.614,191.484 242.000,191.095 242.000 C 190.922 242.000,191.080 242.456,191.445 243.012 M207.058 245.432 C 206.430 246.219,205.350 247.208,204.658 247.630 C 203.966 248.052,203.580 248.396,203.800 248.396 C 204.786 248.393,208.400 245.035,208.400 244.122 C 208.400 243.825,208.128 244.090,207.058 245.432 M192.803 244.646 C 192.798 245.383,194.393 247.176,195.615 247.808 C 197.394 248.728,197.574 248.501,195.878 247.475 C 195.042 246.968,194.008 246.024,193.581 245.377 C 193.154 244.730,192.804 244.401,192.803 244.646 M198.400 248.800 C 198.730 249.013,199.630 249.188,200.400 249.188 C 201.170 249.188,202.070 249.013,202.400 248.800 C 202.821 248.528,202.225 248.412,200.400 248.412 C 198.575 248.412,197.979 248.528,198.400 248.800 " stroke="none" fill="#fc644c" fill-rule="evenodd"></path><path id="path1" d="M191.400 65.260 C 185.323 66.371,182.590 67.027,178.800 68.283 C 161.666 73.963,147.194 86.921,139.575 103.404 C 135.303 112.646,133.616 120.572,133.616 131.400 C 133.616 140.183,134.399 145.209,136.952 152.815 C 141.413 166.105,149.390 176.689,162.200 186.315 C 168.407 190.980,178.536 195.027,189.600 197.264 C 193.135 197.979,206.891 197.970,210.600 197.252 C 220.772 195.281,232.698 190.517,237.693 186.430 C 237.972 186.202,239.554 184.962,241.209 183.675 C 285.758 149.031,267.874 75.465,212.600 65.998 C 211.060 65.734,208.936 65.357,207.880 65.159 C 205.454 64.705,194.053 64.775,191.400 65.260 M202.786 88.255 C 203.926 88.929,205.934 92.055,206.846 94.575 C 207.129 95.359,207.505 96.000,207.680 96.000 C 207.856 96.000,208.000 96.182,208.000 96.404 C 208.000 97.006,209.354 100.044,211.915 105.189 C 215.072 111.530,214.581 111.273,226.800 113.003 C 239.663 114.824,240.261 114.997,241.420 117.240 C 243.076 120.442,242.389 121.545,233.275 130.321 C 222.955 140.257,223.589 137.900,226.601 155.156 C 228.204 164.335,228.145 165.238,225.830 167.004 C 223.239 168.981,222.943 168.875,206.600 160.167 C 200.187 156.749,197.261 157.141,189.571 162.444 C 177.153 171.007,170.570 169.720,172.404 159.087 C 172.829 156.619,173.376 153.340,173.619 151.800 C 173.862 150.260,174.253 148.229,174.486 147.287 C 174.720 146.344,174.931 144.036,174.956 142.156 L 175.000 138.739 166.800 130.670 C 162.290 126.231,158.375 122.097,158.100 121.481 C 156.429 117.741,158.951 114.732,164.400 113.962 C 165.610 113.791,168.040 113.449,169.800 113.201 C 184.414 111.141,184.159 111.206,185.706 109.125 C 186.248 108.396,188.708 103.710,191.174 98.712 C 196.746 87.415,198.575 85.768,202.786 88.255 " stroke="none" fill="#fce373" fill-rule="evenodd"></path><path id="path2" d="M191.600 49.662 C 180.266 51.188,173.809 53.057,164.400 57.536 C 122.163 77.640,105.456 129.859,128.119 170.937 C 129.830 174.039,134.077 180.585,134.777 181.200 C 134.903 181.310,135.634 182.249,136.403 183.287 C 143.412 192.751,159.753 204.401,171.600 208.379 C 173.030 208.860,174.560 209.408,175.000 209.599 C 176.702 210.337,182.173 211.563,189.600 212.871 C 204.871 215.562,227.476 210.998,241.400 202.413 C 242.940 201.464,244.562 200.487,245.005 200.243 C 259.161 192.442,274.523 171.330,279.405 152.967 C 281.780 144.033,282.872 128.425,281.629 121.167 C 281.425 119.975,281.044 117.740,280.783 116.200 C 276.327 89.955,256.386 65.326,231.600 55.455 C 230.610 55.060,229.440 54.584,229.000 54.395 C 224.867 52.625,215.798 50.480,208.800 49.618 C 204.847 49.131,195.362 49.155,191.600 49.662 M207.880 65.159 C 208.936 65.357,211.060 65.734,212.600 65.998 C 267.874 75.465,285.758 149.031,241.209 183.675 C 239.554 184.962,237.972 186.202,237.693 186.430 C 232.698 190.517,220.772 195.281,210.600 197.252 C 206.891 197.970,193.135 197.979,189.600 197.264 C 178.536 195.027,168.407 190.980,162.200 186.315 C 149.390 176.689,141.413 166.105,136.952 152.815 C 134.399 145.209,133.616 140.183,133.616 131.400 C 133.616 122.888,134.386 117.745,136.731 110.600 C 143.243 90.759,159.093 74.816,178.800 68.283 C 182.590 67.027,185.323 66.371,191.400 65.260 C 194.053 64.775,205.454 64.705,207.880 65.159 M196.859 88.612 C 196.047 89.295,194.199 92.578,191.174 98.712 C 188.708 103.710,186.248 108.396,185.706 109.125 C 184.159 111.206,184.414 111.141,169.800 113.201 C 168.040 113.449,165.610 113.791,164.400 113.962 C 158.951 114.732,156.429 117.741,158.100 121.481 C 158.375 122.097,162.290 126.231,166.800 130.670 L 175.000 138.739 174.956 142.156 C 174.931 144.036,174.720 146.344,174.486 147.287 C 174.253 148.229,173.862 150.260,173.619 151.800 C 173.376 153.340,172.829 156.619,172.404 159.087 C 170.570 169.720,177.153 171.007,189.571 162.444 C 197.261 157.141,200.187 156.749,206.600 160.167 C 222.943 168.875,223.239 168.981,225.830 167.004 C 228.145 165.238,228.204 164.335,226.601 155.156 C 223.589 137.900,222.955 140.257,233.275 130.321 C 242.389 121.545,243.076 120.442,241.420 117.240 C 240.261 114.997,239.663 114.824,226.800 113.003 C 214.581 111.273,215.072 111.530,211.915 105.189 C 209.354 100.044,208.000 97.006,208.000 96.404 C 208.000 96.182,207.856 96.000,207.680 96.000 C 207.505 96.000,207.129 95.359,206.846 94.575 C 204.579 88.306,200.276 85.737,196.859 88.612 M242.800 220.400 C 242.470 220.613,241.673 220.791,241.028 220.794 C 239.848 220.800,237.590 221.400,236.305 222.049 C 235.923 222.242,235.312 222.400,234.947 222.400 C 234.582 222.400,232.974 223.030,231.373 223.800 C 229.772 224.570,228.268 225.200,228.031 225.200 C 227.794 225.200,227.600 225.380,227.600 225.600 C 227.600 225.820,227.240 226.000,226.800 226.000 C 226.360 226.000,226.000 226.138,226.000 226.306 C 226.000 226.474,225.280 227.056,224.400 227.600 C 223.520 228.144,222.800 228.726,222.800 228.894 C 222.800 229.062,222.601 229.200,222.357 229.200 C 221.762 229.200,212.800 238.139,212.800 238.732 C 212.800 238.989,212.662 239.200,212.494 239.200 C 212.326 239.200,211.744 239.920,211.200 240.800 C 210.656 241.680,210.074 242.400,209.906 242.400 C 209.738 242.400,209.600 242.745,209.600 243.167 C 209.600 243.588,209.465 243.993,209.300 244.067 C 209.135 244.140,208.668 244.854,208.263 245.652 C 207.857 246.451,207.092 247.337,206.563 247.620 C 206.033 247.903,205.600 248.285,205.600 248.468 C 205.600 248.650,205.150 248.800,204.600 248.800 C 204.050 248.800,203.600 248.980,203.600 249.200 C 203.600 249.433,202.275 249.600,200.424 249.600 C 198.677 249.600,197.136 249.420,197.000 249.200 C 196.864 248.980,196.403 248.800,195.976 248.800 C 195.549 248.800,195.200 248.620,195.200 248.400 C 195.200 248.180,194.930 248.000,194.600 248.000 C 194.270 248.000,194.000 247.828,194.000 247.618 C 194.000 247.408,193.550 246.786,193.000 246.236 C 192.450 245.686,192.000 244.998,192.000 244.706 C 192.000 244.415,191.640 243.917,191.200 243.600 C 190.760 243.283,190.400 242.810,190.400 242.550 C 190.400 241.804,180.943 232.400,180.193 232.400 C 180.084 232.400,179.998 257.340,180.003 287.823 C 180.010 336.860,180.079 343.178,180.605 342.652 C 180.932 342.325,181.200 341.778,181.200 341.438 C 181.200 341.097,181.637 340.532,182.172 340.182 C 182.784 339.780,183.088 339.259,182.994 338.771 C 182.869 338.122,182.968 338.062,183.600 338.400 C 184.242 338.744,184.331 338.679,184.193 337.965 C 184.074 337.347,184.191 337.188,184.637 337.359 C 184.980 337.491,185.136 337.420,184.997 337.195 C 184.863 336.978,184.954 336.800,185.200 336.800 C 185.446 336.800,185.547 336.638,185.425 336.441 C 185.303 336.243,185.742 335.504,186.402 334.798 C 187.061 334.093,187.600 333.344,187.600 333.134 C 187.600 332.924,187.761 332.852,187.958 332.974 C 188.155 333.096,188.423 332.917,188.554 332.577 C 188.709 332.170,188.621 332.044,188.295 332.209 C 188.023 332.347,188.115 332.201,188.500 331.886 C 188.885 331.570,189.200 331.107,189.200 330.856 C 189.200 330.605,189.425 330.397,189.700 330.394 C 190.074 330.389,190.066 330.303,189.666 330.049 C 189.260 329.792,189.332 329.659,189.966 329.493 C 190.425 329.373,190.800 329.067,190.800 328.814 C 190.800 328.560,190.592 328.481,190.338 328.638 C 190.043 328.821,189.985 328.747,190.178 328.435 C 190.344 328.167,190.576 328.042,190.693 328.159 C 190.810 328.276,191.287 328.160,191.753 327.901 C 192.219 327.642,192.708 327.459,192.841 327.495 C 192.973 327.531,193.004 327.157,192.910 326.664 C 192.785 326.011,193.018 325.619,193.769 325.216 C 194.336 324.913,194.800 324.417,194.800 324.114 C 194.800 323.811,195.250 323.114,195.800 322.564 C 196.350 322.014,196.800 321.384,196.800 321.165 C 196.800 320.154,198.360 319.103,199.476 319.363 C 200.305 319.556,200.443 319.518,200.000 319.218 C 199.485 318.870,199.499 318.811,200.100 318.806 C 200.485 318.803,200.803 319.025,200.806 319.300 C 200.810 319.633,200.942 319.600,201.200 319.200 C 201.581 318.611,201.809 319.337,201.642 320.600 C 201.612 320.820,201.861 320.651,202.194 320.224 C 202.724 319.545,202.800 319.532,202.800 320.124 C 202.800 320.496,202.986 320.800,203.214 320.800 C 203.485 320.800,203.468 321.111,203.165 321.700 C 202.797 322.416,202.804 322.504,203.200 322.131 C 203.828 321.540,204.818 321.887,204.544 322.602 C 204.431 322.897,204.717 323.341,205.180 323.589 C 205.643 323.837,205.929 324.191,205.816 324.375 C 205.702 324.559,205.971 324.804,206.413 324.919 C 206.855 325.035,207.411 325.685,207.648 326.365 C 207.884 327.044,208.260 327.600,208.482 327.600 C 208.704 327.600,208.780 327.876,208.650 328.213 C 208.495 328.617,208.742 328.950,209.373 329.190 C 209.900 329.390,210.442 329.902,210.577 330.328 C 210.712 330.754,211.267 331.619,211.811 332.251 C 212.354 332.883,212.799 333.600,212.800 333.844 C 212.800 334.088,213.250 334.626,213.800 335.039 C 214.350 335.452,214.801 335.972,214.801 336.195 C 214.802 336.418,215.328 336.953,215.972 337.383 C 216.867 337.984,217.109 338.417,217.005 339.237 C 216.890 340.153,216.995 340.280,217.735 340.119 C 218.436 339.966,218.486 340.012,218.000 340.359 C 217.519 340.703,217.510 340.789,217.954 340.794 C 218.586 340.801,220.151 342.375,220.544 343.398 C 220.688 343.775,221.057 343.987,221.364 343.869 C 221.724 343.731,221.882 343.894,221.810 344.328 C 221.750 344.697,221.965 345.304,222.289 345.675 C 222.613 346.046,222.766 346.532,222.628 346.755 C 222.490 346.978,222.764 347.367,223.237 347.620 C 223.934 347.993,224.039 347.978,223.792 347.540 C 223.612 347.220,223.767 347.263,224.173 347.643 C 224.550 347.997,224.910 348.763,224.974 349.345 C 225.046 349.996,225.853 351.133,227.074 352.302 C 229.080 354.222,230.677 356.387,230.109 356.416 C 229.939 356.425,230.271 356.688,230.847 357.001 C 231.423 357.314,232.188 358.188,232.546 358.942 C 232.903 359.696,233.464 360.416,233.791 360.541 C 234.160 360.683,234.287 361.028,234.126 361.449 C 233.915 361.998,234.038 362.083,234.764 361.893 C 235.438 361.717,235.608 361.802,235.442 362.234 C 235.116 363.085,235.980 364.702,236.889 364.939 C 237.324 365.053,237.567 365.330,237.428 365.556 C 237.288 365.781,237.639 366.269,238.207 366.642 C 238.775 367.014,239.150 367.553,239.040 367.839 C 238.907 368.186,239.057 368.276,239.490 368.110 C 239.997 367.915,240.076 368.026,239.848 368.618 C 239.688 369.035,239.679 369.255,239.826 369.107 C 240.257 368.676,241.281 369.942,241.343 370.981 C 241.374 371.504,241.473 371.859,241.563 371.770 C 241.653 371.680,242.003 371.830,242.340 372.103 C 242.843 372.510,242.892 372.499,242.615 372.038 C 242.385 371.657,242.425 371.568,242.738 371.762 C 242.992 371.919,243.200 372.285,243.200 372.575 C 243.200 372.865,243.457 373.316,243.772 373.577 C 244.087 373.838,244.276 374.405,244.193 374.836 C 244.110 375.268,244.205 375.520,244.405 375.397 C 244.966 375.050,246.345 376.077,246.117 376.671 C 245.988 377.009,246.227 377.200,246.781 377.200 C 247.363 377.200,247.551 377.036,247.355 376.700 C 247.194 376.425,247.423 376.515,247.863 376.900 C 248.703 377.635,249.600 377.828,249.600 377.274 C 249.600 377.095,250.226 376.650,250.991 376.285 C 251.949 375.828,252.310 375.431,252.149 375.011 C 252.020 374.675,252.084 374.400,252.291 374.400 C 252.497 374.400,252.667 374.130,252.667 373.800 C 252.667 373.470,252.517 373.200,252.333 373.200 C 252.150 373.200,252.000 338.730,252.000 296.600 L 252.000 220.000 247.700 220.006 C 245.335 220.009,243.130 220.187,242.800 220.400 M202.800 250.800 C 202.800 251.020,203.300 251.200,203.912 251.200 C 204.565 251.200,205.261 251.530,205.600 252.000 C 205.917 252.440,206.420 252.800,206.717 252.800 C 207.442 252.800,208.400 253.798,208.400 254.553 C 208.400 254.889,208.850 255.614,209.400 256.164 C 209.950 256.714,210.400 257.622,210.400 258.182 C 210.400 258.742,210.580 259.200,210.800 259.200 C 211.041 259.200,211.200 260.867,211.200 263.400 C 211.200 265.933,211.041 267.600,210.800 267.600 C 210.580 267.600,210.400 267.960,210.400 268.400 C 210.400 268.840,210.220 269.200,210.000 269.200 C 209.780 269.200,209.600 269.483,209.600 269.829 C 209.600 270.174,209.330 270.727,209.000 271.057 C 208.670 271.387,208.400 272.004,208.400 272.429 C 208.400 272.901,208.125 273.200,207.688 273.200 C 207.297 273.200,206.725 273.550,206.417 273.977 C 206.109 274.404,205.169 274.870,204.328 275.012 C 203.488 275.154,202.800 275.434,202.800 275.635 C 202.800 275.836,200.820 276.000,198.400 276.000 C 195.980 276.000,194.000 275.834,194.000 275.632 C 194.000 275.429,193.437 275.140,192.748 274.989 C 191.360 274.684,187.200 270.800,187.200 269.809 C 187.200 269.474,187.020 269.200,186.800 269.200 C 186.580 269.200,186.400 268.840,186.400 268.400 C 186.400 267.960,186.220 267.600,186.000 267.600 C 185.759 267.600,185.600 265.933,185.600 263.400 C 185.600 260.867,185.759 259.200,186.000 259.200 C 186.220 259.200,186.400 258.840,186.400 258.400 C 186.400 257.960,186.580 257.600,186.800 257.600 C 187.020 257.600,187.200 257.280,187.200 256.888 C 187.200 256.497,187.560 255.917,188.000 255.600 C 188.440 255.283,188.800 254.703,188.800 254.312 C 188.800 253.920,189.094 253.600,189.453 253.600 C 189.812 253.600,190.397 253.271,190.753 252.870 C 191.109 252.468,191.985 251.884,192.700 251.572 C 193.415 251.260,194.000 250.869,194.000 250.702 C 194.000 250.536,195.980 250.400,198.400 250.400 C 201.067 250.400,202.800 250.558,202.800 250.800 " stroke="none" fill="#fcc34c" fill-rule="evenodd"></path><path id="path3" d="M140.400 188.125 C 140.400 188.194,140.985 188.779,141.700 189.425 L 143.000 190.600 141.825 189.300 C 140.730 188.088,140.400 187.816,140.400 188.125 M244.200 219.397 C 228.615 221.792,216.459 230.099,208.609 243.717 C 205.832 248.534,201.954 250.127,197.194 248.407 C 194.794 247.539,193.992 246.757,191.000 242.359 C 185.023 233.573,175.065 226.667,164.268 223.819 C 160.201 222.746,150.533 221.979,148.264 222.548 L 147.200 222.815 147.200 299.408 C 147.200 346.513,147.344 376.000,147.573 376.000 C 147.778 376.000,148.048 376.315,148.172 376.700 C 148.581 377.963,152.800 379.148,152.800 378.000 C 152.800 377.780,153.083 377.600,153.429 377.600 C 154.207 377.600,154.545 377.250,156.896 374.000 C 157.931 372.570,159.323 370.820,159.989 370.111 C 160.655 369.403,161.200 368.620,161.200 368.372 C 161.200 368.124,161.740 367.417,162.400 366.800 C 163.060 366.183,163.600 365.481,163.600 365.240 C 163.600 364.998,164.320 364.059,165.200 363.152 C 166.080 362.245,166.800 361.327,166.800 361.112 C 166.800 360.897,167.340 360.217,168.000 359.600 C 168.660 358.983,169.200 358.373,169.200 358.244 C 169.200 358.011,170.135 356.800,171.100 355.784 C 171.375 355.494,171.600 355.146,171.600 355.011 C 171.600 354.876,172.058 354.278,172.618 353.683 C 173.178 353.087,174.024 351.970,174.498 351.200 C 174.971 350.430,175.683 349.509,176.079 349.153 C 176.476 348.797,176.800 348.302,176.800 348.054 C 176.800 347.805,177.520 346.859,178.400 345.952 C 179.435 344.886,180.002 343.932,180.006 343.252 C 180.011 342.426,180.095 342.329,180.400 342.800 C 180.633 343.161,180.790 343.210,180.794 342.924 C 180.797 342.662,180.620 342.336,180.400 342.200 C 179.995 341.950,179.791 232.400,180.195 232.400 C 180.943 232.400,190.400 241.806,190.400 242.550 C 190.400 242.810,190.760 243.283,191.200 243.600 C 191.640 243.917,192.000 244.415,192.000 244.706 C 192.000 244.998,192.450 245.686,193.000 246.236 C 193.550 246.786,194.000 247.408,194.000 247.618 C 194.000 247.828,194.270 248.000,194.600 248.000 C 194.930 248.000,195.200 248.180,195.200 248.400 C 195.200 248.620,195.549 248.800,195.976 248.800 C 196.403 248.800,196.864 248.980,197.000 249.200 C 197.136 249.420,198.677 249.600,200.424 249.600 C 202.275 249.600,203.600 249.433,203.600 249.200 C 203.600 248.980,204.050 248.800,204.600 248.800 C 205.150 248.800,205.600 248.650,205.600 248.468 C 205.600 248.285,206.033 247.903,206.563 247.620 C 207.092 247.337,207.857 246.451,208.263 245.652 C 208.668 244.854,209.135 244.140,209.300 244.067 C 209.465 243.993,209.600 243.588,209.600 243.167 C 209.600 242.745,209.738 242.400,209.906 242.400 C 210.074 242.400,210.656 241.680,211.200 240.800 C 211.744 239.920,212.326 239.200,212.494 239.200 C 212.662 239.200,212.800 238.989,212.800 238.732 C 212.800 238.139,221.762 229.200,222.357 229.200 C 222.601 229.200,222.800 229.062,222.800 228.894 C 222.800 228.726,223.520 228.144,224.400 227.600 C 225.280 227.056,226.000 226.474,226.000 226.306 C 226.000 226.138,226.360 226.000,226.800 226.000 C 227.240 226.000,227.600 225.820,227.600 225.600 C 227.600 225.380,227.794 225.200,228.031 225.200 C 228.268 225.200,229.772 224.570,231.373 223.800 C 232.974 223.030,234.659 222.400,235.118 222.400 C 235.577 222.400,236.051 222.241,236.171 222.046 C 236.292 221.851,236.977 221.575,237.695 221.431 C 238.413 221.287,239.900 220.976,241.000 220.739 C 242.100 220.503,245.025 220.229,247.500 220.130 L 252.000 219.952 252.000 296.576 C 252.000 347.392,252.135 373.200,252.400 373.200 C 253.026 373.200,252.947 219.907,252.320 219.280 C 251.730 218.690,248.493 218.737,244.200 219.397 M194.000 250.702 C 194.000 250.869,193.415 251.260,192.700 251.572 C 191.985 251.884,191.109 252.468,190.753 252.870 C 190.397 253.271,189.812 253.600,189.453 253.600 C 189.094 253.600,188.800 253.920,188.800 254.312 C 188.800 254.703,188.440 255.283,188.000 255.600 C 187.560 255.917,187.200 256.497,187.200 256.888 C 187.200 257.280,187.020 257.600,186.800 257.600 C 186.580 257.600,186.400 257.960,186.400 258.400 C 186.400 258.840,186.220 259.200,186.000 259.200 C 185.759 259.200,185.600 260.867,185.600 263.400 C 185.600 265.933,185.759 267.600,186.000 267.600 C 186.220 267.600,186.400 267.960,186.400 268.400 C 186.400 268.840,186.580 269.200,186.800 269.200 C 187.020 269.200,187.200 269.474,187.200 269.809 C 187.200 270.800,191.360 274.684,192.748 274.989 C 193.437 275.140,194.000 275.429,194.000 275.632 C 194.000 275.834,195.980 276.000,198.400 276.000 C 200.820 276.000,202.800 275.836,202.800 275.635 C 202.800 275.434,203.488 275.154,204.328 275.012 C 205.169 274.870,206.109 274.404,206.417 273.977 C 206.725 273.550,207.297 273.200,207.688 273.200 C 208.125 273.200,208.400 272.901,208.400 272.429 C 208.400 272.004,208.670 271.387,209.000 271.057 C 209.330 270.727,209.600 270.174,209.600 269.829 C 209.600 269.483,209.780 269.200,210.000 269.200 C 210.220 269.200,210.400 268.840,210.400 268.400 C 210.400 267.960,210.580 267.600,210.800 267.600 C 211.041 267.600,211.200 265.933,211.200 263.400 C 211.200 260.867,211.041 259.200,210.800 259.200 C 210.580 259.200,210.400 258.742,210.400 258.182 C 210.400 257.622,209.950 256.714,209.400 256.164 C 208.850 255.614,208.400 254.889,208.400 254.553 C 208.400 253.798,207.442 252.800,206.717 252.800 C 206.420 252.800,205.917 252.440,205.600 252.000 C 205.261 251.530,204.565 251.200,203.912 251.200 C 203.300 251.200,202.800 251.020,202.800 250.800 C 202.800 250.558,201.067 250.400,198.400 250.400 C 195.980 250.400,194.000 250.536,194.000 250.702 M199.000 319.090 C 198.112 319.308,196.800 320.546,196.800 321.165 C 196.800 321.384,196.350 322.014,195.800 322.564 C 195.250 323.114,194.800 323.771,194.800 324.024 C 194.800 324.277,195.340 323.907,196.000 323.200 C 196.660 322.493,197.200 321.846,197.200 321.762 C 197.200 321.361,198.633 320.000,199.056 320.000 C 199.318 320.000,199.638 319.775,199.767 319.500 C 199.953 319.100,200.047 319.100,200.233 319.500 C 200.362 319.775,200.713 320.000,201.013 320.000 C 201.313 320.000,202.063 320.675,202.680 321.500 C 203.296 322.325,203.935 323.060,204.100 323.133 C 204.265 323.207,204.400 323.446,204.400 323.665 C 204.400 323.884,205.120 324.754,206.000 325.600 C 206.880 326.446,207.600 327.421,207.600 327.769 C 207.600 328.116,207.881 328.400,208.224 328.400 C 208.567 328.400,208.740 328.574,208.608 328.787 C 208.477 329.000,208.736 329.403,209.184 329.683 C 209.633 329.963,210.003 330.464,210.006 330.796 C 210.013 331.397,212.081 334.000,212.553 334.000 C 213.024 334.000,212.796 333.347,212.043 332.538 C 211.626 332.091,210.991 331.157,210.632 330.462 C 210.273 329.768,209.703 329.200,209.366 329.200 C 209.029 329.200,208.855 329.035,208.980 328.832 C 209.105 328.630,208.936 328.194,208.605 327.862 C 208.274 327.531,207.820 326.779,207.597 326.191 C 207.373 325.604,206.835 325.030,206.400 324.916 C 205.965 324.802,205.702 324.559,205.816 324.375 C 205.929 324.191,205.643 323.837,205.180 323.589 C 204.696 323.330,204.431 322.897,204.556 322.569 C 204.757 322.046,204.322 321.810,203.451 321.969 C 203.259 322.004,203.208 321.755,203.338 321.416 C 203.468 321.077,203.401 320.800,203.187 320.800 C 202.974 320.800,202.797 320.485,202.794 320.100 C 202.789 319.501,202.731 319.486,202.394 320.000 C 202.067 320.498,201.957 320.441,201.744 319.666 C 201.554 318.968,201.404 318.867,201.151 319.266 C 200.897 319.666,200.811 319.674,200.806 319.300 C 200.800 318.789,200.409 318.743,199.000 319.090 M193.458 325.387 C 193.050 325.696,192.780 326.113,192.858 326.313 C 192.936 326.513,193.411 326.255,193.914 325.738 C 194.915 324.711,194.636 324.495,193.458 325.387 M191.841 327.800 C 191.424 328.116,190.941 328.287,190.769 328.181 C 190.596 328.074,190.325 328.198,190.166 328.455 C 189.985 328.748,190.050 328.816,190.338 328.638 C 190.592 328.481,190.800 328.560,190.800 328.814 C 190.800 329.067,190.425 329.373,189.966 329.493 C 189.332 329.659,189.260 329.792,189.666 330.049 C 190.066 330.303,190.074 330.389,189.700 330.394 C 189.425 330.397,189.200 330.651,189.200 330.957 C 189.200 331.264,188.933 331.617,188.607 331.742 C 188.249 331.880,188.114 332.231,188.266 332.629 C 188.494 333.221,188.561 333.212,188.934 332.544 C 189.162 332.135,189.540 331.597,189.774 331.349 C 190.008 331.101,190.470 330.499,190.800 330.012 C 191.130 329.524,191.715 328.755,192.100 328.301 C 193.154 327.061,193.059 326.878,191.841 327.800 M187.632 333.300 C 187.614 333.685,187.432 334.000,187.227 334.000 C 187.022 334.000,186.470 334.540,186.000 335.200 C 185.530 335.860,185.329 336.400,185.552 336.400 C 186.187 336.400,188.100 333.686,187.869 333.113 C 187.740 332.791,187.651 332.861,187.632 333.300 M212.800 334.741 C 212.800 334.928,213.340 335.646,214.000 336.337 C 214.660 337.028,215.200 337.686,215.200 337.800 C 215.200 338.343,217.407 340.397,217.966 340.375 C 218.361 340.359,218.250 340.209,217.672 339.977 C 217.034 339.721,216.814 339.386,216.967 338.903 C 217.120 338.421,216.814 337.948,215.996 337.400 C 215.340 336.960,214.802 336.441,214.801 336.247 C 214.800 335.924,213.263 334.400,212.939 334.400 C 212.862 334.400,212.800 334.553,212.800 334.741 M184.466 337.151 C 184.172 337.337,183.902 337.649,183.866 337.845 C 183.830 338.040,183.590 338.177,183.333 338.150 C 183.075 338.122,182.928 338.425,183.004 338.822 C 183.087 339.252,182.749 339.803,182.172 340.182 C 181.637 340.532,181.200 341.187,181.200 341.638 C 181.200 342.366,181.267 342.390,181.800 341.857 C 182.130 341.527,182.400 341.141,182.400 341.000 C 182.400 340.859,182.625 340.506,182.900 340.216 C 184.011 339.046,184.800 337.971,184.800 337.629 C 184.800 337.430,185.025 337.176,185.300 337.065 C 185.575 336.954,185.620 336.852,185.400 336.838 C 185.180 336.824,184.760 336.965,184.466 337.151 M217.804 341.207 C 217.942 341.430,218.251 341.492,218.489 341.345 C 218.750 341.184,218.808 341.263,218.636 341.541 C 218.322 342.050,219.351 343.316,219.752 342.914 C 219.889 342.778,220.000 342.972,220.000 343.346 C 220.000 343.719,220.269 344.128,220.598 344.254 C 220.926 344.381,221.095 344.646,220.972 344.845 C 220.749 345.206,221.127 345.669,222.567 346.800 C 223.286 347.364,223.303 347.348,222.863 346.522 C 222.606 346.040,222.228 345.541,222.022 345.414 C 221.817 345.287,221.716 344.837,221.797 344.415 C 221.900 343.881,221.771 343.713,221.376 343.865 C 221.058 343.987,220.691 343.781,220.544 343.398 C 220.171 342.426,218.598 340.800,218.031 340.800 C 217.768 340.800,217.666 340.983,217.804 341.207 M223.391 347.690 C 223.058 348.545,224.263 349.897,224.842 349.318 C 225.095 349.065,224.957 348.591,224.446 347.964 C 223.745 347.105,223.630 347.075,223.391 347.690 M226.051 351.895 C 226.353 352.277,226.929 352.952,227.331 353.395 C 227.733 353.838,228.357 354.695,228.717 355.300 C 229.078 355.905,229.608 356.400,229.895 356.400 C 230.603 356.400,229.511 354.678,227.550 352.700 C 226.027 351.164,225.066 350.648,226.051 351.895 M230.400 356.800 C 230.000 357.058,229.967 357.190,230.300 357.194 C 230.575 357.197,230.800 357.432,230.800 357.716 C 230.800 358.503,233.872 361.732,234.166 361.254 C 234.307 361.027,234.057 360.645,233.611 360.406 C 233.165 360.167,232.800 359.734,232.800 359.444 C 232.800 359.154,232.369 358.452,231.842 357.883 C 231.315 357.315,230.985 356.748,231.109 356.625 C 231.460 356.274,231.062 356.372,230.400 356.800 M234.700 361.876 C 233.851 362.098,233.830 362.287,234.571 363.029 C 235.334 363.791,235.391 363.763,235.458 362.600 C 235.489 362.050,235.489 361.621,235.458 361.646 C 235.426 361.672,235.085 361.775,234.700 361.876 M236.400 365.194 C 236.400 365.447,237.206 366.427,238.190 367.370 C 239.175 368.314,239.876 369.191,239.748 369.319 C 239.620 369.447,239.939 369.990,240.458 370.525 C 241.765 371.877,242.376 372.654,244.208 375.295 C 245.112 376.598,246.103 377.593,246.500 377.595 C 246.885 377.598,247.200 377.780,247.200 378.000 C 247.200 378.630,249.598 378.471,249.846 377.825 C 249.967 377.509,250.284 377.334,250.551 377.437 C 251.130 377.659,252.800 375.846,252.800 374.997 C 252.800 374.669,252.601 374.400,252.357 374.400 C 252.114 374.400,252.020 374.675,252.149 375.011 C 252.310 375.431,251.949 375.828,250.991 376.285 C 250.226 376.650,249.600 377.095,249.600 377.274 C 249.600 377.828,248.703 377.635,247.863 376.900 C 247.423 376.515,247.194 376.425,247.355 376.700 C 247.551 377.036,247.363 377.200,246.781 377.200 C 246.221 377.200,245.987 377.010,246.120 376.664 C 246.238 376.357,245.826 375.834,245.156 375.437 C 244.512 375.057,244.082 374.591,244.199 374.401 C 244.317 374.211,244.219 373.935,243.982 373.789 C 243.745 373.642,243.382 373.079,243.176 372.537 C 242.970 371.995,242.622 371.663,242.402 371.798 C 242.183 371.934,241.779 371.540,241.505 370.923 C 240.892 369.544,240.574 369.119,238.800 367.304 C 238.030 366.517,237.400 365.691,237.400 365.470 C 237.400 365.248,237.175 364.992,236.900 364.900 C 236.625 364.808,236.400 364.941,236.400 365.194 " stroke="none" fill="#e48b24" fill-rule="evenodd"></path><path id="path4" d="M201.200 14.000 C 201.200 14.220,200.924 14.400,200.587 14.400 C 199.925 14.400,197.200 16.932,197.200 17.546 C 197.200 17.751,196.315 18.822,195.234 19.927 C 194.153 21.031,193.373 22.039,193.501 22.167 C 193.629 22.295,193.433 22.400,193.067 22.400 C 192.700 22.400,192.400 22.561,192.400 22.758 C 192.400 23.224,190.004 25.791,189.988 25.342 C 189.981 25.154,189.792 25.315,189.568 25.700 C 189.344 26.085,188.942 26.400,188.676 26.400 C 188.410 26.400,187.744 26.805,187.196 27.301 C 186.648 27.797,185.345 28.635,184.300 29.164 C 183.255 29.693,182.400 30.277,182.400 30.463 C 182.400 30.648,182.040 30.800,181.600 30.800 C 181.160 30.800,180.800 30.980,180.800 31.200 C 180.800 31.420,180.440 31.600,180.000 31.600 C 179.560 31.600,179.200 31.780,179.200 32.000 C 179.200 32.220,178.845 32.400,178.412 32.400 C 177.979 32.400,176.983 32.760,176.200 33.200 C 175.417 33.640,174.421 34.000,173.988 34.000 C 173.555 34.000,173.200 34.180,173.200 34.400 C 173.200 34.620,172.480 34.800,171.600 34.800 C 170.720 34.800,170.000 34.980,170.000 35.200 C 170.000 35.422,168.933 35.600,167.600 35.600 C 166.267 35.600,165.200 35.778,165.200 36.000 C 165.200 36.536,155.331 36.536,155.000 36.000 C 154.864 35.780,153.773 35.600,152.576 35.600 C 151.379 35.600,150.400 35.420,150.400 35.200 C 150.400 34.980,149.680 34.800,148.800 34.800 C 147.920 34.800,147.200 34.620,147.200 34.400 C 147.200 34.180,146.660 34.000,146.000 34.000 C 145.340 34.000,144.800 33.820,144.800 33.600 C 144.800 33.380,144.260 33.200,143.600 33.200 C 142.940 33.200,142.400 33.020,142.400 32.800 C 142.400 32.561,140.867 32.400,138.600 32.400 C 136.333 32.400,134.800 32.561,134.800 32.800 C 134.800 33.020,134.524 33.200,134.187 33.200 C 132.850 33.200,130.000 36.872,130.000 38.595 C 130.000 39.148,129.820 39.600,129.600 39.600 C 129.353 39.600,129.200 41.659,129.200 44.976 C 129.200 48.129,129.035 50.455,128.800 50.600 C 128.580 50.736,128.400 51.456,128.400 52.200 C 128.400 52.944,128.220 53.664,128.000 53.800 C 127.780 53.936,127.600 54.579,127.600 55.229 C 127.600 55.879,127.444 56.723,127.254 57.105 C 125.994 59.634,124.800 62.507,124.800 63.009 C 124.800 63.334,124.620 63.600,124.400 63.600 C 124.180 63.600,124.000 63.960,124.000 64.400 C 124.000 64.840,123.820 65.200,123.600 65.200 C 123.380 65.200,123.200 65.520,123.200 65.912 C 123.200 66.303,122.840 66.883,122.400 67.200 C 121.960 67.517,121.600 68.057,121.600 68.400 C 121.600 68.743,121.240 69.283,120.800 69.600 C 120.360 69.917,120.000 70.415,120.000 70.706 C 120.000 70.997,118.650 72.564,117.000 74.187 C 115.350 75.811,114.000 77.059,114.000 76.962 C 114.000 76.865,113.396 77.374,112.657 78.093 C 110.166 80.518,108.789 81.600,108.193 81.600 C 107.867 81.600,107.600 81.780,107.600 82.000 C 107.600 82.220,107.364 82.400,107.075 82.400 C 106.787 82.400,106.164 82.760,105.692 83.200 C 105.220 83.640,104.556 84.000,104.217 84.000 C 103.878 84.000,103.600 84.180,103.600 84.400 C 103.600 84.620,103.240 84.800,102.800 84.800 C 102.360 84.800,102.000 84.980,102.000 85.200 C 102.000 85.420,101.460 85.600,100.800 85.600 C 100.140 85.600,99.600 85.780,99.600 86.000 C 99.600 86.220,99.240 86.400,98.800 86.400 C 98.360 86.400,98.000 86.580,98.000 86.800 C 98.000 87.020,97.460 87.200,96.800 87.200 C 96.140 87.200,95.600 87.380,95.600 87.600 C 95.600 87.820,95.058 88.000,94.395 88.000 C 91.895 88.000,88.000 91.651,88.000 93.995 C 88.000 94.438,87.820 94.800,87.600 94.800 C 87.378 94.800,87.200 95.867,87.200 97.200 C 87.200 98.533,87.378 99.600,87.600 99.600 C 87.820 99.600,88.000 99.960,88.000 100.400 C 88.000 100.840,88.180 101.200,88.400 101.200 C 88.620 101.200,88.800 101.560,88.800 102.000 C 88.800 102.440,88.980 102.800,89.200 102.800 C 89.420 102.800,89.600 103.070,89.600 103.400 C 89.600 103.730,89.780 104.000,90.000 104.000 C 90.220 104.000,90.400 104.270,90.400 104.600 C 90.400 104.930,90.580 105.200,90.800 105.200 C 91.020 105.200,91.200 105.560,91.200 106.000 C 91.200 106.440,91.359 106.800,91.553 106.800 C 91.748 106.800,92.038 107.205,92.200 107.700 C 92.361 108.195,92.523 108.690,92.560 108.800 C 92.598 108.910,92.841 109.381,93.100 109.847 C 93.360 110.313,93.458 110.808,93.319 110.947 C 93.180 111.086,93.244 111.200,93.461 111.200 C 93.678 111.200,94.100 112.100,94.400 113.200 C 94.700 114.300,95.092 115.200,95.272 115.200 C 95.453 115.200,95.600 115.920,95.600 116.800 C 95.600 117.680,95.780 118.400,96.000 118.400 C 96.220 118.400,96.400 119.210,96.400 120.200 C 96.400 121.190,96.580 122.000,96.800 122.000 C 97.053 122.000,97.200 124.800,97.200 129.600 C 97.200 134.400,97.053 137.200,96.800 137.200 C 96.580 137.200,96.400 137.920,96.400 138.800 C 96.400 139.680,96.220 140.400,96.000 140.400 C 95.780 140.400,95.600 141.120,95.600 142.000 C 95.600 142.880,95.420 143.600,95.200 143.600 C 94.980 143.600,94.800 144.050,94.800 144.600 C 94.800 145.150,94.620 145.600,94.400 145.600 C 94.180 145.600,94.000 145.924,94.000 146.320 C 94.000 146.716,93.784 147.256,93.520 147.520 C 93.256 147.784,93.156 148.000,93.299 148.000 C 93.441 148.000,93.027 149.008,92.379 150.241 C 91.730 151.473,91.200 152.693,91.200 152.952 C 91.200 153.211,90.840 153.683,90.400 154.000 C 89.960 154.317,89.600 154.857,89.600 155.200 C 89.600 155.543,89.240 156.083,88.800 156.400 C 88.360 156.717,88.000 157.297,88.000 157.688 C 88.000 158.080,87.820 158.400,87.600 158.400 C 87.380 158.400,87.200 158.760,87.200 159.200 C 87.200 159.640,87.020 160.000,86.800 160.000 C 86.574 160.000,86.400 161.133,86.400 162.600 C 86.400 164.067,86.574 165.200,86.800 165.200 C 87.020 165.200,87.200 165.655,87.200 166.211 C 87.200 167.343,90.359 170.800,91.395 170.800 C 91.734 170.800,92.323 170.959,92.705 171.153 C 93.087 171.348,93.850 171.687,94.400 171.908 C 94.950 172.129,96.805 172.960,98.521 173.755 C 100.238 174.550,101.903 175.200,102.221 175.200 C 102.540 175.200,102.800 175.380,102.800 175.600 C 102.800 175.820,103.120 176.000,103.512 176.000 C 103.903 176.000,104.483 176.360,104.800 176.800 C 105.117 177.240,105.619 177.600,105.914 177.600 C 106.210 177.600,107.329 178.500,108.400 179.600 C 109.471 180.700,110.458 181.600,110.592 181.600 C 110.967 181.600,112.508 183.243,113.593 184.800 C 114.130 185.570,115.026 186.650,115.585 187.200 C 116.143 187.750,116.855 188.695,117.168 189.300 C 117.480 189.905,117.885 190.400,118.068 190.400 C 118.250 190.400,118.400 190.670,118.400 191.000 C 118.400 191.330,118.580 191.600,118.800 191.600 C 119.020 191.600,119.200 191.920,119.200 192.312 C 119.200 192.703,119.560 193.283,120.000 193.600 C 120.440 193.917,120.800 194.497,120.800 194.888 C 120.800 195.280,120.980 195.600,121.200 195.600 C 121.420 195.600,121.600 196.039,121.600 196.576 C 121.600 197.113,121.780 197.664,122.000 197.800 C 122.220 197.936,122.400 198.397,122.400 198.824 C 122.400 199.251,122.580 199.600,122.800 199.600 C 123.020 199.600,123.200 200.140,123.200 200.800 C 123.200 201.460,123.380 202.000,123.600 202.000 C 123.820 202.000,124.000 202.540,124.000 203.200 C 124.000 203.860,124.180 204.400,124.400 204.400 C 124.620 204.400,124.800 205.199,124.800 206.176 C 124.800 207.153,124.995 208.073,125.232 208.220 C 125.524 208.400,125.572 209.595,125.380 211.899 C 125.218 213.842,125.248 215.219,125.448 215.097 C 125.642 214.979,125.824 215.899,125.854 217.141 C 125.973 222.131,128.179 225.200,131.645 225.200 C 132.412 225.200,133.248 225.408,133.503 225.663 C 133.822 225.982,134.127 225.999,134.483 225.718 C 134.767 225.493,136.214 225.202,137.698 225.070 C 139.182 224.938,140.745 224.644,141.171 224.415 C 141.598 224.187,142.589 224.000,143.374 224.000 C 144.158 224.000,144.800 223.820,144.800 223.600 C 144.800 223.380,145.304 223.200,145.920 223.200 C 146.536 223.200,147.239 223.001,147.483 222.757 C 150.294 219.946,167.978 223.648,176.741 228.882 C 178.138 229.717,179.378 230.400,179.496 230.400 C 180.449 230.400,186.965 236.574,189.614 239.986 C 190.376 240.968,191.315 242.127,191.700 242.562 C 192.085 242.996,192.400 243.587,192.400 243.875 C 192.400 244.164,192.550 244.400,192.732 244.400 C 192.915 244.400,193.314 244.865,193.618 245.433 C 195.022 248.057,201.245 249.432,204.380 247.810 C 205.533 247.214,208.400 244.147,208.400 243.510 C 208.400 241.954,217.174 231.710,221.038 228.755 C 222.496 227.640,226.556 225.001,227.726 224.408 C 229.206 223.658,228.574 223.407,223.146 222.592 C 216.356 221.572,210.207 221.997,202.951 223.988 C 195.187 226.118,190.800 223.408,190.800 216.480 L 190.800 213.728 187.900 213.242 C 186.305 212.974,184.447 212.586,183.772 212.378 C 183.096 212.170,182.159 212.000,181.690 212.000 C 181.221 212.000,180.424 211.839,179.919 211.642 C 179.413 211.445,178.190 211.067,177.200 210.803 C 176.210 210.538,175.087 210.160,174.705 209.961 C 174.323 209.762,173.659 209.600,173.229 209.600 C 172.799 209.600,172.336 209.420,172.200 209.200 C 172.064 208.980,171.691 208.800,171.372 208.800 C 168.269 208.800,153.828 200.425,146.600 194.433 C 141.510 190.213,130.405 177.371,130.401 175.700 C 130.401 175.425,130.255 175.200,130.079 175.200 C 129.902 175.200,129.317 174.303,128.779 173.206 C 128.240 172.110,127.665 171.210,127.500 171.206 C 127.335 171.203,127.200 170.855,127.200 170.433 C 127.200 170.012,127.065 169.607,126.900 169.533 C 126.470 169.342,123.733 163.511,122.801 160.800 C 122.536 160.030,122.174 159.040,121.996 158.600 C 121.463 157.280,121.128 156.275,120.731 154.800 C 120.524 154.030,120.182 152.770,119.971 152.000 C 116.679 140.005,116.689 122.888,119.993 110.700 C 120.217 109.875,120.559 108.615,120.753 107.900 C 121.842 103.884,123.080 100.773,126.046 94.600 C 130.764 84.781,141.422 71.801,149.530 66.000 C 150.913 65.010,152.530 63.795,153.123 63.300 C 153.715 62.806,154.348 62.401,154.528 62.400 C 154.708 62.400,155.641 61.860,156.600 61.200 C 157.559 60.540,158.522 60.000,158.739 60.000 C 158.956 60.000,159.193 59.858,159.267 59.684 C 159.391 59.389,167.235 55.456,169.000 54.803 C 169.440 54.640,170.250 54.315,170.800 54.080 C 175.462 52.088,188.081 49.200,192.123 49.200 C 194.046 49.200,194.165 48.910,194.427 43.600 C 194.859 34.824,199.093 31.295,206.236 33.760 C 217.133 37.519,229.598 38.126,236.900 35.253 C 238.181 34.749,238.360 34.000,237.200 34.000 C 236.760 34.000,236.400 33.820,236.400 33.600 C 236.400 33.380,235.860 33.200,235.200 33.200 C 234.540 33.200,234.000 33.020,234.000 32.800 C 234.000 32.580,233.640 32.400,233.200 32.400 C 232.760 32.400,232.400 32.220,232.400 32.000 C 232.400 31.780,231.860 31.600,231.200 31.600 C 230.540 31.600,230.000 31.420,230.000 31.200 C 230.000 30.980,229.640 30.800,229.200 30.800 C 228.760 30.800,228.400 30.620,228.400 30.400 C 228.400 30.180,228.122 30.000,227.783 30.000 C 227.444 30.000,226.811 29.669,226.377 29.264 C 225.942 28.859,225.095 28.274,224.493 27.964 C 223.892 27.654,223.197 27.220,222.949 27.000 C 222.057 26.209,220.881 25.487,220.737 25.642 C 220.510 25.886,212.800 18.066,212.800 17.592 C 212.800 16.943,210.101 14.400,209.413 14.400 C 209.076 14.400,208.800 14.220,208.800 14.000 C 208.800 13.761,207.267 13.600,205.000 13.600 C 202.733 13.600,201.200 13.761,201.200 14.000 M242.800 35.200 C 243.576 35.701,244.000 35.701,244.000 35.200 C 244.000 34.980,243.595 34.803,243.100 34.806 C 242.372 34.811,242.315 34.886,242.800 35.200 M271.200 37.495 C 271.200 38.095,272.373 39.455,272.387 38.871 C 272.394 38.581,272.130 38.073,271.800 37.743 C 271.470 37.413,271.200 37.301,271.200 37.495 M272.713 44.138 C 272.888 49.762,273.074 50.279,273.140 45.324 C 273.173 42.862,273.065 40.764,272.900 40.661 C 272.735 40.559,272.651 42.124,272.713 44.138 M273.458 52.400 C 273.775 54.125,274.002 54.451,273.994 53.167 C 273.991 52.635,273.811 51.930,273.594 51.600 C 273.318 51.178,273.277 51.415,273.458 52.400 M274.396 56.583 C 274.580 57.397,274.838 58.171,274.969 58.303 C 275.326 58.660,274.745 55.857,274.378 55.451 C 274.204 55.259,274.212 55.768,274.396 56.583 M282.893 73.200 C 283.168 73.640,283.531 74.000,283.700 74.000 C 283.869 74.000,283.782 73.640,283.507 73.200 C 283.232 72.760,282.869 72.400,282.700 72.400 C 282.531 72.400,282.618 72.760,282.893 73.200 M287.994 78.594 C 288.737 79.361,289.427 79.906,289.528 79.806 C 289.723 79.610,287.273 77.200,286.879 77.200 C 286.749 77.200,287.251 77.827,287.994 78.594 M290.000 80.300 C 290.000 80.469,290.360 80.832,290.800 81.107 C 291.240 81.382,291.600 81.469,291.600 81.300 C 291.600 81.131,291.240 80.768,290.800 80.493 C 290.360 80.218,290.000 80.131,290.000 80.300 M312.000 97.000 C 312.000 97.863,312.161 98.347,312.400 98.200 C 312.620 98.064,312.800 97.524,312.800 97.000 C 312.800 96.476,312.620 95.936,312.400 95.800 C 312.161 95.653,312.000 96.137,312.000 97.000 M307.446 107.830 C 306.871 108.859,306.400 109.937,306.400 110.227 C 306.400 110.516,306.241 110.851,306.048 110.970 C 305.854 111.090,305.610 111.635,305.506 112.182 C 305.401 112.729,305.470 113.081,305.658 112.964 C 305.846 112.848,306.000 112.403,306.000 111.976 C 306.000 111.549,306.180 111.200,306.400 111.200 C 306.620 111.200,306.800 110.901,306.800 110.535 C 306.800 110.169,307.266 109.075,307.835 108.104 C 308.405 107.132,308.785 106.252,308.681 106.148 C 308.577 106.044,308.021 106.800,307.446 107.830 M303.108 120.783 C 302.831 121.767,302.997 122.337,303.432 121.901 C 303.560 121.773,303.601 121.248,303.524 120.734 L 303.384 119.800 303.108 120.783 M302.806 136.700 C 302.824 137.577,303.588 138.159,303.594 137.300 C 303.597 136.805,303.420 136.400,303.200 136.400 C 302.980 136.400,302.803 136.535,302.806 136.700 M305.228 145.076 C 305.318 146.115,305.944 146.996,305.972 146.124 C 305.987 145.642,305.820 145.136,305.600 145.000 C 305.380 144.864,305.213 144.898,305.228 145.076 M306.800 148.974 C 306.800 149.578,307.645 151.200,307.959 151.200 C 308.168 151.200,308.069 150.660,307.740 150.000 C 307.206 148.929,306.800 148.486,306.800 148.974 M309.400 169.050 C 308.364 169.931,308.336 170.003,309.192 169.572 C 310.296 169.017,311.439 167.992,310.929 168.014 C 310.748 168.022,310.060 168.488,309.400 169.050 M300.700 173.227 C 299.875 173.663,299.203 174.240,299.206 174.510 C 299.210 174.856,299.299 174.869,299.506 174.555 C 299.668 174.310,300.520 173.733,301.400 173.273 C 302.280 172.812,302.820 172.435,302.600 172.435 C 302.380 172.435,301.525 172.792,300.700 173.227 M289.470 182.099 C 288.257 183.473,287.342 184.675,287.437 184.770 C 287.532 184.865,288.102 184.339,288.705 183.601 C 289.307 182.863,290.391 181.661,291.113 180.929 C 291.836 180.198,292.258 179.600,292.051 179.600 C 291.845 179.600,290.683 180.724,289.470 182.099 M285.445 186.988 C 285.080 187.544,284.922 188.000,285.095 188.000 C 285.484 188.000,286.519 186.386,286.282 186.149 C 286.186 186.053,285.810 186.431,285.445 186.988 M273.400 220.655 C 272.960 221.001,272.060 221.528,271.400 221.827 C 270.639 222.170,270.458 222.374,270.906 222.384 C 271.677 222.401,274.387 220.783,274.395 220.300 C 274.402 219.898,274.329 219.924,273.400 220.655 M263.790 221.984 C 263.932 222.213,264.517 222.400,265.090 222.400 C 266.344 222.400,266.199 222.208,264.666 221.840 C 263.923 221.662,263.621 221.711,263.790 221.984 " stroke="none" fill="#fb4c34" fill-rule="evenodd"></path></g></svg>