<svg id="svg" version="1.1" xmlns="http://www.w3.org/2000/svg" xmlns:xlink="http://www.w3.org/1999/xlink" width="400" height="400" viewBox="0, 0, 400,400"><g id="svgg"><path id="path0" d="M196.000 88.400 C 196.000 88.620,195.370 88.800,194.600 88.800 C 193.830 88.800,193.200 88.980,193.200 89.200 C 193.200 89.420,192.840 89.600,192.400 89.600 C 191.960 89.600,191.600 89.780,191.600 90.000 C 191.600 90.220,191.330 90.400,191.000 90.400 C 190.670 90.400,190.400 90.580,190.400 90.800 C 190.400 91.020,190.122 91.200,189.783 91.200 C 189.080 91.200,188.576 91.576,186.372 93.748 C 185.507 94.600,184.800 95.530,184.800 95.815 C 184.800 96.100,184.663 96.393,184.496 96.467 C 184.088 96.646,180.793 103.267,180.797 103.900 C 180.799 104.175,180.620 104.400,180.400 104.400 C 180.180 104.400,180.000 104.760,180.000 105.200 C 180.000 105.640,179.820 106.000,179.600 106.000 C 179.380 106.000,179.200 106.345,179.200 106.767 C 179.200 107.188,179.055 107.593,178.879 107.667 C 178.496 107.825,174.800 115.372,174.800 115.995 C 174.800 116.654,172.109 119.200,171.413 119.200 C 171.076 119.200,170.800 119.380,170.800 119.600 C 170.800 119.820,170.080 120.000,169.200 120.000 C 168.320 120.000,167.600 120.180,167.600 120.400 C 167.600 120.625,166.475 120.800,165.024 120.800 C 163.607 120.800,162.336 120.980,162.200 121.200 C 162.064 121.420,160.793 121.600,159.376 121.600 C 157.925 121.600,156.800 121.775,156.800 122.000 C 156.800 122.222,155.733 122.400,154.400 122.400 C 153.067 122.400,152.000 122.578,152.000 122.800 C 152.000 123.022,150.933 123.200,149.600 123.200 C 148.267 123.200,147.200 123.378,147.200 123.600 C 147.200 123.820,146.660 124.000,146.000 124.000 C 145.340 124.000,144.800 124.180,144.800 124.400 C 144.800 124.620,144.517 124.800,144.171 124.800 C 142.475 124.800,137.200 128.946,137.200 130.278 C 137.200 130.565,137.053 130.800,136.874 130.800 C 136.408 130.800,134.800 133.931,134.800 134.838 C 134.800 135.257,134.620 135.600,134.400 135.600 C 134.153 135.600,134.000 137.667,134.000 141.000 C 134.000 144.333,134.153 146.400,134.400 146.400 C 134.620 146.400,134.800 146.940,134.800 147.600 C 134.800 148.260,134.980 148.800,135.200 148.800 C 135.420 148.800,135.600 149.160,135.600 149.600 C 135.600 150.040,135.780 150.400,136.000 150.400 C 136.220 150.400,136.400 150.675,136.400 151.011 C 136.400 151.346,140.630 155.851,145.800 161.021 C 153.000 168.221,155.200 170.653,155.200 171.411 C 155.200 171.955,155.380 172.400,155.600 172.400 C 155.820 172.400,156.000 173.120,156.000 174.000 C 156.000 174.880,155.820 175.600,155.600 175.600 C 155.380 175.600,155.200 176.489,155.200 177.576 C 155.200 178.663,155.020 179.664,154.800 179.800 C 154.580 179.936,154.400 181.027,154.400 182.224 C 154.400 183.421,154.220 184.400,154.000 184.400 C 153.780 184.400,153.600 185.390,153.600 186.600 C 153.600 187.810,153.420 188.800,153.200 188.800 C 152.978 188.800,152.800 189.867,152.800 191.200 C 152.800 192.533,152.622 193.600,152.400 193.600 C 152.160 193.600,152.000 195.192,152.000 197.576 C 152.000 199.796,152.177 201.662,152.400 201.800 C 152.620 201.936,152.800 202.577,152.800 203.224 C 152.800 203.871,152.980 204.400,153.200 204.400 C 153.420 204.400,153.600 204.850,153.600 205.400 C 153.600 205.950,153.780 206.400,154.000 206.400 C 154.220 206.400,154.400 206.670,154.400 207.000 C 154.400 207.330,154.580 207.600,154.800 207.600 C 155.020 207.600,155.200 207.784,155.200 208.009 C 155.200 208.541,159.459 212.800,159.991 212.800 C 160.216 212.800,160.400 212.980,160.400 213.200 C 160.400 213.420,160.670 213.600,161.000 213.600 C 161.330 213.600,161.600 213.780,161.600 214.000 C 161.600 214.220,162.050 214.400,162.600 214.400 C 163.150 214.400,163.600 214.580,163.600 214.800 C 163.600 215.020,164.140 215.200,164.800 215.200 C 165.460 215.200,166.000 215.380,166.000 215.600 C 166.000 215.841,167.659 216.000,170.176 216.000 C 172.529 216.000,174.461 215.825,174.600 215.600 C 174.736 215.380,175.366 215.200,176.000 215.200 C 176.634 215.200,177.264 215.020,177.400 214.800 C 177.536 214.580,177.997 214.400,178.424 214.400 C 178.851 214.400,179.200 214.220,179.200 214.000 C 179.200 213.780,179.545 213.600,179.967 213.600 C 180.388 213.600,180.793 213.465,180.867 213.300 C 181.034 212.924,183.164 211.625,184.100 211.329 C 184.485 211.207,184.800 210.948,184.800 210.753 C 184.800 210.559,185.160 210.400,185.600 210.400 C 186.040 210.400,186.400 210.220,186.400 210.000 C 186.400 209.780,186.760 209.600,187.200 209.600 C 187.640 209.600,188.000 209.420,188.000 209.200 C 188.000 208.980,188.255 208.800,188.566 208.800 C 188.877 208.800,190.979 207.810,193.236 206.600 C 195.493 205.390,197.668 204.400,198.070 204.400 C 198.471 204.400,198.800 204.220,198.800 204.000 C 198.800 203.780,199.340 203.600,200.000 203.600 C 200.660 203.600,201.200 203.780,201.200 204.000 C 201.200 204.220,201.529 204.400,201.930 204.400 C 202.332 204.400,204.507 205.390,206.764 206.600 C 209.021 207.810,211.123 208.800,211.434 208.800 C 211.745 208.800,212.000 208.980,212.000 209.200 C 212.000 209.420,212.360 209.600,212.800 209.600 C 213.240 209.600,213.600 209.780,213.600 210.000 C 213.600 210.220,213.960 210.400,214.400 210.400 C 214.840 210.400,215.200 210.559,215.200 210.753 C 215.200 210.948,215.515 211.207,215.900 211.329 C 216.836 211.625,218.966 212.924,219.133 213.300 C 219.207 213.465,219.612 213.600,220.033 213.600 C 220.455 213.600,220.800 213.780,220.800 214.000 C 220.800 214.220,221.149 214.400,221.576 214.400 C 222.003 214.400,222.464 214.580,222.600 214.800 C 222.736 215.020,223.467 215.200,224.224 215.200 C 224.981 215.200,225.600 215.380,225.600 215.600 C 225.600 215.841,227.267 216.000,229.800 216.000 C 232.333 216.000,234.000 215.841,234.000 215.600 C 234.000 215.380,234.630 215.200,235.400 215.200 C 236.170 215.200,236.800 215.020,236.800 214.800 C 236.800 214.580,237.087 214.400,237.438 214.400 C 238.686 214.400,244.800 209.077,244.800 207.991 C 244.800 207.776,244.980 207.600,245.200 207.600 C 245.420 207.600,245.600 207.330,245.600 207.000 C 245.600 206.670,245.780 206.400,246.000 206.400 C 246.220 206.400,246.400 206.051,246.400 205.624 C 246.400 205.197,246.580 204.736,246.800 204.600 C 247.020 204.464,247.200 203.823,247.200 203.176 C 247.200 202.529,247.380 202.000,247.600 202.000 C 247.841 202.000,248.000 200.341,248.000 197.824 C 248.000 195.471,247.825 193.539,247.600 193.400 C 247.380 193.264,247.200 192.173,247.200 190.976 C 247.200 189.779,247.020 188.800,246.800 188.800 C 246.578 188.800,246.400 187.733,246.400 186.400 C 246.400 185.067,246.222 184.000,246.000 184.000 C 245.780 184.000,245.600 183.010,245.600 181.800 C 245.600 180.590,245.420 179.600,245.200 179.600 C 244.980 179.600,244.800 178.610,244.800 177.400 C 244.800 176.190,244.620 175.200,244.400 175.200 C 244.180 175.200,244.000 174.570,244.000 173.800 C 244.000 173.030,244.180 172.400,244.400 172.400 C 244.620 172.400,244.800 171.950,244.800 171.400 C 244.800 170.850,244.980 170.400,245.200 170.400 C 245.420 170.400,245.600 170.217,245.600 169.994 C 245.600 169.770,249.650 165.553,254.600 160.622 C 259.550 155.691,263.600 151.374,263.600 151.028 C 263.600 150.683,263.780 150.400,264.000 150.400 C 264.220 150.400,264.400 150.040,264.400 149.600 C 264.400 149.160,264.580 148.800,264.800 148.800 C 265.020 148.800,265.200 148.361,265.200 147.824 C 265.200 147.287,265.380 146.736,265.600 146.600 C 265.835 146.455,266.000 144.129,266.000 140.976 C 266.000 137.659,265.847 135.600,265.600 135.600 C 265.380 135.600,265.200 135.060,265.200 134.400 C 265.200 133.740,265.020 133.200,264.800 133.200 C 264.580 133.200,264.400 132.880,264.400 132.488 C 264.400 132.097,264.040 131.517,263.600 131.200 C 263.160 130.883,262.800 130.428,262.800 130.190 C 262.800 128.910,257.512 124.800,255.865 124.800 C 255.499 124.800,255.200 124.620,255.200 124.400 C 255.200 124.180,254.660 124.000,254.000 124.000 C 253.340 124.000,252.800 123.820,252.800 123.600 C 252.800 123.380,251.911 123.200,250.824 123.200 C 249.737 123.200,248.736 123.020,248.600 122.800 C 248.464 122.580,247.193 122.400,245.776 122.400 C 244.325 122.400,243.200 122.225,243.200 122.000 C 243.200 121.775,242.075 121.600,240.624 121.600 C 239.207 121.600,237.936 121.420,237.800 121.200 C 237.664 120.980,236.393 120.800,234.976 120.800 C 233.525 120.800,232.400 120.625,232.400 120.400 C 232.400 120.180,231.680 120.000,230.800 120.000 C 229.920 120.000,229.200 119.820,229.200 119.600 C 229.200 119.380,228.924 119.200,228.587 119.200 C 227.852 119.200,225.200 116.637,225.200 115.927 C 225.200 115.652,223.650 112.271,221.756 108.413 C 219.862 104.556,217.927 100.590,217.456 99.600 C 216.985 98.610,216.465 97.740,216.300 97.667 C 216.135 97.593,216.000 97.278,216.000 96.967 C 216.000 96.655,215.820 96.400,215.600 96.400 C 215.380 96.400,215.200 96.152,215.200 95.848 C 215.200 95.545,214.493 94.600,213.628 93.748 C 211.424 91.576,210.920 91.200,210.217 91.200 C 209.878 91.200,209.600 91.020,209.600 90.800 C 209.600 90.580,209.330 90.400,209.000 90.400 C 208.670 90.400,208.400 90.220,208.400 90.000 C 208.400 89.780,208.040 89.600,207.600 89.600 C 207.160 89.600,206.800 89.420,206.800 89.200 C 206.800 88.980,206.170 88.800,205.400 88.800 C 204.630 88.800,204.000 88.620,204.000 88.400 C 204.000 88.160,202.400 88.000,200.000 88.000 C 197.600 88.000,196.000 88.160,196.000 88.400 M204.602 99.324 C 206.630 100.702,206.887 101.131,212.439 112.400 C 218.260 124.214,220.959 127.610,225.600 128.963 C 228.727 129.874,229.656 130.080,232.200 130.425 C 233.740 130.635,236.170 130.979,237.600 131.190 C 239.030 131.401,241.460 131.750,243.000 131.966 C 251.365 133.139,251.689 133.239,253.931 135.348 C 256.350 137.623,257.111 141.401,255.787 144.569 C 255.177 146.030,254.475 146.770,243.631 157.400 C 234.767 166.089,233.358 169.597,235.034 178.800 C 235.375 180.670,235.828 183.280,236.043 184.600 C 236.257 185.920,236.604 187.990,236.814 189.200 C 237.025 190.410,237.374 192.627,237.591 194.126 C 237.807 195.625,238.086 197.016,238.210 197.217 C 238.513 197.707,237.431 201.275,236.590 202.559 C 234.559 205.659,228.512 207.138,225.800 205.198 C 225.419 204.926,219.516 201.830,210.400 197.121 C 204.290 193.965,199.729 193.143,195.628 194.458 C 194.320 194.878,182.727 200.528,181.800 201.199 C 180.599 202.067,173.169 205.617,171.816 205.969 C 167.873 206.996,162.836 203.529,162.181 199.337 C 161.888 197.455,162.714 191.443,164.841 180.000 C 165.563 176.113,165.722 171.592,165.199 169.842 C 163.500 164.164,163.684 164.396,150.859 151.873 C 144.403 145.570,143.600 144.386,143.600 141.163 C 143.600 136.840,146.881 133.447,151.712 132.772 C 153.081 132.581,155.460 132.231,157.000 131.994 C 158.540 131.757,161.060 131.400,162.600 131.200 C 178.623 129.122,179.680 128.327,187.562 112.431 C 193.304 100.851,193.407 100.677,195.276 99.407 C 197.877 97.639,202.068 97.602,204.602 99.324 M73.200 140.800 C 73.200 141.020,72.345 141.200,71.300 141.199 C 69.309 141.198,64.296 142.196,63.105 142.830 C 62.723 143.033,62.226 143.200,62.001 143.200 C 61.389 143.200,57.820 144.913,57.667 145.281 C 57.593 145.457,57.188 145.600,56.767 145.600 C 56.345 145.600,56.000 145.780,56.000 146.000 C 56.000 146.220,55.640 146.400,55.200 146.400 C 54.760 146.400,54.400 146.580,54.400 146.800 C 54.400 147.020,54.164 147.200,53.875 147.200 C 53.587 147.200,52.964 147.560,52.492 148.000 C 52.020 148.440,51.468 148.800,51.265 148.800 C 51.062 148.800,50.155 149.520,49.248 150.400 C 48.341 151.280,47.501 152.000,47.382 152.000 C 46.907 152.000,43.989 154.975,42.931 156.539 C 42.313 157.452,41.490 158.491,41.103 158.847 C 40.717 159.203,40.400 159.658,40.400 159.859 C 40.400 160.059,40.040 160.483,39.600 160.800 C 39.160 161.117,38.800 161.614,38.800 161.905 C 38.800 162.196,38.440 162.820,38.000 163.292 C 37.560 163.764,37.200 164.387,37.200 164.675 C 37.200 164.964,37.020 165.200,36.800 165.200 C 36.574 165.200,36.400 166.332,36.400 167.797 C 36.400 171.543,37.218 172.403,40.772 172.391 C 44.016 172.380,44.340 172.138,47.526 167.348 C 64.732 141.486,103.501 146.186,113.939 175.400 C 116.970 183.882,116.441 195.020,112.625 203.076 C 100.124 229.463,66.021 232.592,48.077 209.000 C 47.554 208.313,44.573 203.036,44.293 202.302 C 43.860 201.166,41.549 199.966,39.989 200.067 C 39.213 200.116,38.359 200.022,38.092 199.857 C 37.511 199.498,35.600 201.280,35.600 202.182 C 35.600 202.522,35.420 202.800,35.200 202.800 C 34.980 202.800,34.800 203.610,34.800 204.600 C 34.800 205.590,34.980 206.400,35.200 206.400 C 35.420 206.400,35.600 206.634,35.600 206.920 C 35.600 207.656,36.541 209.593,36.900 209.597 C 37.065 209.599,37.200 209.960,37.200 210.400 C 37.200 210.840,37.380 211.200,37.600 211.200 C 37.820 211.200,38.000 211.520,38.000 211.912 C 38.000 212.303,38.360 212.883,38.800 213.200 C 39.240 213.517,39.600 214.025,39.600 214.328 C 39.600 214.631,40.140 215.383,40.800 216.000 C 41.460 216.617,42.000 217.324,42.000 217.571 C 42.000 218.440,46.031 222.552,48.600 224.303 C 49.480 224.903,50.491 225.710,50.847 226.097 C 51.203 226.483,51.705 226.800,51.964 226.800 C 52.222 226.800,52.820 227.160,53.292 227.600 C 53.764 228.040,54.387 228.400,54.675 228.400 C 54.964 228.400,55.200 228.580,55.200 228.800 C 55.200 229.020,55.560 229.200,56.000 229.200 C 56.440 229.200,56.800 229.380,56.800 229.600 C 56.800 229.820,57.160 230.000,57.600 230.000 C 58.040 230.000,58.400 230.180,58.400 230.400 C 58.400 230.620,58.760 230.800,59.200 230.800 C 59.640 230.800,60.000 230.980,60.000 231.200 C 60.000 231.420,60.450 231.600,61.000 231.600 C 61.550 231.600,62.000 231.780,62.000 232.000 C 62.000 232.220,62.540 232.400,63.200 232.400 C 63.860 232.400,64.400 232.580,64.400 232.800 C 64.400 233.020,65.019 233.200,65.776 233.200 C 66.533 233.200,67.264 233.380,67.400 233.600 C 67.536 233.820,68.537 234.000,69.624 234.000 C 70.711 234.000,71.600 234.180,71.600 234.400 C 71.600 234.652,74.267 234.800,78.800 234.800 C 83.333 234.800,86.000 234.652,86.000 234.400 C 86.000 234.180,86.900 234.000,88.000 234.000 C 89.100 234.000,90.000 233.820,90.000 233.600 C 90.000 233.380,90.529 233.200,91.176 233.200 C 91.823 233.200,92.464 233.020,92.600 232.800 C 92.736 232.580,93.276 232.400,93.800 232.400 C 94.324 232.400,94.864 232.220,95.000 232.000 C 95.136 231.780,95.687 231.600,96.224 231.600 C 96.761 231.600,97.200 231.420,97.200 231.200 C 97.200 230.980,97.560 230.800,98.000 230.800 C 98.440 230.800,98.800 230.620,98.800 230.400 C 98.800 230.180,99.160 230.000,99.600 230.000 C 100.040 230.000,100.400 229.820,100.400 229.600 C 100.400 229.380,100.760 229.200,101.200 229.200 C 101.640 229.200,102.000 229.020,102.000 228.800 C 102.000 228.580,102.360 228.400,102.800 228.400 C 103.240 228.400,103.600 228.220,103.600 228.000 C 103.600 227.780,103.870 227.600,104.200 227.600 C 104.530 227.600,104.800 227.420,104.800 227.200 C 104.800 226.980,105.030 226.800,105.312 226.800 C 105.593 226.800,106.083 226.440,106.400 226.000 C 106.717 225.560,107.208 225.200,107.491 225.200 C 108.146 225.200,116.800 216.525,116.800 215.868 C 116.800 215.598,117.160 215.117,117.600 214.800 C 118.040 214.483,118.400 213.986,118.400 213.695 C 118.400 213.404,118.760 212.780,119.200 212.308 C 119.640 211.836,120.000 211.213,120.000 210.925 C 120.000 210.636,120.180 210.400,120.400 210.400 C 120.620 210.400,120.800 210.040,120.800 209.600 C 120.800 209.160,120.980 208.800,121.200 208.800 C 121.420 208.800,121.600 208.528,121.600 208.195 C 121.600 207.862,121.759 207.277,121.953 206.895 C 122.148 206.513,122.529 205.660,122.800 205.000 C 123.071 204.340,123.452 203.487,123.647 203.105 C 123.841 202.723,124.000 201.994,124.000 201.485 C 124.000 200.976,124.186 200.374,124.413 200.147 C 124.640 199.920,124.937 197.898,125.074 195.653 C 125.211 193.408,125.475 191.477,125.661 191.362 C 126.103 191.089,126.103 183.711,125.661 183.438 C 125.475 183.323,125.208 181.479,125.067 179.340 C 124.927 177.201,124.629 175.269,124.406 175.046 C 124.183 174.823,124.000 174.136,124.000 173.520 C 124.000 172.904,123.820 172.400,123.600 172.400 C 123.380 172.400,123.200 171.961,123.200 171.424 C 123.200 170.887,123.020 170.336,122.800 170.200 C 122.580 170.064,122.400 169.603,122.400 169.176 C 122.400 168.749,122.220 168.400,122.000 168.400 C 121.780 168.400,121.600 168.166,121.600 167.880 C 121.600 167.144,120.659 165.207,120.300 165.203 C 120.135 165.201,120.000 164.840,120.000 164.400 C 120.000 163.960,119.820 163.600,119.600 163.600 C 119.380 163.600,119.200 163.280,119.200 162.888 C 119.200 162.497,118.840 161.917,118.400 161.600 C 117.960 161.283,117.600 160.873,117.600 160.688 C 117.600 159.345,108.802 150.474,105.500 148.489 C 104.895 148.125,104.400 147.686,104.400 147.514 C 104.400 147.341,104.040 147.200,103.600 147.200 C 103.160 147.200,102.800 147.039,102.800 146.842 C 102.800 146.408,97.906 144.000,97.025 144.000 C 96.681 144.000,96.400 143.820,96.400 143.600 C 96.400 143.380,96.038 143.200,95.595 143.200 C 95.152 143.200,94.477 143.043,94.095 142.850 C 92.805 142.200,87.814 141.193,85.900 141.197 C 84.855 141.198,84.000 141.020,84.000 140.800 C 84.000 140.553,81.933 140.400,78.600 140.400 C 75.267 140.400,73.200 140.553,73.200 140.800 M316.000 140.800 C 316.000 141.020,315.097 141.200,313.994 141.200 C 311.524 141.200,303.600 143.096,303.600 143.687 C 303.600 143.859,303.325 144.000,302.989 144.000 C 302.220 144.000,297.447 146.378,297.267 146.850 C 297.193 147.042,296.828 147.200,296.455 147.200 C 296.082 147.200,295.517 147.560,295.200 148.000 C 294.883 148.440,294.438 148.803,294.212 148.807 C 292.863 148.831,282.400 159.356,282.400 160.688 C 282.400 160.873,282.040 161.283,281.600 161.600 C 281.160 161.917,280.800 162.482,280.800 162.855 C 280.800 163.228,280.665 163.593,280.500 163.667 C 280.068 163.859,278.400 167.172,278.400 167.838 C 278.400 168.147,278.220 168.400,278.000 168.400 C 277.780 168.400,277.600 168.749,277.600 169.176 C 277.600 169.603,277.420 170.064,277.200 170.200 C 276.980 170.336,276.800 170.887,276.800 171.424 C 276.800 171.961,276.640 172.400,276.444 172.400 C 276.248 172.400,275.991 172.985,275.873 173.700 C 275.754 174.415,275.473 175.810,275.246 176.800 C 275.020 177.790,274.827 179.815,274.817 181.300 C 274.808 182.822,274.625 184.000,274.400 184.000 C 274.163 184.000,274.000 185.459,274.000 187.576 C 274.000 189.543,274.180 191.264,274.400 191.400 C 274.620 191.536,274.808 192.762,274.817 194.124 C 274.827 195.486,274.999 197.320,275.200 198.200 C 275.400 199.080,275.676 200.340,275.812 201.000 C 275.949 201.660,276.227 202.605,276.430 203.100 C 276.634 203.595,277.001 204.495,277.247 205.100 C 277.492 205.705,277.852 206.513,278.047 206.895 C 278.241 207.277,278.400 207.862,278.400 208.195 C 278.400 208.528,278.580 208.800,278.800 208.800 C 279.020 208.800,279.200 209.160,279.200 209.600 C 279.200 210.040,279.380 210.400,279.600 210.400 C 279.820 210.400,280.000 210.636,280.000 210.925 C 280.000 211.213,280.360 211.836,280.800 212.308 C 281.240 212.780,281.600 213.404,281.600 213.695 C 281.600 213.986,281.960 214.483,282.400 214.800 C 282.840 215.117,283.200 215.604,283.200 215.881 C 283.200 216.489,291.876 225.200,292.481 225.200 C 292.715 225.200,293.197 225.516,293.553 225.903 C 293.909 226.289,294.695 226.860,295.300 227.170 C 295.905 227.481,296.400 227.885,296.400 228.068 C 296.400 228.250,296.760 228.400,297.200 228.400 C 297.640 228.400,298.000 228.580,298.000 228.800 C 298.000 229.020,298.360 229.200,298.800 229.200 C 299.240 229.200,299.600 229.380,299.600 229.600 C 299.600 229.820,299.960 230.000,300.400 230.000 C 300.840 230.000,301.200 230.180,301.200 230.400 C 301.200 230.620,301.560 230.800,302.000 230.800 C 302.440 230.800,302.800 230.980,302.800 231.200 C 302.800 231.420,303.340 231.600,304.000 231.600 C 304.660 231.600,305.200 231.780,305.200 232.000 C 305.200 232.220,305.549 232.400,305.976 232.400 C 306.403 232.400,306.864 232.580,307.000 232.800 C 307.136 233.020,307.867 233.200,308.624 233.200 C 309.381 233.200,310.000 233.380,310.000 233.600 C 310.000 233.820,310.799 234.000,311.776 234.000 C 312.753 234.000,313.664 234.180,313.800 234.400 C 313.950 234.643,316.871 234.800,321.224 234.800 C 325.741 234.800,328.400 234.652,328.400 234.400 C 328.400 234.180,329.300 234.000,330.400 234.000 C 331.500 234.000,332.400 233.820,332.400 233.600 C 332.400 233.380,333.120 233.200,334.000 233.200 C 334.880 233.200,335.600 233.020,335.600 232.800 C 335.600 232.580,336.140 232.400,336.800 232.400 C 337.460 232.400,338.000 232.220,338.000 232.000 C 338.000 231.780,338.450 231.600,339.000 231.600 C 339.550 231.600,340.000 231.420,340.000 231.200 C 340.000 230.980,340.360 230.800,340.800 230.800 C 341.240 230.800,341.600 230.620,341.600 230.400 C 341.600 230.180,341.960 230.000,342.400 230.000 C 342.840 230.000,343.200 229.820,343.200 229.600 C 343.200 229.380,343.520 229.200,343.912 229.200 C 344.303 229.200,344.883 228.840,345.200 228.400 C 345.517 227.960,346.097 227.600,346.488 227.600 C 346.880 227.600,347.200 227.420,347.200 227.200 C 347.200 226.980,347.494 226.800,347.853 226.800 C 348.212 226.800,348.797 226.483,349.153 226.097 C 349.509 225.710,350.561 224.878,351.492 224.248 C 353.319 223.011,358.400 217.840,358.400 217.217 C 358.400 217.008,358.850 216.386,359.400 215.836 C 359.950 215.286,360.400 214.641,360.400 214.401 C 360.400 214.162,360.760 213.580,361.200 213.108 C 361.640 212.636,362.000 212.013,362.000 211.725 C 362.000 211.436,362.180 211.200,362.400 211.200 C 362.620 211.200,362.800 210.855,362.800 210.433 C 362.800 210.012,362.935 209.607,363.100 209.533 C 363.599 209.312,365.200 205.978,365.200 205.162 C 365.200 204.743,365.380 204.400,365.600 204.400 C 365.820 204.400,366.000 203.961,366.000 203.424 C 366.000 202.887,366.180 202.336,366.400 202.200 C 366.620 202.064,366.800 201.434,366.800 200.800 C 366.800 200.166,366.980 199.536,367.200 199.400 C 367.420 199.264,367.600 198.353,367.600 197.376 C 367.600 196.399,367.780 195.600,368.000 195.600 C 368.253 195.600,368.400 192.675,368.400 187.624 C 368.400 182.737,368.245 179.551,368.000 179.400 C 367.780 179.264,367.600 178.454,367.600 177.600 C 367.600 176.746,367.420 175.936,367.200 175.800 C 366.980 175.664,366.800 175.023,366.800 174.376 C 366.800 173.729,366.620 173.200,366.400 173.200 C 366.180 173.200,366.000 172.660,366.000 172.000 C 366.000 171.340,365.853 170.800,365.672 170.800 C 365.492 170.800,365.100 169.900,364.800 168.800 C 364.500 167.700,364.108 166.800,363.928 166.800 C 363.747 166.800,363.600 166.440,363.600 166.000 C 363.600 165.560,363.420 165.200,363.200 165.200 C 362.980 165.200,362.800 164.964,362.800 164.675 C 362.800 164.387,362.440 163.764,362.000 163.292 C 361.560 162.820,361.200 162.196,361.200 161.905 C 361.200 161.614,360.840 161.117,360.400 160.800 C 359.960 160.483,359.600 160.070,359.600 159.883 C 359.600 159.696,359.375 159.301,359.100 159.006 C 358.825 158.711,358.150 157.873,357.600 157.143 C 355.889 154.874,349.412 148.800,348.705 148.800 C 348.519 148.800,347.980 148.440,347.508 148.000 C 347.036 147.560,346.413 147.200,346.125 147.200 C 345.836 147.200,345.600 147.020,345.600 146.800 C 345.600 146.580,345.240 146.400,344.800 146.400 C 344.360 146.400,344.000 146.220,344.000 146.000 C 344.000 145.780,343.655 145.600,343.233 145.600 C 342.812 145.600,342.407 145.457,342.333 145.281 C 342.180 144.913,338.611 143.200,337.999 143.200 C 337.774 143.200,337.277 143.033,336.895 142.830 C 335.704 142.196,330.691 141.198,328.700 141.199 C 327.655 141.200,326.800 141.020,326.800 140.800 C 326.800 140.553,324.733 140.400,321.400 140.400 C 318.067 140.400,316.000 140.553,316.000 140.800 M330.893 151.558 C 338.642 153.668,345.547 158.226,350.648 164.600 C 352.115 166.433,352.771 167.447,354.825 171.059 C 356.861 174.641,358.784 182.773,358.784 187.800 C 358.784 190.219,358.536 191.974,357.326 198.105 C 357.206 198.713,356.949 199.308,356.754 199.429 C 356.559 199.549,356.400 199.924,356.400 200.263 C 356.400 202.706,350.851 211.186,346.793 214.942 C 322.716 237.233,284.140 220.242,284.263 187.400 C 284.354 163.063,307.580 145.210,330.893 151.558 M35.400 177.337 C 34.740 177.585,33.615 178.411,32.900 179.172 L 31.600 180.556 31.600 186.478 C 31.600 189.874,31.759 192.400,31.973 192.400 C 32.178 192.400,32.460 192.760,32.600 193.200 C 32.740 193.640,33.112 194.000,33.427 194.000 C 33.742 194.000,34.000 194.180,34.000 194.400 C 34.000 195.097,36.713 194.832,38.358 193.975 C 40.875 192.663,41.123 191.990,41.270 186.095 C 41.414 180.309,41.118 179.526,38.360 178.384 C 37.722 178.119,37.200 177.655,37.200 177.351 C 37.200 176.719,37.044 176.718,35.400 177.337 M142.600 223.600 C 142.464 223.820,141.373 224.000,140.176 224.000 C 138.979 224.000,138.000 224.180,138.000 224.400 C 138.000 224.620,137.505 224.799,136.900 224.798 C 134.648 224.794,125.762 228.541,124.353 230.089 C 123.997 230.480,123.494 230.800,123.235 230.800 C 122.976 230.800,122.314 231.250,121.764 231.800 C 121.214 232.350,120.594 232.800,120.388 232.800 C 119.792 232.800,113.302 239.449,113.015 240.354 C 112.757 241.167,112.599 241.171,73.678 241.320 C 40.366 241.448,34.187 241.561,31.800 242.086 C 28.714 242.765,25.075 244.032,24.867 244.500 C 24.793 244.665,24.388 244.800,23.967 244.800 C 23.545 244.800,23.200 244.980,23.200 245.200 C 23.200 245.420,22.840 245.600,22.400 245.600 C 21.960 245.600,21.600 245.750,21.600 245.932 C 21.600 246.115,21.105 246.519,20.500 246.830 C 19.895 247.140,19.109 247.711,18.753 248.097 C 18.397 248.484,17.911 248.800,17.672 248.800 C 17.128 248.800,11.200 254.696,11.200 255.238 C 11.200 255.457,10.764 256.073,10.230 256.606 C 9.697 257.139,9.031 258.211,8.750 258.988 C 8.469 259.765,8.095 260.400,7.920 260.400 C 7.744 260.400,7.600 260.760,7.600 261.200 C 7.600 261.640,7.420 262.000,7.200 262.000 C 6.980 262.000,6.800 262.360,6.800 262.800 C 6.800 263.240,6.620 263.600,6.400 263.600 C 6.180 263.600,6.000 264.140,6.000 264.800 C 6.000 265.460,5.820 266.000,5.600 266.000 C 5.380 266.000,5.200 266.619,5.200 267.376 C 5.200 268.133,5.020 268.864,4.800 269.000 C 4.580 269.136,4.400 270.137,4.400 271.224 C 4.400 272.311,4.220 273.200,4.000 273.200 C 3.757 273.200,3.600 275.000,3.600 277.800 C 3.600 280.600,3.757 282.400,4.000 282.400 C 4.220 282.400,4.400 283.379,4.400 284.576 C 4.400 285.773,4.580 286.864,4.800 287.000 C 5.020 287.136,5.200 287.777,5.200 288.424 C 5.200 289.071,5.380 289.600,5.600 289.600 C 5.820 289.600,6.000 290.050,6.000 290.600 C 6.000 291.150,6.180 291.600,6.400 291.600 C 6.620 291.600,6.800 291.960,6.800 292.400 C 6.800 292.840,6.980 293.200,7.200 293.200 C 7.420 293.200,7.600 293.560,7.600 294.000 C 7.600 294.440,7.780 294.800,8.000 294.800 C 8.220 294.800,8.400 295.079,8.400 295.420 C 8.400 296.170,9.495 298.353,10.252 299.109 C 10.553 299.410,10.800 299.822,10.800 300.023 C 10.800 300.480,17.489 307.200,17.945 307.200 C 18.128 307.200,18.693 307.560,19.200 308.000 C 19.707 308.440,20.455 308.800,20.861 308.800 C 21.268 308.800,21.600 308.947,21.600 309.126 C 21.600 309.535,24.681 311.200,25.438 311.200 C 25.747 311.200,26.000 311.380,26.000 311.600 C 26.000 311.820,26.450 312.000,27.000 312.000 C 27.550 312.000,28.000 312.180,28.000 312.400 C 28.000 312.620,28.630 312.800,29.400 312.800 C 30.170 312.800,30.800 312.980,30.800 313.200 C 30.800 313.420,31.700 313.600,32.800 313.600 C 33.900 313.600,34.800 313.780,34.800 314.000 C 34.800 314.266,90.267 314.400,200.400 314.400 C 310.533 314.400,366.000 314.266,366.000 314.000 C 366.000 313.780,366.889 313.600,367.976 313.600 C 369.063 313.600,370.064 313.420,370.200 313.200 C 370.336 312.980,370.966 312.800,371.600 312.800 C 372.234 312.800,372.864 312.620,373.000 312.400 C 373.136 312.180,373.687 312.000,374.224 312.000 C 374.761 312.000,375.200 311.820,375.200 311.600 C 375.200 311.380,375.560 311.200,376.000 311.200 C 376.440 311.200,376.800 311.020,376.800 310.800 C 376.800 310.580,377.160 310.400,377.600 310.400 C 378.040 310.400,378.400 310.220,378.400 310.000 C 378.400 309.780,378.760 309.600,379.200 309.600 C 379.640 309.600,380.000 309.442,380.000 309.249 C 380.000 309.055,380.502 308.689,381.115 308.435 C 383.539 307.431,389.838 301.206,391.093 298.573 C 391.453 297.818,391.895 297.200,392.074 297.200 C 392.253 297.200,392.400 296.840,392.400 296.400 C 392.400 295.960,392.580 295.600,392.800 295.600 C 393.020 295.600,393.200 295.240,393.200 294.800 C 393.200 294.360,393.380 294.000,393.600 294.000 C 393.820 294.000,394.000 293.640,394.000 293.200 C 394.000 292.760,394.180 292.400,394.400 292.400 C 394.620 292.400,394.800 291.950,394.800 291.400 C 394.800 290.850,394.980 290.400,395.200 290.400 C 395.420 290.400,395.600 289.860,395.600 289.200 C 395.600 288.540,395.780 288.000,396.000 288.000 C 396.220 288.000,396.400 287.100,396.400 286.000 C 396.400 284.900,396.580 284.000,396.800 284.000 C 397.049 284.000,397.200 281.667,397.200 277.800 C 397.200 273.933,397.049 271.600,396.800 271.600 C 396.580 271.600,396.400 270.801,396.400 269.824 C 396.400 268.847,396.220 267.936,396.000 267.800 C 395.780 267.664,395.600 267.023,395.600 266.376 C 395.600 265.729,395.420 265.200,395.200 265.200 C 394.980 265.200,394.800 264.750,394.800 264.200 C 394.800 263.650,394.620 263.200,394.400 263.200 C 394.180 263.200,394.000 262.966,394.000 262.680 C 394.000 261.944,393.059 260.007,392.700 260.003 C 392.535 260.001,392.400 259.730,392.400 259.400 C 392.400 259.070,392.240 258.800,392.043 258.800 C 391.847 258.800,391.574 258.350,391.436 257.800 C 391.298 257.250,391.008 256.800,390.792 256.800 C 390.577 256.800,390.400 256.537,390.400 256.215 C 390.400 255.507,382.974 248.000,382.273 248.000 C 382.000 248.000,381.517 247.640,381.200 247.200 C 380.883 246.760,380.303 246.400,379.912 246.400 C 379.520 246.400,379.200 246.220,379.200 246.000 C 379.200 245.780,378.840 245.600,378.400 245.600 C 377.960 245.600,377.600 245.420,377.600 245.200 C 377.600 244.980,377.240 244.800,376.800 244.800 C 376.360 244.800,376.000 244.620,376.000 244.400 C 376.000 244.180,375.676 244.000,375.280 244.000 C 374.884 244.000,374.389 243.851,374.180 243.670 C 371.653 241.472,366.325 241.203,325.327 241.201 L 287.254 241.200 286.990 240.369 C 286.700 239.453,280.214 232.800,279.612 232.800 C 279.406 232.800,278.786 232.350,278.236 231.800 C 277.686 231.250,277.024 230.800,276.765 230.800 C 276.506 230.800,276.003 230.480,275.647 230.089 C 274.877 229.243,268.468 225.992,267.580 225.997 C 267.239 225.999,266.775 225.815,266.549 225.589 C 266.324 225.364,265.208 225.068,264.069 224.934 C 262.931 224.799,262.000 224.534,262.000 224.344 C 262.000 224.155,261.021 224.000,259.824 224.000 C 258.627 224.000,257.536 223.820,257.400 223.600 C 257.237 223.336,237.670 223.200,200.000 223.200 C 162.330 223.200,142.763 223.336,142.600 223.600 M256.664 233.392 C 289.997 239.289,297.025 284.064,267.165 300.288 C 263.216 302.433,258.701 303.742,253.400 304.277 C 249.286 304.692,150.774 304.685,146.800 304.269 C 105.955 299.992,102.174 241.922,142.200 233.623 C 147.109 232.605,251.031 232.396,256.664 233.392 M107.299 252.400 C 107.244 252.950,107.039 253.760,106.845 254.200 C 106.505 254.969,106.260 255.829,105.136 260.200 C 104.499 262.679,104.477 275.198,105.106 277.200 C 105.348 277.970,105.759 279.410,106.019 280.400 C 106.814 283.420,107.304 284.753,109.072 288.700 C 110.442 291.759,114.704 297.503,118.086 300.848 C 120.003 302.744,121.458 304.409,121.319 304.548 C 120.861 305.005,41.436 304.834,37.268 304.366 C 17.423 302.139,6.666 282.071,16.101 264.878 C 19.889 257.976,27.358 252.716,34.961 251.598 C 36.082 251.433,52.840 251.321,72.200 251.349 L 107.400 251.400 107.299 252.400 M369.141 252.567 C 388.576 259.353,393.696 283.419,378.690 297.456 C 374.706 301.183,370.518 303.161,364.400 304.206 C 360.382 304.892,279.035 305.103,278.618 304.429 C 278.492 304.225,279.312 303.280,280.441 302.329 C 287.258 296.589,292.552 287.428,294.850 277.400 C 295.564 274.286,295.573 262.958,294.864 260.200 C 293.776 255.970,293.499 254.974,293.191 254.200 C 292.540 252.563,292.404 251.918,292.631 251.550 C 292.776 251.316,306.748 251.216,329.332 251.286 L 365.800 251.400 369.141 252.567 " stroke="none" fill="#050505" fill-rule="evenodd"></path><path id="path1" d="M197.977 98.759 C 194.958 99.735,191.600 103.463,191.600 105.838 C 191.600 106.147,191.464 106.400,191.298 106.400 C 191.131 106.400,190.745 106.985,190.438 107.700 C 188.457 112.326,182.996 122.766,181.785 124.244 C 177.558 129.402,175.766 129.951,152.400 133.243 C 146.127 134.126,142.758 138.598,144.530 143.687 C 145.143 145.447,145.380 145.707,154.795 155.000 C 166.394 166.448,167.431 169.049,165.242 181.200 C 164.826 183.510,164.265 186.750,163.995 188.400 C 163.725 190.050,163.326 192.120,163.108 193.000 C 161.329 200.178,164.264 205.261,170.223 205.323 C 172.522 205.346,173.012 205.157,179.823 201.610 C 195.980 193.196,194.962 193.600,200.000 193.600 C 204.970 193.600,205.476 193.804,221.787 202.404 C 228.410 205.896,230.749 206.263,233.852 204.298 C 237.934 201.711,238.114 200.072,235.791 186.600 C 232.541 167.754,232.638 167.450,246.092 154.147 C 256.484 143.872,257.116 142.809,255.363 138.549 C 253.641 134.365,252.606 133.945,239.221 132.003 C 220.444 129.279,220.004 128.970,212.163 113.000 C 205.311 99.044,203.309 97.034,197.977 98.759 M142.000 234.188 C 109.577 241.641,104.405 285.476,134.200 300.292 C 136.454 301.412,138.179 301.996,143.000 303.271 C 145.995 304.063,253.994 304.049,257.200 303.256 C 275.464 298.739,286.484 284.446,285.461 266.600 C 284.897 256.776,279.171 245.465,272.400 240.803 C 271.630 240.272,270.910 239.740,270.800 239.619 C 269.391 238.075,261.831 234.948,257.280 234.028 C 253.999 233.365,144.922 233.516,142.000 234.188 " stroke="none" fill="#f3d363" fill-rule="evenodd"></path><path id="path2" d="M72.400 151.432 C 64.653 152.839,59.335 155.633,53.101 161.570 C 50.579 163.973,46.400 169.435,46.400 170.330 C 46.400 171.580,43.915 172.800,41.369 172.800 C 39.352 172.800,38.800 172.929,38.800 173.400 C 38.800 173.730,38.620 174.000,38.400 174.000 C 38.180 174.000,38.000 174.414,38.000 174.920 C 38.000 175.426,37.792 176.048,37.537 176.303 C 36.961 176.879,37.762 178.000,38.749 178.000 C 39.600 178.001,41.600 179.731,41.600 180.467 C 41.600 180.782,41.799 181.239,42.043 181.483 C 42.365 181.805,42.370 183.315,42.060 187.018 L 41.635 192.111 40.167 193.455 C 39.213 194.329,38.297 194.800,37.550 194.800 C 36.917 194.800,36.400 194.980,36.400 195.200 C 36.400 195.420,36.580 195.600,36.800 195.600 C 37.020 195.600,37.200 196.243,37.200 197.029 C 37.200 198.960,37.821 199.453,40.541 199.678 C 43.246 199.903,44.137 200.620,45.907 204.000 C 47.324 206.705,48.137 208.137,48.402 208.400 C 48.514 208.510,49.137 209.320,49.788 210.200 C 51.409 212.392,54.525 215.339,57.400 217.399 C 61.370 220.243,63.838 221.339,71.529 223.670 C 73.545 224.281,83.822 224.255,86.400 223.632 C 95.249 221.495,103.738 216.010,108.117 209.600 C 108.794 208.610,109.449 207.710,109.574 207.600 C 110.651 206.648,113.314 200.480,114.323 196.600 C 118.586 180.205,109.815 161.305,94.800 154.529 C 87.436 151.206,79.602 150.123,72.400 151.432 M315.200 151.374 C 312.194 151.933,311.401 152.155,308.400 153.277 C 304.722 154.651,304.000 154.983,304.000 155.298 C 304.000 155.464,303.810 155.600,303.578 155.600 C 300.472 155.600,291.258 165.383,288.086 172.047 C 282.728 183.307,284.076 200.616,290.900 208.175 C 291.285 208.602,291.600 209.104,291.600 209.290 C 291.600 210.814,300.191 218.089,304.600 220.299 C 330.740 233.400,361.755 212.124,357.805 183.800 C 356.325 173.191,352.244 165.582,344.600 159.179 C 336.817 152.661,325.057 149.539,315.200 151.374 M62.000 251.991 L 33.800 252.200 31.200 253.135 C 28.799 253.998,25.673 255.500,25.200 256.019 C 25.090 256.140,24.370 256.674,23.600 257.206 C 19.356 260.141,16.205 264.902,14.056 271.628 C 13.516 273.319,13.443 282.360,13.958 283.681 C 14.155 284.187,14.553 285.410,14.842 286.400 C 17.554 295.690,26.653 302.627,37.400 303.599 C 41.031 303.928,120.000 304.147,120.000 303.829 C 120.000 303.734,118.678 302.339,117.063 300.729 C 115.447 299.118,113.701 297.170,113.182 296.400 C 112.663 295.630,112.116 294.910,111.966 294.800 C 111.040 294.122,107.096 286.166,106.115 283.000 C 104.302 277.147,104.200 276.369,104.220 268.600 C 104.238 261.501,104.313 260.749,105.351 257.200 C 105.962 255.110,106.559 252.995,106.678 252.500 L 106.893 251.600 98.547 251.691 C 93.956 251.741,77.510 251.876,62.000 251.991 M293.200 252.035 C 293.200 252.288,293.547 253.599,293.972 254.947 C 296.013 261.432,296.641 266.963,296.009 272.900 C 295.557 277.150,295.259 278.547,293.935 282.600 C 291.703 289.435,287.888 295.687,282.900 300.683 C 281.305 302.280,280.000 303.685,280.000 303.806 C 280.000 303.926,299.305 303.974,322.900 303.912 L 365.800 303.800 368.969 302.654 C 393.479 293.790,392.345 259.993,367.286 252.499 C 364.405 251.638,293.200 251.192,293.200 252.035 " stroke="none" fill="#c6d4dc" fill-rule="evenodd"></path><path id="path3" d="M219.200 125.400 C 219.946 126.170,220.647 126.800,220.757 126.800 C 220.867 126.800,220.346 126.170,219.600 125.400 C 218.854 124.630,218.153 124.000,218.043 124.000 C 217.933 124.000,218.454 124.630,219.200 125.400 M149.800 150.400 C 151.328 151.940,152.669 153.200,152.779 153.200 C 152.889 153.200,151.728 151.940,150.200 150.400 C 148.672 148.860,147.331 147.600,147.221 147.600 C 147.111 147.600,148.272 148.860,149.800 150.400 M248.185 152.100 L 246.200 154.200 248.300 152.215 C 250.251 150.371,250.583 150.000,250.285 150.000 C 250.222 150.000,249.277 150.945,248.185 152.100 M77.705 150.687 C 78.314 150.779,79.214 150.777,79.705 150.682 C 80.197 150.587,79.700 150.511,78.600 150.514 C 77.500 150.517,77.097 150.595,77.705 150.687 M320.300 150.682 C 320.795 150.778,321.605 150.778,322.100 150.682 C 322.595 150.587,322.190 150.509,321.200 150.509 C 320.210 150.509,319.805 150.587,320.300 150.682 M71.400 151.200 L 70.600 151.544 71.400 151.549 C 71.840 151.552,72.920 151.405,73.800 151.223 L 75.400 150.892 73.800 150.874 C 72.920 150.864,71.840 151.011,71.400 151.200 M82.433 150.949 C 82.525 151.031,83.500 151.207,84.600 151.341 C 85.946 151.505,86.339 151.465,85.800 151.220 C 85.039 150.874,82.083 150.636,82.433 150.949 M314.200 151.220 C 313.661 151.465,314.054 151.505,315.400 151.341 C 316.500 151.207,317.475 151.031,317.567 150.949 C 317.917 150.636,314.961 150.874,314.200 151.220 M326.200 151.223 C 328.337 151.665,329.804 151.650,328.400 151.200 C 327.850 151.024,326.770 150.883,326.000 150.886 L 324.600 150.892 326.200 151.223 M68.200 152.000 C 67.181 152.438,68.232 152.438,69.600 152.000 C 70.404 151.743,70.443 151.677,69.800 151.668 C 69.360 151.662,68.640 151.811,68.200 152.000 M87.600 152.000 C 89.142 152.494,89.964 152.494,89.200 152.000 C 88.870 151.787,88.150 151.627,87.600 151.646 L 86.600 151.680 87.600 152.000 M311.000 152.000 C 310.496 152.217,310.422 152.344,310.800 152.344 C 311.130 152.344,311.760 152.189,312.200 152.000 C 312.704 151.783,312.778 151.656,312.400 151.656 C 312.070 151.656,311.440 151.811,311.000 152.000 M330.200 152.000 C 330.640 152.189,331.360 152.344,331.800 152.344 L 332.600 152.344 331.800 152.000 C 331.360 151.811,330.640 151.656,330.200 151.656 L 329.400 151.656 330.200 152.000 M91.400 153.200 C 92.280 153.607,93.270 153.941,93.600 153.941 C 93.930 153.941,93.480 153.607,92.600 153.200 C 91.720 152.793,90.730 152.459,90.400 152.459 C 90.070 152.459,90.520 152.793,91.400 153.200 M307.653 153.053 C 306.913 153.376,306.392 153.725,306.495 153.828 C 306.599 153.932,307.475 153.666,308.442 153.237 C 309.409 152.808,309.930 152.458,309.600 152.461 C 309.270 152.463,308.394 152.730,307.653 153.053 M60.200 155.448 C 54.659 158.786,50.608 162.772,46.932 168.507 C 45.977 169.996,44.612 171.570,43.898 172.006 C 43.093 172.496,42.854 172.798,43.269 172.799 C 44.032 172.800,46.400 170.933,46.400 170.330 C 46.400 167.826,56.022 158.070,61.119 155.404 C 62.264 154.806,63.200 154.245,63.200 154.158 C 63.200 153.772,62.438 154.100,60.200 155.448 M336.800 154.171 C 336.800 154.447,339.314 155.620,339.502 155.431 C 339.597 155.336,339.127 154.976,338.457 154.629 C 337.209 153.984,336.800 153.871,336.800 154.171 M96.000 154.939 C 96.000 155.031,97.215 155.889,98.700 156.846 C 103.632 160.023,109.157 166.172,111.359 170.932 C 111.749 171.775,112.165 172.369,112.283 172.251 C 112.974 171.559,107.964 164.439,104.340 160.965 C 101.296 158.048,96.000 154.220,96.000 154.939 M300.974 156.640 C 296.702 159.472,291.494 164.836,289.651 168.300 C 288.772 169.952,289.469 169.226,290.996 166.900 C 293.629 162.889,301.745 155.600,303.578 155.600 C 303.810 155.600,304.000 155.420,304.000 155.200 C 304.000 154.629,304.025 154.617,300.974 156.640 M340.000 155.701 C 340.000 155.807,340.737 156.382,341.638 156.978 C 347.375 160.774,352.501 167.004,355.219 173.484 C 356.690 176.989,357.023 178.268,357.806 183.400 L 358.355 187.000 358.155 183.832 C 357.473 173.060,350.920 162.446,341.100 156.207 C 340.495 155.822,340.000 155.595,340.000 155.701 M288.200 170.800 C 287.838 171.501,287.626 172.159,287.729 172.262 C 287.832 172.365,288.206 171.869,288.560 171.160 C 288.914 170.451,289.126 169.793,289.031 169.698 C 288.936 169.603,288.562 170.099,288.200 170.800 M112.430 173.100 C 112.446 173.265,112.806 174.120,113.229 175.000 C 113.950 176.500,113.906 175.703,113.156 173.700 C 112.837 172.846,112.366 172.457,112.430 173.100 M114.034 177.400 C 114.022 177.840,114.187 178.470,114.400 178.800 C 114.914 179.595,114.914 178.596,114.400 177.400 L 114.056 176.600 114.034 177.400 M285.449 177.815 C 285.312 178.173,285.216 178.856,285.236 179.333 C 285.262 179.947,285.385 179.808,285.659 178.856 C 286.057 177.472,285.894 176.658,285.449 177.815 M39.465 178.774 C 40.161 179.198,40.920 179.873,41.153 180.273 C 41.434 180.756,41.580 180.815,41.588 180.447 C 41.603 179.753,39.605 178.001,38.800 178.002 C 38.470 178.003,38.769 178.350,39.465 178.774 M114.887 181.000 C 114.891 181.660,115.032 182.740,115.200 183.400 L 115.505 184.600 115.513 183.200 C 115.517 182.430,115.376 181.350,115.200 180.800 C 114.889 179.830,114.880 179.835,114.887 181.000 M284.676 181.210 C 284.530 181.755,284.430 183.010,284.454 184.000 C 284.496 185.751,284.507 185.734,284.848 183.400 C 285.220 180.852,285.118 179.557,284.676 181.210 M41.657 185.820 L 41.713 190.600 42.083 186.246 C 42.339 183.230,42.322 181.762,42.026 181.466 C 41.725 181.165,41.617 182.437,41.657 185.820 M357.800 192.000 C 357.643 193.566,357.604 194.937,357.714 195.047 C 357.824 195.157,358.043 193.966,358.200 192.400 C 358.357 190.834,358.396 189.463,358.286 189.353 C 358.176 189.243,357.957 190.434,357.800 192.000 M284.428 191.633 C 284.444 192.605,284.621 193.760,284.821 194.200 C 285.062 194.728,285.104 194.184,284.943 192.600 C 284.649 189.699,284.390 189.212,284.428 191.633 M115.018 192.726 C 114.853 193.895,114.813 194.946,114.929 195.062 C 115.214 195.347,115.731 191.787,115.500 191.125 C 115.400 190.836,115.182 191.557,115.018 192.726 M39.000 193.831 C 38.120 194.357,37.670 194.789,38.000 194.791 C 38.330 194.794,39.140 194.353,39.800 193.812 C 41.289 192.592,41.066 192.597,39.000 193.831 M285.256 196.200 C 285.256 196.640,285.411 197.360,285.600 197.800 L 285.944 198.600 285.944 197.800 C 285.944 197.360,285.789 196.640,285.600 196.200 L 285.256 195.400 285.256 196.200 M356.969 196.700 C 356.672 198.029,355.538 201.247,354.643 203.300 C 354.283 204.125,354.077 204.800,354.185 204.800 C 354.292 204.800,354.740 204.010,355.179 203.045 C 356.471 200.211,357.855 195.600,357.415 195.600 C 357.305 195.600,357.105 196.095,356.969 196.700 M114.273 196.553 C 114.123 196.945,114.011 197.566,114.025 197.933 C 114.042 198.375,114.181 198.274,114.437 197.634 C 114.649 197.103,114.761 196.482,114.685 196.254 C 114.609 196.027,114.424 196.161,114.273 196.553 M113.400 199.600 C 113.250 200.073,113.217 200.550,113.327 200.660 C 113.437 200.770,113.650 200.473,113.800 200.000 C 113.950 199.527,113.983 199.050,113.873 198.940 C 113.763 198.830,113.550 199.127,113.400 199.600 M286.028 199.051 C 285.988 199.694,287.210 202.524,287.432 202.302 C 287.534 202.200,287.266 201.325,286.837 200.358 C 286.408 199.391,286.044 198.803,286.028 199.051 M38.900 199.887 C 39.505 199.978,40.495 199.978,41.100 199.887 C 41.705 199.795,41.210 199.720,40.000 199.720 C 38.790 199.720,38.295 199.795,38.900 199.887 M43.248 200.902 C 43.825 201.396,45.040 203.208,45.948 204.930 C 50.845 214.213,59.176 220.800,69.600 223.631 C 73.895 224.798,83.665 224.922,87.000 223.852 C 88.568 223.350,88.697 223.253,87.600 223.406 C 81.592 224.244,79.763 224.372,76.600 224.180 C 66.209 223.549,55.551 217.992,49.788 210.200 C 49.137 209.320,48.514 208.510,48.402 208.400 C 48.141 208.141,47.344 206.740,45.902 204.000 C 44.653 201.628,43.320 199.999,42.630 200.002 C 42.394 200.003,42.672 200.408,43.248 200.902 M287.607 202.946 C 287.597 203.414,289.694 207.240,289.866 207.068 C 289.941 206.993,289.465 205.957,288.808 204.766 C 288.152 203.575,287.611 202.756,287.607 202.946 M111.028 205.061 C 110.456 206.084,110.069 207.002,110.167 207.101 C 110.266 207.199,110.811 206.362,111.380 205.240 C 112.673 202.688,112.425 202.562,111.028 205.061 M353.170 206.066 C 352.898 206.580,352.413 207.405,352.092 207.900 C 351.771 208.395,351.595 208.800,351.701 208.800 C 352.036 208.800,354.069 205.536,353.862 205.329 C 353.754 205.220,353.442 205.552,353.170 206.066 M108.614 208.900 C 106.017 213.350,98.841 219.018,92.400 221.707 C 91.630 222.028,90.550 222.497,90.000 222.748 L 89.000 223.204 90.000 222.977 C 94.139 222.036,100.748 217.958,104.949 213.752 C 107.707 210.991,110.329 207.600,109.705 207.600 C 109.522 207.600,109.031 208.185,108.614 208.900 M290.645 208.612 C 291.010 209.169,291.386 209.547,291.482 209.451 C 291.719 209.214,290.684 207.600,290.295 207.600 C 290.122 207.600,290.280 208.056,290.645 208.612 M350.800 209.599 C 350.800 209.818,349.540 211.324,347.999 212.946 C 341.715 219.562,333.041 223.629,323.951 224.221 C 320.665 224.435,318.875 224.309,312.400 223.406 C 311.304 223.253,311.434 223.350,313.000 223.852 C 317.986 225.450,329.753 224.584,335.000 222.233 C 335.660 221.937,336.920 221.370,337.800 220.973 C 342.401 218.896,353.460 209.200,351.227 209.200 C 350.992 209.200,350.800 209.379,350.800 209.599 M293.263 211.914 C 295.777 214.685,298.265 216.851,301.000 218.650 C 304.041 220.650,307.878 222.495,310.000 222.977 L 311.000 223.204 310.000 222.754 C 309.450 222.507,308.550 222.124,308.000 221.903 C 303.020 219.905,298.410 216.767,294.701 212.850 C 291.687 209.666,290.555 208.930,293.263 211.914 M173.900 233.500 C 188.255 233.558,211.745 233.558,226.100 233.500 C 240.455 233.442,228.710 233.394,200.000 233.394 C 171.290 233.394,159.545 233.442,173.900 233.500 M33.200 252.083 C 30.962 252.724,27.478 254.097,26.488 254.727 C 25.072 255.628,25.731 255.731,27.250 254.846 C 27.992 254.413,29.770 253.641,31.200 253.130 L 33.800 252.200 62.000 251.991 L 90.200 251.782 62.400 251.732 C 44.852 251.700,34.084 251.830,33.200 252.083 M106.697 252.400 C 106.568 252.950,106.009 255.020,105.456 257.000 C 104.903 258.980,104.356 262.040,104.240 263.800 L 104.028 267.000 104.577 263.200 C 105.124 259.414,106.026 255.573,106.848 253.520 C 107.086 252.927,107.202 252.207,107.106 251.920 C 107.011 251.634,106.827 251.850,106.697 252.400 M292.959 252.400 C 293.060 252.950,293.532 254.750,294.006 256.400 C 294.480 258.050,295.114 261.020,295.414 263.000 L 295.960 266.600 295.752 263.400 C 295.638 261.640,295.389 259.660,295.198 259.000 C 294.395 256.212,292.789 251.480,292.959 252.400 M363.233 251.749 C 363.325 251.831,364.300 252.001,365.400 252.128 C 366.749 252.284,367.074 252.249,366.400 252.020 C 365.401 251.680,362.918 251.468,363.233 251.749 M372.200 254.400 C 372.336 254.620,372.629 254.800,372.852 254.800 C 374.758 254.800,381.298 261.182,383.546 265.236 C 385.491 268.744,385.777 268.601,383.900 265.059 C 382.257 261.959,377.785 257.213,374.792 255.395 C 372.425 253.957,371.771 253.706,372.200 254.400 M23.153 256.976 C 7.216 268.671,10.823 295.369,29.273 302.282 C 30.443 302.721,32.030 303.326,32.800 303.627 C 34.410 304.258,120.800 304.721,120.800 304.099 C 120.800 303.914,119.765 302.778,118.500 301.575 C 117.235 300.373,115.327 298.401,114.260 297.194 C 112.961 295.726,112.618 295.463,113.222 296.400 C 113.719 297.170,115.447 299.118,117.063 300.729 C 118.678 302.339,120.000 303.734,120.000 303.829 C 120.000 304.147,41.031 303.928,37.400 303.599 C 26.653 302.627,17.554 295.690,14.842 286.400 C 14.553 285.410,14.155 284.187,13.958 283.681 C 13.443 282.360,13.516 273.319,14.056 271.628 C 16.236 264.803,19.924 259.344,23.970 256.954 C 24.647 256.554,25.200 256.086,25.200 255.914 C 25.200 255.472,25.203 255.471,23.153 256.976 M296.120 268.800 C 296.120 270.010,296.195 270.505,296.287 269.900 C 296.378 269.295,296.378 268.305,296.287 267.700 C 296.195 267.095,296.120 267.590,296.120 268.800 M385.200 268.527 C 385.200 268.597,385.457 269.542,385.772 270.627 C 386.087 271.712,386.422 273.050,386.518 273.600 C 386.684 274.556,386.693 274.551,386.746 273.475 C 386.796 272.423,385.693 268.400,385.354 268.400 C 385.269 268.400,385.200 268.457,385.200 268.527 M104.230 273.543 C 104.573 279.398,108.442 290.990,110.472 292.245 C 110.658 292.360,110.022 290.867,109.057 288.927 C 107.526 285.845,106.326 282.648,105.409 279.200 C 105.262 278.650,104.893 276.400,104.588 274.200 L 104.034 270.200 104.230 273.543 M295.456 274.000 C 295.187 276.564,294.328 280.478,293.392 283.409 C 293.179 284.078,293.205 284.100,293.562 283.549 C 294.593 281.961,296.221 273.799,295.902 271.816 C 295.830 271.367,295.629 272.350,295.456 274.000 M386.677 278.900 C 386.546 281.155,386.328 283.450,386.192 284.000 C 385.979 284.862,386.008 284.901,386.401 284.284 C 386.850 283.581,387.513 274.800,387.117 274.800 C 387.006 274.800,386.808 276.645,386.677 278.900 M385.119 287.062 C 384.744 288.112,384.509 289.042,384.595 289.129 C 384.850 289.383,386.038 286.289,385.914 285.695 C 385.851 285.397,385.493 286.012,385.119 287.062 M290.788 289.113 C 289.019 292.579,289.030 292.553,289.478 292.275 C 289.988 291.960,292.575 286.841,292.342 286.608 C 292.241 286.508,291.542 287.635,290.788 289.113 M383.074 291.379 C 382.514 292.381,382.131 293.200,382.223 293.200 C 382.523 293.200,384.463 289.929,384.275 289.741 C 384.174 289.641,383.634 290.378,383.074 291.379 M110.826 293.000 C 110.825 293.573,111.951 294.983,112.206 294.727 C 112.324 294.610,112.061 294.083,111.623 293.557 C 111.185 293.030,110.826 292.780,110.826 293.000 M378.897 296.323 C 377.521 297.756,376.447 298.981,376.511 299.045 C 376.731 299.264,380.372 295.962,381.214 294.780 C 382.577 292.867,381.581 293.530,378.897 296.323 M285.389 297.500 C 284.308 298.765,282.474 300.682,281.312 301.760 C 280.151 302.838,279.200 303.873,279.200 304.060 C 279.200 304.247,298.145 304.356,321.300 304.302 L 363.400 304.204 321.700 304.100 C 298.765 304.043,280.000 303.891,280.000 303.761 C 280.000 303.632,281.132 302.418,282.515 301.063 C 284.811 298.813,287.890 295.200,287.510 295.200 C 287.423 295.200,286.469 296.235,285.389 297.500 M374.084 300.266 C 373.140 300.835,372.448 301.381,372.547 301.480 C 372.724 301.657,376.000 299.633,376.000 299.347 C 376.000 299.121,375.917 299.160,374.084 300.266 M369.200 302.476 C 367.990 302.919,366.190 303.422,365.200 303.594 C 363.746 303.846,363.637 303.915,364.634 303.953 C 365.808 303.998,370.323 302.714,371.600 301.973 C 372.589 301.398,371.539 301.619,369.200 302.476 M145.907 303.890 C 146.626 303.979,147.706 303.977,148.307 303.886 C 148.908 303.795,148.320 303.722,147.000 303.724 C 145.680 303.726,145.188 303.801,145.907 303.890 M251.900 303.889 C 252.615 303.978,253.785 303.978,254.500 303.889 C 255.215 303.801,254.630 303.728,253.200 303.728 C 251.770 303.728,251.185 303.801,251.900 303.889 " stroke="none" fill="#818171" fill-rule="evenodd"></path><path id="path4" d="M198.900 98.287 C 199.505 98.378,200.495 98.378,201.100 98.287 C 201.705 98.195,201.210 98.120,200.000 98.120 C 198.790 98.120,198.295 98.195,198.900 98.287 M195.262 99.385 C 193.393 100.706,193.286 100.887,187.562 112.431 C 180.848 125.971,178.609 128.360,171.271 129.813 C 170.541 129.958,170.039 130.172,170.156 130.289 C 170.501 130.635,174.036 129.629,176.238 128.558 C 180.677 126.399,182.370 124.024,188.892 110.800 C 193.483 101.492,194.270 100.293,196.600 99.065 C 197.260 98.717,197.530 98.434,197.200 98.436 C 196.870 98.438,195.998 98.865,195.262 99.385 M203.400 99.065 C 205.770 100.314,206.567 101.548,211.702 111.918 C 218.604 125.857,223.280 130.685,229.573 130.368 C 230.211 130.336,229.612 130.110,226.400 129.171 C 220.858 127.549,218.520 124.742,212.439 112.400 C 206.519 100.384,205.100 98.343,202.721 98.416 C 202.435 98.425,202.740 98.717,203.400 99.065 M165.600 130.800 L 164.600 131.120 165.600 131.137 C 166.150 131.146,167.320 131.005,168.200 130.823 L 169.800 130.492 168.200 130.486 C 167.320 130.483,166.150 130.624,165.600 130.800 M232.200 130.823 C 234.449 131.288,236.105 131.275,235.000 130.800 C 234.560 130.611,233.390 130.464,232.400 130.474 L 230.600 130.492 232.200 130.823 M159.600 131.600 L 158.600 131.920 159.600 131.937 C 160.150 131.946,161.320 131.805,162.200 131.623 L 163.800 131.292 162.200 131.286 C 161.320 131.283,160.150 131.424,159.600 131.600 M237.800 131.600 C 239.561 132.048,241.799 132.048,240.400 131.600 C 239.850 131.424,238.770 131.283,238.000 131.287 L 236.600 131.295 237.800 131.600 M154.400 132.400 C 153.001 132.848,155.239 132.848,157.000 132.400 L 158.200 132.095 156.800 132.087 C 156.030 132.083,154.950 132.224,154.400 132.400 M243.400 132.423 C 244.280 132.605,245.450 132.746,246.000 132.737 L 247.000 132.720 246.000 132.400 C 245.450 132.224,244.280 132.083,243.400 132.086 L 241.800 132.092 243.400 132.423 M148.557 133.614 C 144.411 135.666,142.495 140.458,144.194 144.525 C 144.552 145.380,147.206 148.309,150.854 151.873 C 160.627 161.424,161.033 161.835,162.154 163.305 C 162.743 164.076,163.586 165.404,164.027 166.254 C 164.496 167.160,164.717 167.386,164.559 166.800 C 163.934 164.486,161.269 161.368,153.683 154.076 C 148.327 148.927,145.374 145.785,144.824 144.650 C 142.497 139.842,145.513 134.321,151.045 133.263 C 152.820 132.924,152.871 132.885,151.600 132.845 C 150.830 132.821,149.461 133.167,148.557 133.614 M249.482 133.373 C 254.632 134.621,257.285 139.571,255.370 144.357 C 254.923 145.477,252.224 148.396,246.028 154.465 C 236.967 163.340,234.317 166.902,234.436 170.042 C 234.459 170.629,234.751 170.114,235.192 168.710 C 236.366 164.975,237.624 163.289,243.631 157.400 C 254.475 146.770,255.177 146.030,255.787 144.569 C 257.977 139.327,253.851 132.671,248.513 132.834 C 247.737 132.858,248.030 133.021,249.482 133.373 M80.900 150.676 C 81.285 150.776,81.915 150.776,82.300 150.676 C 82.685 150.575,82.370 150.493,81.600 150.493 C 80.830 150.493,80.515 150.575,80.900 150.676 M317.700 150.676 C 318.085 150.776,318.715 150.776,319.100 150.676 C 319.485 150.575,319.170 150.493,318.400 150.493 C 317.630 150.493,317.315 150.575,317.700 150.676 M323.505 150.683 C 324.002 150.779,324.722 150.775,325.105 150.675 C 325.487 150.575,325.080 150.496,324.200 150.501 C 323.320 150.505,323.007 150.587,323.505 150.683 M104.800 161.400 C 105.995 162.610,107.063 163.600,107.173 163.600 C 107.283 163.600,106.395 162.610,105.200 161.400 C 104.005 160.190,102.937 159.200,102.827 159.200 C 102.717 159.200,103.605 160.190,104.800 161.400 M294.778 161.500 L 293.400 163.000 294.900 161.622 C 296.296 160.338,296.584 160.000,296.278 160.000 C 296.212 160.000,295.537 160.675,294.778 161.500 M164.812 168.600 C 164.812 169.040,164.987 169.670,165.200 170.000 C 165.521 170.497,165.588 170.462,165.588 169.800 C 165.588 169.360,165.413 168.730,165.200 168.400 C 164.879 167.903,164.812 167.938,164.812 168.600 M165.731 173.800 C 165.733 175.340,165.805 175.921,165.892 175.091 C 165.979 174.261,165.977 173.001,165.889 172.291 C 165.800 171.581,165.729 172.260,165.731 173.800 M234.120 173.600 C 234.120 174.810,234.195 175.305,234.287 174.700 C 234.378 174.095,234.378 173.105,234.287 172.500 C 234.195 171.895,234.120 172.390,234.120 173.600 M40.900 172.676 C 41.285 172.776,41.915 172.776,42.300 172.676 C 42.685 172.575,42.370 172.493,41.600 172.493 C 40.830 172.493,40.515 172.575,40.900 172.676 M234.475 177.600 C 234.465 178.370,234.611 179.360,234.800 179.800 C 235.257 180.864,235.257 179.197,234.800 177.400 L 234.495 176.200 234.475 177.600 M165.089 178.000 C 164.936 178.550,164.827 179.540,164.846 180.200 C 164.877 181.292,164.914 181.258,165.252 179.811 C 165.675 178.006,165.531 176.411,165.089 178.000 M235.287 182.200 C 235.291 182.860,235.432 183.940,235.600 184.600 L 235.905 185.800 235.913 184.400 C 235.917 183.630,235.776 182.550,235.600 182.000 C 235.289 181.030,235.280 181.035,235.287 182.200 M164.282 182.750 C 164.127 183.493,164.020 184.572,164.044 185.150 C 164.073 185.842,164.210 185.587,164.447 184.400 C 164.645 183.410,164.752 182.330,164.685 182.000 C 164.619 181.670,164.438 182.008,164.282 182.750 M115.748 187.600 C 115.748 189.910,115.814 190.855,115.895 189.700 C 115.976 188.545,115.976 186.655,115.895 185.500 C 115.814 184.345,115.748 185.290,115.748 187.600 M358.546 187.800 C 358.547 190.000,358.614 190.849,358.695 189.687 C 358.776 188.524,358.776 186.724,358.693 185.687 C 358.611 184.649,358.545 185.600,358.546 187.800 M41.340 188.000 C 41.340 189.870,41.409 190.635,41.493 189.700 C 41.577 188.765,41.577 187.235,41.493 186.300 C 41.409 185.365,41.340 186.130,41.340 188.000 M284.134 187.600 C 284.134 189.250,284.205 189.925,284.291 189.100 C 284.378 188.275,284.378 186.925,284.291 186.100 C 284.205 185.275,284.134 185.950,284.134 187.600 M236.080 187.000 C 236.080 187.660,236.224 188.650,236.400 189.200 C 236.711 190.172,236.720 190.167,236.720 189.000 C 236.720 188.340,236.576 187.350,236.400 186.800 C 236.089 185.828,236.080 185.833,236.080 187.000 M163.489 187.200 C 163.336 187.750,163.228 188.830,163.249 189.600 C 163.286 190.946,163.301 190.931,163.647 189.200 C 164.051 187.177,163.928 185.623,163.489 187.200 M236.868 191.600 C 236.887 193.250,237.517 194.956,237.532 193.400 C 237.538 192.740,237.389 191.840,237.200 191.400 C 236.887 190.673,236.857 190.691,236.868 191.600 M162.689 192.000 C 162.536 192.550,162.427 193.540,162.446 194.200 C 162.477 195.292,162.514 195.258,162.852 193.811 C 163.275 192.006,163.131 190.411,162.689 192.000 M195.000 194.126 C 193.853 194.547,189.281 196.853,177.697 202.853 C 169.880 206.902,165.911 206.400,163.065 201.000 C 162.717 200.340,162.425 200.035,162.416 200.321 C 162.327 203.216,168.393 206.861,171.816 205.969 C 173.169 205.617,180.599 202.067,181.800 201.199 C 182.727 200.528,194.320 194.878,195.628 194.458 C 199.729 193.143,204.290 193.965,210.400 197.121 C 219.516 201.830,225.419 204.926,225.800 205.198 C 226.722 205.858,229.966 206.386,230.870 206.024 C 231.628 205.720,231.411 205.646,229.698 205.625 C 227.511 205.599,227.972 205.808,214.200 198.600 C 212.440 197.679,210.367 196.564,209.593 196.122 C 205.503 193.786,198.525 192.831,195.000 194.126 M237.661 197.600 C 237.653 199.366,237.725 199.615,238.027 198.861 C 238.257 198.287,238.261 197.433,238.037 196.661 C 237.707 195.521,237.671 195.610,237.661 197.600 M162.114 197.800 C 162.117 198.900,162.195 199.303,162.287 198.695 C 162.379 198.086,162.377 197.186,162.282 196.695 C 162.187 196.203,162.111 196.700,162.114 197.800 M237.018 200.852 C 236.699 202.049,234.775 204.004,233.000 204.937 C 232.340 205.284,232.029 205.575,232.309 205.584 C 233.942 205.635,237.942 201.549,237.482 200.299 C 237.381 200.025,237.172 200.273,237.018 200.852 M347.387 214.100 L 345.000 216.600 347.500 214.213 C 348.875 212.899,350.000 211.774,350.000 211.713 C 350.000 211.417,349.605 211.778,347.387 214.100 M52.200 214.000 C 53.059 214.880,53.852 215.600,53.962 215.600 C 54.072 215.600,53.459 214.880,52.600 214.000 C 51.741 213.120,50.948 212.400,50.838 212.400 C 50.728 212.400,51.341 213.120,52.200 214.000 M102.975 215.700 L 101.800 217.000 103.100 215.825 C 104.312 214.730,104.584 214.400,104.275 214.400 C 104.206 214.400,103.621 214.985,102.975 215.700 M295.600 214.525 C 295.600 214.594,296.185 215.179,296.900 215.825 L 298.200 217.000 297.025 215.700 C 295.930 214.488,295.600 214.216,295.600 214.525 M78.300 225.082 C 78.795 225.178,79.605 225.178,80.100 225.082 C 80.595 224.987,80.190 224.909,79.200 224.909 C 78.210 224.909,77.805 224.987,78.300 225.082 M319.900 225.089 C 320.615 225.178,321.785 225.178,322.500 225.089 C 323.215 225.001,322.630 224.928,321.200 224.928 C 319.770 224.928,319.185 225.001,319.900 225.089 M144.623 233.147 C 143.975 233.286,168.895 233.400,200.000 233.400 C 231.105 233.400,256.025 233.286,255.377 233.147 C 254.730 233.008,229.810 232.895,200.000 232.895 C 170.190 232.895,145.270 233.008,144.623 233.147 M139.600 234.178 C 130.595 236.713,123.112 242.541,118.972 250.244 C 116.689 254.490,114.785 259.242,114.822 260.598 C 114.834 261.039,115.374 259.809,116.021 257.864 C 116.669 255.918,117.765 253.308,118.457 252.064 C 119.149 250.819,120.094 249.080,120.557 248.200 C 123.606 242.403,131.703 236.973,141.600 234.090 C 142.370 233.865,142.640 233.679,142.200 233.677 C 141.760 233.674,140.590 233.900,139.600 234.178 M258.400 234.077 C 268.162 236.831,276.350 242.327,279.442 248.200 C 279.906 249.080,280.827 250.790,281.489 252.000 C 282.151 253.210,283.022 255.084,283.425 256.164 C 283.828 257.244,284.234 257.899,284.327 257.619 C 284.700 256.500,279.222 246.636,276.846 244.146 C 271.842 238.904,261.985 233.447,257.869 233.641 C 257.270 233.669,257.435 233.804,258.400 234.077 M71.778 251.499 C 99.284 251.581,107.032 251.713,107.308 252.102 C 107.568 252.469,107.618 252.442,107.497 252.000 C 107.353 251.472,103.062 251.400,71.967 251.397 L 36.600 251.393 71.778 251.499 M292.667 251.467 C 292.520 251.613,292.403 251.928,292.406 252.167 C 292.410 252.425,292.540 252.399,292.728 252.102 C 292.976 251.713,300.731 251.582,328.422 251.500 L 363.800 251.396 328.367 251.298 C 308.878 251.244,292.813 251.320,292.667 251.467 M379.583 259.300 C 380.564 260.345,381.419 261.200,381.483 261.200 C 381.784 261.200,381.466 260.841,379.700 259.183 L 377.800 257.400 379.583 259.300 M284.434 259.000 C 284.472 260.366,285.138 261.642,285.166 260.400 C 285.178 259.850,285.013 259.130,284.800 258.800 C 284.480 258.305,284.416 258.340,284.434 259.000 M114.250 262.850 C 113.929 264.453,113.998 273.510,114.340 274.724 C 114.483 275.232,114.600 272.487,114.600 268.624 C 114.600 264.761,114.578 261.600,114.550 261.600 C 114.522 261.600,114.388 262.163,114.250 262.850 M285.475 264.400 C 285.601 266.050,285.771 267.475,285.852 267.567 C 286.147 267.899,285.911 263.374,285.583 262.400 C 285.375 261.785,285.334 262.554,285.475 264.400 M104.493 264.400 C 104.493 265.170,104.575 265.485,104.676 265.100 C 104.776 264.715,104.776 264.085,104.676 263.700 C 104.575 263.315,104.493 263.630,104.493 264.400 M295.728 268.800 C 295.728 270.230,295.801 270.815,295.889 270.100 C 295.978 269.385,295.978 268.215,295.889 267.500 C 295.801 266.785,295.728 267.370,295.728 268.800 M104.114 268.600 C 104.117 269.700,104.195 270.103,104.287 269.495 C 104.379 268.886,104.377 267.986,104.282 267.495 C 104.187 267.003,104.111 267.500,104.114 268.600 M285.674 270.844 C 285.633 271.638,285.511 273.168,285.402 274.244 C 285.218 276.057,285.234 276.103,285.621 274.868 C 285.851 274.135,285.974 272.605,285.894 271.468 C 285.790 269.990,285.727 269.812,285.674 270.844 M104.493 272.800 C 104.493 273.570,104.575 273.885,104.676 273.500 C 104.776 273.115,104.776 272.485,104.676 272.100 C 104.575 271.715,104.493 272.030,104.493 272.800 M387.331 277.800 C 387.333 279.340,387.405 279.921,387.492 279.091 C 387.579 278.261,387.577 277.001,387.489 276.291 C 387.400 275.581,387.329 276.260,387.331 277.800 M12.514 277.800 C 12.517 278.900,12.595 279.303,12.687 278.695 C 12.779 278.086,12.777 277.186,12.682 276.695 C 12.587 276.203,12.511 276.700,12.514 277.800 M114.834 276.800 C 114.822 277.350,114.987 278.070,115.200 278.400 C 115.709 279.187,115.709 277.784,115.200 276.600 C 114.885 275.867,114.854 275.884,114.834 276.800 M284.233 278.862 C 283.826 280.258,282.980 282.469,282.355 283.776 C 281.730 285.082,281.292 286.225,281.382 286.315 C 281.879 286.812,285.438 277.715,285.120 276.761 C 285.040 276.520,284.641 277.465,284.233 278.862 M115.600 279.641 C 115.600 282.080,120.897 290.428,124.855 294.226 C 128.637 297.855,135.175 302.159,135.862 301.471 C 135.962 301.371,134.954 300.774,133.622 300.145 C 132.290 299.516,131.200 298.866,131.200 298.701 C 131.200 298.535,131.022 298.400,130.804 298.400 C 128.005 298.400,119.409 288.211,116.975 282.007 C 115.898 279.262,115.600 278.749,115.600 279.641 M279.825 288.434 C 278.022 291.158,272.913 296.233,270.178 298.014 C 267.624 299.678,266.765 300.467,268.500 299.555 C 272.434 297.486,278.854 291.236,280.822 287.559 C 281.536 286.224,280.943 286.745,279.825 288.434 M18.175 294.132 C 18.791 294.939,19.376 295.600,19.475 295.600 C 19.753 295.600,18.021 293.260,17.509 292.944 C 17.259 292.789,17.559 293.324,18.175 294.132 M112.364 294.733 C 112.580 295.136,113.071 295.721,113.455 296.033 C 113.887 296.384,113.790 296.104,113.201 295.300 C 112.151 293.865,111.757 293.598,112.364 294.733 M263.400 301.600 C 262.520 302.007,262.003 302.354,262.251 302.370 C 262.810 302.407,265.600 301.261,265.600 300.995 C 265.600 300.677,265.091 300.817,263.400 301.600 M136.800 302.000 C 137.130 302.213,137.670 302.388,138.000 302.388 C 138.533 302.388,138.533 302.345,138.000 302.000 C 137.670 301.787,137.130 301.612,136.800 301.612 C 136.267 301.612,136.267 301.655,136.800 302.000 M119.901 302.826 C 120.396 303.390,120.800 303.974,120.800 304.124 C 120.800 304.274,102.485 304.443,80.100 304.500 L 39.400 304.604 80.276 304.702 C 102.758 304.756,121.247 304.648,121.362 304.461 C 121.477 304.275,120.994 303.600,120.287 302.961 C 119.226 302.002,119.159 301.978,119.901 302.826 M279.411 303.188 C 277.774 304.897,275.548 304.816,320.800 304.701 L 362.200 304.596 320.700 304.498 C 297.875 304.444,279.200 304.277,279.200 304.126 C 279.200 303.975,279.591 303.435,280.070 302.926 C 280.548 302.417,280.852 302.000,280.745 302.000 C 280.637 302.000,280.037 302.535,279.411 303.188 M139.200 302.800 C 139.530 303.013,140.070 303.188,140.400 303.188 C 140.933 303.188,140.933 303.145,140.400 302.800 C 140.070 302.587,139.530 302.412,139.200 302.412 C 138.667 302.412,138.667 302.455,139.200 302.800 M259.800 302.800 L 259.000 303.144 259.800 303.166 C 260.240 303.178,260.870 303.013,261.200 302.800 C 261.995 302.286,260.996 302.286,259.800 302.800 M142.200 303.600 C 142.640 303.789,143.450 303.938,144.000 303.932 L 145.000 303.920 144.000 303.600 C 143.450 303.424,142.640 303.274,142.200 303.268 L 141.400 303.256 142.200 303.600 M256.200 303.600 C 255.471 303.913,255.488 303.944,256.400 303.944 C 256.950 303.944,257.760 303.789,258.200 303.600 C 258.929 303.287,258.912 303.256,258.000 303.256 C 257.450 303.256,256.640 303.411,256.200 303.600 M149.000 304.400 C 150.635 304.816,248.992 304.838,251.000 304.423 C 251.880 304.241,229.020 304.093,200.200 304.093 C 171.380 304.094,148.340 304.232,149.000 304.400 " stroke="none" fill="#7c6c32" fill-rule="evenodd"></path></g></svg>